<svg width="77" height="55" viewBox="0 0 77 55" fill="none" xmlns="http://www.w3.org/2000/svg">
<rect y="0.445312" width="77" height="54" rx="5" fill="#FDFFFC"/>
<g clip-path="url(#clip0_3990_13334)">
<path d="M37.9062 19.8515H26.5V8.44531H37.9062V19.8515Z" fill="#F1511B"/>
<path d="M50.5 19.8515H39.0939V8.44531H50.5V19.8515Z" fill="#80CC28"/>
<path d="M37.9059 32.4453H26.5V21.0391H37.9059V32.4453Z" fill="#00ADEF"/>
<path d="M50.5 32.4453H39.0939V21.0391H50.5V32.4453Z" fill="#FBBC09"/>
</g>
<path d="M23.2177 35.1653V43.4453H22.1857V39.1853C22.1857 38.1533 22.1857 37.0013 22.2097 36.1013C21.9337 37.0013 21.5497 38.1653 21.2017 39.1733L19.7377 43.4453H18.4417L16.9537 39.1493C16.6177 38.1653 16.2337 37.0133 15.9697 36.1253C15.9937 37.0253 15.9937 38.1653 15.9937 39.1853V43.4453H14.9617V35.1653H16.6657L19.1137 42.5693L21.5497 35.1653H23.2177ZM25.5603 34.9973C25.9323 34.9973 26.2203 35.2853 26.2203 35.6573C26.2203 36.0293 25.9323 36.3173 25.5603 36.3173C25.1883 36.3173 24.9003 36.0293 24.9003 35.6573C24.9003 35.2853 25.1883 34.9973 25.5603 34.9973ZM26.0763 43.4453H25.0443V37.0853H26.0763V43.4453ZM30.3636 36.9173C31.8876 36.9173 32.8596 37.8293 33.0516 39.2213H31.9716C31.7436 38.2013 31.1916 37.7093 30.3396 37.7093C29.3436 37.7093 28.5036 38.4893 28.5036 40.2053C28.5036 42.0533 29.3196 42.8213 30.2676 42.8213C31.1076 42.8213 31.6956 42.3413 31.9116 41.4173H32.9916C32.6796 42.8933 31.6236 43.6133 30.2076 43.6133C28.5996 43.6133 27.3756 42.6053 27.3756 40.2773C27.3756 38.1293 28.7676 36.9173 30.3636 36.9173ZM36.7512 36.9413C36.9192 36.9413 37.0632 36.9653 37.1832 37.0253V37.8053C36.1032 37.7333 35.2872 38.3693 35.2872 39.8213V43.4453H34.2552V37.0853H35.2872V38.0813L35.8632 37.2293C36.1272 37.0493 36.4512 36.9413 36.7512 36.9413ZM40.7035 36.9173C42.8635 36.9173 43.8595 38.4653 43.8595 40.2653C43.8595 42.0533 42.8635 43.6133 40.7035 43.6133C38.5435 43.6133 37.5475 42.0533 37.5475 40.2653C37.5475 38.4653 38.5435 36.9173 40.7035 36.9173ZM40.7035 42.8213C41.9875 42.8213 42.7315 41.7533 42.7315 40.2653C42.7315 38.7653 41.9875 37.7093 40.7035 37.7093C39.4195 37.7093 38.6755 38.7653 38.6755 40.2653C38.6755 41.7533 39.4195 42.8213 40.7035 42.8213ZM46.9548 36.9173C48.3828 36.9173 49.1628 37.7333 49.2948 38.8973H48.2148C48.0708 38.1533 47.6148 37.7093 46.8708 37.7093C46.1508 37.7093 45.8148 38.1053 45.8148 38.6573C45.8148 39.2933 46.3428 39.5453 47.2068 39.7733C48.6708 40.1573 49.3668 40.7333 49.3668 41.8133C49.3668 43.0133 48.3468 43.6133 47.0028 43.6133C45.6948 43.6133 44.6988 43.0133 44.5068 41.5733H45.5868C45.7548 42.4973 46.3428 42.8213 47.0748 42.8213C47.7588 42.8213 48.3108 42.5093 48.3108 41.8973C48.3108 41.2853 47.8788 40.9613 46.8108 40.6733C45.6708 40.3613 44.7588 39.8933 44.7588 38.7773C44.7588 37.6133 45.6468 36.9173 46.9548 36.9173ZM53.2426 36.9173C55.4026 36.9173 56.3986 38.4653 56.3986 40.2653C56.3986 42.0533 55.4026 43.6133 53.2426 43.6133C51.0826 43.6133 50.0866 42.0533 50.0866 40.2653C50.0866 38.4653 51.0826 36.9173 53.2426 36.9173ZM53.2426 42.8213C54.5266 42.8213 55.2706 41.7533 55.2706 40.2653C55.2706 38.7653 54.5266 37.7093 53.2426 37.7093C51.9586 37.7093 51.2146 38.7653 51.2146 40.2653C51.2146 41.7533 51.9586 42.8213 53.2426 42.8213ZM58.7618 35.8613C58.7378 36.0293 58.7258 36.3293 58.7258 36.5093V37.1333H60.0338V37.9253H58.7258V43.4453H57.6938V37.9253H57.0098V37.1333H57.6938V36.6053C57.6938 36.3653 57.7058 36.0533 57.7298 35.8373C57.8378 34.9133 58.4618 34.3973 59.4098 34.3973C59.6738 34.3973 59.9258 34.4213 60.1418 34.4573V35.3093C59.3618 35.1653 58.8458 35.3453 58.7618 35.8613ZM62.3623 37.9253V41.5853C62.3623 41.8013 62.3623 41.9093 62.3743 42.0773C62.4223 42.6893 62.6743 42.8213 63.4783 42.7253V43.4813C63.1783 43.5293 62.8903 43.5413 62.6023 43.5413C61.8103 43.5413 61.4023 43.2173 61.3423 42.4253C61.3303 42.2573 61.3303 41.9933 61.3303 41.6333V37.9253H60.4783V37.1333H61.3303V35.6573H62.3623V37.1333H63.5503V37.9253H62.3623Z" fill="#414141"/>
<defs>
<clipPath id="clip0_3990_13334">
<rect width="24" height="24" fill="white" transform="translate(26.5 8.44531)"/>
</clipPath>
</defs>
</svg>
