<svg width="77" height="55" viewBox="0 0 77 55" fill="none" xmlns="http://www.w3.org/2000/svg">
<rect y="0.445312" width="77" height="54" rx="5" fill="#FDFFFC"/>
<path d="M34.9971 26.7701H42.3441C45.8361 26.6851 48.5841 23.7681 48.4981 20.2961C48.4131 16.9101 45.6881 14.2061 42.3441 14.1211H34.9971C31.5051 14.0361 28.5871 16.7831 28.5021 20.2751C28.4802 21.1044 28.6222 21.93 28.9198 22.7044C29.2174 23.4788 29.6648 24.187 30.2364 24.7883C30.808 25.3896 31.4926 25.8723 32.251 26.2088C33.0094 26.5452 33.8266 26.7288 34.6561 26.7491C34.7631 26.7701 34.8701 26.7701 34.9971 26.7701ZM42.1721 24.5341H35.1461C32.8891 24.4701 31.1211 22.5741 31.1861 20.3181C31.2701 18.1671 32.9961 16.4211 35.1461 16.3571H42.1731C44.4311 16.2931 46.3261 18.0601 46.3901 20.3171C46.4541 22.5751 44.6861 24.4701 42.4291 24.5341H42.1721Z" fill="#EA1B22"/>
<path d="M25.8901 34.9973C28.4101 34.9973 29.8021 36.7733 29.8021 39.3053C29.8021 41.8253 28.4101 43.6133 25.8901 43.6133C23.3701 43.6133 21.9781 41.8253 21.9781 39.3053C21.9781 36.7733 23.3701 34.9973 25.8901 34.9973ZM25.8901 42.7973C27.6301 42.7973 28.6501 41.4533 28.6501 39.3053C28.6501 37.1453 27.6301 35.8133 25.8901 35.8133C24.1501 35.8133 23.1301 37.1453 23.1301 39.3053C23.1301 41.4533 24.1501 42.7973 25.8901 42.7973ZM33.6457 36.9413C33.8137 36.9413 33.9577 36.9653 34.0777 37.0253V37.8053C32.9977 37.7333 32.1817 38.3693 32.1817 39.8213V43.4453H31.1497V37.0853H32.1817V38.0813L32.7577 37.2293C33.0217 37.0493 33.3457 36.9413 33.6457 36.9413ZM38.7587 43.4453L38.6507 42.5333L38.3027 43.2173C37.8707 43.5173 37.3187 43.6133 36.7067 43.6133C35.5547 43.6133 34.6547 42.9773 34.6547 41.8013C34.6547 40.3613 35.7347 39.6173 38.2307 39.6173H38.6387V39.4493C38.6387 39.1733 38.6387 38.9213 38.6147 38.6813C38.5667 38.0933 38.2307 37.7093 37.3787 37.7093C36.5147 37.7093 36.0827 38.1773 36.0107 39.0533H34.9307C35.0267 37.6973 35.9747 36.9173 37.3787 36.9173C38.8907 36.9173 39.5267 37.5533 39.6347 38.5973C39.6587 38.8493 39.6707 39.1613 39.6707 39.4373V41.8253C39.6707 42.3053 39.6947 42.7373 39.7907 43.4453H38.7587ZM37.0547 42.8213C38.0147 42.8213 38.6387 42.1853 38.6387 41.0333V40.3853C36.8867 40.2533 35.7827 40.6253 35.7827 41.7173C35.7827 42.4853 36.2747 42.8213 37.0547 42.8213ZM43.9457 36.9173C45.4697 36.9173 46.4417 37.8293 46.6337 39.2213H45.5537C45.3257 38.2013 44.7737 37.7093 43.9217 37.7093C42.9257 37.7093 42.0857 38.4893 42.0857 40.2053C42.0857 42.0533 42.9017 42.8213 43.8497 42.8213C44.6897 42.8213 45.2777 42.3413 45.4937 41.4173H46.5737C46.2617 42.8933 45.2057 43.6133 43.7897 43.6133C42.1817 43.6133 40.9577 42.6053 40.9577 40.2773C40.9577 38.1293 42.3497 36.9173 43.9457 36.9173ZM48.8212 34.6253V41.6213C48.8212 41.8133 48.8212 42.0173 48.8332 42.2213C48.8572 42.6293 49.0492 42.7613 49.6132 42.7013V43.4453C49.3852 43.4813 49.1212 43.4933 48.8812 43.4933C48.2812 43.4933 47.8372 43.3013 47.8012 42.4973C47.7892 42.2813 47.7892 42.0053 47.7892 41.6573V34.6253H48.8212ZM56.0221 40.0853C56.0221 40.1813 56.0221 40.3493 55.9981 40.5773H51.3901C51.4861 42.2573 52.2781 42.8213 53.2141 42.8213C54.0421 42.8213 54.7141 42.3053 54.8581 41.3933H55.9381C55.6861 42.9293 54.4741 43.6133 53.1661 43.6133C51.5101 43.6133 50.2741 42.5333 50.2741 40.2893C50.2741 38.2253 51.5581 36.9173 53.2981 36.9173C55.0501 36.9173 56.0221 38.2253 56.0221 40.0853ZM53.2741 37.7093C52.2661 37.7093 51.5221 38.4293 51.4021 39.7853H54.9781C54.8821 38.4653 54.3181 37.7093 53.2741 37.7093Z" fill="#414141"/>
</svg>
