<svg width="77" height="54" viewBox="0 0 77 54" fill="none" xmlns="http://www.w3.org/2000/svg">
<rect y="0.445312" width="77" height="52.875" rx="5" fill="#FDFFFC"/>
<g clip-path="url(#clip0_3990_13323)">
<path d="M35.2411 29.2848C34.7758 29.2848 34.3045 29.1881 33.8513 28.9888L24.1835 24.6805C22.4554 23.9131 21.676 21.8769 22.4433 20.1488L26.7515 10.481C27.5188 8.75273 29.5552 7.97331 31.2835 8.7407L40.9512 13.0489C42.6794 13.8163 43.4588 15.8526 42.6914 17.5807L38.3833 27.2485C37.8091 28.5295 36.5523 29.2848 35.2412 29.2848M34.655 27.176C35.3862 27.5022 36.2442 27.1701 36.5704 26.4449L40.8787 16.7771C41.205 16.0459 40.8727 15.188 40.1475 14.8617L30.4738 10.5535C29.7426 10.2271 28.8846 10.5595 28.5583 11.2846L24.2501 20.9524C23.9238 21.6835 24.2561 22.5415 24.9812 22.8678L34.655 27.176Z" fill="#089949"/>
<path d="M65.5679 29.2903H54.9816C53.0904 29.2903 51.5496 27.7494 51.5496 25.8582V15.2719C51.5496 13.3806 53.0904 11.8398 54.9816 11.8398H65.5679C67.4591 11.8398 69 13.3806 69 15.2719V25.8582C69 27.7494 67.4591 29.2903 65.5679 29.2903ZM54.9816 13.8217C54.1841 13.8217 53.5315 14.4743 53.5315 15.2719V25.8582C53.5315 26.6557 54.1841 27.3083 54.9816 27.3083H65.5679C66.3655 27.3083 67.0181 26.6557 67.0181 25.8582V15.2719C67.0181 14.4743 66.3655 13.8217 65.5679 13.8217H54.9816Z" fill="#F9B21D"/>
<path d="M25.9239 17.2118L24.4979 20.4021C24.4798 20.4383 24.4617 20.4686 24.4435 20.4987L24.9995 23.9308C25.1263 24.7224 24.5884 25.4656 23.803 25.5925L13.3496 27.2843C12.9698 27.3449 12.5813 27.2538 12.2681 27.0305C11.9539 26.807 11.7485 26.4686 11.688 26.088L9.99619 15.6346C9.93555 15.2547 10.0267 14.8663 10.25 14.553C10.4735 14.2388 10.8119 14.0334 11.1926 13.973L21.6459 12.2811C21.7245 12.2691 21.803 12.263 21.8755 12.263C22.5704 12.263 23.1927 12.7705 23.3075 13.4836L23.8695 16.9399L25.3438 13.6346L25.2653 13.1693C24.9632 11.3023 23.1988 10.0273 21.3318 10.3295L10.8784 12.0213C10.4339 12.0891 10.0075 12.2454 9.62448 12.481C9.24147 12.7166 8.90966 13.0267 8.64871 13.3929C8.11091 14.1361 7.89944 15.0424 8.04455 15.9489L9.73635 26.4023C9.88134 27.3086 10.3708 28.1 11.114 28.6378C11.7001 29.0668 12.395 29.2844 13.1141 29.2844C13.2953 29.2844 13.4826 29.2722 13.6699 29.2421L24.1233 27.5503C25.9903 27.248 27.2653 25.4837 26.9631 23.6166L25.9239 17.2118Z" fill="#E42527"/>
<path d="M38.4619 22.2023L39.9965 18.7642L39.5615 15.5677C39.5071 15.1872 39.6099 14.8064 39.8456 14.4983C40.0812 14.1902 40.4196 13.9907 40.8062 13.9424L51.2958 12.5163C51.3623 12.5103 51.4288 12.5043 51.4953 12.5043C51.8094 12.5043 52.1116 12.607 52.3714 12.8004C52.4197 12.8366 52.462 12.8789 52.5043 12.9151C52.9787 12.4172 53.591 12.0722 54.2627 11.9243C54.0674 11.6554 53.8332 11.4171 53.5677 11.2173C52.8367 10.6614 51.9363 10.4257 51.03 10.5465L40.5284 11.9726C39.622 12.0934 38.8123 12.5648 38.2623 13.2958C37.7065 14.027 37.4709 14.9273 37.5917 15.8336L38.4619 22.2023ZM56.3111 23.9727L54.9333 13.8216C54.16 13.8458 53.5376 14.4861 53.5376 15.2656V18.2445L54.3533 24.2385C54.4077 24.6193 54.305 24.9998 54.0693 25.308C53.8336 25.6163 53.4953 25.8156 53.1086 25.8639L42.6189 27.2901C42.2383 27.3444 41.8576 27.2417 41.5495 27.006C41.2414 26.7704 41.042 26.432 40.9936 26.0453L40.5101 22.4863L38.9754 25.9243L39.0298 26.3111C39.1506 27.2175 39.6219 28.0272 40.3531 28.577C40.9573 29.0362 41.6764 29.2779 42.4256 29.2779C42.5828 29.2779 42.7399 29.2659 42.8969 29.2477L53.3744 27.8338C54.2808 27.713 55.0905 27.2417 55.6404 26.5105C56.1962 25.7794 56.4319 24.879 56.3111 23.9727Z" fill="#226DB4"/>
</g>
<path d="M18.8788 41.4803V42.3203H12.6028V41.5283L17.6068 34.8803H12.9388V34.0403H18.8068V34.8683L13.8268 41.4803H18.8788ZM22.6566 35.7923C24.8166 35.7923 25.8126 37.3403 25.8126 39.1403C25.8126 40.9283 24.8166 42.4883 22.6566 42.4883C20.4966 42.4883 19.5006 40.9283 19.5006 39.1403C19.5006 37.3403 20.4966 35.7923 22.6566 35.7923ZM22.6566 41.6963C23.9406 41.6963 24.6846 40.6283 24.6846 39.1403C24.6846 37.6403 23.9406 36.5843 22.6566 36.5843C21.3726 36.5843 20.6286 37.6403 20.6286 39.1403C20.6286 40.6283 21.3726 41.6963 22.6566 41.6963ZM32.4119 37.6523C32.4359 37.9763 32.4359 38.2283 32.4359 38.7443V42.3203H31.4039V38.8163C31.4039 38.4923 31.4039 38.2283 31.3799 37.9043C31.3199 37.1603 30.9119 36.5843 29.9279 36.6083C28.9319 36.6323 28.0919 37.3523 28.0919 39.5243V42.3203H27.0599V33.4403H28.0919V37.0523L28.4879 36.3203C29.0279 35.9003 29.4959 35.7923 30.1439 35.7923C31.5359 35.7923 32.3159 36.5363 32.4119 37.6523ZM36.8012 35.7923C38.9612 35.7923 39.9572 37.3403 39.9572 39.1403C39.9572 40.9283 38.9612 42.4883 36.8012 42.4883C34.6412 42.4883 33.6452 40.9283 33.6452 39.1403C33.6452 37.3403 34.6412 35.7923 36.8012 35.7923ZM36.8012 41.6963C38.0852 41.6963 38.8292 40.6283 38.8292 39.1403C38.8292 37.6403 38.0852 36.5843 36.8012 36.5843C35.5172 36.5843 34.7732 37.6403 34.7732 39.1403C34.7732 40.6283 35.5172 41.6963 36.8012 41.6963ZM52.3623 34.0403V42.3203H51.3303V38.0603C51.3303 37.0283 51.3303 35.8763 51.3543 34.9763C51.0783 35.8763 50.6943 37.0403 50.3463 38.0483L48.8823 42.3203H47.5863L46.0983 38.0243C45.7623 37.0403 45.3783 35.8883 45.1143 35.0003C45.1383 35.9003 45.1383 37.0403 45.1383 38.0603V42.3203H44.1063V34.0403H45.8103L48.2583 41.4443L50.6943 34.0403H52.3623ZM57.8368 42.3203L57.7288 41.4083L57.3808 42.0923C56.9488 42.3923 56.3968 42.4883 55.7848 42.4883C54.6328 42.4883 53.7328 41.8523 53.7328 40.6763C53.7328 39.2363 54.8128 38.4923 57.3088 38.4923H57.7168V38.3243C57.7168 38.0483 57.7168 37.7963 57.6928 37.5563C57.6448 36.9683 57.3088 36.5843 56.4568 36.5843C55.5928 36.5843 55.1608 37.0523 55.0888 37.9283H54.0088C54.1048 36.5723 55.0528 35.7923 56.4568 35.7923C57.9688 35.7923 58.6048 36.4283 58.7128 37.4723C58.7368 37.7243 58.7488 38.0363 58.7488 38.3123V40.7003C58.7488 41.1803 58.7728 41.6123 58.8688 42.3203H57.8368ZM56.1328 41.6963C57.0928 41.6963 57.7168 41.0603 57.7168 39.9083V39.2603C55.9648 39.1283 54.8608 39.5003 54.8608 40.5923C54.8608 41.3603 55.3528 41.6963 56.1328 41.6963ZM61.0798 33.8723C61.4518 33.8723 61.7398 34.1603 61.7398 34.5323C61.7398 34.9043 61.4518 35.1923 61.0798 35.1923C60.7078 35.1923 60.4198 34.9043 60.4198 34.5323C60.4198 34.1603 60.7078 33.8723 61.0798 33.8723ZM61.5958 42.3203H60.5638V35.9603H61.5958V42.3203ZM64.4072 33.5003V40.4963C64.4072 40.6883 64.4072 40.8923 64.4192 41.0963C64.4432 41.5043 64.6352 41.6363 65.1992 41.5763V42.3203C64.9712 42.3563 64.7072 42.3683 64.4672 42.3683C63.8672 42.3683 63.4232 42.1763 63.3872 41.3723C63.3752 41.1563 63.3752 40.8803 63.3752 40.5323V33.5003H64.4072Z" fill="#414141"/>
<defs>
<clipPath id="clip0_3990_13323">
<rect width="61" height="22.875" fill="white" transform="translate(8 8.44531)"/>
</clipPath>
</defs>
</svg>
