<svg width="152" height="50" viewBox="0 0 152 50" fill="none" xmlns="http://www.w3.org/2000/svg">
<path d="M24.6746 9.45415V7.48851C23.5482 5.60301 21.1357 2.34729 17.0551 0.301491H11.2012C15.8898 1.88164 21.0032 4.63736 24.6746 9.45415Z" fill="#283F3E"/>
<path d="M24.6742 2.4847V1.54958C24.6742 0.86637 24.1987 0.297668 23.6725 0.297668H22.6748C23.388 0.946523 24.0584 1.67172 24.6703 2.4847H24.6742Z" fill="#283F3E"/>
<path d="M56.4037 25.5152H40.2137C35.646 25.5152 31.9434 28.5305 31.9434 32.1488V39.3397H11.7235V11.7824H20.8981C16.872 7.5343 10.1684 3.09538 0 3.72515V48.6564C0 49.3435 0.572923 49.9084 1.27836 49.9084H56.4076C57.0429 49.9084 57.6821 49.3587 57.6821 48.7022V26.7671C57.6821 26.0801 57.1091 25.5152 56.4037 25.5152ZM45.2258 39.3397H42.7354V36.9007H45.2258V39.3397Z" fill="#283F3E"/>
<path d="M14.1242 13.7595C13.4539 13.7595 12.9082 14.3015 12.9121 14.958L12.955 24.061C12.955 24.7175 13.5084 25.2519 14.1788 25.248L23.4781 25.2061C24.1484 25.2061 24.6941 24.6641 24.6902 24.0076L24.6551 16.7022C24.1406 15.8511 23.4547 14.8206 22.5778 13.7137L14.1203 13.7519L14.1242 13.7595Z" fill="#283F3E"/>
<path d="M14.2101 26.4809H23.3964C24.0706 26.4809 24.6163 27.0152 24.6163 27.6755V36.6717C24.6163 37.332 24.0706 37.8664 23.3964 37.8664H14.2101C13.5359 37.8664 12.9902 37.332 12.9902 36.6717V27.6755C12.9902 27.0152 13.5359 26.4809 14.2101 26.4809Z" fill="#283F3E"/>
<path d="M74.4844 23.1908V24.8129C74.4844 24.8129 74.4844 24.8396 74.4883 24.8511V23.1679C74.4883 23.1679 74.4844 23.1832 74.4844 23.1908Z" fill="#283F3E"/>
<path d="M74.4841 16.1794V23.1641C74.4958 23.0801 74.5504 23 74.5504 23C74.5504 16.4503 78.7557 11.6183 85.5373 11.6183C85.888 11.6183 86.1725 11.9313 86.1725 12.2748V17.2633C86.1725 17.6068 86.0127 17.9198 85.8218 17.9198H85.5334C84.0056 17.9198 82.9844 18.4198 82.2868 19.1679H85.3736C85.7243 19.1679 86.0751 19.4809 86.0751 19.8244V24.8129C86.0751 25.1565 85.7243 25.5 85.3736 25.5H75.1857C74.8193 25.5 74.5114 25.1832 74.488 24.8511V25.519L74.4958 38.4313H62.2657C61.568 38.4313 60.9873 38.9427 60.9873 39.6259V48.6641C60.9873 49.3473 61.568 49.916 62.2657 49.916H84.9409C85.6386 49.916 86.2193 49.3473 86.2193 48.6641L86.2076 25.5229L86.1998 9.56485C77.8749 8.81294 74.679 15.7442 74.4841 16.187V16.1794Z" fill="#283F3E"/>
<path d="M74.4805 11.374V12.7709C78.1129 7.01522 86.2001 7.09919 86.2001 7.09919V4.74422C77.7972 3.98468 74.6208 11.0534 74.4805 11.374Z" fill="#283F3E"/>
<path d="M74.4766 6.82821V7.96179C78.0973 2.22133 86.1416 2.28622 86.1961 2.28622V1.49615C86.1961 0.870195 85.6154 0.301491 84.9178 0.301491H82.9535C76.8891 1.30912 74.5389 6.67935 74.4727 6.83202L74.4766 6.82821Z" fill="#283F3E"/>
<path d="M77.5282 0.301491H75.6926C74.9949 0.301491 74.4727 0.870195 74.4727 1.49615V3.416C75.3067 2.09157 76.3746 1.08012 77.5282 0.301491Z" fill="#283F3E"/>
<path d="M103.574 24.4923H112.804C113.501 24.4923 114.082 23.9236 114.082 23.2977V14.2061C114.082 13.5801 113.501 12.9542 112.804 12.9542H103.574C102.877 12.9542 102.354 13.5801 102.354 14.2061V23.2977C102.354 23.9236 102.877 24.4923 103.574 24.4923Z" fill="#283F3E"/>
<path d="M112.831 0.301491H103.547C102.908 0.301491 102.327 0.812943 102.327 1.49615V10.5343C102.327 11.2175 102.908 11.7862 103.547 11.7862H112.831C113.47 11.7862 114.109 11.2175 114.109 10.5343V1.49615C114.109 0.812943 113.47 0.301491 112.831 0.301491Z" fill="#283F3E"/>
<path d="M112.889 38.3702H101.139V1.54958C101.139 0.86637 100.616 0.297668 99.9186 0.297668H90.6895C89.9919 0.297668 89.4111 0.86637 89.4111 1.54958V48.7137C89.4111 49.3397 89.9919 49.9084 90.6895 49.9084H112.889C113.528 49.9084 114.109 49.3397 114.109 48.7137V39.6221C114.109 38.9961 113.528 38.3702 112.889 38.3702Z" fill="#283F3E"/>
<path d="M112.831 25.6412H103.547C102.908 25.6412 102.327 26.2671 102.327 26.8931V35.9847C102.327 36.6106 102.908 37.1793 103.547 37.1793H112.831C113.47 37.1793 114.109 36.6106 114.109 35.9847V26.8931C114.109 26.2671 113.47 25.6412 112.831 25.6412Z" fill="#283F3E"/>
<path d="M150.87 0.301491H136.999C124.694 0.301491 116.978 9.11065 116.978 20.9313V24.3397C116.978 25.0229 117.558 25.5916 118.256 25.5916H140.425V38.3129H118.197C117.558 38.3129 116.978 38.8244 116.978 39.5076V48.5458C116.978 49.229 117.558 49.7977 118.197 49.7977H150.87C151.567 49.7977 152.148 49.2862 152.148 48.603V1.49615C152.148 0.870195 151.567 0.301491 150.87 0.301491ZM140.425 14.1106H131.141C132.361 12.6908 134.274 11.8358 137.003 11.8358H140.428V14.1106H140.425Z" fill="#283F3E"/>
<path d="M55.959 11.1755C55.9941 10.8129 56.0408 10.458 56.0954 10.1068C55.9824 10.4427 55.959 10.8053 55.959 11.1755Z" fill="#283F3E"/>
<path d="M51.9604 5.94271C52.7321 6.09538 52.8763 6.71752 54.0144 6.43126C54.3924 6.33584 54.7977 5.89308 55.0199 5.8282C55.2109 5.77476 55.4486 5.81294 55.6669 5.77859C55.9436 5.73279 56.4853 5.4427 56.5594 6.09156C56.688 7.20224 55.4447 6.35874 55.2537 6.38546C54.9225 6.43508 54.447 7.05721 54.1625 7.14117C53.1881 7.41598 51.0289 6.17935 51.1108 8.01904C51.1614 9.11446 52.3969 8.62972 52.3969 8.80911C51.6057 10.5419 50.9081 12.1221 50.6782 14.0343C50.6236 14.5 50.495 15.1641 50.5417 15.6068C50.5924 16.0648 50.9432 16.3511 51.0016 16.7442C51.0679 17.1908 50.8652 17.519 50.8808 17.8702C50.9198 18.6335 52.6503 18.7442 53.1491 19.248C55.0511 18.0038 57.2726 17.0801 59.5409 16.7099C59.9502 16.6412 61.7352 16.5725 61.8248 16.4541L64.5257 1.06102C60.4295 -0.530579 55.9124 0.034306 52.51 2.80148C52.2098 3.04576 50.8263 4.32439 50.7171 4.56103C50.5573 4.90836 51.0016 5.49614 50.4326 5.91599C50.9237 5.95797 51.4888 5.84729 51.9682 5.94271H51.9604ZM58.777 13.4274C58.5471 12.7442 58.3093 12.0267 58.0599 11.3549C57.8845 10.8816 57.6585 10.3816 57.4831 9.88164C57.3311 9.45798 57.0232 9.0114 57.0232 8.52285L57.6 9.76713C57.752 10.2709 57.9897 10.7481 58.1768 11.2404C58.4691 12.0038 58.9329 12.9618 59.1005 13.7328C59.12 13.8168 59.2369 13.8549 59.2135 14.1106C59.0382 16.2099 54.8367 16.2862 53.4297 15.1526C52.7789 14.6297 52.7945 14.3664 52.9699 13.6221C53.2583 12.4045 54.0105 10.9694 54.4743 9.77095C54.6457 9.32439 54.7081 8.81675 54.9965 8.41217C55.1134 8.85874 54.7354 9.37782 54.5912 9.77095C54.1664 10.9427 53.6246 12.2366 53.2855 13.4198C53.2232 13.6335 53.0673 13.7786 53.4375 13.7366C54.2404 13.5801 55.0433 13.4542 55.8656 13.5114C55.8851 13.332 55.8345 13.1145 55.8656 12.9427C55.8734 12.9045 55.9748 12.8206 55.9865 12.6679C56.0215 12.1946 55.967 11.6793 55.9631 11.1793C55.9202 11.603 55.8929 12.0381 55.8773 12.4771L55.9826 8.29766C56.1852 8.27094 56.0917 8.55339 56.0956 8.69079C56.1151 9.16026 56.0956 9.63737 56.0956 10.1068C56.0995 11.2481 56.0956 12.3702 56.2125 13.5038C57.0271 13.4656 57.8416 13.5801 58.6406 13.729C58.7303 13.7366 58.7887 13.7366 58.8277 13.729C58.8355 13.6793 58.8472 13.645 58.8667 13.6259C58.8472 13.5725 58.8043 13.5038 58.777 13.4236V13.4274Z" fill="#283F3E"/>
<path d="M46.7809 19.2442C47.1979 18.8091 48.6361 18.6106 48.9284 18.2137C49.2012 17.8473 48.8505 17.2442 48.9284 16.7404C48.9869 16.3473 49.3532 16.0458 49.3922 15.5992C49.4195 15.2633 49.3026 14.416 49.2558 14.0267C49.0297 12.1297 48.3165 10.5267 47.5331 8.80531C47.5331 8.6221 48.7686 9.11065 48.8193 8.01523C48.9011 6.17553 46.7419 7.416 45.7676 7.13737C45.4792 7.05722 45.0076 6.43126 44.6763 6.38164C44.4892 6.35492 43.242 7.19844 43.3707 6.08775C43.4486 5.4389 43.9903 5.72897 44.2632 5.77477C44.4775 5.80912 44.7153 5.77477 44.9062 5.82439C45.1362 5.88928 45.4363 6.29385 45.8182 6.40454C47.0226 6.74805 47.1512 6.10301 47.9657 5.93889C48.4412 5.84347 49.0102 5.95416 49.5013 5.91217C48.9323 5.49232 49.3766 4.90454 49.2168 4.55721C49.1583 4.43508 47.6461 2.98469 47.424 2.79767C44.5555 0.415986 40.7516 -0.328285 37.1036 0.51141C36.5346 0.641181 35.9733 0.904537 35.4043 1.05721L38.1598 16.5114C41.2349 16.6107 44.2476 17.5496 46.7809 19.2442ZM40.8256 13.7328C41.0166 12.8702 41.5077 12.0878 41.7493 11.2404L42.7899 8.74806C42.6808 9.69844 42.1936 10.5763 41.8662 11.4656C41.6246 12.1145 41.3713 12.771 41.1491 13.4236C41.1179 13.5114 41.0751 13.5839 41.0556 13.6374C41.0673 13.6565 41.0751 13.6832 41.079 13.7213C41.114 13.7366 41.1764 13.7404 41.2855 13.729C42.0845 13.5801 42.8991 13.4656 43.7136 13.5038L43.8851 8.74424C43.9475 10.332 44.1034 11.9122 44.0566 13.5038C44.879 13.4503 45.6857 13.5725 46.4847 13.729C46.6523 13.7633 46.7497 14.042 46.9485 13.6145C46.8589 13.6717 46.7692 13.7061 46.6835 13.7251C46.6562 13.7366 46.6172 13.7404 46.5549 13.7366C46.5977 13.7366 46.6406 13.7366 46.6835 13.7251C46.777 13.687 46.6835 13.5687 46.6367 13.4122C46.3132 12.2557 45.7559 10.9122 45.3311 9.76331C45.1752 9.34728 45.0193 8.93508 44.8673 8.51905C44.7153 8.0992 44.3294 7.67172 44.4074 7.16027L44.9842 8.40454C45.1752 8.83965 45.2765 9.32438 45.448 9.76331C45.9118 10.9542 46.664 12.4084 46.9524 13.6145C46.9797 13.7366 47.0693 13.8282 47.0732 14.0076C47.1239 16.4503 40.9114 16.5458 40.7087 14.103C40.6892 13.8511 40.8061 13.8129 40.8217 13.7251L40.8256 13.7328Z" fill="#283F3E"/>
<path d="M62.0433 20.748C58.8163 20.9045 55.1644 21.7175 52.4712 23.4923L51.4111 24.3778C52.2101 24.0534 53.0091 23.7022 53.847 23.4809C56.2556 22.8396 59.206 22.6259 61.7004 22.561C63.5789 22.5114 65.4458 22.687 67.3205 22.6297L70.0876 6.37019H68.1233L65.7576 20.6488C65.6056 20.8664 62.5929 20.7251 62.0433 20.7519V20.748Z" fill="#283F3E"/>
<path d="M34.9796 22.561C38.7913 22.4694 44.2399 22.6145 47.7632 24.0381L47.9931 23.9236C43.9788 20.9465 39.1109 20.7022 34.2235 20.7022L31.8032 6.36636H29.8389L32.5476 22.5725C32.758 22.8816 34.5509 22.5725 34.9796 22.561Z" fill="#283F3E"/>
<path d="M59.4397 17.8587C56.0412 18.5076 52.6426 20.2786 50.7718 23.187C50.7563 23.2709 50.881 23.2595 50.9472 23.2442C51.0953 23.2137 52.97 21.8549 53.4455 21.6145C56.2244 20.1984 59.6268 19.687 62.737 19.5C63.115 19.4771 64.5688 19.6068 64.713 19.3969L67.4256 3.08011H65.7497L63.0955 17.3587C62.9747 17.5229 59.9698 17.7557 59.4397 17.8587Z" fill="#283F3E"/>
<path d="M37.1896 19.5038C41.0286 19.7328 45.8536 20.5496 48.8079 23.1335L48.9248 22.9083C47.2957 20.5725 45.0468 19.187 42.3069 18.3473C40.4907 17.79 38.7057 17.6526 36.8349 17.3625L34.1808 3.08774H32.5049L35.2175 19.4045C35.3617 19.6145 36.8193 19.4847 37.1974 19.5076L37.1896 19.5038Z" fill="#283F3E"/>
<path d="M52.3933 19.7366H47.5371L50.0237 22.6832C50.5186 21.9007 51.115 21.0877 51.7619 20.416C51.9529 20.2175 52.4245 20.1068 52.3972 19.7366H52.3933Z" fill="#283F3E"/>
<path d="M47.7666 24.0381C48.0745 24.1641 48.3668 24.4274 48.6903 24.4885C48.5929 24.145 48.1758 24.0534 47.9966 23.9236C48.1291 24.0687 48.0511 24.103 47.7666 24.0381Z" fill="#283F3E"/>
<path d="M48.8076 23.1335C48.9752 23.2824 49.1194 23.6183 49.3844 23.6984C49.3494 23.4045 49.0882 23.1412 48.9245 22.9045C48.9986 23.0916 49.0415 23.2022 48.8076 23.1297V23.1335Z" fill="#283F3E"/>
<path d="M53.3984 13.7404C53.2192 13.79 53.0983 13.7977 53.1178 13.5839L52.9697 13.6145C53.1529 14.0114 53.2503 13.7938 53.3984 13.7366V13.7404Z" fill="#283F3E"/>
<path d="M58.8238 13.7328C58.8238 13.7328 58.8238 13.7557 58.8238 13.7709L58.6406 13.7328C58.7459 13.7519 58.8745 13.9503 59.1044 13.7328C58.9914 13.6259 58.9134 13.5916 58.8706 13.6297C58.8901 13.6832 58.8901 13.7175 58.8316 13.7328H58.8238Z" fill="#283F3E"/>
<path d="M58.0597 11.3549L58.1767 11.2404C58.0403 11.1832 58.0364 11.2213 58.0597 11.3549Z" fill="#283F3E"/>
<path d="M54.4746 9.76713H54.5915C54.5487 9.67553 54.5097 9.67171 54.4746 9.76713Z" fill="#283F3E"/>
<path d="M57.483 9.88165L57.5999 9.76714C57.4596 9.70607 57.4557 9.74043 57.483 9.88165Z" fill="#283F3E"/>
<path d="M41.289 13.7328L41.0902 13.7709C41.0902 13.7709 41.0863 13.7404 41.0824 13.7251C41.0474 13.7099 41.0435 13.6793 41.059 13.6412C41.0162 13.5648 40.9421 13.6106 40.8291 13.7328C41.0591 13.9503 41.1877 13.7519 41.2929 13.7328H41.289Z" fill="#283F3E"/>
<path d="M41.7529 11.2404L41.8699 11.4656C41.9088 11.2061 41.8699 11.1297 41.7529 11.2404Z" fill="#283F3E"/>
<path d="M45.3389 9.76713H45.4558C45.4129 9.66789 45.3739 9.66789 45.3389 9.76713Z" fill="#283F3E"/>
<path d="M44.8745 8.52293L44.9915 8.40843C44.8395 8.33973 44.8395 8.37026 44.8745 8.52293Z" fill="#283F3E"/>
<path d="M86.2187 9.56102L86.1953 7.103V9.56102C86.1953 9.56102 86.2109 9.56102 86.2187 9.56102Z" fill="#283F3E"/>
<path d="M74.4727 12.7824V16.2023C74.4727 16.2023 74.4727 16.1946 74.4843 16.1794V12.771C74.4843 12.771 74.4766 12.7786 74.4727 12.7824Z" fill="#283F3E"/>
<path d="M86.2187 4.74423L86.1953 2.28621V4.74423C86.1953 4.74423 86.2109 4.74423 86.2187 4.74423Z" fill="#283F3E"/>
<path d="M74.4727 7.96943V11.3893C74.4727 11.3893 74.4727 11.3816 74.4805 11.374V7.96178C74.4805 7.96178 74.4766 7.96561 74.4727 7.96943Z" fill="#283F3E"/>
</svg>
