<svg width="331" height="87" viewBox="0 0 331 87" fill="none" xmlns="http://www.w3.org/2000/svg">
<path d="M104.398 69.3476C105.9 83.8044 137.656 85.6964 140.99 71.774C144.422 57.4487 133.838 55.9597 131.051 55.2598L130.321 62.0555C130.321 62.0555 133.117 63.1584 132.502 69.1948C132.277 71.4219 130.631 73.2927 128.442 73.7423C123.984 74.6628 116.98 73.8187 114.842 71.7698C112.776 69.7887 112.581 66.5266 113.141 64.0832C113.934 60.6005 113.031 60.9483 113.031 60.9483L104.398 69.3433V69.3476Z" fill="#FDFFFC"/>
<path d="M91.5704 19.3718C91.5704 16.9665 92.6861 15.7957 96.4954 15.7363C100.305 15.7363 101.48 17.0259 101.48 19.3718C101.48 22.1842 100.309 23.4187 96.4954 23.4187C92.6818 23.4187 91.5704 22.1885 91.5704 19.3718Z" fill="#FDFFFC"/>
<path d="M92.7412 44.9308C92.7412 38.7163 92.6818 32.5017 92.5079 26.2871L96.5548 26.4059L100.602 26.2871C100.424 32.3829 100.368 38.7757 100.368 44.9308C100.368 51.086 100.428 57.36 100.602 63.5152H92.5121C92.686 57.36 92.7454 51.0266 92.7454 44.9308H92.7412Z" fill="#FDFFFC"/>
<path d="M114.32 51.1401C116.017 51.5601 117.773 51.734 119.716 51.734C128.739 51.734 134.478 47.3392 134.478 39.3048C134.478 35.8391 136.595 34.0277 142.687 34.0829L142.746 24.9922C135.48 24.9922 134.016 29.9808 134.016 35.4318H133.494C132.726 29.9808 128.68 25.8745 119.182 25.8745C110.511 25.8745 104.882 30.4432 104.882 38.8255C104.882 43.9286 106.986 47.6277 110.625 49.6723C109.336 52.2515 107.639 54.5422 105.463 56.3578L106.579 59.8235H112.797V60.4047C112.042 60.7313 106.952 62.9499 105.136 66.0084C104.928 66.3563 104.521 67.0435 104.347 68.0531C104.279 68.4942 104.267 68.9015 104.301 69.296C104.288 69.3172 104.288 69.3299 104.301 69.3426C104.368 70.4371 104.767 71.3067 104.996 71.7733H114.842C113.981 70.9843 113.459 70.0638 113.192 69.0075C113.158 68.9015 113.124 68.7869 113.111 68.6597C113.09 68.5451 113.065 68.4136 113.043 68.2991C112.95 67.7773 112.916 67.2174 112.916 66.6235C112.916 65.0667 113.171 63.6244 113.603 62.1227C113.811 61.3549 114.078 60.5744 114.384 59.7641H120.361C124.73 59.7641 127.687 60.4132 129.592 61.5543C131.428 62.6487 132.302 64.1928 132.531 66.0423C132.531 66.0423 132.544 66.0551 132.544 66.0636C132.591 66.4369 132.612 66.8059 132.612 67.2047C132.612 67.7986 132.591 68.4391 132.544 69.0881C132.463 69.9959 132.323 70.9249 132.09 71.7733H140.994C141.007 71.7139 141.028 71.6588 141.041 71.5994C141.228 70.9037 141.376 70.1444 141.482 69.3808C141.635 68.3797 141.703 67.3701 141.703 66.4496C141.703 59.0557 137.066 54.6016 122.881 54.6016C118.719 54.6016 115.08 55.0088 110.685 55.9506L110.392 55.3015C112.322 54.0798 113.323 52.7309 114.32 51.1401ZM114.087 32.7933C115.724 32.1527 117.421 31.8516 119.003 31.8516C124.281 31.8516 126.457 34.2568 126.457 39.3048C126.457 41.7694 126.096 43.8141 125.4 45.8715C123.763 46.5672 121.994 46.7453 120.471 46.7453C115.135 46.7453 113.031 44.3401 113.031 39.3048C113.031 36.8996 113.379 34.9101 114.087 32.7933Z" fill="#FDFFFC"/>
<path d="M144.091 54.0759C144.091 47.628 147.786 43.2884 157.869 43.2884C162.09 43.2884 166.018 43.6999 169.361 44.1071V42.8175C169.361 34.8467 166.663 31.0925 160.448 31.0925C157.81 31.0925 155.642 31.6779 153.47 33.1457C152.706 35.6061 152.24 37.8925 152.121 40.9425L144.15 39.653C145.499 30.4477 151.124 25.4082 161.326 25.4082C172.347 25.4082 177.039 30.978 177.039 40.4759V53.3123C177.039 56.829 177.098 59.7602 177.272 63.455H169.004L170.294 52.9051H169.649C167.889 59.0603 162.849 64.278 155.052 64.278C148.778 64.278 144.091 60.8758 144.091 54.0759ZM169.361 50.029V47.6831C165.725 47.5643 162.794 47.5092 158.985 47.5092C153.945 47.5092 151.773 49.503 151.773 52.6675C151.773 56.0102 154.06 57.6519 157.517 57.6519C162.149 57.6519 165.666 55.4842 169.361 50.029Z" fill="#FDFFFC"/>
<path d="M183.075 44.5779C183.075 38.3039 183.075 32.5008 182.901 26.3456H191.05L190.172 35.0799H190.698C193.57 28.28 197.969 25.582 203.772 25.582C212.332 25.582 215.964 30.681 215.964 40.5903C215.964 48.9132 215.964 55.9507 216.197 63.5101H208.048C208.222 56.0653 208.222 50.9664 208.222 42.0539C208.222 35.2539 206.287 32.1487 201.01 32.1487C196.319 32.1487 192.743 34.7872 190.753 40.1789C190.753 51.5518 190.813 57.4142 191.046 63.5101H182.838C183.071 57.9403 183.071 51.0215 183.071 44.5736L183.075 44.5779Z" fill="#FDFFFC"/>
<path d="M221.762 49.2693C221.762 40.9465 221.703 33.9089 221.529 26.3496H229.678C229.504 33.7944 229.445 38.9527 229.445 47.8058C229.445 54.6058 231.379 57.711 236.656 57.711C241.403 57.711 244.924 55.1912 246.913 49.6808C246.913 38.3079 246.913 32.5642 246.68 26.3496H254.888C254.655 31.9788 254.596 38.8933 254.596 45.286C254.596 51.6788 254.655 57.4777 254.829 63.5183H246.68L247.558 54.784H246.973C244.101 61.584 239.761 64.2819 233.899 64.2819C225.398 64.2819 221.762 59.1829 221.762 49.2736V49.2693Z" fill="#FDFFFC"/>
<path d="M259.864 19.3718C259.864 16.9665 260.98 15.7957 264.789 15.7363C268.599 15.7363 269.774 17.0259 269.774 19.3718C269.774 22.1842 268.603 23.4187 264.789 23.4187C260.976 23.4187 259.864 22.1885 259.864 19.3718Z" fill="#FDFFFC"/>
<path d="M261.04 44.9308C261.04 38.7163 260.98 32.5017 260.806 26.2871L264.853 26.4059L268.9 26.2871C268.722 32.3829 268.667 38.7757 268.667 44.9308C268.667 51.086 268.726 57.36 268.9 63.5152H260.81C260.984 57.36 261.044 51.0266 261.044 44.9308H261.04Z" fill="#FDFFFC"/>
<path d="M275.047 44.5779C275.047 38.3039 275.047 32.5008 274.873 26.3456H283.022L282.144 35.0799H282.67C285.542 28.2206 289.351 25.582 295.099 25.582C301.547 25.582 305.242 28.9248 306.001 35.606H306.586C309.458 28.2206 313.268 25.582 319.016 25.582C326.812 25.582 330.562 30.5664 330.562 39.4153C330.562 48.9132 330.622 56.0059 330.796 63.5101H322.647C322.825 56.0653 322.88 50.907 322.88 40.8237C322.88 34.7872 320.475 32.2081 315.902 32.1487C311.622 32.1487 308.631 34.7279 306.642 40.1789C306.642 49.032 306.701 56.0653 306.875 63.5101H298.726C298.9 56.0653 298.959 50.907 298.959 40.8237C298.959 34.7872 296.554 32.2081 291.985 32.1487C287.705 32.1487 284.714 34.7872 282.725 40.1789C282.725 51.5518 282.784 57.4142 283.018 63.5101H274.809C275.043 57.9403 275.043 51.0215 275.043 44.5736L275.047 44.5779Z" fill="#FDFFFC"/>
<path d="M43.3246 87.0002C67.0864 87.0002 86.3491 67.7374 86.3491 43.9757C86.3491 20.2139 67.0864 0.951172 43.3246 0.951172C19.5628 0.951172 0.30011 20.2139 0.30011 43.9757C0.30011 67.7374 19.5628 87.0002 43.3246 87.0002Z" fill="#FDFFFC"/>
<path d="M73.3424 14.193C72.0939 9.64541 68.4543 8.22286 68.2954 8.16232L67.849 7.98828L59.0867 12.9672L57.8079 13.6936L58.9353 14.6395C59.238 14.8967 65.9422 20.7307 60.8195 32.1716C60.5773 32.7088 60.3125 33.2612 60.0098 33.8287C54.9174 43.5217 38.4824 59.7902 32.9663 65.1021L34.1997 30.7793H42.5004L44.6947 25.0437H34.4115L34.5402 21.5252H43.9381L46.1324 15.7896H34.752L35.032 7.99586L24.6429 10.2053L24.4159 15.7896H15.1088L12.9069 21.5252H24.1889L24.0451 25.0437H16.5389L14.337 30.7793H23.8181L21.8432 79.9405L28.6684 78.8281L63.2862 39.2011L63.3241 39.1557C71.6475 28.6758 75.0222 20.2767 73.3424 14.1854V14.193Z" fill="#BD171D"/>
</svg>
