<svg width="248" height="223" viewBox="0 0 248 223" fill="none" xmlns="http://www.w3.org/2000/svg">
<g opacity="0.08">
<path d="M226.39 44.3422C225.903 44.3154 225.142 44.4926 224.741 44.6661C224.33 44.8821 217.049 46.5978 208.572 48.4316C191.461 52.196 177.057 55.5305 174.058 56.4295C172.22 56.9778 171.979 57.2344 170.546 60.0348C169.705 61.6747 169.084 63.1427 169.171 63.3431C169.31 63.5112 172.301 62.8347 175.838 61.7501C179.366 60.7081 187.723 58.6213 194.371 57.1133C210.889 53.3866 211.893 53.1328 218.116 51.5232C221.095 50.7091 223.871 49.8018 224.26 49.4906C225.006 48.8158 227.602 44.7218 227.387 44.491C227.313 44.4282 226.878 44.369 226.39 44.3422Z" fill="#110000"/>
<path d="M97.3109 28.3233C96.5029 29.0729 94.6836 31.4218 93.3278 33.5223C90.4806 37.9153 87.7748 40.5909 84.5706 42.1593C82.3987 43.1665 76.8943 44.5888 75.875 44.3449C75.6201 44.2839 74.9664 44.5765 74.5046 45.0049C72.7408 46.5587 71.5441 54.9391 72.0585 61.7979C72.2144 63.5865 72.0729 65.3039 71.8032 65.8681C70.9092 67.5402 68.0143 69.3173 60.4238 72.8899C38.5795 83.1109 24.1467 96.1379 15.635 113.321C13.0194 118.622 10.395 128.278 10.0204 134.16C8.88004 150.188 14.6032 165.119 25.2975 174.099C35.5006 182.692 51.2573 187.405 69.3701 187.337C89.2409 187.242 114.972 180.106 135.039 169.056C143.256 164.555 153.633 157.967 153.826 157.16C154.223 155.504 153.188 155.885 141.606 161.691C116.933 173.974 95.4753 180.516 76.9996 181.349C66.6024 181.826 62.5526 181.485 52.9111 179.179C45.3609 177.327 43.7673 176.856 40.7 175.224C29.359 169.323 22.6637 160.895 20.2606 149.543C19.047 143.729 19.1325 139.619 20.6466 133.29C23.5732 121.058 29.915 112.381 43.4832 101.842C48.1604 98.2459 57.6856 92.2174 72.9638 83.1647C86.2519 75.2973 93.3293 69.1771 98.1344 61.4805C102.751 54.0082 104.255 47.7221 103.603 38.8097C103.2 33.5493 102.325 30.8252 100.365 28.6948L98.7589 26.9633L97.3109 28.3233Z" fill="#110000"/>
<path d="M212.305 74.3321C210.362 77.0106 206.337 87.4534 205.287 92.5908L204.5 96.444L205.598 95.0452L206.738 93.6566L208.295 94.6577C211.952 97.0145 214.604 101.511 214.719 105.535C214.755 107.07 214.498 107.772 213.091 110.085C210.361 114.551 205.268 117.823 197.715 119.923C193.099 121.198 192.822 121.042 193.049 117.279C193.299 112.669 191.969 111.094 190.454 114.234C187.987 119.481 185.98 123.177 184.985 124.331C183.468 126.168 179.781 128.25 177.244 128.721C173.713 129.403 173.531 129.224 174.314 125.954C175.147 122.471 175.482 117.881 174.961 116.679C174.636 115.972 174.359 115.816 173.715 116.067C173.082 116.274 172.291 117.702 170.563 121.734C166.756 130.702 162.382 134.909 156.348 135.352C154.697 135.496 152.812 135.494 152.07 135.406C150.807 135.239 150.765 135.228 151.128 132.396C151.869 126.107 151.908 123.692 151.3 123.232C150.287 122.586 149.774 123.226 148.516 126.608C146.457 132.401 144.407 134.964 140.599 136.613C134.831 139.14 123.335 139.892 120.201 137.975C116.182 135.441 112.719 129.269 111.117 121.701C108.823 110.644 107.202 92.8335 107.44 79.8233C107.519 74.9923 107.52 69.9184 107.413 65.6718C107.404 64.7715 107.195 63.958 106.982 63.9072C106.345 63.7548 104.257 67.7906 102.297 72.9797C100.575 77.552 100.402 78.274 100.498 80.4975C100.586 81.8207 100.361 85.7634 100.068 89.2408C99.4579 95.9204 99.4061 104.395 99.9185 113.139C101.019 131.814 106.467 148.834 113.145 154.518C115.602 156.633 119.748 158.073 123.636 158.151C129.2 158.359 137.17 155.641 142.1 151.926L144.234 150.326L147.737 151.074C153.417 152.298 158.239 151.476 164.075 148.292C166.961 146.737 168.428 146.235 170.81 146.041C175.075 145.67 177.271 144.938 182.939 141.893C185.678 140.393 188.335 139.233 188.813 139.302C193.032 139.683 199.45 137.446 203.706 134.109C209.181 129.806 213.813 123.774 217.653 115.981C219.427 112.319 219.951 110.693 221.585 103.675C223.333 96.3695 223.48 95.1922 223.387 91.2633C223.119 81.4996 220.523 76.2084 215.036 74.1773C213.133 73.4975 212.911 73.4891 212.305 74.3321Z" fill="#110000"/>
<path d="M138.127 67.7281C135.4 68.243 130.021 72.7041 128.096 76.0603C127.628 76.8913 127.712 76.9116 129.896 76.042L132.228 75.118L137.782 76.4917C143.038 77.7942 146.846 79.3339 146.663 80.0985C146.531 80.6506 142.647 82.0565 136.848 83.5877C133.826 84.3916 130.784 85.2804 130.078 85.6054L128.823 86.1583L131.21 86.5048C137.914 87.3902 142.102 86.7757 146.715 84.1973C150.128 82.3196 153.847 78.2249 154.447 75.7189C155.3 72.1511 153.101 70.4574 145.074 68.5368C141.124 67.5918 139.639 67.4162 138.127 67.7281Z" fill="#110000"/>
<path d="M80.5896 98.7736C78.7491 100.085 75.1752 104.888 72.4387 109.756C69.161 115.573 66.9285 122.089 67.17 125.021C67.3582 126.862 68.6387 128.83 69.8704 129.124C71.9516 129.622 76.7268 125.241 78.2869 121.349L78.9177 119.838L77.2065 121.36C74.0474 124.241 71.7269 124.18 70.9978 121.221C70.6997 120.027 70.879 118.903 71.8212 115.715C73.0294 111.604 74.4222 108.973 79.5043 101.433C80.7261 99.7044 81.6118 98.2548 81.5268 98.2345C81.4844 98.2243 81.0208 98.4727 80.5896 98.7736Z" fill="#110000"/>
<path d="M208.687 142.94C207.515 144.276 204.615 149.824 202.94 153.824L201.648 156.973L204.771 158.932C206.488 160.017 208.974 161.824 210.268 162.987C213.57 165.887 214.302 166.017 216.249 163.699C218.249 161.348 221.691 155.032 222.25 152.696C222.615 151.167 222.505 150.691 221.561 149.568C220.092 147.824 216.209 145.099 212.674 143.355C211.152 142.587 209.864 141.964 209.779 141.944C209.651 141.913 209.18 142.384 208.687 142.94Z" fill="#110000"/>
</g>
</svg>
