<svg width="233" height="309" viewBox="0 0 233 309" fill="none" xmlns="http://www.w3.org/2000/svg">
<path d="M238.729 280.64C238.746 280.619 238.765 280.599 238.786 280.581C267.469 256.278 265.608 225.252 265.5 223.977L265.359 222.038C265.273 220.852 264.662 219.767 263.693 219.079L199.87 173.744L194.952 170.272C192.698 168.682 189.549 169.808 188.816 172.468L187.209 178.296C186.396 181.327 166.537 249.311 66.5692 250.835C61.837 250.902 56.9618 250.834 51.8793 250.582C-34.6418 246.512 -205.307 183.672 -263.647 161.332C-264.608 160.964 -265.325 160.262 -265.762 159.331L-387.459 -99.9959L-295.968 27.1677C-295.337 28.0453 -294.376 28.6285 -293.306 28.7833L-283.279 30.234C-280.149 30.687 -277.765 27.4846 -279.097 24.6154L-308.682 -39.0966C-309.632 -41.1428 -308.694 -43.5689 -306.615 -44.4442L-288.028 -52.2684C-286.052 -53.0999 -283.773 -52.2191 -282.871 -50.2752L-254.186 11.4992C-253.49 12.9986 -251.94 13.9119 -250.291 13.7943L-209.91 10.9151C-207.129 10.7168 -205.407 7.79478 -206.581 5.26558L-240.517 -67.8171C-241.467 -69.8625 -240.53 -72.2877 -238.452 -73.1639L-189.573 -93.7726C-187.184 -94.7799 -186.379 -97.7656 -187.939 -99.8372L-233.788 -160.745C-234.882 -162.198 -236.822 -162.725 -238.501 -162.026L-273.314 -147.525C-275.287 -146.703 -277.557 -147.585 -278.457 -149.524L-306.844 -210.655C-307.539 -212.152 -309.084 -213.065 -310.73 -212.951L-351.149 -210.154C-353.935 -209.961 -355.662 -207.036 -354.486 -204.504L-320.901 -132.177C-319.949 -130.125 -320.894 -127.693 -322.983 -126.823L-341.603 -119.07C-343.576 -118.249 -345.845 -119.131 -346.745 -121.069L-369.114 -169.24C-369.809 -170.737 -371.354 -171.65 -373.001 -171.536L-413.419 -168.739C-416.205 -168.546 -417.932 -165.621 -416.756 -163.089L-387.459 -99.9959L-409.629 128.986C-409.718 129.912 -409.481 130.84 -408.958 131.609L-379.645 174.716C-379.123 175.484 -378.349 176.045 -377.457 176.303L23.9563 292.246L24.3779 292.372C128.094 317.142 200.202 313.204 238.672 280.699C238.693 280.681 238.712 280.662 238.729 280.64Z" fill="#C8102E"/>
</svg>
