<svg width="310" height="544" viewBox="0 0 310 544" fill="none" xmlns="http://www.w3.org/2000/svg">
<g opacity="0.2" clip-path="url(#clip0_6112_1228)">
<path d="M4.89818 330.298C5.13928 329.571 5.56524 327.53 5.83825 325.704C6.64024 320.813 6.89834 319.5 7.12247 319.36C7.35085 319.073 7.26905 319.364 10.0021 308.587C10.1721 307.785 11.64 302.693 13.2631 297.313C14.9594 291.934 16.3435 287.206 16.4295 286.768C16.5867 286.406 16.9054 285.535 17.1423 284.955C17.855 283.142 24.1527 265.794 24.3269 264.846C24.4884 264.337 24.8007 263.686 25.1002 263.474C25.4019 263.19 25.643 262.463 25.6579 261.95C25.6749 261.364 26.547 259.115 27.6367 256.946C28.7266 254.777 29.5901 252.822 29.5965 252.602C29.6029 252.382 30.6215 250.138 31.8643 247.753C33.0359 245.293 34.3646 242.471 34.6876 241.454C35.9664 237.823 53.6869 205.989 59.3738 197.059C67.8245 183.881 81.5001 165.059 91.3847 153.023C105.91 135.253 118.094 122.33 138.378 103.26C158.514 84.2596 171.145 73.6233 191.015 58.7225C197.237 54.1351 203.236 49.6146 204.358 48.8403C205.41 47.9906 207.059 46.7914 207.955 46.2306C208.925 45.6719 210.047 44.8976 210.5 44.4706C211.024 44.119 211.922 43.4849 212.595 43.0643C214.383 42.0893 235.767 28.1126 237.118 27.0515C237.719 26.5555 239.208 25.7918 240.325 25.2374C241.441 24.6829 242.342 23.9755 242.352 23.6091C242.361 23.3159 242.809 23.0355 243.249 23.0483C243.762 23.0632 245.178 22.2974 246.38 21.3053C247.582 20.3133 248.852 19.5432 249.291 19.556C249.658 19.5666 250.998 18.872 252.27 18.0286C253.617 17.1141 255.334 16.0637 256.153 15.6473C256.972 15.2309 262.338 12.3058 268.079 9.09816C283.287 0.663723 283.957 0.316403 290.199 -2.43664C293.393 -3.81104 296.002 -5.27573 296.013 -5.64217C296.024 -6.00862 296.319 -6.07341 296.752 -5.84079C297.112 -5.6103 297.483 -5.74625 297.496 -6.18598C297.509 -6.62572 297.806 -6.76379 298.239 -6.53118C298.599 -6.30068 298.968 -6.36335 298.979 -6.72979C298.989 -7.09624 300.334 -7.93745 301.968 -8.62359C303.601 -9.30972 304.946 -10.1509 304.956 -10.5174C304.967 -10.8838 305.262 -10.9486 305.696 -10.716C306.056 -10.4855 306.426 -10.6215 306.439 -11.0612C306.452 -11.5009 306.678 -11.7144 306.967 -11.5593C307.327 -11.3288 307.995 -11.6029 308.525 -12.1743C309.282 -12.9592 303.203 -13.2822 269.639 -14.3289C230.722 -15.4573 229.696 -15.4871 227.821 -14.0744C226.772 -13.298 225.58 -12.6724 225.214 -12.683C224.774 -12.6958 224.328 -12.4887 224.171 -12.1265C223.856 -11.4021 217.736 -7.76533 216.857 -7.79083C216.49 -7.80145 216.113 -7.44563 216.102 -7.07919C216.09 -6.63945 215.568 -6.36118 214.982 -6.37818C214.396 -6.39518 213.872 -6.04361 213.861 -5.67716C213.848 -5.23743 213.474 -4.9549 213.034 -4.96765C212.228 -4.99103 199.821 2.93786 196.74 5.48913C195.762 6.34097 194.717 6.97082 194.497 6.96444C194.277 6.95807 193.006 7.80141 191.801 8.86674C190.594 10.0054 188.422 11.5561 187.002 12.4685C179.453 17.3108 160.506 33.2653 144.82 48.0674C135.018 57.2454 125.887 66.0761 124.374 67.6459C120.513 71.7883 112.253 80.9377 110.049 83.5877C108.984 84.8772 107.392 86.6648 106.408 87.7365C103.986 90.3069 94.5473 102.136 88.2136 110.608C65.5563 140.685 43.8707 180.252 30.2799 216.387C17.9616 249.111 7.86525 291.215 5.33803 320.188C5.12133 322.602 4.65286 326.11 4.30233 328.08C3.61824 331.434 4.01762 332.84 4.89818 330.298Z" fill="#B08959"/>
<path d="M-29.8014 345.648C-27.6421 344.537 -22.8028 339.543 -22.7688 338.37C-22.7497 337.711 -22.4501 337.499 -22.0168 337.732C-21.4411 338.115 -20.8707 336.152 -21.1107 334.311C-21.1022 334.018 -20.6603 333.957 -20.0804 334.194C-19.356 334.508 -19.1276 334.222 -19.3156 333.116C-19.4367 332.232 -19.2753 331.723 -18.9885 331.952C-16.9704 333.184 -15.206 320.399 -17.0456 318.071C-17.5416 317.47 -17.7466 316.951 -17.5268 316.957C-17.3069 316.964 -17.8698 316.14 -18.8661 315.085C-19.8624 314.029 -20.9384 313.191 -21.3048 313.18C-21.598 313.172 -22.0271 312.792 -22.1588 312.275C-22.3638 311.756 -23.6724 311.351 -25.1403 311.382C-26.6082 311.413 -27.6257 311.09 -27.3952 310.73C-27.0118 310.154 -35.4251 309.397 -41.3679 309.444C-42.5427 309.484 -43.7068 309.156 -43.916 308.784C-44.1986 308.409 -45.214 308.012 -46.3112 307.907C-47.4084 307.802 -48.273 307.264 -48.2603 306.824C-48.2454 306.311 -49.0218 305.261 -49.9512 304.428L-51.743 302.982L-50.1944 300.166C-48.8762 297.711 -46.9218 296.08 -37.1042 288.883C-32.6845 285.71 -16.2049 276.433 -4.29379 270.397C0.990497 267.762 2.78981 266.421 2.90136 265.104C2.90561 264.957 3.30818 263.722 3.78617 262.416C4.19087 261.107 4.84306 258.852 5.24989 257.47C5.58342 256.086 6.14533 254.415 6.38432 253.762C7.16609 252.098 4.00829 252.226 2.19834 253.934C1.4442 254.646 0.554104 254.987 0.194035 254.756C-0.237199 254.45 -0.543107 254.882 -0.564359 255.614C-0.589861 256.494 -0.813979 256.634 -1.16342 256.037C-1.51074 255.367 -2.91811 255.84 -6.12905 257.8C-8.59009 259.196 -12.9131 261.565 -15.7427 263.023C-25.8694 268.231 -37.5512 276.474 -44.1271 283.178C-46.9217 285.958 -49.1236 288.535 -49.0567 288.757C-48.7911 289.718 -50.1199 292.54 -50.7795 292.521C-51.146 292.51 -51.3053 292.946 -51.1024 293.538C-50.8975 294.058 -51.2182 295.002 -51.7461 295.5C-52.2762 296.072 -52.8359 297.669 -52.9496 299.059C-53.0633 300.45 -53.6178 304.395 -54.1574 307.827C-55.243 314.91 -54.9988 321.665 -53.4215 325.452C-49.0997 335.773 -47.9197 338.081 -45.2888 340.945C-43.7274 342.75 -41.4374 344.724 -40.3551 345.342C-38.1171 346.581 -31.963 346.833 -29.8014 345.648ZM-25.8532 333.44C-25.4719 332.937 -25.6897 332.858 -26.3599 333.205C-27.6292 333.975 -32.7488 333.46 -34.7 332.45C-36.8668 331.287 -41.4924 326.385 -41.4627 325.359C-41.3755 322.354 -23.9752 324.325 -23.8425 327.337C-23.8552 327.776 -23.7405 328.88 -23.5483 329.839C-23.4294 330.796 -23.8319 332.031 -24.4352 332.601C-25.0407 333.243 -25.3572 334.041 -25.1501 334.487C-24.8718 335.009 -25.0205 335.078 -25.525 334.77C-25.9563 334.464 -26.0859 333.873 -25.8532 333.44Z" fill="#B08959"/>
<path d="M-14.7873 257.843C-14.5526 257.336 -14.1065 257.129 -13.7464 257.36C-13.3863 257.59 -13.0889 257.452 -13.0783 257.086C-13.0655 256.646 -12.2445 256.156 -11.2854 255.964C-8.77653 255.45 0.421893 246.841 4.0195 241.664C7.00316 237.423 10.4128 231.141 10.8408 229.026C11.0044 228.444 11.1659 227.935 11.2392 227.937C11.3858 227.941 12.0464 225.393 12.3949 223.496C12.5648 222.694 12.8144 221.675 13.0449 221.315C13.2754 220.954 13.2298 220 12.96 219.185C12.6902 218.37 12.7391 216.685 13.1438 215.376C13.4752 214.065 13.5071 212.966 13.2139 212.957C12.9208 212.949 12.2845 212.124 11.8745 211.085C11.4646 210.046 9.8193 208.605 8.37477 207.829C6.85483 207.125 5.48571 206.279 5.27434 205.979C5.06298 205.679 3.82769 205.277 2.59027 204.948C1.27745 204.689 -0.613192 204.121 -1.62861 203.725C-2.7152 203.253 -3.88357 203.073 -4.25852 203.355C-4.63134 203.565 -4.92025 203.409 -4.90962 203.043C-4.89899 202.677 -5.33023 202.371 -5.84113 202.283C-7.52252 202.087 -10.3659 201.491 -11.4525 201.02C-12.0324 200.783 -14.0654 200.064 -15.9561 199.495L-19.2997 198.445L-18.2641 195.614C-17.153 192.712 -15.7934 191.358 -14.6421 192.125C-14.3553 192.353 -13.3898 191.941 -12.5623 191.232C-11.8103 190.593 -11.1401 190.246 -11.1465 190.466C-11.1529 190.686 -7.87713 189.02 -3.92055 186.641C2.57036 182.868 10.1585 179.201 12.3699 178.825C12.7406 178.689 14.5941 178.009 16.3785 177.181C18.1608 176.426 20.1609 175.75 20.8205 175.769C21.4801 175.788 22.2927 175.592 22.5943 175.307C22.8227 175.02 23.4908 174.746 24.0059 174.688C24.5211 174.63 26.6635 174.105 28.8813 173.509C31.0991 172.913 33.0885 172.604 33.2287 172.828C33.4422 173.054 34.0349 172.852 34.6339 172.429C35.1597 172.004 36.2654 171.816 36.9919 172.057C37.865 172.302 38.6064 172.031 38.8454 171.377C39.0823 170.797 38.9421 170.573 38.5693 170.783C38.1232 170.99 37.83 170.981 37.8364 170.761C37.8576 170.028 39.9629 168.256 40.6957 168.277C41.1355 168.29 41.3787 167.49 41.3352 166.462C41.2162 165.505 41.3819 164.849 41.6709 165.004C42.0309 165.235 42.408 164.879 42.7182 164.301C42.955 163.721 42.8276 163.057 42.4675 162.827C42.1807 162.599 41.7367 162.732 41.5795 163.095C41.4956 163.459 40.3081 163.938 39.1291 164.124C37.8747 164.381 37.3638 164.293 37.8099 164.086C38.3293 163.881 38.786 163.307 38.7967 162.941C38.8094 162.501 38.5938 162.348 38.2943 162.559C38.0659 162.846 37.4106 162.68 36.9814 162.301C36.3367 161.769 34.9442 161.729 32.5108 162.172C27.2 163.191 18.9151 165.592 18.9002 166.105C18.8917 166.398 18.299 166.601 17.4907 166.65C16.316 166.69 12.4518 168.411 1.81635 173.458C0.404726 174.077 -0.937856 174.845 -1.16622 175.132C-1.39247 175.345 -2.3686 176.124 -3.41378 176.753C-4.46108 177.457 -5.29488 178.386 -5.30976 178.899C-5.32464 179.412 -6.06603 179.684 -7.01454 179.51C-8.03633 179.333 -8.55573 179.538 -8.50157 180.2C-8.36987 180.717 -9.04435 181.211 -10.0014 181.33C-10.8851 181.451 -12.0078 182.226 -12.473 183.092L-13.3992 184.679L-11.5978 183.264L-9.79849 181.923L-11.3864 183.564C-12.2181 184.42 -13.4874 185.19 -14.2246 185.315C-14.8863 185.37 -16.761 186.782 -18.3468 188.35C-20.6868 190.629 -21.1499 191.423 -20.5116 192.175C-19.8732 192.927 -19.8753 193 -20.6688 192.537C-21.4622 192.074 -21.6173 192.363 -21.3666 193.837C-21.1829 195.089 -21.5079 196.18 -22.3354 196.89C-23.764 198.095 -23.8267 202.788 -22.379 205.984C-21.4858 208.064 -14.7783 211.999 -11.271 212.468C-10.1026 212.648 -8.79407 213.053 -8.28954 213.361C-7.78502 213.669 -7.12542 213.688 -6.67931 213.481C-6.30649 213.272 -5.50031 213.295 -5.0712 213.674C-4.56667 213.982 -3.84229 214.297 -3.40255 214.309C-3.03823 214.393 -2.02069 214.716 -1.22301 215.033C-0.427454 215.423 2.11004 216.45 4.3565 217.395C6.67837 218.269 8.55413 219.351 8.54351 219.717C8.53288 220.083 9.09157 221.053 9.72779 221.879C10.6508 222.932 10.7092 223.447 10.1165 223.65C9.59925 223.782 9.43354 224.437 9.63641 225.03C9.83927 225.623 9.60665 226.056 9.09363 226.041C8.65389 226.028 8.49669 226.391 8.70593 226.763C8.91305 227.209 8.75797 227.498 8.24495 227.484C7.73192 227.469 7.50568 227.682 7.79246 227.911C8.00595 228.137 7.54071 229.003 6.78232 229.862C6.02393 230.72 2.98823 234.226 -0.0474688 237.732C-5.73967 244.315 -11.4265 248.185 -15.1643 248.076C-17.2164 248.017 -19.7177 245.744 -20.4559 243.375C-20.6545 242.636 -21.0772 242.037 -21.4437 242.026C-21.8101 242.016 -21.8983 242.527 -21.6997 243.266C-21.4278 244.007 -21.5829 244.296 -22.0141 243.99C-22.8787 243.452 -23.9621 245.401 -23.4034 246.37C-23.1921 246.67 -23.3897 248.425 -23.8092 250.246C-24.9947 255.713 -22.163 259.243 -16.8713 258.883C-15.9164 258.837 -14.9488 258.352 -14.7873 257.843Z" fill="#B08959"/>
<path d="M23.9674 196.252C24.0556 195.741 24.1608 194.644 24.2574 193.84C24.3541 193.036 24.7376 192.46 25.1752 192.546C26.9968 192.966 25.325 189.91 22.9425 188.594C20.5623 187.205 18.8671 184.955 20.8246 185.745C21.8401 186.141 25.7744 182.001 25.819 180.462C25.8572 179.143 24.896 179.408 23.4589 180.907C22.5496 181.908 22.4615 182.419 23.0393 182.729C24.0547 183.125 22.2511 184.613 20.7121 184.568C19.9792 184.547 19.9898 184.181 20.6855 182.954C21.3855 181.58 21.1614 181.721 19.2782 183.426C17.9961 184.636 16.7226 185.553 16.3561 185.542C14.8903 185.5 10.1711 188.884 10.1392 189.983C10.1074 191.082 9.96079 191.078 9.4021 190.108C8.84129 189.212 8.76163 189.43 8.79029 190.971C8.89011 192.587 9.1036 192.814 10.0043 192.106C10.9029 191.472 10.9762 191.474 10.5152 192.194C9.74832 193.346 10.6299 193.298 11.912 192.088C12.7394 191.379 12.7521 190.939 12.1138 190.187C11.4733 189.508 11.4776 189.362 12.1265 189.747C12.5599 189.98 13.0793 189.775 13.3119 189.342C13.553 188.615 13.9195 188.626 14.629 189.453C15.483 190.358 15.4808 190.431 14.543 189.891C13.7495 189.428 13.6741 189.499 14.1701 190.1C15.2355 191.304 18.3072 191.614 18.7056 190.525C18.9403 190.018 18.6557 189.717 18.2138 189.777C17.6965 189.909 17.123 189.452 16.9934 188.862C16.7279 187.9 16.8011 187.902 17.4331 188.874C18.0651 189.846 18.2117 189.85 18.2435 188.751C18.2627 188.091 18.6525 187.296 19.174 187.018C19.771 186.668 19.8379 186.89 19.5192 187.761C19.0497 188.774 19.2632 189.001 20.1533 188.66C21.19 188.323 21.2612 188.398 20.4273 189.328C19.6689 190.186 19.807 190.483 21.3248 191.261C22.4093 191.806 22.9744 192.556 22.7375 193.136C22.5006 193.716 22.1257 193.998 21.8368 193.843C21.6212 193.69 21.3822 194.343 21.3545 195.296C21.3205 196.469 21.7433 197.068 22.5494 197.091C23.2823 197.112 23.9547 196.692 23.9674 196.252Z" fill="#B08959"/>
<path d="M6.53673 195.453C7.72848 194.828 8.55379 194.192 8.33817 194.039C7.84002 193.511 4.12244 195.237 4.10119 195.97C4.07993 196.702 4.00665 196.7 6.53673 195.453Z" fill="#B08959"/>
<path d="M5.89601 159.346C6.02352 154.949 5.83341 153.916 4.7447 153.518C4.0936 153.206 3.01551 152.441 2.45045 151.691C-0.169859 148.461 -1.08649 147.187 -1.07586 146.821C-1.06949 146.601 -1.49009 145.929 -2.0594 145.325C-2.84221 144.496 -3.20865 144.485 -3.44977 145.212C-3.68452 145.718 -3.89801 145.492 -3.87676 144.759C-3.92879 144.024 -4.28461 143.647 -4.65743 143.856C-5.10354 144.064 -5.3967 144.055 -5.38607 143.689C-5.35419 142.589 -8.55657 139.196 -10.2273 138.634C-11.0983 138.315 -11.6697 137.785 -11.4414 137.498C-11.1312 136.92 -13.7962 135.229 -14.7553 135.422C-14.9752 135.415 -15.6974 135.028 -16.3422 134.495C-17.3427 133.586 -19.5785 132.274 -30.9106 125.931C-32.933 124.846 -35.6606 122.786 -37.017 121.5C-40.2257 118.326 -41.325 118.294 -41.4143 121.372C-41.5142 124.817 -39.6534 131.472 -38.554 131.504C-38.041 131.519 -37.1807 132.204 -36.6199 133.101C-35.6363 134.596 -19.5457 143.791 -17.8601 143.84C-17.4204 143.853 -16.6981 144.241 -16.1957 144.622C-15.6954 145.077 -13.1101 146.985 -10.3071 148.974C-7.57528 150.887 -5.20987 152.789 -5.07179 153.087C-4.93584 153.457 -4.35802 153.767 -3.77171 153.784C-2.89224 153.81 -2.89862 154.03 -3.65489 154.815C-4.18491 155.386 -4.85301 155.66 -5.21308 155.43C-5.50199 155.275 -5.73036 155.561 -5.74736 156.148C-5.78774 157.54 -2.63953 160.272 -0.595933 160.625C0.352575 160.799 1.58361 161.348 2.15292 161.951C2.86669 162.632 3.23101 162.716 3.46788 162.136C3.62721 161.701 4.07757 161.347 4.44401 161.358C4.88375 161.371 5.02182 161.668 4.79346 161.955C4.63838 162.244 4.69041 162.979 5.11315 163.578C5.53163 164.323 5.794 162.864 5.89601 159.346Z" fill="#B08959"/>
<path d="M20.9685 158.169C21.199 157.809 21.2202 157.076 20.9419 156.555C20.6615 156.107 20.7391 155.962 21.1724 156.195C22.7572 157.194 25.8821 150.61 24.53 149.177C24.0319 148.649 23.8077 148.79 23.7844 149.596C23.7652 150.255 23.1343 151.777 22.4407 152.931L21.131 155.093L19.1236 153.495C16.6849 151.59 16.2345 151.944 16.7315 155.039C17.1075 157.251 17.252 157.328 18.5319 156.192C19.8851 155.057 19.9584 155.059 19.9138 156.599C19.884 157.625 19.5781 158.056 19.0024 157.672C18.4979 157.364 18.4225 157.435 18.7008 157.957C19.3285 159.075 20.3545 159.105 20.9685 158.169Z" fill="#B08959"/>
<path d="M38.3173 154.271C37.9912 152.868 38.0104 152.208 38.4437 152.441C38.8017 152.745 39.0757 153.413 39.0587 153.999C39.0311 154.952 39.2509 154.958 40.3067 153.962C41.4401 152.821 41.4486 152.528 40.5468 150.741C39.4358 148.582 35.7172 147.814 36.0996 149.806C36.7432 152.905 36.7262 153.491 35.9933 153.47C35.5536 153.457 35.9009 154.128 36.8303 154.961C38.9737 156.931 38.9737 156.931 38.3173 154.271Z" fill="#B08959"/>
<path d="M51.2628 145.331C52.0021 145.133 52.308 144.701 52.0297 144.18C51.7514 143.658 52.1157 143.742 52.7583 144.348C53.4031 144.88 53.9851 145.043 53.9958 144.677C54.0064 144.311 54.8338 143.601 55.8726 143.191C57.5062 142.505 60.7161 138.05 59.6168 138.018C59.3236 138.01 59.9312 137.294 60.9116 136.369C63.549 133.951 64.4816 132.145 64.2585 129.718C64.1523 128.321 64.3117 127.885 64.659 128.556C65.0796 129.228 65.8507 127.93 67.0478 124.591C68.0813 121.833 69.1839 119.225 69.5631 118.796C69.9444 118.293 70.4267 116.84 70.6848 115.527C70.945 114.141 71.2849 112.537 71.3752 111.953C73.318 103.134 73.5241 101.086 72.8061 100.552C72.446 100.321 72.1805 99.3601 72.2081 98.4074C72.2358 97.4546 71.9724 96.4201 71.539 96.1875C70.8189 95.7265 69.6239 98.9926 70.2537 100.038C70.3918 100.335 70.0476 102.086 69.4103 103.828C68.773 105.57 68.3534 107.391 68.5563 107.984C68.7613 108.503 68.602 108.939 68.2355 108.928C67.6492 108.911 66.2089 113.05 66.468 114.231C66.5328 114.527 66.2333 114.738 65.7935 114.725C65.4271 114.715 65.2699 115.077 65.4791 115.45C65.6862 115.896 65.5312 116.185 65.0914 116.172C64.6517 116.159 64.4233 116.446 64.7059 116.821C64.9151 117.194 64.5253 117.989 63.922 118.559C63.3165 119.201 62.7801 119.993 62.7674 120.432C62.7546 120.872 62.3776 121.228 61.8645 121.213C61.4248 121.2 61.1985 121.414 61.4853 121.642C62.1948 122.469 56.1033 127.647 54.4909 127.601C49.8737 127.467 46.2805 122.375 44.203 113.072C43.2939 109.012 43.3279 107.839 44.1139 106.028C45.2897 103.422 48.8926 100.592 54.9958 97.5415C57.4526 96.2924 61.1744 94.4199 63.1851 93.3779C67.2819 91.2229 70.0106 90.7152 71.6686 91.7168C72.2443 92.1003 72.5354 92.1821 72.2528 91.8071C70.8338 90.1523 77.6508 87.7827 85.3674 87.2729L88.3074 87.0648L88.7802 78.3497C88.9938 73.5148 88.9726 69.1865 88.6943 68.6649C88.0623 67.6931 80.4063 68.6447 80.3744 69.744C80.3637 70.1104 79.8486 70.1689 79.2687 69.932C78.6908 69.6218 78.1715 69.8268 78.1566 70.3398C78.1438 70.7796 77.7731 70.9155 77.4131 70.685C76.9797 70.4524 76.6844 70.5172 76.6738 70.8837C76.6632 71.2501 75.6222 71.7334 74.4454 71.8459C72.6046 72.086 72.2446 71.8555 72.2828 70.5363C72.3083 69.6568 71.9068 68.3249 71.3439 67.5017C70.4273 66.2281 70.3519 66.2993 70.5664 69.0195C70.7225 71.2245 70.5653 71.5867 70.1574 70.4746C69.5382 69.063 69.4649 69.0609 69.4203 70.6C69.3215 71.4773 69.7379 72.2962 70.1712 72.5289C70.68 72.6903 69.0336 73.8162 66.579 74.992C54.3832 80.7264 42.3254 91.8195 40.9572 98.5281C40.7076 99.5478 40.2402 100.488 39.8695 100.624C39.4988 100.76 39.3374 101.268 39.4712 101.712C39.6762 102.232 39.3384 103.762 38.785 105.14C37.9087 107.535 37.0864 125.776 37.7385 128.582C37.9414 129.175 38.2589 130.871 38.5117 132.272C39.2138 135.886 41.5781 140.356 44.2802 143.295C46.4863 145.633 48.0147 146.044 51.2628 145.331Z" fill="#B08959"/>
<path d="M30.1641 144.499C30.3946 144.139 30.4052 143.773 30.0409 143.689C29.7478 143.681 29.974 143.467 30.6421 143.193C31.6076 142.781 31.6267 142.121 30.2927 137.535C28.8249 132.504 28.7537 132.429 27.9634 134.387C27.4918 135.473 26.8545 137.215 26.6028 138.308C26.1184 139.834 26.2586 140.059 27.4419 139.726C28.4031 139.461 29.1987 139.85 29.7552 140.893C30.316 141.79 30.4477 142.307 30.0877 142.077C29.7276 141.846 29.3442 142.422 29.2411 143.446C29.0414 145.274 29.3951 145.724 30.1641 144.499Z" fill="#B08959"/>
<path d="M27.0512 143.089C27.3115 141.703 27.1129 140.964 26.4533 140.945C25.8669 140.928 25.5504 141.725 25.5854 143.047C25.6269 144.148 25.8924 145.11 26.1855 145.118C26.4787 145.127 26.8728 144.184 27.0512 143.089Z" fill="#B08959"/>
<path d="M1.87295 141.112C2.34031 140.172 2.44335 139.148 2.15657 138.92C1.79438 138.763 1.33339 139.483 1.08165 140.576C0.49424 143.126 0.781021 143.354 1.87295 141.112Z" fill="#B08959"/>
<path d="M8.65948 139.841C9.41787 138.983 9.42425 138.763 8.3982 138.733C7.7386 138.714 7.2107 139.212 7.1937 139.799C7.1767 140.385 7.3084 140.902 7.45498 140.906C7.60156 140.911 8.12946 140.413 8.65948 139.841Z" fill="#B08959"/>
<path d="M18.5229 138.661C19.8995 136.72 20.3382 134.239 18.9638 136.106C18.352 136.969 18.2054 136.964 18.3881 135.723C18.4848 134.919 18.4731 132.791 18.4529 130.957L18.402 127.654L17.343 131.291C16.1331 135.07 15.8569 139.537 16.7948 140.077C17.0816 140.306 17.8336 139.668 18.5229 138.661Z" fill="#B08959"/>
<path d="M8.14868 137.26C8.38555 136.68 8.45568 134.261 8.3017 131.983C8.16471 129.118 8.35167 127.73 8.86469 127.745C9.30443 127.758 10.1319 127.048 10.5971 126.181C11.2971 124.808 11.3013 124.661 10.4718 125.444C9.946 125.869 8.83391 126.277 8.10102 126.256C7.07497 126.226 6.77119 126.584 7.03247 127.692C7.22896 128.504 7.0675 129.013 6.70956 128.709C5.77167 128.169 5.88528 131.84 6.88261 135.389C7.41579 137.239 7.8364 137.911 8.14868 137.26Z" fill="#B08959"/>
<path d="M-0.930651 134.282C-1.12289 133.323 -0.95081 132.448 -0.577989 132.239C0.0943646 131.818 -1.28853 128.917 -2.09471 128.894C-2.68103 128.877 -1.60938 134.923 -0.96678 135.528C-0.753288 135.754 -0.736286 135.168 -0.930651 134.282Z" fill="#B08959"/>
<path d="M17.1575 127.618C17.3381 126.45 17.3201 124.542 16.9834 123.506C16.4544 121.51 14.0009 120.118 13.1586 121.341C12.9281 121.701 12.4841 121.835 12.124 121.604C11.8372 121.376 11.6758 121.885 11.8723 122.697C12.0688 123.51 12.5563 124.404 12.9875 124.71C13.4209 124.943 13.4984 124.798 13.218 124.35C12.9397 123.828 13.0969 123.466 13.4634 123.477C13.9031 123.49 14.2568 123.94 14.2398 124.526C14.2228 125.113 14.6455 125.712 15.2255 125.948C15.8054 126.185 16.3641 127.155 16.483 128.112C16.7337 129.586 16.8091 129.515 17.1575 127.618Z" fill="#B08959"/>
<path d="M-0.516896 127.472C-0.50627 127.106 0.0173803 126.754 0.676982 126.774C1.40987 126.795 1.71578 126.364 1.44175 125.695C1.23889 125.103 1.32493 124.665 1.61596 124.747C1.90699 124.829 3.08599 124.643 4.19595 124.308C5.74777 123.913 6.04943 123.629 5.32929 123.168C3.81997 122.097 1.39293 122.32 0.257468 123.534C-0.729294 124.679 -1.63748 128.173 -0.904593 128.195C-0.684726 128.201 -0.529647 127.912 -0.516896 127.472Z" fill="#B08959"/>
<path d="M-38.3327 116.18C-37.4819 114.665 -14.9087 100.136 -4.62267 94.4926C6.55772 88.3619 11.6009 86.4543 16.2202 86.5149C20.8374 86.6488 24.0111 88.5013 24.8746 91.607C25.1359 92.7149 25.3059 91.9129 25.2273 89.5634C25.0882 86.7721 25.3399 85.6791 25.9995 85.6982C26.5126 85.7131 26.9024 84.9176 26.8589 83.8894C26.8886 82.8633 26.5455 82.0465 26.2524 82.038C25.8859 82.0274 25.8944 81.7342 26.1271 81.3009C26.3576 80.9408 26.2949 80.5722 26.0017 80.5637C25.6353 80.5531 24.3437 79.5621 23.0606 78.2779C21.7754 77.0671 19.8328 75.7638 18.8131 75.5141C16.2671 74.7802 11.5405 75.8901 11.7954 77.2178C11.9186 78.0282 11.772 78.0239 10.9871 77.2677C10.1267 76.5826 9.68486 76.6431 8.7066 77.4949C8.10116 78.1375 7.35339 78.6293 7.13565 78.5497C5.67199 78.4339 5.3013 78.5698 5.28005 79.3027C5.26942 79.6692 5.63162 79.8264 6.15314 79.5481C6.67467 79.2698 6.74583 79.3452 6.43567 79.923C5.97681 80.5699 5.61036 80.5592 4.89447 79.9517C4.24975 79.4195 3.7346 79.4779 3.05162 80.265C2.5216 80.8364 1.62725 81.324 1.11423 81.3091C0.527913 81.2921 -0.59055 81.9198 -1.42011 82.7026C-2.24966 83.4854 -3.14826 84.1195 -3.5147 84.1089C-3.80786 84.1004 -4.03623 84.3872 -4.04686 84.7536C-4.05748 85.12 -4.36764 85.6979 -4.74471 86.0537C-5.12178 86.4095 -5.19082 86.2608 -4.88279 85.7563C-4.57476 85.2518 -4.70858 84.8078 -5.07503 84.7971C-5.51476 84.7844 -5.89184 85.1402 -5.90246 85.5067C-5.91521 85.9464 -6.74052 86.5826 -7.7039 86.9214C-10.5186 87.8667 -20.0803 93.8243 -20.1037 94.6304C-20.1143 94.9969 -20.6379 95.3485 -21.2243 95.3315C-21.8106 95.3145 -23.0023 95.9401 -23.8319 96.7229C-24.6614 97.5057 -25.3338 97.9263 -25.3274 97.7064C-25.321 97.4865 -25.7693 97.7669 -26.3705 98.263C-28.4778 100.109 -30.5767 101.662 -31.163 101.645C-31.4561 101.636 -32.5268 103.146 -33.6102 105.095C-34.922 107.331 -35.9821 108.473 -36.8594 108.375C-37.9545 108.196 -38.0342 108.414 -37.2556 109.39C-36.6173 110.142 -36.6237 110.362 -37.2015 110.052C-38.2817 109.36 -39.0486 110.512 -39.7369 114.013C-40.4146 117.147 -39.6424 118.343 -38.3327 116.18ZM10.5611 79.3091C10.3582 78.7165 10.5112 78.5008 10.7959 78.8025C11.0805 79.1042 11.9621 79.0564 12.7056 78.7112C13.6 78.2237 14.1863 78.2407 14.4646 78.7622C14.745 79.2104 14.5187 79.4239 13.9345 79.3336C13.4258 79.1722 13.0508 79.4547 13.1092 79.9698C13.2951 81.1488 10.8914 80.5657 10.5611 79.3091Z" fill="#B08959"/>
<path d="M-4.49561 112.98C-1.80832 111.371 1.18487 109.331 2.23642 108.481L4.11328 106.995L1.87635 108.251C0.609188 108.947 -1.63199 110.349 -3.27623 111.402C-4.84718 112.457 -6.40963 113.218 -6.69641 112.99C-7.27209 112.606 -10.1378 115.311 -9.63544 115.692C-9.49311 115.843 -7.18502 114.663 -4.49561 112.98Z" fill="#B08959"/>
<path d="M23.1842 114.59C22.8996 114.289 22.992 113.631 23.3733 113.129C23.7525 112.7 24.222 111.686 24.3919 110.884C24.4865 110.154 24.8073 109.209 25.1132 108.778C26.2678 106.904 27.5616 97.6998 26.8839 95.773C26.4761 94.6609 25.9886 93.7666 25.7687 93.7602C25.6221 93.756 25.4118 95.9504 25.331 98.7354C25.2524 101.447 24.6246 105.39 23.9767 107.498C23.3308 109.533 22.9867 111.284 23.1333 111.288C23.3531 111.294 23.1141 111.948 22.6531 112.668C22.1082 113.752 22.0934 114.265 22.7423 114.651C23.2469 114.959 23.4667 114.965 23.1842 114.59Z" fill="#B08959"/>
<path d="M6.69639 106.41L8.57324 104.924L6.49564 105.744C5.38143 106.225 4.48284 106.86 4.47221 107.226C4.44883 108.032 4.52425 107.961 6.69639 106.41Z" fill="#B08959"/>
<path d="M-38.428 89.184C-37.9649 88.3906 -36.4513 84.2535 -35.1554 80.0367C-33.134 73.5671 -32.8695 72.0345 -33.5578 70.4741C-34.041 69.4332 -34.6019 68.5367 -34.9683 68.5261C-35.2615 68.5176 -35.4665 67.9982 -35.4495 67.4119C-35.4303 66.7523 -35.9051 65.4182 -36.5371 64.4463C-38.0772 61.9077 -37.22 60.1722 -33.5045 58.5195C-26.5888 55.2726 -15.5508 59.1135 -11.793 66.1174C-11.0941 67.3113 -10.6862 68.4234 -10.8371 68.5657C-10.9879 68.708 -11.4202 70.9694 -11.7899 73.5993C-12.1596 76.2292 -12.6694 78.635 -12.902 79.0683C-13.6689 80.2197 -13.823 83.0026 -13.105 83.5368C-12.7449 83.7673 -11.3269 82.9282 -9.96732 81.574C-7.55193 79.2235 0.455823 68.6731 0.483451 67.7204C0.489827 67.5005 0.799987 66.9227 1.2546 66.4224C4.59408 62.5583 5.81346 60.9799 5.82621 60.5402C5.85384 59.5875 9.67659 56.7643 13.6204 54.8248C15.7044 53.785 17.5685 52.7388 17.7969 52.452C18.2515 51.9517 20.1612 51.8604 29.18 51.9752C34.4611 51.9817 36.4314 52.3322 39.0358 53.5813C46.0513 57.0122 47.2271 59.4669 47.0634 70.1713C47.0028 74.7907 46.9529 79.0436 47.0113 79.5587C47.1175 80.9555 48.374 80.6251 48.9317 79.1009C49.1749 78.3011 49.7761 77.8051 50.2849 77.9666C50.7915 78.2013 52.7353 76.9374 54.6939 75.1604C56.7237 73.4588 58.3011 72.1843 58.2947 72.4041C58.2904 72.5507 60.0813 71.5024 62.1801 69.9495C64.3501 68.4721 67.3391 66.5783 68.7528 65.8858C73.9638 63.2496 76.205 61.8475 76.2199 61.3345C76.2284 61.0413 76.6702 60.9808 77.2501 61.2177C77.8301 61.4546 78.4939 61.3271 78.7998 60.8959C79.0325 60.4625 79.8493 60.1194 80.5822 60.1407C81.2418 60.1598 82.2051 59.821 82.733 59.3229C83.1855 58.8959 84.6662 58.4253 85.9164 58.3149C87.2398 58.2066 88.4942 57.9495 88.7205 57.7361C89.3992 57.0956 89.1529 50.4135 88.2979 47.0146C87.8358 45.2408 87.3823 43.1738 87.2591 42.3634C87.1359 41.5529 86.7238 40.5874 86.368 40.2104C86.0833 39.9087 85.9601 39.0983 86.1949 38.5916C86.7504 37.1407 86.2331 37.2724 81.0285 39.6888C72.5503 43.6973 64.0901 49.6134 63.0545 52.4441C62.8155 53.0973 61.5377 54.1605 60.3459 54.7861C58.1908 55.7505 58.0442 55.7463 57.3538 54.2592C56.8642 53.4382 56.7431 52.5544 56.9694 52.341C57.1956 52.1275 57.0012 51.2416 56.5849 50.4227C55.9635 49.0844 55.5897 46.7996 55.2987 41.6567C55.2467 40.9216 54.9705 40.3268 54.6041 40.3162C54.3109 40.3077 54.2461 40.0124 54.4787 39.5791C54.7092 39.219 54.5733 38.8483 54.1335 38.8355C53.6938 38.8228 53.5557 38.5254 53.7884 38.092C54.0188 37.7319 53.8829 37.3613 53.4432 37.3485C53.0034 37.3358 51.7182 36.1249 50.5127 34.6962C49.1648 33.1168 47.6555 32.0461 46.6295 32.0164C45.6767 31.9887 44.7324 31.668 44.4499 31.293C44.2428 30.8469 43.5184 30.5325 42.7855 30.5112C41.393 30.4709 39.9358 30.1352 38.2002 29.278C36.607 28.5717 26.987 28.9529 25.2004 29.8546C24.0841 30.409 21.7951 30.9295 19.0016 31.1419C18.7063 31.2067 17.9564 31.7717 17.2023 32.4834C16.4503 33.1217 15.6271 33.6846 15.2606 33.674C14.3812 33.6485 7.16054 39.8206 7.13716 40.6268C7.12653 40.9933 6.35964 42.1446 5.375 43.2164C4.46365 44.2902 2.8672 46.2244 1.87832 47.4427C0.887306 48.7342 -0.168497 49.7305 -0.461655 49.722C-0.754806 49.7135 -1.88705 48.287 -3.0108 46.5674C-5.81485 42.085 -8.02943 40.0403 -12.5871 37.8543C-15.8405 36.2196 -17.3732 35.9551 -20.9729 36.1442C-23.469 36.2185 -26.4929 36.791 -27.6847 37.4166C-31.107 39.0777 -35.3971 42.8409 -37.2474 45.9413C-38.0961 47.3838 -39.085 48.602 -39.4514 48.5914C-39.7446 48.5829 -39.9708 48.7964 -39.9082 49.165C-39.8434 49.4603 -40.246 50.6955 -40.793 51.8533C-41.3421 53.0843 -41.9062 54.8284 -42.0825 55.8502C-42.2588 56.872 -42.433 57.8205 -42.5127 58.0382C-42.5924 58.256 -42.6243 59.3553 -42.585 60.5301C-42.5457 61.7048 -42.7868 62.4313 -43.218 62.1254C-44.5139 61.281 -46.546 78.2394 -45.3447 79.8146C-45.2002 79.8922 -45.0664 80.3362 -45.0038 80.7047C-44.9432 81.1466 -44.7382 81.666 -44.6756 82.0346C-44.6108 82.3298 -44.5502 82.7717 -44.6341 83.136C-44.6426 83.4292 -44.4292 83.6554 -43.9894 83.6682C-43.623 83.6788 -43.2693 84.1292 -43.2842 84.6422C-43.299 85.1552 -42.3909 86.7219 -41.2587 88.1484C-39.35 90.6243 -39.2788 90.6997 -38.428 89.184Z" fill="#B08959"/>
<path d="M94.1042 87.0866C94.4122 86.582 94.4961 86.2177 94.2029 86.2092C93.9831 86.2028 94.1509 85.4742 94.6873 84.6829C95.3055 83.6006 95.314 83.3074 94.7192 83.5836C94.271 83.864 93.9066 83.78 93.9173 83.4136C93.93 82.9739 94.3825 82.5469 94.9752 82.344C96.1606 81.9383 96.8945 79.3923 97.5797 73.4708C97.891 70.3257 97.8453 69.3708 97.3089 70.1621C96.7768 70.8068 96.4815 70.8716 96.4963 70.3586C96.5091 69.9189 96.8947 69.2699 97.3429 68.9895C97.9377 68.7133 97.8751 68.3448 97.2282 67.8859C96.5814 67.4271 96.5144 67.2051 97.1008 67.2221C97.9069 67.2454 98.01 66.2215 98.606 53.2557C98.8004 49.0804 97.4166 38.6244 96.6837 38.6032C96.3172 38.5926 96.1314 37.4136 96.1739 35.9478C96.2164 34.482 95.9636 33.081 95.5324 32.7751C94.8855 32.3162 94.2939 29.9519 93.7448 26.1217C93.6259 25.1647 93.1426 24.1238 92.7114 23.8179C92.2801 23.5119 91.8659 22.6197 91.8181 21.7381C91.8415 20.932 91.5653 20.3371 91.2658 20.5485C90.9684 20.6866 90.3927 20.3031 89.8967 19.7019C89.1181 18.7258 89.1936 18.6546 90.2823 19.053C91.44 19.6 91.4443 19.4534 90.3397 17.0742C87.3667 10.8265 82.5117 3.71739 78.5223 -0.359233C74.2439 -4.59094 65.854 -11.2157 65.8285 -10.3363C65.82 -10.0431 65.3176 -10.4244 64.675 -11.0299C64.1078 -11.7065 63.239 -12.0984 62.8661 -11.8892C62.4912 -11.6067 62.2044 -11.835 62.215 -12.2015C62.2278 -12.6412 61.5788 -13.0268 60.8459 -13.048C60.0397 -13.0714 59.1688 -13.3901 58.9617 -13.8362C58.7524 -14.209 57.5904 -14.6094 56.4178 -14.6434C55.3185 -14.6753 54.2276 -15.0004 54.0917 -15.3711C53.8952 -16.1836 48.1223 -16.9378 36.9219 -17.7027C32.8241 -18.0416 29.1681 -18.441 28.808 -18.6715C28.3035 -18.9795 23.6693 -18.5271 13.3578 -17.0657C9.96952 -16.5771 -1.18427 -13.8932 -2.5226 -13.2719C-3.26612 -12.9267 -4.45149 -12.5209 -5.11535 -12.3935C-5.7792 -12.266 -7.40643 -11.7998 -8.59393 -11.3207C-9.85472 -10.8438 -11.038 -10.5114 -11.4023 -10.5953C-11.6933 -10.6771 -11.9196 -10.4636 -11.9281 -10.1705C-11.9366 -9.8773 -13.2037 -9.18054 -14.7577 -8.71214C-26.3077 -5.01278 -55.5396 8.95641 -57.4526 11.6883C-57.8318 12.1174 -58.0537 12.1843 -58.041 11.7446C-58.1037 11.376 -58.4074 11.7339 -58.7994 12.6028C-59.1935 13.5449 -60.1675 14.2502 -60.9737 14.2268C-63.3922 14.1567 -63.4262 15.3293 -61.2063 19.7213C-60.0975 21.954 -59.1394 24.329 -59.1564 24.9153C-59.1734 25.5017 -58.8218 26.0253 -58.4554 26.0359C-58.0157 26.0487 -57.8022 26.2749 -57.8861 26.6392C-58.0603 27.5878 -56.3407 31.5252 -54.6498 33.9215C-53.7332 35.195 -53.183 36.4579 -53.4113 36.7447C-54.2409 37.5275 -52.1782 37.2206 -50.4649 36.3167C-47.2625 34.6491 -45.5343 33.2322 -46.0303 32.631C-46.3129 32.2561 -46.1663 32.2603 -45.6596 32.4951C-45.2284 32.801 -44.4159 32.6045 -43.8147 32.1085C-42.6813 30.9677 -40.3817 30.0809 -38.5431 29.9141C-37.7348 29.8642 -36.9159 29.4479 -36.5346 28.9455C-36.2265 28.4409 -35.8516 28.1584 -35.7093 28.3092C-34.9934 28.9168 -20.1443 22.7458 -20.5628 22.0002C-20.703 21.7761 -19.8925 21.6529 -18.6488 21.7623C-17.4783 21.8696 -16.5212 21.7506 -16.5127 21.4575C-16.5042 21.1643 -15.0926 20.5451 -13.3921 20.0809C-11.6183 19.6189 -9.54706 19.0188 -8.73238 18.749C-7.91557 18.406 -4.44124 17.4798 -0.969022 16.6269C2.50107 15.8474 5.60683 14.9839 6.05294 14.7767C6.42576 14.5675 7.09174 14.3668 7.5336 14.3062C7.90217 14.2436 12.325 13.4916 17.2673 12.5347C22.1341 11.6489 27.2187 10.8428 28.4667 10.8056C29.7148 10.7684 30.7493 10.505 30.7557 10.2852C30.7833 9.33241 54.1891 11.6248 60.2296 13.267C66.0523 14.8295 74.3137 18.2965 75.2304 19.5701C75.4439 19.7963 76.3775 20.4835 77.3887 21.0263C79.5555 22.1894 85.9751 28.4637 85.9496 29.3431C85.939 29.7096 86.5019 30.5328 87.2157 31.2136C87.9294 31.8945 88.9066 33.6099 89.4525 35.0194C89.9252 36.4267 90.6283 37.474 91.0011 37.2648C91.3007 37.0534 91.3633 37.422 91.1243 38.0752C90.812 38.7263 91.2178 39.9117 91.9252 40.8124C92.7058 41.7153 92.8397 42.1593 92.3351 41.8512C91.3994 41.2373 91.0765 42.2548 91.9304 43.1598C92.2172 43.3882 92.4913 44.0563 92.5497 44.5714C92.6814 45.0887 92.9405 46.2698 93.1306 47.3022C94.6813 54.5356 95.3153 65.5566 94.251 66.846C93.9451 67.2773 93.6019 71.5216 93.5392 76.2143C93.5498 80.909 93.2906 84.7891 93.0665 84.9293C92.7712 84.9941 92.8232 85.7291 93.0951 86.4705C93.3585 87.505 93.7207 87.6622 94.1042 87.0866Z" fill="#B08959"/>
<path d="M108.149 65.6352C110.571 63.0648 110.301 62.2502 107.475 63.5619C105.467 64.5306 105.245 64.5975 106.079 63.6681C106.839 62.7366 106.772 62.5146 105.464 62.1099C103.573 61.5416 104.068 59.6489 107.276 55.2675C109.723 51.8176 109.589 51.3736 106.879 53.7889C105.297 55.2101 101.877 61.8592 101.824 63.6914C101.811 64.1311 102.462 64.4434 103.268 64.4668C104.074 64.4902 104.723 64.8758 104.713 65.2422C104.7 65.6819 104.105 65.9581 103.446 65.939C101.906 65.8943 102.407 66.3489 104.664 66.9279C106.046 67.3347 106.936 66.9937 108.149 65.6352Z" fill="#B08959"/>
<path d="M124.448 52.3912C125.688 50.0799 126.407 48.047 126.131 47.4522C125.78 46.9285 125.859 46.7108 126.291 47.0167C126.722 47.3226 127.252 46.7511 127.501 45.7315C127.678 44.7097 127.561 43.6794 127.274 43.451C126.914 43.2205 126.612 43.5052 126.595 44.0915C126.549 45.7038 124.53 47.039 124.124 45.8536C123.848 45.2588 123.699 45.3278 123.673 46.2073C123.57 47.2312 123.348 47.2981 122.197 46.5312C121.406 45.9948 120.839 45.3182 120.925 44.8806C121.008 44.5163 120.51 43.9884 119.782 43.8206C118.835 43.5731 118.605 43.9331 118.786 45.2587C118.979 46.2178 119.098 47.1749 119.087 47.5413C119.152 47.8366 119.512 48.0671 119.952 48.0798C120.978 48.1096 123.46 51.0422 123.426 52.2149C123.413 52.6546 123.025 53.3769 122.573 53.8038C122.12 54.2308 121.877 55.0306 122.009 55.5479C122.141 56.0652 123.282 54.6313 124.448 52.3912Z" fill="#B08959"/>
<path d="M108.223 40.4045C109.714 39.5675 110.628 38.4204 110.653 37.541C110.679 36.6615 110.984 36.2302 111.418 36.4629C111.778 36.6934 112.153 36.4108 112.17 35.8245C112.189 35.1649 112.497 34.6604 112.863 34.671C113.596 34.6923 115.615 30.8632 116.51 27.8084C117.08 25.8445 117.011 25.6958 115.811 26.6146C115.134 27.1817 114.669 28.0485 114.872 28.6412C115.146 29.3093 114.922 29.4495 114.417 29.1414C113.842 28.758 113.762 28.9757 114.032 29.7904C114.231 30.5297 114.142 31.0406 113.849 31.0321C112.677 30.9981 112.443 28.9375 113.568 28.0899C114.169 27.5939 114.634 26.7271 114.649 26.2141C114.666 25.6278 114.972 25.1966 115.412 25.2093C115.778 25.2199 115.94 24.7112 115.737 24.1185C115.124 22.487 113.542 23.9081 112.953 26.5317C112.699 27.6979 111.924 29.1425 111.32 29.7118C110.415 30.5657 110.331 30.9301 111.056 31.2445C111.636 31.4813 111.476 31.9168 110.5 32.6954C109.675 33.3316 109.44 33.8382 109.88 33.851C110.393 33.8659 110.749 34.2429 110.738 34.6094C110.725 35.0491 110.353 35.2584 109.915 35.1723C109.479 35.013 108.73 35.5781 108.266 36.3715C106.731 38.7475 105.451 39.884 105.485 38.7114C105.506 37.9785 105.284 38.0454 104.747 38.8367C104.364 39.4124 103.993 39.5484 104.004 39.1819C104.017 38.7422 104.329 38.0911 104.706 37.7353C105.085 37.3061 104.818 36.4182 103.89 35.5111C103.108 34.6815 102.747 34.451 103.024 35.0458C103.371 35.7161 103.132 36.3693 102.457 36.8632C101.109 37.851 101.87 39.4134 104.395 40.8803C105.548 41.5739 106.359 41.4507 108.223 40.4045Z" fill="#B08959"/>
<path d="M143.729 35.1992C144.649 33.8322 145.133 32.3058 144.853 31.8576C144.574 31.3361 144.652 31.1916 145.156 31.4997C146.381 32.2687 148.08 29.3106 147.784 26.8814C147.607 25.4093 146.623 23.9137 144.903 22.5435C141.25 19.5036 140.159 19.1785 138.058 20.8047L136.185 22.144L134.488 19.9676C133.494 18.8386 132.45 16.9012 132.044 15.7158C131.565 14.5283 130.484 11.3428 129.536 8.6014C128.587 5.93324 127.782 3.34262 127.795 2.90289C127.807 2.46315 127.598 2.09033 127.232 2.0797C126.938 2.0712 126.669 1.25652 126.698 0.230474C126.655 -0.797699 126.402 -2.19869 126.13 -2.94008C125.578 -4.12971 125.455 -4.94014 125.316 -7.7315C125.147 -9.49682 123.729 -8.65773 123.674 -6.75221C123.65 -5.94603 123.12 -5.37459 122.461 -5.39372C121.728 -5.41497 121.422 -4.98374 121.625 -4.39105C121.827 -3.79836 121.737 -3.21418 121.366 -3.07822C120.922 -2.9444 120.436 -1.34479 120.234 0.556478C119.959 2.45562 119.535 4.4238 119.227 4.92832C118.846 5.43072 118.5 7.25445 118.304 8.93585C118.081 11.57 118.217 11.9407 119.047 11.1579C119.646 10.7352 119.956 10.1573 119.813 10.0065C119.671 9.85569 120.052 9.35329 120.725 8.93269C121.324 8.50995 121.942 7.42762 121.965 6.62144C122.144 5.52635 122.521 5.17054 123.394 5.4159C124.703 5.8206 125.451 7.82279 125.369 10.6811C125.343 11.5605 125.615 12.3019 125.908 12.3104C126.568 12.3296 126.468 15.7741 125.789 16.4146C125.263 16.8395 125.842 19.6436 126.502 19.6627C126.722 19.6691 126.991 20.4838 126.964 21.4365C127.099 24.3745 134.63 35.3021 136.609 35.3595C137.269 35.3786 137.846 35.6887 137.985 35.9861C138.047 36.3547 139.058 36.8975 140.151 37.1492C141.824 37.6379 142.272 37.3574 143.729 35.1992Z" fill="#B08959"/>
<path d="M124.889 34.7996C125.204 34.0752 125.87 33.8745 126.963 34.1262C128.053 34.4513 128.422 34.3886 128.072 33.7917C127.514 32.8219 123.272 32.4055 123.244 33.3582C123.235 33.6514 123.509 34.3195 123.861 34.8432C124.351 35.6642 124.497 35.6685 124.889 34.7996Z" fill="#B08959"/>
<path d="M105.062 32.9041C105.378 32.1064 104.763 30.5482 103.357 28.4536L101.174 25.3096L100.604 27.2735C100.12 28.7999 100.314 29.6857 101.379 30.8902C102.514 32.2434 102.878 32.3273 103.488 31.5382C103.951 30.7447 104.164 30.971 104.346 32.2965C104.452 33.6933 104.668 33.8462 105.062 32.9041Z" fill="#B08959"/>
<path d="M100.829 19.5051C101.868 16.5279 102.284 14.8529 102.953 12.0116C103.295 10.3345 104.31 5.66946 104.474 5.08739C104.48 4.86753 104.07 3.82873 103.591 2.64122C102.834 0.932198 102.849 0.419175 103.676 -0.290338C104.428 -0.928688 104.502 -0.926563 104.116 -0.277587C103.808 0.226936 103.854 1.18182 104.199 1.92534C104.758 2.8951 104.988 2.53503 105.347 0.271565C105.612 -1.26113 105.889 -3.23356 105.912 -4.03974C106.009 -4.84379 106.337 -8.57516 106.663 -12.2332L107.301 -19.0364L104.589 -19.115L101.877 -19.1936L102.303 -16.1739C102.85 -12.2705 102.523 -0.983944 101.749 2.95454C101.327 4.84943 101.375 5.73102 101.896 5.45274C102.791 4.96522 102.04 8.09753 101.143 8.65834C100.395 9.15011 99.9099 13.2437 100.611 14.3643C100.889 14.8858 100.866 15.692 100.411 16.1922C99.8769 16.9103 99.1269 22.5365 99.64 22.5514C99.7865 22.5556 100.267 21.1759 100.829 19.5051Z" fill="#B08959"/>
<path d="M118.957 19.2976C119.265 18.7931 119.194 18.7177 118.673 18.996C118.151 19.2743 117.789 19.1171 117.802 18.6773C117.814 18.2376 117.452 18.0804 117.079 18.2896C116.258 18.7793 116.733 20.1134 117.759 20.1431C118.125 20.1537 118.649 19.8022 118.957 19.2976Z" fill="#B08959"/>
<path d="M167.231 13.8757C168.787 13.334 170.041 13.077 170.037 13.2236C170.031 13.4434 170.703 13.0228 171.604 12.3154C174.082 10.3335 175.335 7.5825 174.743 5.21812L174.292 3.07786L165.879 2.32044C161.27 1.89339 156.517 1.38881 155.351 1.13494C154.109 0.952228 152.576 0.687731 151.843 0.666479C150.087 0.542184 150.374 -1.79669 152.318 -3.06064C153.288 -3.61932 154.251 -3.95814 154.542 -3.87635C154.907 -3.79244 155.135 -4.07922 155.148 -4.51895C155.158 -4.8854 155.456 -5.02348 155.889 -4.79086C156.249 -4.56036 156.618 -4.62303 156.626 -4.91618C156.637 -5.28263 158.796 -6.39362 161.469 -7.48974C164.139 -8.51257 166.301 -9.69685 166.311 -10.0633C166.322 -10.4297 166.77 -10.7101 167.356 -10.6931C167.943 -10.6761 168.91 -11.1615 169.587 -11.7287C170.192 -12.3713 171.013 -12.861 171.307 -12.8525C172.264 -12.9714 177.472 -15.5344 177.485 -15.9741C177.492 -16.194 177.272 -16.2003 176.901 -16.0644C176.604 -15.9263 173.797 -15.2742 170.625 -14.6327C167.525 -13.989 164.935 -13.1839 164.924 -12.8175C164.913 -12.4511 164.616 -12.313 164.185 -12.6189C162.169 -13.9243 146.359 -4.99385 147.479 -3.12761C147.615 -2.75692 147.156 -2.11007 146.262 -1.62255C145.441 -1.1329 144.758 -0.345847 144.745 0.0938872C144.732 0.533623 144.039 1.68712 143.203 2.68979C142.289 3.83692 141.97 4.70788 142.469 5.23578C143.465 6.29159 142.147 8.74729 140.608 8.70266C139.948 8.68353 139.424 9.0351 139.487 9.40367C139.621 9.84765 139.981 10.0781 140.352 9.9422C140.722 9.80624 140.783 10.2481 140.546 10.828C139.997 12.0591 140.721 12.3735 147.285 13.6641C153.852 14.8814 163.899 14.9527 167.231 13.8757Z" fill="#B08959"/>
<path d="M141.92 6.46681C142.235 5.74242 142.023 5.44289 141.506 5.57459C140.396 5.90916 139.761 7.5778 140.714 7.60543C141.08 7.61606 141.681 7.12004 141.92 6.46681Z" fill="#B08959"/>
<path d="M176.379 4.45856C176.038 3.56847 176.188 3.42614 176.909 3.88713C177.558 4.2727 177.706 4.20366 177.357 3.60672C177.076 3.15849 176.496 2.92162 176.124 3.13086C175.227 3.69167 175.17 5.67048 176.123 5.6981C176.489 5.70873 176.577 5.19783 176.379 4.45856Z" fill="#B08959"/>
<path d="M189.562 0.0727306C189.65 -0.438168 189.67 -1.09777 189.605 -1.39305C189.615 -1.7595 190.062 -1.96661 190.648 -1.94961C191.674 -1.91986 192.066 -2.7887 191.888 -4.26086C191.899 -4.62731 192.125 -4.8408 192.418 -4.8323C192.712 -4.8238 193.024 -5.4749 193.121 -6.27895C193.219 -7.15629 192.087 -8.58279 189.935 -10.2589C184.84 -14.1475 184.327 -14.1624 182.845 -11.1247C182.07 -9.68013 181.137 -7.8734 180.825 -7.2223C179.742 -5.27325 182.676 -2.76757 185.549 -3.19771C187.463 -3.43561 187.537 -3.43349 186.052 -2.81639C185.162 -2.47545 184.414 -1.98368 184.408 -1.76381C184.399 -1.47065 184.692 -1.46215 185.067 -1.74468C185.44 -1.95392 185.949 -1.79247 186.229 -1.34423C186.438 -0.971412 187.297 -0.213018 188.092 0.176804C189.101 0.79287 189.47 0.730207 189.562 0.0727306Z" fill="#B08959"/>
<path d="M4.97453 254.528C5.20503 254.168 5.22628 253.435 4.948 252.914C4.66759 252.465 4.74513 252.321 5.17849 252.554C5.60973 252.86 6.35112 252.588 6.80573 252.087C7.56412 251.229 7.49508 251.08 6.38937 251.268C5.65223 251.394 4.8418 251.517 4.62193 251.511C4.18007 251.571 3.92723 255.231 4.36697 255.244C4.44026 255.246 4.74192 254.962 4.97453 254.528Z" fill="#B08959"/>
<path d="M2.12226 254.152C2.87215 253.587 3.33314 252.867 2.97519 252.563C2.69054 252.262 2.46642 252.402 2.45367 252.842C2.43879 253.355 1.91514 253.706 1.32883 253.689C0.742514 253.672 0.218864 254.024 0.208238 254.39C0.18061 255.343 0.400478 255.35 2.12226 254.152Z" fill="#B08959"/>
<path d="M13.7595 217.008C13.8169 215.029 13.7107 213.632 13.4845 213.846C12.8811 214.415 12.6612 219.47 13.1572 220.071C13.444 220.299 13.7021 218.986 13.7595 217.008Z" fill="#B08959"/>
<path d="M15.1409 204.871C19.2037 203.889 24.8099 197.743 25.7478 193.222C26.092 191.472 26.0229 191.323 25.0468 192.102C24.4456 192.598 24.0558 193.393 24.2587 193.986C24.8003 195.542 23.8741 197.129 22.335 197.084C21.0158 197.046 21.0201 196.9 22.0409 194.582C23.0616 192.264 23.0659 192.118 21.3303 191.261C19.8125 190.483 19.6744 190.186 20.4328 189.327C21.2666 188.398 21.1955 188.323 20.1588 188.659C19.2687 189 19.0552 188.774 19.5247 187.761C19.8433 186.89 19.7764 186.668 19.1795 187.017C18.658 187.295 18.2681 188.091 18.249 188.751C18.2171 189.85 18.0706 189.846 17.4386 188.874C16.8066 187.902 16.7333 187.9 16.9988 188.861C17.1284 189.452 17.702 189.908 18.1438 189.848C19.1784 189.584 19.1401 190.904 18.095 191.533C17.5734 191.812 17.9898 192.631 19.2771 193.768L21.3515 195.589L19.2463 197.362C16.7661 199.417 14.6343 199.575 13.6593 197.786C12.9625 196.519 12.816 196.515 11.7495 197.878C10.459 199.381 10.306 204.657 11.4914 204.252C11.8621 204.116 12.3708 204.277 12.5779 204.723C12.7872 205.096 13.9598 205.13 15.1409 204.871Z" fill="#B08959"/>
<path d="M5.90231 194.627C6.12855 194.414 7.08981 194.148 8.04682 194.03C8.92841 193.982 9.88542 193.863 10.1053 193.869C10.3273 193.802 10.562 193.296 10.579 192.709C10.6024 191.903 10.3847 191.823 9.55935 192.46C8.96029 192.882 8.59172 192.945 8.67563 192.581C8.75955 192.216 8.78718 191.264 8.73727 190.455C8.70223 189.134 8.63107 189.059 7.86205 190.283C7.47647 190.932 6.65329 191.495 6.14027 191.48C5.55396 191.463 4.94852 192.106 4.70527 192.906C4.29632 194.361 4.99733 195.481 5.90231 194.627Z" fill="#B08959"/>
<path d="M14.4878 192.016C15.8952 191.543 16.4943 191.12 15.8347 191.101C15.1772 191.009 14.3816 190.619 14.1034 190.097C13.7518 189.574 13.9738 189.507 14.6228 189.892C15.4874 190.431 15.4895 190.358 14.6355 189.453C13.926 188.625 13.5596 188.615 13.3184 189.341C13.0858 189.775 12.5664 189.98 12.1352 189.674C11.5574 189.363 11.6243 189.585 12.1893 190.335C12.8946 191.309 12.8861 191.603 12.1447 191.874C11.6274 192.006 11.3258 192.291 11.5393 192.517C11.7549 192.67 13.0805 192.488 14.4878 192.016Z" fill="#B08959"/>
<path d="M17.9274 184.781C18.7485 184.291 19.2807 183.647 19.065 183.494C18.9227 183.343 18.108 183.613 17.3581 184.178C16.5371 184.667 16.0049 185.312 16.2205 185.465C16.3629 185.616 17.1776 185.346 17.9274 184.781Z" fill="#B08959"/>
<path d="M23.8702 184.733C24.1006 184.373 23.7597 183.483 23.1171 182.878C22.5499 182.201 22.3449 181.682 22.7847 181.694C23.2244 181.707 23.6015 181.351 23.6142 180.911C23.6461 179.812 21.6184 181.44 20.4638 183.314C19.766 184.614 19.8371 184.69 21.6821 184.303C22.9365 184.046 23.4474 184.134 23.1394 184.639C22.9089 184.999 22.825 185.363 23.0448 185.369C23.2647 185.376 23.5664 185.091 23.8702 184.733Z" fill="#B08959"/>
<path d="M4.49072 182.631C5.90659 181.865 6.80306 181.304 6.51203 181.222C5.70585 181.199 1.54003 183.205 1.52728 183.645C1.5124 184.158 1.58569 184.16 4.49072 182.631Z" fill="#B08959"/>
<path d="M32.6378 173.178C33.461 172.615 33.17 172.533 31.547 172.853C28.8183 173.36 28.2192 173.783 30.1247 173.838C30.8576 173.86 32.0409 173.527 32.6378 173.178Z" fill="#B08959"/>
<path d="M36.6902 172.562C38.0997 172.016 38.1018 171.943 36.5627 171.898C35.6854 171.799 34.722 172.138 34.4915 172.498C33.953 173.363 34.6126 173.382 36.6902 172.562Z" fill="#B08959"/>
<path d="M40.0362 170.898C41.0634 168.361 40.6427 167.689 38.9836 169.254C38.0808 170.035 37.9884 170.692 38.4738 171.66C39.0261 172.85 39.2481 172.783 40.0362 170.898Z" fill="#B08959"/>
<path d="M43.1514 164.68L44.7022 161.791L42.1413 161.57C40.7509 161.457 39.0674 161.335 38.4811 161.318C37.8969 161.227 37.3733 161.579 37.4359 161.947C37.4965 162.389 37.7832 162.618 38.1518 162.555C39.1864 162.292 38.9261 163.678 37.814 164.086C37.3679 164.293 37.8788 164.381 39.1332 164.124C40.3122 163.938 41.4997 163.459 41.5836 163.095C41.7408 162.732 42.1848 162.599 42.4716 162.827C42.8317 163.057 42.9591 163.721 42.7223 164.301C42.4121 164.879 42.035 165.235 41.7461 165.08C41.4593 164.851 41.2246 165.358 41.2012 166.164C41.1438 168.143 41.368 168.003 43.1514 164.68Z" fill="#B08959"/>
<path d="M6.72578 161.277C7.01475 156.371 6.84588 154.606 6.20541 153.927C5.92075 153.625 5.70617 155.966 5.76349 159.049C5.79955 162.864 5.61047 164.325 5.1187 163.578C4.76926 162.981 4.64393 162.244 4.79901 161.955C5.02738 161.668 4.8893 161.371 4.44957 161.358C4.08312 161.347 3.63276 161.701 3.47343 162.136C3.23656 162.716 2.87224 162.632 2.15848 161.952C1.58917 161.348 0.358129 160.799 -0.590379 160.625C-2.48739 160.276 -5.78218 157.54 -5.74606 156.294C-5.7333 155.855 -6.60215 155.463 -7.77265 155.355C-9.60062 155.156 -9.67604 155.227 -8.15397 155.858C-5.90964 156.876 -6.07109 157.385 -8.55017 156.873L-10.5183 156.449L-8.28889 157.981C-5.55278 159.747 4.92962 165.039 5.80909 165.065C6.17553 165.075 6.59298 163.327 6.72578 161.277Z" fill="#B08959"/>
<path d="M18.8331 158.401C18.6302 157.808 18.712 157.517 19.1454 157.75C19.5055 157.98 19.7402 157.473 19.6882 156.738C19.6553 155.344 19.582 155.342 18.3042 156.405C17.0264 157.468 16.9531 157.466 16.9935 156.073C17.0169 155.267 16.5962 154.595 16.0099 154.578C15.277 154.557 15.3333 155.145 16.3774 157.082C17.7731 159.543 19.5777 160.549 18.8331 158.401Z" fill="#B08959"/>
<path d="M22.5431 156.968C23.5384 155.529 23.549 155.163 22.7237 155.799C22.1225 156.295 21.4544 156.569 21.3142 156.345C21.0986 156.192 20.9371 156.701 20.9159 157.434C20.8628 159.266 20.8628 159.266 22.5431 156.968Z" fill="#B08959"/>
<path d="M39.7402 155.853C40.7461 154.048 40.7801 152.876 39.7848 154.314C39.1709 155.25 39.0243 155.245 39.0562 154.146C39.0753 153.486 38.8034 152.745 38.4433 152.515C38.1566 152.286 37.9909 152.941 38.1831 153.901C38.4879 156.037 37.8952 156.24 36.4029 154.583C35.7603 153.977 35.6286 153.46 36.0683 153.473C36.4348 153.483 36.6026 152.755 36.4815 151.871C36.2893 150.912 36.1034 149.733 36.1162 149.293C36.0578 148.778 35.6308 148.325 35.0445 148.308C34.5315 148.293 33.6754 147.462 33.2654 146.423C32.8554 145.384 32.2192 144.559 31.8527 144.548C31.4863 144.538 31.4215 144.242 31.6541 143.809C31.8846 143.449 31.6021 143.074 30.9425 143.055C30.2829 143.036 30.0003 142.661 30.2308 142.301C30.4635 141.867 30.1852 141.346 29.6052 141.109C28.952 140.87 28.6737 140.348 28.9042 139.988C29.4406 139.197 28.4146 139.167 27.072 139.935C26.3242 140.427 26.2403 140.791 26.9413 141.912C27.6402 143.106 27.7135 143.108 27.3768 142.071C26.9148 140.297 27.5702 140.463 29.1251 142.489C29.9037 143.465 30.1692 144.426 29.7146 144.926C29.0295 145.787 32.3136 153.95 33.961 155.319C34.5346 155.775 35.8368 156.4 36.9276 156.725C38.456 157.136 39.122 156.935 39.7402 155.853Z" fill="#B08959"/>
<path d="M2.06811 149.919C0.655454 148.044 -0.698784 146.685 -0.922902 146.825C-1.07586 147.041 -0.799702 147.636 -0.303679 148.237C0.267757 148.767 1.32671 150.191 2.10314 151.241C2.87744 152.363 3.73141 153.268 4.09785 153.279C4.4643 153.289 3.55405 151.796 2.06811 149.919Z" fill="#B08959"/>
<path d="M25.653 148.476C25.892 147.823 26.2149 146.805 26.4518 146.225C26.6154 145.643 26.4837 145.126 26.0439 145.113C25.6042 145.1 25.5415 144.732 25.8496 144.227C26.2309 143.725 26.0864 143.647 25.4895 143.997C24.968 144.275 24.6451 145.293 24.8373 146.252C24.9562 147.209 24.7927 147.791 24.5059 147.562C24.1458 147.332 23.8484 147.47 23.8357 147.91C23.7995 149.156 25.2526 149.638 25.653 148.476Z" fill="#B08959"/>
<path d="M51.544 146.073C53.3868 145.759 53.7809 144.817 52.4118 143.971C51.9073 143.663 51.8318 143.734 52.1101 144.255C52.3884 144.777 52.1579 145.137 51.425 145.116C50.7654 145.097 50.4808 144.795 50.7134 144.362C50.946 143.928 50.655 143.846 49.9869 144.121C49.0989 144.388 49.0171 144.679 49.6661 145.065C50.2396 145.522 50.0867 145.737 49.1254 146.003C47.427 146.394 49.3325 146.449 51.544 146.073Z" fill="#B08959"/>
<path d="M43.9982 143.067C43.293 142.093 42.439 141.188 42.0725 141.177C41.7061 141.167 42.1225 141.986 43.0455 143.039C45.1761 145.448 45.6159 145.461 43.9982 143.067Z" fill="#B08959"/>
<path d="M60.7901 138.345C62.7052 135.54 62.5905 134.437 60.6212 136.58C59.9382 137.367 59.5527 138.016 59.6992 138.02C59.9191 138.027 59.7534 138.682 59.2903 139.476C57.8988 141.929 59.0237 141.082 60.7901 138.345Z" fill="#B08959"/>
<path d="M9.024 137.651C9.26087 137.071 9.12916 136.554 8.76272 136.543C8.32298 136.531 8.0192 136.889 8.00645 137.328C7.99582 137.695 7.62513 137.831 7.26506 137.6C6.8317 137.368 6.53429 137.506 6.52367 137.872C6.48754 139.118 8.47485 138.882 9.024 137.651Z" fill="#B08959"/>
<path d="M0.677576 136.969C0.688202 136.603 0.985609 136.465 1.41897 136.698C1.77904 136.928 2.15398 136.646 2.17099 136.059C2.19011 135.4 1.75888 135.094 1.16619 135.297C0.424799 135.568 -5.92504e-05 135.043 -0.106258 133.646C-0.27087 131.734 -0.344159 131.732 -1.40633 132.948C-2.08931 133.735 -2.17323 134.099 -1.64958 133.748C-0.757359 133.334 -0.295341 135.107 -0.723417 137.222C-0.731918 137.515 -0.518427 137.742 -0.0786922 137.754C0.287753 137.765 0.664825 137.409 0.677576 136.969Z" fill="#B08959"/>
<path d="M18.1734 128.088C18.524 126.118 18.4241 124.501 17.5893 122.936C16.1374 119.887 15.6222 119.945 16.8522 123.062C17.329 124.323 17.8059 125.583 17.8729 125.805C17.9398 126.027 17.6169 127.045 17.1452 128.131C16.6736 129.218 16.6418 130.317 16.9285 130.546C17.2886 130.776 17.8356 129.618 18.1734 128.088Z" fill="#B08959"/>
<path d="M6.03794 129.276C6.05282 128.763 6.35448 128.479 6.64126 128.707C7.50585 129.246 7.24567 125.571 6.3917 124.666C5.89355 124.138 4.94292 124.037 3.90625 124.373C2.94499 124.639 1.83928 124.827 1.54824 124.745C1.25721 124.663 1.3135 125.252 1.72986 126.071C2.14621 126.89 2.93327 127.573 3.51958 127.59C4.10589 127.607 4.89507 128.216 5.24026 128.96C5.65875 129.706 6.02094 129.863 6.03794 129.276Z" fill="#B08959"/>
<path d="M66.2025 128.6C67.1266 127.086 70.1369 119.399 70.1603 118.592C70.2006 117.2 68.5702 120.307 67.0523 124.59C65.7798 128.001 65.0841 129.228 64.6634 128.555C64.2428 127.883 64.0251 127.803 64.0081 128.39C63.9613 130.002 65.3496 130.189 66.2025 128.6Z" fill="#B08959"/>
<path d="M12.8842 125.881C14.2873 125.554 14.7866 123.515 13.4674 123.477C13.1009 123.466 12.9416 123.902 13.2199 124.423C13.5672 125.093 13.4939 125.091 12.709 124.335C11.9262 123.506 11.9368 123.139 12.7834 121.77C13.7786 120.332 13.7807 120.258 12.6538 121.179C11.906 121.671 11.3866 121.876 11.3972 121.51C11.4079 121.143 10.8003 121.859 9.96012 123.008C8.34879 125.456 8.60369 126.783 10.403 125.442C11.3037 124.734 11.4503 124.739 10.9893 125.459C10.4508 126.323 10.6685 126.403 12.8842 125.881Z" fill="#B08959"/>
<path d="M0.79123 123.036C1.02385 122.603 2.20285 122.417 3.37122 122.597C4.46419 122.849 5.27462 122.726 5.06537 122.353C4.4334 121.381 1.34676 121.585 0.359996 122.73C-0.170029 123.301 -0.404772 123.808 -0.184905 123.814C0.0349618 123.821 0.485323 123.467 0.79123 123.036Z" fill="#B08959"/>
<path d="M37.6747 115.89C37.8818 111.275 37.7194 109.29 37.3879 110.601C36.57 113.511 36.1366 123.401 36.7962 123.42C37.1626 123.431 37.5535 120.068 37.6747 115.89Z" fill="#B08959"/>
<path d="M39.4185 103.691C39.7371 102.82 39.8359 101.943 39.6224 101.716C39.4068 101.563 39.0255 102.066 38.7068 102.937C38.3882 103.808 38.2894 104.685 38.5029 104.911C38.7185 105.064 39.0998 104.562 39.4185 103.691Z" fill="#B08959"/>
<path d="M51.6309 100.011C53.0531 99.0255 53.8827 98.2427 53.5162 98.2321C53.0765 98.2193 51.7339 98.9872 50.5315 99.9793C47.6074 102.168 48.267 102.187 51.6309 100.011Z" fill="#B08959"/>
<path d="M73.7636 95.5915C73.8932 91.1209 74.1471 89.9546 75.1901 89.398C75.9358 88.9796 76.1663 88.6195 75.7265 88.6067C74.4806 88.5706 71.6924 91.1304 72.2575 91.8803C72.5421 92.1819 72.2511 92.1001 71.6775 91.6434C70.746 90.8829 70.5867 91.3184 70.4305 94.1745C70.302 96.0779 70.3434 97.1794 70.5781 96.6727C71.1315 95.2951 72.2723 96.4285 72.2149 98.4073C72.1873 99.36 72.4507 100.395 72.884 100.627C73.3153 100.933 73.6616 99.1094 73.7636 95.5915Z" fill="#B08959"/>
<path d="M27.923 92.9422C28.6369 88.5618 28.1866 83.8543 27.0352 83.0874C26.604 82.7815 26.4446 83.217 26.7834 84.1804C27.0468 85.215 26.8854 85.7237 26.2258 85.7046C25.4929 85.6833 25.1679 86.7742 25.1561 89.7079C25.0924 91.9065 25.3324 93.7473 25.6256 93.7558C25.9187 93.7643 26.4105 94.512 26.7514 95.4021C27.2262 96.7362 27.461 96.2296 27.923 92.9422Z" fill="#B08959"/>
<path d="M94.7732 89.3794C95.0143 88.6529 95.4211 87.271 95.5975 86.2492C95.8471 85.2295 96.426 82.9724 96.9167 81.2263C97.4075 79.4801 97.6741 77.8741 97.4585 77.7211C97.245 77.4949 96.7776 78.4349 96.3729 79.7435C95.3872 83.3824 93.6431 82.8184 93.2449 78.8459C92.8965 75.6817 92.8944 75.755 92.6936 80.1502C92.548 82.6399 92.7084 84.6984 93.1481 84.7112C93.5146 84.7218 93.7472 84.2884 93.6134 83.8444C93.555 83.3293 93.5613 83.1094 93.6973 83.4801C93.9087 83.7797 94.3484 83.7924 94.7945 83.5853C95.316 83.307 95.3075 83.6002 94.769 84.4648C94.0711 85.7648 93.9139 86.127 93.727 87.5153C93.7185 87.8084 93.4381 87.3602 93.095 86.5434C92.5491 85.1339 92.4758 85.1318 92.429 86.7441C92.3302 87.6215 92.6021 88.3629 93.0419 88.3756C93.4083 88.3862 93.54 88.9035 93.3032 89.4835C92.993 90.0613 93.198 90.5807 93.5644 90.5913C94.0042 90.604 94.5342 90.0326 94.7732 89.3794Z" fill="#B08959"/>
<path d="M49.1559 86.5897L51.7285 83.877L48.8713 86.288C46.3093 88.6343 45.706 89.2036 46.2923 89.2206C46.4389 89.2249 47.7209 88.0151 49.1559 86.5897Z" fill="#B08959"/>
<path d="M11.2796 87.6918C13.5664 87.2446 14.2558 86.2377 12.1198 86.5425C11.0141 86.7305 9.97527 87.1405 9.74477 87.5006C9.51428 87.8606 9.43462 88.0784 9.58119 88.0826C9.7299 88.0136 10.467 87.8883 11.2796 87.6918Z" fill="#B08959"/>
<path d="M18.0593 86.4214C17.404 86.2557 16.2313 86.2217 15.4942 86.347C14.8282 86.5478 15.4103 86.7113 16.8028 86.7517C18.1953 86.7921 18.7858 86.6625 18.0593 86.4214Z" fill="#B08959"/>
<path d="M87.1959 87.6188C87.2044 87.3257 85.8894 87.1409 84.2728 87.2407C82.6562 87.3405 81.3285 87.5954 81.3243 87.742C81.32 87.8886 82.635 88.0734 84.2473 88.1202C85.8597 88.1669 87.1853 87.9853 87.1959 87.6188Z" fill="#B08959"/>
<path d="M46.8175 81.387C47.4834 81.1863 47.5716 80.6754 47.1552 79.8565C46.8079 79.1862 46.7485 76.1771 46.9068 73.2477C47.0651 70.3183 47.131 68.0463 46.9801 68.1886C46.8293 68.331 46.0932 70.9502 45.3422 74.0825C43.7499 80.9313 43.9985 82.4789 46.8175 81.387Z" fill="#B08959"/>
<path d="M13.1156 79.9694C13.0571 79.4543 13.4321 79.1717 13.9409 79.3332C14.525 79.4235 14.7513 79.21 14.4709 78.7618C14.1926 78.2402 13.6063 78.2232 12.7119 78.7108C11.9684 79.0559 11.0868 79.1037 10.8022 78.8021C10.5175 78.5004 10.3646 78.716 10.5674 79.3087C10.8978 80.5653 13.3014 81.1484 13.1156 79.9694Z" fill="#B08959"/>
<path d="M25.3958 79.0054C23.7633 77.1243 20.1583 74.9659 19.4817 75.5331C19.2555 75.7466 19.469 75.9728 19.9087 75.9856C20.3484 75.9983 21.7845 77.0669 23.0697 78.2778C25.7091 80.8482 27.4532 81.4122 25.3958 79.0054Z" fill="#B08959"/>
<path d="M98.986 68.0826C99.3206 64.1314 99.3016 59.7298 99.0466 58.4021C98.4721 55.4514 98.2267 56.3245 98.1151 62.7028C98.0279 65.7076 97.6902 67.2382 97.1038 67.2212C96.5175 67.2042 96.5844 67.4262 97.2313 67.885C97.8782 68.3439 97.9408 68.7125 97.346 68.9886C96.8978 69.269 96.5122 69.918 96.4994 70.3577C96.4846 70.8708 96.7798 70.806 97.312 70.1613C97.9217 69.3721 97.9801 69.8872 97.7655 72.2282C97.5701 73.9096 97.603 75.3042 97.8961 75.3127C98.116 75.3191 98.6492 72.1072 98.986 68.0826Z" fill="#B08959"/>
<path d="M89.8781 70.9732C89.8993 70.2403 89.5669 69.057 89.2174 68.4601C88.6545 67.6369 88.5727 67.9279 88.8924 69.5509C89.4001 72.2796 89.8228 72.8787 89.8781 70.9732Z" fill="#B08959"/>
<path d="M108.725 66.0912C109.481 65.3063 109.72 64.6531 109.28 64.6403C108.841 64.6276 108.088 65.2659 107.625 66.0593C107.162 66.8528 106.923 67.506 107.07 67.5102C107.216 67.5145 107.968 66.8761 108.725 66.0912Z" fill="#B08959"/>
<path d="M94.469 66.9985C94.863 66.0564 94.9725 59.7514 94.5838 57.9797C94.262 56.43 94.0835 57.5251 93.8955 61.4806C93.7329 64.5566 93.8051 67.1259 94.025 67.1323C94.2449 67.1387 94.3936 67.0697 94.469 66.9985Z" fill="#B08959"/>
<path d="M104.715 65.2417C104.726 64.8752 104.297 64.496 103.71 64.479C103.124 64.462 102.38 64.8072 102.15 65.1673C101.917 65.6007 102.349 65.9066 103.155 65.9299C104.034 65.9554 104.702 65.6814 104.715 65.2417Z" fill="#B08959"/>
<path d="M75.2969 63.0678C76.6374 62.3732 77.5402 61.5925 77.2534 61.3642C77.0421 61.0646 76.4515 61.1942 75.9279 61.5458C75.4775 61.8995 74.4281 62.6759 73.6049 63.2388C71.5857 64.5739 72.3207 64.5219 75.2969 63.0678Z" fill="#B08959"/>
<path d="M107.705 63.4944C108.972 62.7976 109.2 62.5109 108.396 62.4142C107.736 62.3951 106.769 62.8805 106.239 63.4519C105.101 64.7392 105.321 64.7456 107.705 63.4944Z" fill="#B08959"/>
<path d="M10.5329 57.6697C14.7996 54.7127 20.6575 52.5353 24.1753 52.6373C25.1281 52.6649 25.8695 52.393 25.8801 52.0266C25.8907 51.6601 25.0155 51.4881 23.8365 51.6739C22.7287 51.9352 21.0388 52.0329 20.0106 52.0764C18.9846 52.0467 18.0254 52.2389 17.7992 52.4524C17.5708 52.7392 15.7067 53.7854 13.6227 54.8252C9.82548 56.7689 5.40579 59.9416 5.90394 60.4695C6.04627 60.6203 8.13662 59.3606 10.5329 57.6697Z" fill="#B08959"/>
<path d="M60.7228 54.5043C61.99 53.8075 63.2763 52.4511 63.5216 51.578C63.9306 50.1229 63.5578 50.3321 61.1466 52.5361L58.283 55.167L57.5257 53.458C57.1136 52.4925 56.7578 52.1154 56.745 52.5551C56.6611 52.9195 57.0732 53.885 57.4938 54.5573C58.3393 55.7555 58.5592 55.7618 60.7228 54.5043Z" fill="#B08959"/>
<path d="M38.6766 53.4973C36.1455 52.2503 31.627 51.2391 32.1146 52.1335C32.2526 52.4309 33.6324 52.911 35.1651 53.1755C36.6978 53.44 38.5927 53.8617 39.3925 54.1049C40.1901 54.4214 39.8322 54.1177 38.6766 53.4973Z" fill="#B08959"/>
<path d="M94.004 52.7548C94.038 51.5821 93.7916 49.9613 93.4485 49.1445C93.0364 48.179 92.9461 48.7632 93.1755 50.9703C93.5759 54.8695 93.988 55.835 94.004 52.7548Z" fill="#B08959"/>
<path d="M123.352 52.5058C123.462 51.262 121.206 48.1158 120.253 48.0882C119.887 48.0776 120.305 48.8232 121.084 49.7994C121.864 50.7022 122.708 51.9736 122.911 52.5663C123.249 53.5297 123.323 53.5318 123.352 52.5058Z" fill="#B08959"/>
<path d="M57.4644 50.5215C57.5324 48.1762 56.1028 41.8266 55.3827 41.3656C54.8781 41.0576 54.8654 41.4973 55.1999 42.6073C55.4655 43.5686 55.7055 45.4093 55.7427 46.6573C55.8149 49.2267 57.3273 52.718 57.4644 50.5215Z" fill="#B08959"/>
<path d="M123.596 46.4981C123.624 45.5453 122.282 43.746 121.476 43.7226C120.45 43.6929 120.977 45.762 122.273 46.6064C123.28 47.2958 123.575 47.231 123.596 46.4981Z" fill="#B08959"/>
<path d="M5.83594 42.7163C7.27093 41.2909 7.60022 40.0535 6.40634 40.7524C5.6607 41.1709 3.89217 43.9803 4.3319 43.993C4.47848 43.9973 5.15508 43.4301 5.83594 42.7163Z" fill="#B08959"/>
<path d="M118.801 45.0386C118.594 44.5925 118.833 43.9393 119.357 43.5877C120.253 43.0269 120.26 42.8071 119.324 42.1931C117.741 41.1203 116.931 41.2435 117.406 42.5776C117.606 43.2436 117.799 44.2027 117.782 44.789C117.765 45.3753 118.118 45.8257 118.558 45.8384C118.924 45.8491 119.082 45.4869 118.801 45.0386Z" fill="#B08959"/>
<path d="M128.383 43.3361C128.538 43.0472 128.96 41.1523 129.239 39.1066C129.684 36.4055 129.503 35.0799 128.655 33.9551C128.09 33.2052 127.803 32.9768 128.08 33.5716C128.423 34.3885 128.199 34.5287 127.034 34.2015C125.944 33.8765 125.202 34.1484 124.668 34.8664C124.205 35.6598 123.91 35.7246 123.927 35.1383C123.978 33.3793 121.781 33.2423 120.266 34.8854C119.435 35.7415 118.963 36.8281 119.174 37.1277C119.384 37.5005 119.229 37.7894 118.862 37.7788C118.422 37.766 118.255 38.4946 118.451 39.3072C118.779 40.637 118.997 40.7167 119.68 39.9296C120.744 38.6402 125.186 37.2286 126.491 37.7799C127.506 38.1761 127.838 39.3594 127.46 42.2824C127.267 43.8905 127.692 44.4163 128.383 43.3361Z" fill="#B08959"/>
<path d="M109.625 40.1517C110.752 39.2309 112.574 37.0832 113.578 35.3519C115.277 32.3938 115.355 32.2493 113.771 33.7438C112.94 34.5999 112.175 35.678 112.162 36.1177C112.149 36.5574 111.779 36.6934 111.419 36.4629C110.985 36.2303 110.677 36.7348 110.65 37.6875C110.609 39.08 110.461 39.1491 109.826 38.2505C109.194 37.2786 109.119 37.3498 109.456 38.3864C109.723 39.2744 109.189 39.9924 107.775 40.6849C106.657 41.3127 106.131 41.7375 106.642 41.8257C107.082 41.8384 108.424 41.0705 109.625 40.1517Z" fill="#B08959"/>
<path d="M104.325 40.8777C101.876 39.3397 101.114 37.7772 102.461 36.8627C103.136 36.3688 103.375 35.7156 103.027 35.0454C102.751 34.4506 103.111 34.6811 103.894 35.5106C104.821 36.4177 105.089 37.3057 104.71 37.7348C104.333 38.0906 104.02 38.7417 104.008 39.1814C103.997 39.5479 104.368 39.4119 104.751 38.8362C105.288 38.0449 105.51 37.978 105.488 38.7109C105.454 39.8835 106.734 38.747 108.27 36.371C108.733 35.5776 109.483 35.0125 109.919 35.1719C110.356 35.2579 110.729 35.0487 110.742 34.6089C110.753 34.2425 110.397 33.8654 109.884 33.8505C109.444 33.8378 109.679 33.3311 110.502 32.7682C111.702 31.8494 111.782 31.6317 110.848 30.9445C110.272 30.561 110.137 30.1903 110.576 30.2031C111.602 30.2328 113.631 26.0373 112.917 25.3565C112.704 25.1302 112.48 25.2704 112.467 25.7102C112.454 26.1499 111.61 27.4457 110.548 28.6619C108.201 31.1611 107.253 30.9869 103.404 27.1344C100.766 24.4906 100.693 24.4885 100.28 26.0903C99.9611 26.9612 99.5001 27.6814 99.1336 27.6707C98.1809 27.6431 97.3746 32.6809 98.1511 33.7304C98.8584 34.6311 98.9923 35.0751 98.954 36.3943C98.9179 37.6402 103.054 41.7211 104.446 41.7614C105.694 41.7243 105.694 41.7243 104.325 40.8777ZM103.496 31.5381C102.886 32.3273 102.522 32.2434 101.387 30.8902C100.322 29.6857 100.128 28.7998 100.612 27.2735L101.183 25.3096L103.365 28.4536C104.772 30.5482 105.387 32.1064 105.07 32.9041C104.676 33.8462 104.46 33.6933 104.354 32.2965C104.172 30.9709 103.959 30.7447 103.496 31.5381Z" fill="#B08959"/>
<path d="M52.2509 35.5538C51.5456 34.5798 50.3359 33.2977 49.5446 32.7613C48.6088 32.1474 48.8117 32.7401 50.2264 34.5415C52.6333 37.5453 54.2244 38.325 52.2509 35.5538Z" fill="#B08959"/>
<path d="M145.236 33.9954C146.617 31.9082 147.242 30.606 146.641 31.1021C146.042 31.5248 145.231 31.648 144.946 31.3463C144.589 31.0426 144.582 31.2624 144.86 31.784C145.139 32.3055 144.654 33.8318 143.734 35.1988C142.815 36.5658 142.268 37.7235 142.414 37.7278C142.634 37.7342 143.931 36.0113 145.236 33.9954Z" fill="#B08959"/>
<path d="M47.3118 31.3759C45.744 29.7901 37.0715 27.8515 38.5681 29.3619C39.1374 29.9653 41.0302 30.4602 42.7891 30.5113C43.522 30.5325 44.2464 30.8469 44.4535 31.293C44.736 31.668 45.607 31.9866 46.4865 32.0121C47.3659 32.0376 47.7409 31.7551 47.3118 31.3759Z" fill="#B08959"/>
<path d="M25.0539 29.9238C27.2739 29.2547 28.6122 28.6334 27.9526 28.6142C26.4889 28.4984 21.9758 29.8346 20.9997 30.6131C20.0968 31.3938 20.2434 31.3981 25.0539 29.9238Z" fill="#B08959"/>
<path d="M95.3216 29.9811C94.9997 28.4314 94.3115 26.8711 93.9578 26.4207C93.3864 25.8907 93.3067 26.1084 93.7167 27.1472C93.9865 27.9619 94.3816 29.5137 94.5674 30.6927C94.6821 31.7963 95.0964 32.6886 95.3895 32.6971C95.756 32.7077 95.7188 31.4596 95.3216 29.9811Z" fill="#B08959"/>
<path d="M35.3591 28.6824C37.7904 28.3128 37.7904 28.3128 34.4966 28.0706C32.5911 28.0153 30.8991 28.1863 30.6707 28.4731C30.2851 29.1221 31.8221 29.24 35.3591 28.6824Z" fill="#B08959"/>
<path d="M114.036 29.7902C113.695 28.9001 113.846 28.7578 114.566 29.2188C115.215 29.6044 115.364 29.5353 115.012 29.0117C114.734 28.4902 115.438 26.9702 116.578 25.6096C118.101 23.6733 118.418 22.8756 117.781 22.0503C117.145 21.225 117.227 20.934 118.19 20.5952C118.858 20.3211 119.235 19.9653 119.024 19.6658C118.737 19.4374 118.905 18.7088 119.293 17.9865C119.681 17.2642 119.775 16.5335 119.564 16.2339C118.781 15.4044 118.761 13.57 119.561 13.8133C119.998 13.8993 120.522 13.5477 120.759 12.9678C120.998 12.3146 120.782 12.1616 120.185 12.5111C119.588 12.8605 119.674 12.4229 120.439 11.3448C122.04 9.26407 122.136 8.46001 120.656 8.93053C120.061 9.20669 119.684 9.5625 119.822 9.85991C119.962 10.084 119.577 10.733 118.973 11.3023C117.92 12.2253 117.853 12.0033 118.367 9.45096C119.053 6.02338 117.834 7.60173 117.07 11.1738C116.732 12.7043 116.784 13.4394 117.232 13.159C117.678 12.9518 117.969 13.0336 117.957 13.4734C117.946 13.8398 117.567 14.2689 117.196 14.4049C116.752 14.5387 116.287 15.4054 116.039 16.3518C115.865 17.3003 115.471 18.2424 115.245 18.4559C115.092 18.6715 115.222 19.2621 115.718 19.8633C116.354 20.6886 116.276 20.8331 115.621 20.6674C115.112 20.5059 114.358 21.2175 113.964 22.1597C113.413 23.464 113.477 23.7593 114.292 23.4895C114.885 23.2866 115.536 23.5989 115.739 24.1916C115.942 24.7843 115.782 25.2198 115.416 25.2092C114.976 25.1964 114.67 25.6276 114.653 26.2139C114.638 26.727 114.173 27.5937 113.572 28.0897C112.447 28.9373 112.681 30.9979 113.853 31.0319C114.147 31.0404 114.235 30.5295 114.036 29.7902Z" fill="#B08959"/>
<path d="M92.9781 22.3581C92.7816 21.5455 92.2877 20.871 91.9213 20.8604C91.5548 20.8498 91.4168 20.5524 91.6472 20.1923C91.8777 19.8322 91.3775 19.3776 90.5777 19.1344L89.0513 18.65L90.5415 20.3803C91.3222 21.2831 92.0211 22.477 92.0083 22.9168C91.9935 23.4298 92.276 23.8047 92.6424 23.8153C93.0089 23.826 93.1746 23.1706 92.9781 22.3581Z" fill="#B08959"/>
<path d="M146.998 23.6314C147.002 23.4848 146.002 22.5756 144.855 21.6621C143.634 20.7465 142.696 20.2058 142.69 20.4257C142.686 20.5723 143.613 21.4794 144.833 22.395C145.981 23.3085 146.992 23.8512 146.998 23.6314Z" fill="#B08959"/>
<path d="M99.3881 21.3703C99.4051 20.784 99.78 20.5015 100.14 20.732C100.571 21.0379 100.515 20.4495 100.107 19.3374C99.4901 17.8525 99.5092 17.1929 100.268 16.3347C101.026 15.4764 101.041 14.9634 100.472 14.3601C99.5464 13.3797 99.5464 13.3797 99.0875 19.0878C98.8857 20.989 98.9143 22.5302 99.0609 22.5345C99.2075 22.5387 99.3689 22.0299 99.3881 21.3703Z" fill="#B08959"/>
<path d="M73.7999 18.5013C72.7909 17.8853 71.631 17.4115 71.2646 17.4009C70.8248 17.3882 71.3251 17.8428 72.3341 18.4588C73.3432 19.0749 74.4298 19.5465 74.8695 19.5593C75.2359 19.5699 74.809 19.1174 73.7999 18.5013Z" fill="#B08959"/>
<path d="M69.8214 16.6252C68.892 15.7914 64.2462 14.1163 63.8691 14.4721C63.7183 14.6144 65.0916 15.3144 67.0513 16.0314C68.9377 16.7463 70.1772 17.0023 69.8214 16.6252Z" fill="#B08959"/>
<path d="M126.008 16.6406C126.428 14.819 126.353 12.3229 125.913 12.3102C125.62 12.3017 125.348 11.5603 125.374 10.6808C125.459 7.74923 124.708 5.82033 123.326 5.41351C122.162 5.08635 122.082 5.30409 122.557 6.63817C123.174 8.12308 124.757 14.2571 124.798 15.3585C124.854 15.947 125.922 17.0782 126.008 16.6406Z" fill="#B08959"/>
<path d="M29.5599 11.1303C29.715 10.8414 28.7665 10.6672 27.3698 10.7734C25.973 10.8796 24.8652 11.1409 24.8609 11.2875C24.8439 11.8738 29.1765 11.706 29.5599 11.1303Z" fill="#B08959"/>
<path d="M48.1209 11.0083C47.4655 10.8426 46.2929 10.8086 45.5557 10.9339C44.8898 11.1346 45.4718 11.2982 46.8643 11.3386C48.2568 11.379 48.8474 11.2494 48.1209 11.0083Z" fill="#B08959"/>
<path d="M38.0815 10.7901C35.4601 10.1273 30.7717 9.91797 30.7568 10.431C30.7462 10.7974 32.6474 10.9993 34.9194 11.0652C37.2668 11.0599 38.6635 10.9537 38.0815 10.7901Z" fill="#B08959"/>
<path d="M102.237 6.70961C102.659 4.81472 102.586 4.8126 101.595 6.10418C100.375 7.68253 100.201 8.63104 101.154 8.65867C101.52 8.66929 101.985 7.80258 102.237 6.70961Z" fill="#B08959"/>
<path d="M142.631 7.44022C143.122 5.69403 142.71 4.72852 141.464 4.69239C140.804 4.67327 140.8 4.81984 141.447 5.27871C142.023 5.66215 142.081 6.1773 141.547 6.89532C140.933 7.83107 140.786 7.82682 140.154 6.85494C139.596 5.88518 139.449 5.88093 139.419 6.90697C139.364 8.81249 142.065 9.25757 142.631 7.44022Z" fill="#B08959"/>
<path d="M175.772 5.174C175.446 3.77088 175.53 3.40656 176.024 4.08104C176.587 4.90422 176.733 4.90847 177.05 4.11079C177.362 3.45969 176.933 3.08049 175.838 2.90203C174.448 2.78837 174.295 3.00398 174.543 4.55155C174.66 5.58185 175.143 6.62278 175.503 6.85327C175.863 7.08376 175.956 6.42629 175.772 5.174Z" fill="#B08959"/>
<path d="M119.78 3.62384C120.178 2.53513 120.355 1.51333 120.215 1.28921C119.857 0.985429 119.469 1.70769 118.504 4.61376C117.943 6.28453 118.992 5.5081 119.78 3.62384Z" fill="#B08959"/>
<path d="M104.139 1.6298C104.106 0.235178 103.759 -0.43505 103.382 -0.0792304C102.929 0.347753 102.977 1.22935 103.46 2.27027C104.146 3.90388 104.148 3.83059 104.139 1.6298Z" fill="#B08959"/>
<path d="M142.975 3.12297C144.496 1.25996 144.967 0.173372 144.146 0.663018C143.252 1.15054 141.41 3.95781 141.923 3.97269C142.143 3.97906 142.595 3.55208 142.975 3.12297Z" fill="#B08959"/>
<path d="M79.9092 0.047203C79.6288 -0.401032 78.7706 -1.15943 77.9039 -1.62466C76.8215 -2.24285 76.6017 -2.24923 76.8778 -1.65442C77.1582 -1.20618 78.0165 -0.447787 78.8832 0.01745C79.9655 0.635641 80.1854 0.642017 79.9092 0.047203Z" fill="#B08959"/>
<path d="M190.977 -0.47333C191.595 -1.55566 191.605 -1.92211 190.799 -1.94549C190.286 -1.96036 189.827 -1.31351 189.731 -0.509459C189.634 0.294596 189.688 0.956323 189.835 0.960574C189.981 0.964824 190.513 0.320099 190.977 -0.47333Z" fill="#B08959"/>
<path d="M186.307 -1.26868C185.313 -2.39777 185.25 -2.76634 186.065 -3.03612C186.582 -3.16782 186.216 -3.17844 185.332 -3.05737C184.375 -2.93842 183.064 -3.26983 182.42 -3.80198C181.346 -4.71333 181.27 -4.64216 182.189 -3.44191C182.683 -2.76743 183.619 -2.15349 184.205 -2.13649C184.718 -2.12161 185.363 -1.58946 185.566 -0.996771C185.842 -0.401958 186.34 0.125943 186.78 0.138694C187.146 0.14932 186.945 -0.516658 186.307 -1.26868Z" fill="#B08959"/>
</g>
<defs>
<clipPath id="clip0_6112_1228">
<rect width="510.306" height="557.231" fill="white" transform="translate(293.284 543.823) rotate(-178.339)"/>
</clipPath>
</defs>
</svg>
