<svg width="295" height="249" viewBox="0 0 295 249" fill="none" xmlns="http://www.w3.org/2000/svg">
<g opacity="0.1" clip-path="url(#clip0_6037_2510)">
<mask id="mask0_6037_2510" style="mask-type:luminance" maskUnits="userSpaceOnUse" x="-637" y="-133" width="1581" height="1581">
<path d="M222.759 -132.963L-636.743 588.245L84.4646 1447.75L943.966 726.539L222.759 -132.963Z" fill="white"/>
</mask>
<g mask="url(#mask0_6037_2510)">
<path d="M364.168 -129.292C364.163 -129.298 364.154 -129.3 364.148 -129.306C364.096 -129.362 364.034 -129.412 363.956 -129.441C363.954 -129.442 363.952 -129.443 363.95 -129.443C363.871 -129.472 363.792 -129.474 363.714 -129.464C363.707 -129.463 363.698 -129.468 363.691 -129.466L255.713 -110.427L185.198 -194.464C185.192 -194.47 185.183 -194.472 185.177 -194.478C185.125 -194.534 185.063 -194.584 184.985 -194.613C184.983 -194.614 184.981 -194.615 184.979 -194.615C184.9 -194.644 184.82 -194.646 184.742 -194.636C184.734 -194.635 184.727 -194.64 184.719 -194.638L76.4532 -175.548C76.4453 -175.546 76.4395 -175.539 76.4316 -175.537C76.3549 -175.52 76.2792 -175.49 76.2141 -175.436C76.149 -175.381 76.1075 -175.312 76.0762 -175.239C76.0734 -175.231 76.0652 -175.227 76.0625 -175.22L38.5625 -72.1897L-69.4148 -53.1498C-69.4227 -53.1483 -69.4283 -53.141 -69.4362 -53.1396C-69.513 -53.1222 -69.5887 -53.0926 -69.6538 -53.038C-69.719 -52.9833 -69.7604 -52.9145 -69.7917 -52.8413C-69.7945 -52.8338 -69.8026 -52.8295 -69.8055 -52.822L-107.306 50.2086L-215.283 69.2479C-215.291 69.2494 -215.296 69.2567 -215.304 69.2581C-215.381 69.2755 -215.457 69.3051 -215.522 69.3598C-215.587 69.4144 -215.628 69.4832 -215.66 69.5564C-215.662 69.564 -215.671 69.5682 -215.673 69.5757L-253.173 172.605L-361.15 191.645C-361.158 191.646 -361.163 191.654 -361.171 191.655C-361.248 191.673 -361.324 191.702 -361.389 191.757C-361.454 191.811 -361.495 191.88 -361.527 191.953C-361.529 191.961 -361.538 191.965 -361.54 191.973L-399.04 295.003L-507.017 314.042C-507.025 314.043 -507.03 314.051 -507.038 314.052C-507.115 314.07 -507.191 314.099 -507.256 314.154C-507.321 314.208 -507.363 314.277 -507.394 314.35C-507.397 314.358 -507.405 314.362 -507.408 314.37L-544.908 417.399L-652.884 436.439C-652.892 436.441 -652.898 436.448 -652.905 436.449C-652.982 436.467 -653.058 436.496 -653.123 436.551C-653.188 436.606 -653.23 436.674 -653.261 436.748C-653.264 436.755 -653.272 436.759 -653.275 436.767L-690.875 540.073C-690.878 540.081 -690.875 540.089 -690.877 540.096C-690.901 540.172 -690.914 540.252 -690.898 540.335C-690.884 540.418 -690.845 540.489 -690.797 540.552C-690.792 540.558 -690.792 540.568 -690.787 540.574L-620.272 624.611L-657.772 727.642C-657.774 727.65 -657.771 727.657 -657.774 727.665C-657.797 727.741 -657.81 727.821 -657.795 727.905C-657.781 727.988 -657.742 728.059 -657.694 728.122C-657.69 728.129 -657.689 728.137 -657.683 728.144L-587.018 812.36C-587.013 812.366 -587.004 812.368 -586.998 812.375C-586.945 812.433 -586.882 812.483 -586.802 812.512C-586.798 812.513 -586.793 812.511 -586.789 812.513C-586.71 812.539 -586.625 812.55 -586.54 812.535L-586.536 812.534C-586.536 812.533 -586.535 812.534 -586.534 812.534L-478.561 793.495L-408.235 877.307L-445.735 980.338C-445.737 980.346 -445.734 980.353 -445.737 980.361C-445.76 980.437 -445.773 980.517 -445.758 980.601C-445.744 980.684 -445.705 980.755 -445.657 980.818C-445.653 980.824 -445.652 980.833 -445.646 980.84L-374.98 1065.06C-374.975 1065.06 -374.966 1065.06 -374.96 1065.07C-374.907 1065.13 -374.844 1065.18 -374.764 1065.21C-374.76 1065.21 -374.756 1065.21 -374.752 1065.21C-374.672 1065.24 -374.587 1065.25 -374.502 1065.23L-374.499 1065.23C-374.498 1065.23 -374.497 1065.23 -374.497 1065.23L-266.524 1046.19L-196.197 1130L-233.697 1233.03C-233.7 1233.04 -233.696 1233.05 -233.699 1233.06C-233.723 1233.13 -233.735 1233.21 -233.721 1233.3C-233.706 1233.38 -233.667 1233.45 -233.62 1233.51C-233.615 1233.52 -233.615 1233.53 -233.609 1233.54L-162.943 1317.75C-162.938 1317.76 -162.929 1317.76 -162.923 1317.77C-162.87 1317.83 -162.807 1317.88 -162.727 1317.9C-162.723 1317.91 -162.719 1317.9 -162.715 1317.91C-162.635 1317.93 -162.55 1317.94 -162.465 1317.93L-162.462 1317.93C-162.461 1317.93 -162.46 1317.93 -162.46 1317.93L-54.486 1298.89L15.8402 1382.7L-21.66 1485.73C-21.6627 1485.74 -21.6592 1485.75 -21.6619 1485.75C-21.6856 1485.83 -21.6976 1485.91 -21.6836 1485.99C-21.6689 1486.08 -21.6304 1486.15 -21.5827 1486.21C-21.5783 1486.22 -21.5776 1486.23 -21.5718 1486.23L49.0943 1570.45C49.0995 1570.46 49.1086 1570.46 49.1144 1570.46C49.1675 1570.52 49.2305 1570.57 49.3104 1570.6C49.3145 1570.6 49.3189 1570.6 49.3231 1570.6C49.4024 1570.63 49.4873 1570.64 49.5724 1570.62L49.576 1570.62C49.5767 1570.62 49.5774 1570.62 49.5781 1570.62L157.839 1551.53C157.847 1551.53 157.853 1551.53 157.86 1551.52C157.937 1551.51 158.013 1551.48 158.078 1551.42C158.143 1551.37 158.184 1551.3 158.216 1551.22C158.218 1551.22 158.227 1551.21 158.229 1551.21L195.73 1448.18L303.706 1429.14C303.714 1429.13 303.72 1429.13 303.727 1429.13C303.804 1429.11 303.88 1429.08 303.945 1429.02C304.01 1428.97 304.052 1428.9 304.083 1428.83C304.086 1428.82 304.094 1428.82 304.096 1428.81L341.596 1325.78L449.573 1306.74C449.581 1306.74 449.587 1306.73 449.594 1306.73C449.671 1306.71 449.747 1306.68 449.812 1306.63C449.877 1306.57 449.919 1306.5 449.95 1306.43C449.953 1306.42 449.961 1306.42 449.964 1306.41L487.464 1203.38L595.441 1184.34C595.449 1184.34 595.455 1184.33 595.462 1184.33C595.539 1184.31 595.615 1184.28 595.68 1184.23C595.745 1184.17 595.787 1184.11 595.818 1184.03C595.821 1184.03 595.829 1184.02 595.831 1184.01L633.332 1080.98L741.309 1061.94C741.317 1061.94 741.323 1061.94 741.33 1061.93C741.407 1061.92 741.483 1061.89 741.548 1061.83C741.613 1061.78 741.654 1061.71 741.686 1061.64C741.688 1061.63 741.697 1061.62 741.699 1061.62L779.2 958.585L887.177 939.545C887.185 939.544 887.192 939.537 887.199 939.535C887.276 939.518 887.351 939.488 887.416 939.433C887.482 939.379 887.523 939.31 887.554 939.237C887.557 939.229 887.565 939.225 887.568 939.217L925.069 836.187L1033.05 817.147C1033.05 817.145 1033.06 817.139 1033.07 817.137C1033.14 817.119 1033.22 817.09 1033.29 817.035C1033.35 816.98 1033.39 816.912 1033.42 816.838C1033.43 816.831 1033.43 816.827 1033.44 816.819L1071.04 713.517C1071.04 713.517 1071.04 713.516 1071.04 713.515L1071.04 713.512C1071.07 713.425 1071.08 713.334 1071.06 713.246C1071.04 713.165 1071.01 713.095 1070.96 713.033C1070.95 713.026 1070.95 713.017 1070.95 713.011L1000.28 628.794C1000.28 628.787 1000.27 628.786 1000.26 628.78C1000.21 628.723 1000.15 628.674 1000.07 628.645C1000.07 628.644 1000.07 628.643 1000.07 628.643C999.986 628.614 999.906 628.612 999.828 628.623C999.82 628.624 999.813 628.62 999.805 628.621L891.827 647.66L821.498 563.845L858.996 460.819C858.996 460.819 858.996 460.818 858.997 460.817L858.998 460.814C859.03 460.727 859.036 460.636 859.019 460.548C859.004 460.466 858.967 460.397 858.92 460.335C858.914 460.328 858.914 460.319 858.909 460.313L788.244 376.097C788.238 376.091 788.229 376.089 788.224 376.083C788.172 376.027 788.109 375.977 788.031 375.948C788.029 375.947 788.028 375.947 788.026 375.946C787.948 375.918 787.868 375.915 787.791 375.926C787.783 375.927 787.775 375.922 787.767 375.924L679.789 394.963L609.461 311.15L646.96 208.125C646.96 208.125 646.96 208.123 646.961 208.123L646.962 208.119C646.994 208.033 647 207.942 646.983 207.854C646.968 207.772 646.931 207.703 646.884 207.64C646.878 207.634 646.878 207.624 646.873 207.618L576.207 123.402C576.201 123.395 576.192 123.393 576.187 123.387C576.135 123.331 576.072 123.281 575.995 123.252C575.992 123.252 575.99 123.251 575.988 123.25C575.91 123.222 575.831 123.219 575.753 123.229C575.745 123.23 575.737 123.226 575.729 123.227L467.751 142.266L397.425 58.4548L434.923 -44.571C434.924 -44.5716 434.923 -44.5725 434.924 -44.5731L434.925 -44.5765C434.957 -44.6631 434.963 -44.7542 434.946 -44.8423C434.931 -44.9238 434.894 -44.993 434.847 -45.0554C434.841 -45.0623 434.841 -45.0715 434.836 -45.0776L364.171 -129.293L364.168 -129.292ZM645.524 207.599L538.994 226.383L575.991 124.733L645.524 207.599ZM857.561 460.294L751.031 479.079L788.029 377.429L857.561 460.294ZM1069.6 712.99L963.067 731.774L1000.06 630.124L1069.6 712.99ZM-20.226 1486.25L86.3042 1467.47L49.3068 1569.12L-20.226 1486.25ZM-232.262 1233.55L-125.733 1214.77L-162.731 1316.42L-232.262 1233.55ZM-444.299 980.859L-337.769 962.075L-374.766 1063.73L-444.299 980.859ZM-656.335 728.164L-549.805 709.38L-586.802 811.03L-656.335 728.164ZM104.329 304.009L67.3317 405.658L-2.20059 322.793L64.7968 310.98L104.329 304.009ZM313.428 846.271L350.426 744.622L419.958 827.487L313.428 846.271ZM167.56 968.669L204.558 867.02L274.09 949.885L167.56 968.669ZM-79.1382 529.712L-116.136 631.362L-185.668 548.496L-79.1382 529.712ZM66.7289 407.315L29.7315 508.965L-39.8014 426.099L66.7289 407.315ZM134.633 782.101L241.164 763.317L204.166 864.967L134.633 782.101ZM94.0386 692.583L170.498 679.101L133.5 780.751L63.9679 697.885L94.0386 692.583ZM125.19 686.056L63.7903 696.882L100.787 595.233L170.319 678.098L125.19 686.056ZM99.6542 593.883L-6.87523 612.666L30.1213 511.016L99.6542 593.883ZM99.832 594.885L62.834 696.534L-6.69826 613.669L99.832 594.885ZM63.1881 698.54L132.72 781.405L26.1915 800.189L63.1881 698.54ZM203.386 865.622L96.857 884.405L133.854 782.756L203.386 865.622ZM134.457 781.099L171.454 679.449L240.987 762.315L134.457 781.099ZM171.1 677.443L101.568 594.578L208.098 575.794L171.1 677.443ZM30.9019 510.362L137.432 491.578L100.435 593.228L30.9019 510.362ZM-8.65048 612.926L-115.179 631.71L-78.1828 530.06L-8.65048 612.926ZM-8.43566 613.975L-45.433 715.625L-114.966 632.759L-8.43566 613.975ZM62.0534 697.189L-44.4762 715.974L-7.47885 614.324L62.0534 697.189ZM132.898 782.407L95.9008 884.057L26.3679 801.191L132.898 782.407ZM203.601 866.671L166.603 968.32L97.071 885.455L203.601 866.671ZM349.469 744.273L312.471 845.923L242.939 763.057L349.469 744.273ZM242.724 762.008L279.721 660.358L349.254 743.224L242.724 762.008ZM172.235 678.794L278.765 660.01L241.768 761.66L172.235 678.794ZM101.392 593.576L138.389 491.926L207.922 574.792L101.392 593.576ZM30.6878 509.313L67.6851 407.663L137.217 490.528L30.6878 509.313ZM-7.87069 612.271L-77.403 529.406L29.1273 510.622L-7.87069 612.271ZM62.2305 698.192L25.2325 799.841L-44.2998 716.976L62.2305 698.192ZM95.1195 884.711L-11.4107 903.495L25.5867 801.845L95.1195 884.711ZM242.158 763.712L311.691 846.578L205.162 865.362L242.158 763.712ZM172.058 677.791L209.056 576.142L278.588 659.007L172.058 677.791ZM139.169 491.272L245.699 472.488L208.702 574.138L139.169 491.272ZM-39.9778 425.097L-2.98043 323.447L66.5525 406.313L-39.9778 425.097ZM28.9509 509.62L-77.5793 528.404L-40.582 426.754L28.9509 509.62ZM-185.845 547.494L-148.848 445.845L-79.3153 528.711L-185.845 547.494ZM-116.916 632.017L-223.446 650.801L-186.449 549.151L-116.916 632.017ZM-116.74 633.019L-153.737 734.668L-223.269 651.803L-116.74 633.019ZM-115.746 633.414L-46.2129 716.28L-152.742 735.063L-115.746 633.414ZM24.4526 800.495L-42.6998 812.336L-82.0762 819.28L-45.079 717.631L24.4526 800.495ZM-14.746 808.441L24.6305 801.498L-12.3668 903.146L-81.8984 820.282L-14.746 808.441ZM95.2966 885.714L58.3 987.364L-11.2329 904.498L95.2966 885.714ZM96.2912 886.109L165.824 968.975L59.2946 987.759L96.2912 886.109ZM274.266 950.886L237.269 1052.54L167.737 969.671L274.266 950.886ZM205.338 866.364L311.868 847.579L274.87 949.229L205.338 866.364ZM420.134 828.489L383.137 930.138L313.604 847.273L420.134 828.489ZM351.205 743.967L457.735 725.182L420.737 826.831L351.205 743.967ZM351.03 742.964L388.026 641.315L457.559 724.18L351.03 742.964ZM350.034 742.57L280.501 659.704L387.03 640.919L350.034 742.57ZM209.836 575.488L276.953 563.653L316.365 556.704L279.367 658.352L209.836 575.488ZM249.069 567.536L209.657 574.485L246.655 472.836L316.186 555.701L249.069 567.536ZM138.993 490.268L175.989 388.619L245.521 471.484L138.993 490.268ZM137.997 489.874L68.4656 407.009L174.994 388.225L137.997 489.874ZM-41.5382 426.406L-78.5362 528.056L-148.068 445.19L-117.604 439.818L-41.5382 426.406ZM-187.405 548.803L-224.402 650.453L-293.935 567.587L-226.903 555.767L-187.405 548.803ZM-294.715 568.242L-225.182 651.108L-331.713 669.892L-294.715 568.242ZM-154.518 735.323L-261.047 754.108L-224.05 652.458L-154.518 735.323ZM-46.0351 717.282L-83.0324 818.932L-152.565 736.066L-46.0351 717.282ZM-82.679 820.937L-13.1468 903.802L-119.677 922.586L-82.679 820.937ZM57.5194 988.019L-49.0108 1006.8L-12.0135 905.153L57.5194 988.019ZM166.001 969.977L129.003 1071.63L59.471 988.761L166.001 969.977ZM129.96 1071.97L166.957 970.325L236.489 1053.19L169.457 1065.01L129.96 1071.97ZM275.827 949.577L312.824 847.928L382.356 930.793L337.177 938.76L275.827 949.577ZM421.695 827.179L458.692 725.53L528.224 808.396L461.227 820.209L421.695 827.179ZM529.005 807.742L459.472 724.876L566.001 706.091L529.005 807.742ZM388.806 640.66L495.336 621.876L458.338 723.526L388.806 640.66ZM280.324 658.702L317.322 557.052L386.854 639.918L280.324 658.702ZM316.967 555.046L247.435 472.181L353.965 453.397L316.967 555.046ZM176.769 387.964L283.299 369.181L246.302 470.831L176.769 387.964ZM68.2878 406.007L105.285 304.357L174.818 387.223L68.2878 406.007ZM104.931 302.351L35.3988 219.486L141.928 200.701L104.931 302.351ZM104.151 303.006L37.1532 314.819L-2.37822 321.789L34.619 220.14L104.151 303.006ZM-40.936 424.748L-110.468 341.883L-3.93865 323.098L-40.936 424.748ZM-41.7166 425.403L-86.8958 433.37L-148.246 444.187L-111.249 342.538L-41.7166 425.403ZM-186.804 547.146L-256.336 464.281L-149.807 445.496L-186.804 547.146ZM-187.584 547.8L-254.616 559.62L-294.113 566.584L-257.116 464.935L-187.584 547.8ZM-332.67 669.542L-402.203 586.677L-295.674 567.893L-332.67 669.542ZM-225.006 652.11L-262.003 753.758L-331.534 670.893L-225.006 652.11ZM-83.8137 819.586L-190.344 838.37L-153.347 736.72L-83.8137 819.586ZM-83.6366 820.589L-120.634 922.238L-190.166 839.372L-83.6366 820.589ZM-12.9697 904.805L-49.9662 1006.45L-119.498 923.588L-12.9697 904.805ZM128.223 1072.28L21.6931 1091.07L58.691 989.417L128.223 1072.28ZM128.399 1073.28L91.4025 1174.93L21.8702 1092.07L128.399 1073.28ZM129.357 1073.63L198.89 1156.5L92.3606 1175.28L129.357 1073.63ZM130.138 1072.98L197.17 1061.16L236.667 1054.19L199.67 1155.84L130.138 1072.98ZM275.224 951.235L344.757 1034.1L238.228 1052.88L275.224 951.235ZM276.004 950.58L306.469 945.209L382.534 931.797L345.536 1033.45L276.004 950.58ZM421.092 828.837L490.625 911.703L384.096 930.488L421.092 828.837ZM421.872 828.183L488.869 816.37L528.401 809.4L491.404 911.049L421.872 828.183ZM459.295 723.874L496.293 622.225L565.825 705.09L459.295 723.874ZM318.102 556.397L424.632 537.613L387.635 639.263L318.102 556.397ZM247.259 471.179L284.256 369.529L353.789 452.395L247.259 471.179ZM106.066 303.702L212.596 284.918L175.599 386.568L106.066 303.702ZM35.2218 218.483L72.2192 116.833L141.751 199.698L35.2218 218.483ZM-3.3352 321.442L-72.8675 238.577L33.6628 219.793L-3.3352 321.442ZM-4.11504 322.096L-110.645 340.88L-73.648 239.23L-4.11504 322.096ZM-149.202 443.839L-218.735 360.974L-112.204 342.19L-149.202 443.839ZM-149.983 444.494L-256.513 463.278L-219.516 361.628L-149.983 444.494ZM-295.069 566.236L-364.602 483.371L-258.071 464.587L-295.069 566.236ZM-295.85 566.891L-402.38 585.675L-365.383 484.025L-295.85 566.891ZM-333.451 670.197L-439.98 688.981L-402.983 587.332L-333.451 670.197ZM-154.303 736.372L-191.299 838.022L-260.832 755.156L-154.303 736.372ZM-121.415 922.892L-227.943 941.677L-190.946 840.028L-121.415 922.892ZM57.7342 989.068L20.737 1090.72L-48.7953 1007.85L57.7342 989.068ZM90.6212 1175.59L-15.9076 1194.37L21.0896 1092.72L90.6212 1175.59ZM92.5385 1176.28L199.066 1157.5L162.069 1259.15L92.5385 1176.28ZM237.624 1054.54L307.156 1137.41L200.626 1156.19L237.624 1054.54ZM238.403 1053.89L344.933 1035.1L307.935 1136.75L238.403 1053.89ZM383.491 932.144L453.023 1015.01L346.493 1033.79L383.491 932.144ZM384.271 931.489L490.801 912.705L453.803 1014.35L384.271 931.489ZM529.358 809.747L598.89 892.613L492.361 911.397L529.358 809.747ZM530.138 809.092L636.668 790.307L599.67 891.957L530.138 809.092ZM529.962 808.09L566.959 706.44L636.492 789.305L529.962 808.09ZM497.072 621.57L603.602 602.785L566.604 704.434L497.072 621.57ZM495.121 620.827L388.591 639.611L425.589 537.962L495.121 620.827ZM317.925 555.394L354.923 453.745L424.455 536.61L317.925 555.394ZM285.036 368.875L391.566 350.091L354.569 451.741L285.036 368.875ZM283.084 368.131L176.555 386.916L213.552 285.266L283.084 368.131ZM105.889 302.7L142.887 201.05L212.42 283.916L105.889 302.7ZM72.9997 116.18L179.53 97.3956L142.533 199.046L72.9997 116.18ZM34.2656 218.135L-35.2673 135.269L71.2629 116.485L34.2656 218.135ZM33.4844 218.79L-73.0445 237.574L-36.0479 135.924L33.4844 218.79ZM-111.602 340.533L-181.134 257.666L-74.6041 238.882L-111.602 340.533ZM-112.382 341.187L-218.911 359.972L-181.914 258.322L-112.382 341.187ZM-257.469 462.93L-327.002 380.064L-220.472 361.28L-257.469 462.93ZM-258.249 463.585L-364.778 482.369L-327.781 380.719L-258.249 463.585ZM-403.336 585.327L-472.869 502.461L-366.339 483.677L-403.336 585.327ZM-440.936 688.632L-510.467 605.768L-403.94 586.984L-440.936 688.632ZM-192.08 838.677L-298.61 857.461L-261.613 755.811L-192.08 838.677ZM-191.903 839.68L-228.899 941.327L-298.431 858.463L-191.903 839.68ZM19.9564 1091.37L-86.5733 1110.16L-49.5759 1008.51L19.9564 1091.37ZM20.1334 1092.37L-16.8637 1194.02L-86.3947 1111.16L20.1334 1092.37ZM200.023 1157.85L269.555 1240.71L163.025 1259.5L200.023 1157.85ZM200.803 1157.19L307.332 1138.41L270.336 1240.06L200.803 1157.19ZM345.89 1035.45L415.422 1118.32L308.893 1137.1L345.89 1035.45ZM346.67 1034.8L453.199 1016.01L416.202 1117.66L346.67 1034.8ZM491.758 913.053L561.291 995.919L454.76 1014.7L491.758 913.053ZM492.538 912.399L599.067 893.615L562.071 995.265L492.538 912.399ZM637.625 790.656L707.157 873.521L600.627 892.305L637.625 790.656ZM638.405 790.002L744.934 771.217L707.937 872.867L638.405 790.002ZM567.739 705.786L634.807 693.96L674.27 687.002L637.271 788.651L567.739 705.786ZM607.024 697.825L567.561 704.783L604.559 603.133L674.091 685.999L607.024 697.825ZM496.896 620.568L533.893 518.918L603.426 601.783L496.896 620.568ZM495.901 620.173L426.368 537.306L532.898 518.522L495.901 620.173ZM355.703 453.091L422.891 441.243L462.233 434.306L425.235 535.955L355.703 453.091ZM394.867 445.151L355.526 452.088L392.524 350.438L462.056 433.303L394.867 445.151ZM284.859 367.872L321.856 266.222L391.389 349.088L284.859 367.872ZM283.864 367.477L214.333 284.612L320.863 265.828L283.864 367.477ZM143.667 200.396L210.734 188.57L250.197 181.612L213.199 283.262L143.667 200.396ZM182.951 192.434L143.488 199.393L180.486 97.7432L250.018 180.609L182.951 192.434ZM72.8233 115.177L109.821 13.5274L179.353 96.3927L72.8233 115.177ZM-404.116 585.982L-510.646 604.766L-473.649 503.116L-404.116 585.982ZM-262.784 754.413L-369.312 773.197L-332.316 671.549L-262.784 754.413ZM-50.7482 1007.11L-157.276 1025.89L-120.28 924.243L-50.7482 1007.11ZM161.288 1259.8L54.7607 1278.59L91.7578 1176.94L161.288 1259.8ZM638.228 788.999L675.226 687.35L744.759 770.216L638.228 788.999ZM605.339 602.478L711.869 583.694L674.872 685.344L605.339 602.478ZM534.674 518.263L641.204 499.479L604.206 601.128L534.674 518.263ZM426.192 536.304L463.189 434.654L532.722 517.52L426.192 536.304ZM393.303 349.783L499.833 330.999L462.835 432.648L393.303 349.783ZM322.637 265.567L429.167 246.783L392.17 348.433L322.637 265.567ZM214.156 283.609L251.153 181.959L320.686 264.825L214.156 283.609ZM181.267 97.0883L287.796 78.3036L250.799 179.954L181.267 97.0883ZM110.601 12.8717L217.131 -5.91229L180.133 95.737L110.601 12.8717ZM-333.272 671.2L-370.269 772.848L-439.8 689.984L-333.272 671.2ZM-262.606 755.416L-299.603 857.064L-369.136 774.199L-262.606 755.416ZM-121.235 923.895L-158.233 1025.54L-227.764 942.679L-121.235 923.895ZM-50.5697 1008.11L-87.5664 1109.76L-157.099 1026.89L-50.5697 1008.11ZM90.8011 1176.59L53.8038 1278.24L-15.7278 1195.37L90.8011 1176.59ZM161.466 1260.81L124.469 1362.46L54.9363 1279.59L161.466 1260.81ZM676.006 686.694L782.536 667.91L745.538 769.559L676.006 686.694ZM605.162 601.477L642.16 499.828L711.693 582.693L605.162 601.477ZM463.97 433.999L570.5 415.215L533.503 516.865L463.97 433.999ZM393.126 348.782L430.123 247.132L499.656 329.998L393.126 348.782ZM251.934 181.304L358.464 162.52L321.467 264.17L251.934 181.304ZM181.089 96.0861L218.086 -5.56398L287.619 77.3013L181.089 96.0861ZM255.688 -108.871L325.22 -26.0057L218.691 -7.22101L255.688 -108.871ZM216.916 -6.96034L110.386 11.823L147.384 -89.8257L216.916 -6.96034ZM71.8286 114.782L2.2957 31.9163L108.826 13.1323L71.8286 114.782ZM71.0488 115.437L-35.4815 134.221L1.51586 32.5707L71.0488 115.437ZM-74.0385 237.179L-143.571 154.313L-37.0426 135.529L-74.0385 237.179ZM-74.8184 237.834L-181.349 256.618L-144.351 154.968L-74.8184 237.834ZM-219.906 359.577L-289.439 276.711L-182.909 257.927L-219.906 359.577ZM-220.686 360.231L-327.216 379.015L-290.219 277.365L-220.686 360.231ZM-365.773 481.974L-435.306 399.107L-328.776 380.324L-365.773 481.974ZM-366.553 482.629L-473.084 501.412L-436.086 399.762L-366.553 482.629ZM-581.172 521.504L-474.642 502.72L-511.639 604.37L-581.172 521.504ZM-441.718 689.287L-548.245 708.071L-511.248 606.424L-441.718 689.287ZM-440.582 690.638L-371.049 773.504L-477.578 792.287L-440.582 690.638ZM-300.384 857.719L-406.913 876.503L-369.916 774.854L-300.384 857.719ZM-229.681 941.982L-336.21 960.766L-299.213 859.118L-229.681 941.982ZM-228.545 943.333L-159.013 1026.2L-265.542 1044.98L-228.545 943.333ZM-88.347 1110.42L-194.876 1129.2L-157.879 1027.55L-88.347 1110.42ZM-17.6451 1194.68L-124.173 1213.46L-87.1754 1111.81L-17.6451 1194.68ZM-16.509 1196.03L53.0232 1278.89L-53.5056 1297.68L-16.509 1196.03ZM123.689 1363.11L17.1599 1381.89L54.1571 1280.24L123.689 1363.11ZM162.46 1261.2L231.993 1344.07L125.462 1362.85L162.46 1261.2ZM163.24 1260.55L269.77 1241.76L232.773 1343.41L163.24 1260.55ZM308.327 1138.8L377.86 1221.67L271.331 1240.45L308.327 1138.8ZM309.107 1138.15L415.637 1119.37L378.64 1221.02L309.107 1138.15ZM454.194 1016.41L523.727 1099.27L417.198 1118.06L454.194 1016.41ZM454.975 1015.75L561.505 996.968L524.508 1098.62L454.975 1015.75ZM600.061 894.01L669.593 976.875L563.065 995.659L600.061 894.01ZM600.842 893.355L707.372 874.571L670.375 976.221L600.842 893.355ZM745.929 771.612L815.462 854.478L708.932 873.263L745.929 771.612ZM746.71 770.957L853.24 752.173L816.242 853.822L746.71 770.957ZM891.797 649.214L961.33 732.08L854.8 750.865L891.797 649.214ZM853.025 751.125L746.496 769.908L783.493 668.26L853.025 751.125ZM675.83 685.692L712.827 584.043L782.359 666.908L675.83 685.692ZM642.94 499.172L749.47 480.387L712.472 582.037L642.94 499.172ZM642.764 498.17L679.761 396.52L749.294 479.385L642.764 498.17ZM640.989 498.43L534.459 517.213L571.456 415.564L640.989 498.43ZM463.793 432.997L500.79 331.348L570.322 414.212L463.793 432.997ZM430.904 246.477L537.434 227.693L500.437 329.343L430.904 246.477ZM430.727 245.474L467.724 143.824L537.257 226.69L430.727 245.474ZM428.952 245.734L322.423 264.518L359.42 162.869L428.952 245.734ZM251.757 180.302L288.754 78.6528L358.286 161.518L251.757 180.302ZM218.868 -6.21816L325.398 -25.0021L288.4 76.6479L218.868 -6.21816ZM217.696 -7.61466L148.163 -90.4808L254.693 -109.265L217.696 -7.61466ZM109.43 11.4745L39.8966 -71.3915L146.427 -90.1755L109.43 11.4745ZM108.649 12.1295L2.1187 30.9135L39.1161 -70.7366L108.649 12.1295ZM-36.4384 133.872L-105.971 51.0061L0.559023 32.2222L-36.4384 133.872ZM-37.2189 134.527L-143.749 153.311L-106.752 51.6611L-37.2189 134.527ZM-182.305 256.269L-251.838 173.403L-145.308 154.619L-182.305 256.269ZM-183.086 256.924L-289.616 275.708L-252.619 174.058L-183.086 256.924ZM-328.173 378.667L-397.706 295.801L-291.176 277.017L-328.173 378.667ZM-328.953 379.321L-435.483 398.105L-398.486 296.455L-328.953 379.321ZM-474.04 501.062L-543.571 418.197L-437.043 399.414L-474.04 501.062ZM-474.821 501.718L-581.349 520.501L-544.353 418.853L-474.821 501.718ZM-512.42 605.025L-618.949 623.808L-581.953 522.159L-512.42 605.025ZM-512.205 606.074L-549.203 707.724L-618.736 624.858L-512.205 606.074ZM-441.54 690.289L-478.537 791.939L-548.07 709.074L-441.54 690.289ZM-370.872 774.506L-407.869 876.156L-477.402 793.29L-370.872 774.506ZM-300.169 858.769L-337.167 960.419L-406.699 877.553L-300.169 858.769ZM-229.503 942.985L-266.501 1044.63L-336.033 961.769L-229.503 942.985ZM-158.835 1027.2L-195.833 1128.85L-265.366 1045.98L-158.835 1027.2ZM-88.1322 1111.46L-125.13 1213.11L-194.662 1130.25L-88.1322 1111.46ZM-17.4673 1195.68L-54.4647 1297.33L-123.997 1214.46L-17.4673 1195.68ZM53.2011 1279.9L16.2031 1381.55L-53.3292 1298.68L53.2011 1279.9ZM123.904 1364.16L86.9069 1465.81L17.374 1382.94L123.904 1364.16ZM124.86 1364.51L194.392 1447.37L87.8638 1466.16L124.86 1364.51ZM125.642 1363.85L232.17 1345.07L195.173 1446.72L125.642 1363.85ZM270.727 1242.11L340.26 1324.98L233.729 1343.76L270.727 1242.11ZM271.507 1241.46L378.038 1222.67L341.04 1324.32L271.507 1241.46ZM416.594 1119.71L486.127 1202.58L379.597 1221.36L416.594 1119.71ZM417.375 1119.06L523.905 1100.27L486.907 1201.92L417.375 1119.06ZM562.462 997.316L631.995 1080.18L525.464 1098.97L562.462 997.316ZM563.242 996.662L669.772 977.878L632.775 1079.53L563.242 996.662ZM708.329 874.919L777.862 957.785L671.332 976.569L708.329 874.919ZM709.109 874.265L815.639 855.481L778.642 957.131L709.109 874.265ZM854.197 752.521L923.73 835.388L817.199 854.171L854.197 752.521ZM854.977 751.867L961.507 733.083L924.51 834.733L854.977 751.867ZM853.805 750.471L784.272 667.604L890.802 648.82L853.805 750.471ZM713.606 583.389L820.137 564.605L783.139 666.254L713.606 583.389ZM713.429 582.385L750.427 480.736L819.959 563.601L713.429 582.385ZM641.768 497.775L572.236 414.909L678.766 396.125L641.768 497.775ZM501.57 330.694L608.1 311.909L571.102 413.559L501.57 330.694ZM501.393 329.691L538.391 228.041L607.923 310.907L501.393 329.691ZM429.731 245.08L360.199 162.214L466.729 143.43L429.731 245.08ZM289.534 77.9985L396.064 59.2145L359.067 160.865L289.534 77.9985ZM289.356 76.9948L326.354 -24.6544L395.886 58.2109L289.356 76.9948ZM256.469 -109.526L362.999 -128.31L326.001 -26.6608L256.469 -109.526ZM254.516 -110.268L147.986 -91.4836L184.983 -193.134L254.516 -110.268ZM147.03 -91.8313L77.4973 -174.697L184.027 -193.481L147.03 -91.8313ZM146.249 -91.1777L39.7203 -72.3936L76.7175 -174.042L146.249 -91.1777ZM1.16246 30.5658L-68.3698 -52.2996L38.1598 -71.0843L1.16246 30.5658ZM0.382625 31.2201L-106.148 50.0041L-69.1496 -51.6452L0.382625 31.2201ZM-144.705 152.962L-214.238 70.0967L-107.709 51.3127L-144.705 152.962ZM-145.485 153.617L-252.015 172.401L-215.017 70.7519L-145.485 153.617ZM-290.573 275.361L-360.105 192.495L-253.575 173.71L-290.573 275.361ZM-291.353 276.014L-397.882 294.798L-360.885 193.15L-291.353 276.014ZM-436.439 397.756L-505.972 314.891L-399.443 296.107L-436.439 397.756ZM-437.219 398.412L-543.75 417.196L-506.752 315.547L-437.219 398.412ZM-582.305 520.153L-651.837 437.288L-545.308 418.503L-582.305 520.153ZM-583.086 520.808L-689.615 539.592L-652.618 437.943L-583.086 520.808ZM-582.909 521.81L-619.906 623.46L-689.439 540.594L-582.909 521.81ZM-549.983 708.378L-656.512 727.162L-619.515 625.513L-549.983 708.378ZM-548.849 709.729L-479.317 792.594L-585.847 811.377L-548.849 709.729ZM-337.946 961.073L-444.476 979.856L-407.479 878.207L-337.946 961.073ZM-336.813 962.424L-267.281 1045.29L-373.81 1064.07L-336.813 962.424ZM-125.91 1213.77L-232.439 1232.55L-195.442 1130.9L-125.91 1213.77ZM-124.777 1215.12L-55.2445 1297.98L-161.774 1316.77L-124.777 1215.12ZM86.1264 1466.46L-20.4025 1485.25L16.5942 1383.6L86.1264 1466.46ZM87.2596 1467.81L156.792 1550.68L50.263 1569.46L87.2596 1467.81ZM88.0402 1467.16L194.57 1448.37L157.573 1550.02L88.0402 1467.16ZM233.126 1345.42L302.658 1428.28L196.129 1447.07L233.126 1345.42ZM233.907 1344.76L340.435 1325.98L303.438 1427.63L233.907 1344.76ZM378.993 1223.02L448.525 1305.89L341.997 1324.67L378.993 1223.02ZM379.773 1222.37L486.303 1203.58L449.305 1305.23L379.773 1222.37ZM524.86 1100.62L594.393 1183.49L487.864 1202.27L524.86 1100.62ZM525.641 1099.97L632.171 1081.18L595.173 1182.83L525.641 1099.97ZM670.728 978.227L740.26 1061.09L633.731 1079.88L670.728 978.227ZM671.508 977.571L778.038 958.787L741.04 1060.44L671.508 977.571ZM816.595 855.828L886.128 938.694L779.598 957.479L816.595 855.828ZM817.376 855.174L923.905 836.389L886.907 938.038L817.376 855.174ZM962.463 733.431L1032 816.296L925.466 835.081L962.463 733.431ZM963.244 732.776L1069.77 713.991L1032.78 815.64L963.244 732.776ZM962.111 731.425L892.578 648.559L999.108 629.775L962.111 731.425ZM890.625 647.818L784.096 666.602L821.094 564.953L890.625 647.818ZM751.207 480.081L857.737 461.296L820.74 562.946L751.207 480.081ZM750.074 478.73L680.542 395.865L787.072 377.081L750.074 478.73ZM678.589 395.123L572.059 413.907L609.056 312.257L678.589 395.123ZM539.171 227.386L645.701 208.601L608.703 310.25L539.171 227.386ZM538.038 226.035L468.505 143.169L575.035 124.385L538.038 226.035ZM466.553 142.428L360.023 161.212L397.02 59.5622L466.553 142.428ZM327.135 -25.3095L433.664 -44.0941L396.667 57.5559L327.135 -25.3095ZM326.957 -26.3116L363.954 -127.962L433.487 -45.0963L326.957 -26.3116Z" fill="#095455"/>
</g>
<mask id="mask1_6037_2510" style="mask-type:luminance" maskUnits="userSpaceOnUse" x="-637" y="-133" width="1581" height="1581">
<path d="M222.759 -132.963L-636.743 588.245L84.4646 1447.75L943.966 726.539L222.759 -132.963Z" fill="white"/>
</mask>
<g mask="url(#mask1_6037_2510)">
<path d="M76.9882 144.221L56.5918 200.259L115.341 189.928L76.9882 144.221Z" fill="white"/>
</g>
<mask id="mask2_6037_2510" style="mask-type:luminance" maskUnits="userSpaceOnUse" x="-637" y="-133" width="1581" height="1581">
<path d="M222.759 -132.963L-636.743 588.245L84.4646 1447.75L943.966 726.539L222.759 -132.963Z" fill="white"/>
</mask>
<g mask="url(#mask2_6037_2510)">
<path d="M148.966 232.282L131.12 281.315L182.524 272.276L148.966 232.282Z" fill="white"/>
</g>
<mask id="mask3_6037_2510" style="mask-type:luminance" maskUnits="userSpaceOnUse" x="-637" y="-133" width="1581" height="1581">
<path d="M222.759 -132.963L-636.743 588.245L84.4646 1447.75L943.966 726.539L222.759 -132.963Z" fill="white"/>
</mask>
<g mask="url(#mask3_6037_2510)">
<path d="M128.925 19.317L202.335 6.37238L176.866 76.4509L128.925 19.317Z" fill="white"/>
</g>
<mask id="mask4_6037_2510" style="mask-type:luminance" maskUnits="userSpaceOnUse" x="-637" y="-133" width="1581" height="1581">
<path d="M222.759 -132.963L-636.743 588.245L84.4646 1447.75L943.966 726.539L222.759 -132.963Z" fill="white"/>
</mask>
<g mask="url(#mask4_6037_2510)">
<path d="M42.3327 -51.5103L16.8372 18.5367L90.2737 5.62355L42.3327 -51.5103Z" fill="#095455"/>
</g>
<mask id="mask5_6037_2510" style="mask-type:luminance" maskUnits="userSpaceOnUse" x="-637" y="-133" width="1581" height="1581">
<path d="M222.759 -132.963L-636.743 588.245L84.4646 1447.75L943.966 726.539L222.759 -132.963Z" fill="white"/>
</mask>
<g mask="url(#mask5_6037_2510)">
<path d="M258.921 -89.6256L233.425 -19.5785L306.862 -32.4917L258.921 -89.6256Z" fill="#095455"/>
</g>
<mask id="mask6_6037_2510" style="mask-type:luminance" maskUnits="userSpaceOnUse" x="-637" y="-133" width="1581" height="1581">
<path d="M222.759 -132.963L-636.743 588.245L84.4646 1447.75L943.966 726.539L222.759 -132.963Z" fill="white"/>
</mask>
<g mask="url(#mask6_6037_2510)">
<path d="M-16.9297 141.729L56.4804 128.785L31.0113 198.863L-16.9297 141.729Z" fill="#095455"/>
</g>
<mask id="mask7_6037_2510" style="mask-type:luminance" maskUnits="userSpaceOnUse" x="-637" y="-133" width="1581" height="1581">
<path d="M222.759 -132.963L-636.743 588.245L84.4646 1447.75L943.966 726.539L222.759 -132.963Z" fill="white"/>
</mask>
<g mask="url(#mask7_6037_2510)">
<path d="M112.999 32.7063L87.5032 102.753L160.94 89.8402L112.999 32.7063Z" fill="#095455"/>
</g>
<mask id="mask8_6037_2510" style="mask-type:luminance" maskUnits="userSpaceOnUse" x="-637" y="-133" width="1581" height="1581">
<path d="M222.759 -132.963L-636.743 588.245L84.4646 1447.75L943.966 726.539L222.759 -132.963Z" fill="white"/>
</mask>
<g mask="url(#mask8_6037_2510)">
<path d="M-32.8692 155.104L-58.364 225.15L15.0718 212.238L-32.8692 155.104Z" fill="#095455"/>
</g>
<mask id="mask9_6037_2510" style="mask-type:luminance" maskUnits="userSpaceOnUse" x="-637" y="-133" width="1581" height="1581">
<path d="M222.759 -132.963L-636.743 588.245L84.4646 1447.75L943.966 726.539L222.759 -132.963Z" fill="white"/>
</mask>
<g mask="url(#mask9_6037_2510)">
<path d="M-87.5957 57.5127L-14.1856 44.5681L-39.6547 114.647L-87.5957 57.5127Z" fill="#095455"/>
</g>
<mask id="mask10_6037_2510" style="mask-type:luminance" maskUnits="userSpaceOnUse" x="-637" y="-133" width="1581" height="1581">
<path d="M222.759 -132.963L-636.743 588.245L84.4646 1447.75L943.966 726.539L222.759 -132.963Z" fill="white"/>
</mask>
<g mask="url(#mask10_6037_2510)">
<path d="M209.317 105.082L268.046 94.7259L247.67 150.788L209.317 105.082Z" fill="white"/>
</g>
<mask id="mask11_6037_2510" style="mask-type:luminance" maskUnits="userSpaceOnUse" x="-637" y="-133" width="1581" height="1581">
<path d="M222.759 -132.963L-636.743 588.245L84.4646 1447.75L943.966 726.539L222.759 -132.963Z" fill="white"/>
</mask>
<g mask="url(#mask11_6037_2510)">
<path d="M329.49 4.51912L309.095 60.5564L367.844 50.2267L329.49 4.51912Z" fill="white"/>
</g>
<mask id="mask12_6037_2510" style="mask-type:luminance" maskUnits="userSpaceOnUse" x="-637" y="-133" width="1581" height="1581">
<path d="M222.759 -132.963L-636.743 588.245L84.4646 1447.75L943.966 726.539L222.759 -132.963Z" fill="white"/>
</mask>
<g mask="url(#mask12_6037_2510)">
<path d="M63.5586 227.607L122.286 217.252L101.911 273.314L63.5586 227.607Z" fill="white"/>
</g>
<mask id="mask13_6037_2510" style="mask-type:luminance" maskUnits="userSpaceOnUse" x="-637" y="-133" width="1581" height="1581">
<path d="M222.759 -132.963L-636.743 588.245L84.4646 1447.75L943.966 726.539L222.759 -132.963Z" fill="white"/>
</mask>
<g mask="url(#mask13_6037_2510)">
<path d="M183.596 126.884L163.2 182.921L221.948 172.591L183.596 126.884Z" fill="white"/>
</g>
<mask id="mask14_6037_2510" style="mask-type:luminance" maskUnits="userSpaceOnUse" x="-637" y="-133" width="1581" height="1581">
<path d="M222.759 -132.963L-636.743 588.245L84.4646 1447.75L943.966 726.539L222.759 -132.963Z" fill="white"/>
</mask>
<g mask="url(#mask14_6037_2510)">
<path d="M99.1426 125.632L157.871 115.276L137.495 171.338L99.1426 125.632Z" fill="#095455"/>
</g>
<mask id="mask15_6037_2510" style="mask-type:luminance" maskUnits="userSpaceOnUse" x="-637" y="-133" width="1581" height="1581">
<path d="M222.759 -132.963L-636.743 588.245L84.4646 1447.75L943.966 726.539L222.759 -132.963Z" fill="white"/>
</mask>
<g mask="url(#mask15_6037_2510)">
<path d="M20.5371 38.2628L93.9472 25.3182L68.4781 95.3966L20.5371 38.2628Z" fill="#095455"/>
</g>
<mask id="mask16_6037_2510" style="mask-type:luminance" maskUnits="userSpaceOnUse" x="-637" y="-133" width="1581" height="1581">
<path d="M222.759 -132.963L-636.743 588.245L84.4646 1447.75L943.966 726.539L222.759 -132.963Z" fill="white"/>
</mask>
<g mask="url(#mask16_6037_2510)">
<path d="M4.5983 51.6368L-20.8972 121.684L52.5385 108.771L4.5983 51.6368Z" fill="#095455"/>
</g>
<mask id="mask17_6037_2510" style="mask-type:luminance" maskUnits="userSpaceOnUse" x="-637" y="-133" width="1581" height="1581">
<path d="M222.759 -132.963L-636.743 588.245L84.4646 1447.75L943.966 726.539L222.759 -132.963Z" fill="white"/>
</mask>
<g mask="url(#mask17_6037_2510)">
<path d="M-46.7236 248.028L12.004 237.673L-8.37107 293.735L-46.7236 248.028Z" fill="#095455"/>
</g>
<mask id="mask18_6037_2510" style="mask-type:luminance" maskUnits="userSpaceOnUse" x="-637" y="-133" width="1581" height="1581">
<path d="M222.759 -132.963L-636.743 588.245L84.4646 1447.75L943.966 726.539L222.759 -132.963Z" fill="white"/>
</mask>
<g mask="url(#mask18_6037_2510)">
<path d="M245.188 3.44531L303.915 -6.90969L283.541 49.1529L245.188 3.44531Z" fill="white"/>
<path d="M222.931 21.9147L202.535 77.9519L261.284 67.6222L222.931 21.9147Z" fill="#095455"/>
</g>
<mask id="mask19_6037_2510" style="mask-type:luminance" maskUnits="userSpaceOnUse" x="-637" y="-133" width="1581" height="1581">
<path d="M222.759 -132.963L-636.743 588.245L84.4646 1447.75L943.966 726.539L222.759 -132.963Z" fill="white"/>
</mask>
<g mask="url(#mask19_6037_2510)">
<path d="M150.592 -70.6086L125.097 -0.561551L198.533 -13.4747L150.592 -70.6086Z" fill="#095455"/>
</g>
<mask id="mask20_6037_2510" style="mask-type:luminance" maskUnits="userSpaceOnUse" x="-637" y="-133" width="1581" height="1581">
<path d="M222.759 -132.963L-636.743 588.245L84.4646 1447.75L943.966 726.539L222.759 -132.963Z" fill="white"/>
</mask>
<g mask="url(#mask20_6037_2510)">
<path d="M294.86 109.915L277.013 158.947L328.419 149.908L294.86 109.915Z" fill="white"/>
</g>
</g>
<defs>
<clipPath id="clip0_6037_2510">
<rect width="290" height="329" fill="white" transform="translate(0.605469 53.4453) rotate(-40)"/>
</clipPath>
</defs>
</svg>
