<svg width="262" height="194" viewBox="0 0 262 194" fill="none" xmlns="http://www.w3.org/2000/svg">
<g opacity="0.1" clip-path="url(#clip0_6037_3217)">
<mask id="mask0_6037_3217" style="mask-type:luminance" maskUnits="userSpaceOnUse" x="-810" y="0" width="1582" height="1582">
<path d="M50.4189 0.483069L-809.083 721.691L-87.8753 1581.19L771.627 859.985L50.4189 0.483069Z" fill="white"/>
</mask>
<g mask="url(#mask0_6037_3217)">
<path d="M191.829 4.15466C191.823 4.14777 191.814 4.14625 191.809 4.14012C191.756 4.08373 191.694 4.03419 191.616 4.00539C191.614 4.00449 191.612 4.00365 191.61 4.00275C191.531 3.97458 191.452 3.9719 191.375 3.98217C191.367 3.98358 191.359 3.97864 191.351 3.98005L83.3728 23.0192L12.8577 -61.0174C12.8519 -61.0243 12.8427 -61.0257 12.8376 -61.0319C12.785 -61.0883 12.7227 -61.1378 12.645 -61.1666C12.643 -61.1675 12.6409 -61.1683 12.6388 -61.1692C12.5597 -61.1982 12.4798 -61.2002 12.4022 -61.19C12.3943 -61.1886 12.3875 -61.1933 12.3796 -61.1919L-95.8867 -42.1013C-95.8946 -42.0999 -95.9003 -42.0925 -95.9082 -42.0911C-95.9849 -42.0737 -96.0607 -42.0441 -96.1257 -41.9895C-96.1908 -41.9349 -96.2324 -41.8661 -96.2636 -41.7929C-96.2664 -41.7853 -96.2746 -41.7811 -96.2774 -41.7735L-133.777 61.2564L-241.755 80.2964C-241.763 80.2978 -241.768 80.3051 -241.776 80.3066C-241.853 80.324 -241.929 80.3536 -241.994 80.4082C-242.059 80.4629 -242.1 80.5316 -242.132 80.6048C-242.134 80.6124 -242.142 80.6166 -242.145 80.6242L-279.646 183.655L-387.623 202.694C-387.63 202.696 -387.636 202.703 -387.644 202.704C-387.721 202.722 -387.796 202.751 -387.862 202.806C-387.927 202.861 -387.968 202.929 -387.999 203.003C-388.002 203.01 -388.01 203.014 -388.013 203.022L-425.512 306.051L-533.49 325.091C-533.498 325.093 -533.503 325.1 -533.511 325.101C-533.588 325.119 -533.664 325.148 -533.729 325.203C-533.794 325.258 -533.835 325.326 -533.867 325.4C-533.869 325.407 -533.878 325.411 -533.88 325.419L-571.38 428.449L-679.357 447.488C-679.365 447.49 -679.37 447.497 -679.378 447.498C-679.455 447.516 -679.531 447.545 -679.596 447.6C-679.661 447.655 -679.702 447.723 -679.734 447.797C-679.736 447.804 -679.745 447.808 -679.747 447.816L-717.248 550.845L-825.224 569.885C-825.232 569.887 -825.237 569.894 -825.245 569.895C-825.322 569.913 -825.398 569.942 -825.463 569.997C-825.528 570.052 -825.57 570.12 -825.601 570.194C-825.604 570.201 -825.612 570.205 -825.615 570.213L-863.215 673.52C-863.218 673.527 -863.215 673.535 -863.217 673.542C-863.241 673.618 -863.254 673.698 -863.238 673.782C-863.224 673.864 -863.185 673.935 -863.137 673.998C-863.132 674.004 -863.132 674.014 -863.126 674.021L-792.611 758.057L-830.111 861.089C-830.114 861.096 -830.111 861.104 -830.113 861.111C-830.137 861.187 -830.15 861.267 -830.135 861.351C-830.12 861.434 -830.082 861.505 -830.034 861.568C-830.03 861.575 -830.029 861.583 -830.023 861.59L-759.358 945.806C-759.353 945.812 -759.344 945.814 -759.338 945.821C-759.285 945.879 -759.222 945.93 -759.142 945.958C-759.138 945.96 -759.133 945.957 -759.129 945.959C-759.05 945.985 -758.965 945.996 -758.88 945.981L-758.876 945.98C-758.875 945.98 -758.875 945.98 -758.874 945.98L-650.9 926.942L-580.574 1010.75L-618.074 1113.78C-618.077 1113.79 -618.074 1113.8 -618.076 1113.81C-618.1 1113.88 -618.113 1113.96 -618.098 1114.05C-618.083 1114.13 -618.045 1114.2 -617.997 1114.26C-617.993 1114.27 -617.992 1114.28 -617.986 1114.29L-547.32 1198.5C-547.315 1198.51 -547.306 1198.51 -547.3 1198.52C-547.247 1198.58 -547.184 1198.63 -547.104 1198.65C-547.1 1198.66 -547.096 1198.65 -547.091 1198.66C-547.012 1198.68 -546.927 1198.69 -546.842 1198.68L-546.839 1198.68C-546.838 1198.68 -546.837 1198.68 -546.836 1198.68L-438.863 1179.64L-368.537 1263.45L-406.037 1366.48C-406.04 1366.49 -406.036 1366.5 -406.039 1366.5C-406.062 1366.58 -406.075 1366.66 -406.06 1366.74C-406.046 1366.83 -406.007 1366.9 -405.959 1366.96C-405.955 1366.97 -405.954 1366.98 -405.949 1366.98L-335.283 1451.2C-335.278 1451.2 -335.269 1451.21 -335.263 1451.21C-335.21 1451.27 -335.147 1451.32 -335.067 1451.35C-335.063 1451.35 -335.059 1451.35 -335.054 1451.35C-334.975 1451.38 -334.89 1451.39 -334.805 1451.37L-334.802 1451.37C-334.801 1451.37 -334.8 1451.37 -334.799 1451.37L-226.826 1432.33L-156.5 1516.15L-194 1619.18C-194.003 1619.18 -193.999 1619.19 -194.002 1619.2C-194.025 1619.28 -194.037 1619.36 -194.023 1619.44C-194.009 1619.52 -193.97 1619.59 -193.923 1619.66C-193.918 1619.66 -193.917 1619.67 -193.912 1619.68L-123.245 1703.9C-123.24 1703.9 -123.231 1703.9 -123.225 1703.91C-123.172 1703.97 -123.109 1704.02 -123.029 1704.05C-123.025 1704.05 -123.021 1704.05 -123.017 1704.05C-122.937 1704.07 -122.852 1704.09 -122.767 1704.07L-122.764 1704.07C-122.763 1704.07 -122.762 1704.07 -122.762 1704.07L-14.5012 1684.98C-14.4932 1684.98 -14.487 1684.97 -14.4796 1684.97C-14.4029 1684.95 -14.3272 1684.92 -14.2621 1684.87C-14.1969 1684.81 -14.1554 1684.74 -14.1242 1684.67C-14.1214 1684.66 -14.1133 1684.66 -14.1105 1684.65L23.3901 1581.62L131.366 1562.58C131.374 1562.58 131.38 1562.57 131.387 1562.57C131.464 1562.55 131.54 1562.53 131.605 1562.47C131.67 1562.42 131.712 1562.35 131.743 1562.27C131.746 1562.27 131.754 1562.26 131.757 1562.25L169.257 1459.22L277.233 1440.19C277.241 1440.18 277.247 1440.18 277.255 1440.17C277.331 1440.16 277.407 1440.13 277.472 1440.07C277.537 1440.02 277.579 1439.95 277.61 1439.88C277.613 1439.87 277.621 1439.86 277.624 1439.86L315.125 1336.83L423.101 1317.79C423.109 1317.79 423.115 1317.78 423.122 1317.78C423.199 1317.76 423.275 1317.73 423.34 1317.68C423.405 1317.62 423.447 1317.55 423.478 1317.48C423.481 1317.47 423.489 1317.47 423.492 1317.46L460.992 1214.43L568.969 1195.39C568.977 1195.39 568.983 1195.38 568.99 1195.38C569.067 1195.36 569.143 1195.33 569.208 1195.28C569.273 1195.22 569.315 1195.15 569.346 1195.08C569.349 1195.07 569.357 1195.07 569.36 1195.06L606.86 1092.03L714.837 1072.99C714.845 1072.99 714.852 1072.98 714.859 1072.98C714.936 1072.96 715.012 1072.93 715.077 1072.88C715.142 1072.82 715.183 1072.76 715.214 1072.68C715.217 1072.68 715.225 1072.67 715.228 1072.66L752.729 969.633L860.706 950.593C860.714 950.592 860.72 950.585 860.728 950.583C860.804 950.565 860.88 950.536 860.945 950.481C861.01 950.427 861.052 950.358 861.083 950.285C861.086 950.277 861.094 950.273 861.097 950.265L898.697 846.964C898.697 846.964 898.697 846.962 898.697 846.962L898.698 846.958C898.73 846.872 898.736 846.78 898.72 846.692C898.705 846.611 898.667 846.542 898.62 846.479C898.615 846.472 898.615 846.463 898.61 846.457L827.943 762.24C827.938 762.233 827.929 762.232 827.923 762.226C827.871 762.169 827.808 762.12 827.731 762.091C827.729 762.09 827.727 762.089 827.725 762.089C827.646 762.06 827.566 762.058 827.488 762.069C827.481 762.07 827.473 762.066 827.465 762.067L719.487 781.106L649.158 697.291L686.656 594.265C686.656 594.265 686.656 594.264 686.657 594.263L686.658 594.26C686.69 594.173 686.696 594.082 686.679 593.994C686.664 593.913 686.627 593.843 686.58 593.781C686.574 593.774 686.574 593.765 686.569 593.759L615.904 509.544C615.899 509.537 615.889 509.535 615.884 509.529C615.832 509.473 615.769 509.423 615.692 509.394C615.69 509.394 615.688 509.393 615.686 509.392C615.608 509.364 615.529 509.362 615.451 509.372C615.443 509.373 615.435 509.368 615.427 509.37L507.449 528.409L437.122 444.596L474.62 341.571C474.62 341.571 474.621 341.57 474.621 341.569L474.622 341.565C474.654 341.479 474.66 341.388 474.643 341.3C474.629 341.218 474.591 341.149 474.544 341.087C474.539 341.08 474.539 341.071 474.533 341.064L403.867 256.848C403.862 256.841 403.852 256.839 403.847 256.833C403.795 256.777 403.732 256.727 403.655 256.699C403.653 256.698 403.651 256.697 403.649 256.696C403.57 256.668 403.491 256.665 403.413 256.675C403.405 256.677 403.397 256.672 403.389 256.673L295.411 275.712L225.085 191.901L262.583 88.8752C262.584 88.8746 262.584 88.8737 262.584 88.8731L262.585 88.8697C262.617 88.7831 262.623 88.6919 262.606 88.6039C262.592 88.5224 262.554 88.4531 262.507 88.3908C262.502 88.3839 262.502 88.3747 262.496 88.3686L191.831 4.1527L191.829 4.15466ZM473.184 341.045L366.654 359.829L403.651 258.179L473.184 341.045ZM685.221 593.74L578.691 612.525L615.689 510.876L685.221 593.74ZM897.258 846.436L790.727 865.22L827.725 763.57L897.258 846.436ZM-192.566 1619.7L-86.0357 1600.91L-123.033 1702.56L-192.566 1619.7ZM-404.602 1367L-298.073 1348.22L-335.071 1449.86L-404.602 1367ZM-616.639 1114.31L-510.108 1095.52L-547.106 1197.17L-616.639 1114.31ZM-828.675 861.61L-722.145 842.826L-759.142 944.476L-828.675 861.61ZM-68.0109 437.455L-105.008 539.104L-174.54 456.239L-107.543 444.426L-68.0109 437.455ZM141.088 979.717L178.086 878.068L247.618 960.933L141.088 979.717ZM-4.77965 1102.11L32.2183 1000.47L101.751 1083.33L-4.77965 1102.11ZM-251.478 663.158L-288.475 764.808L-358.008 681.942L-251.478 663.158ZM-105.611 540.761L-142.608 642.411L-212.141 559.545L-105.611 540.761ZM-37.7064 915.547L68.8239 896.763L31.8264 998.413L-37.7064 915.547ZM-78.3012 826.029L-1.84227 812.547L-38.8397 914.197L-108.372 831.332L-78.3012 826.029ZM-47.1496 819.502L-108.55 830.328L-71.5524 728.679L-2.02074 811.544L-47.1496 819.502ZM-72.6856 727.329L-179.215 746.112L-142.218 644.463L-72.6856 727.329ZM-72.5078 728.331L-109.506 829.98L-179.038 747.115L-72.5078 728.331ZM-109.152 831.986L-39.6195 914.851L-146.148 933.635L-109.152 831.986ZM31.0467 999.068L-75.4828 1017.85L-38.4856 916.202L31.0467 999.068ZM-37.8828 914.545L-0.885466 812.895L68.6474 895.761L-37.8828 914.545ZM-1.23953 810.89L-70.7718 728.024L35.7585 709.24L-1.23953 810.89ZM-141.438 643.808L-34.9076 625.024L-71.905 726.674L-141.438 643.808ZM-180.99 746.372L-287.519 765.156L-250.523 663.507L-180.99 746.372ZM-180.775 747.421L-217.773 849.071L-287.306 766.205L-180.775 747.421ZM-110.286 830.635L-216.816 849.42L-179.819 747.77L-110.286 830.635ZM-39.4417 915.853L-76.4391 1017.5L-145.972 934.637L-39.4417 915.853ZM31.2615 1000.12L-5.73648 1101.77L-75.2688 1018.9L31.2615 1000.12ZM177.129 877.72L140.131 979.369L70.599 896.503L177.129 877.72ZM70.3843 895.454L107.382 793.804L176.914 876.67L70.3843 895.454ZM-0.10488 812.24L106.425 793.456L69.428 895.106L-0.10488 812.24ZM-70.9481 727.022L-33.9508 625.372L35.5821 708.238L-70.9481 727.022ZM-141.652 642.759L-104.655 541.109L-35.1225 623.974L-141.652 642.759ZM-180.211 745.718L-249.743 662.852L-143.213 644.068L-180.211 745.718ZM-110.109 831.638L-147.107 933.287L-216.64 850.422L-110.109 831.638ZM-77.2203 1018.16L-183.751 1036.94L-146.753 935.292L-77.2203 1018.16ZM69.8185 897.158L139.351 980.024L32.8219 998.808L69.8185 897.158ZM-0.28185 811.237L36.7161 709.588L106.248 792.453L-0.28185 811.237ZM-33.171 624.718L73.3593 605.934L36.362 707.584L-33.171 624.718ZM-212.318 558.543L-175.32 456.893L-105.787 539.759L-212.318 558.543ZM-143.389 643.066L-249.919 661.85L-212.922 560.2L-143.389 643.066ZM-358.185 680.94L-321.188 579.291L-251.655 662.157L-358.185 680.94ZM-289.256 765.463L-395.786 784.247L-358.789 682.597L-289.256 765.463ZM-289.08 766.465L-326.077 868.114L-395.608 785.249L-289.08 766.465ZM-288.086 766.86L-218.553 849.726L-325.082 868.509L-288.086 766.86ZM-147.887 933.942L-215.04 945.783L-254.416 952.726L-217.419 851.077L-147.887 933.942ZM-187.086 941.887L-147.709 934.944L-184.707 1036.59L-254.238 953.728L-187.086 941.887ZM-77.0432 1019.16L-114.04 1120.81L-183.573 1037.94L-77.0432 1019.16ZM-76.0486 1019.56L-6.51631 1102.42L-113.045 1121.2L-76.0486 1019.56ZM101.926 1084.33L64.929 1185.98L-4.60328 1103.12L101.926 1084.33ZM32.9982 999.81L139.528 981.025L102.531 1082.68L32.9982 999.81ZM247.794 961.935L210.797 1063.58L141.265 980.719L247.794 961.935ZM178.865 877.413L285.395 858.628L248.397 960.277L178.865 877.413ZM178.69 876.41L215.686 774.761L285.219 857.626L178.69 876.41ZM177.694 876.016L108.161 793.15L214.69 774.366L177.694 876.016ZM37.4959 708.934L104.613 697.099L144.025 690.15L107.028 791.798L37.4959 708.934ZM76.7293 700.982L37.3175 707.931L74.3148 606.282L143.846 689.147L76.7293 700.982ZM-33.3472 623.714L3.64938 522.065L73.1816 604.93L-33.3472 623.714ZM-34.3427 623.32L-103.874 540.455L2.65457 521.671L-34.3427 623.32ZM-213.878 559.852L-250.876 661.502L-320.408 578.636L-289.944 573.265L-213.878 559.852ZM-359.745 682.25L-396.742 783.899L-466.275 701.033L-399.243 689.213L-359.745 682.25ZM-467.055 701.688L-397.522 784.554L-504.053 803.338L-467.055 701.688ZM-326.857 868.769L-433.387 887.554L-396.39 785.904L-326.857 868.769ZM-218.375 850.728L-255.372 952.378L-324.905 869.512L-218.375 850.728ZM-255.019 954.383L-185.487 1037.25L-292.017 1056.03L-255.019 954.383ZM-114.82 1121.46L-221.351 1140.25L-184.353 1038.6L-114.82 1121.46ZM-6.33855 1103.42L-43.3365 1205.07L-112.869 1122.21L-6.33855 1103.42ZM-42.3803 1205.42L-5.38312 1103.77L64.1491 1186.64L-2.88285 1198.46L-42.3803 1205.42ZM103.487 1083.02L140.484 981.374L210.016 1064.24L164.837 1072.21L103.487 1083.02ZM249.355 960.625L286.352 858.977L355.884 941.842L288.887 953.655L249.355 960.625ZM356.665 941.188L287.132 858.322L393.661 839.538L356.665 941.188ZM216.466 774.106L322.996 755.323L285.999 856.972L216.466 774.106ZM107.984 792.148L144.982 690.498L214.515 773.364L107.984 792.148ZM144.628 688.493L75.0953 605.627L181.626 586.843L144.628 688.493ZM4.42922 521.411L110.959 502.627L73.9621 604.277L4.42922 521.411ZM-104.052 539.453L-67.0547 437.803L2.47823 520.669L-104.052 539.453ZM-67.4087 435.797L-136.941 352.932L-30.4114 334.147L-67.4087 435.797ZM-68.1893 436.452L-135.187 448.265L-174.718 455.235L-137.721 353.587L-68.1893 436.452ZM-213.276 558.195L-282.808 475.329L-176.278 456.544L-213.276 558.195ZM-214.056 558.85L-259.236 566.816L-320.586 577.633L-283.589 475.984L-214.056 558.85ZM-359.144 680.592L-428.676 597.727L-322.146 578.942L-359.144 680.592ZM-359.924 681.247L-426.956 693.066L-466.453 700.03L-429.456 598.381L-359.924 681.247ZM-505.01 802.989L-574.542 720.123L-468.013 701.339L-505.01 802.989ZM-397.346 785.556L-434.342 887.204L-503.874 804.339L-397.346 785.556ZM-256.154 953.032L-362.684 971.816L-325.686 870.166L-256.154 953.032ZM-255.976 954.035L-292.974 1055.68L-362.506 972.818L-255.976 954.035ZM-185.31 1038.25L-222.306 1139.9L-291.838 1057.03L-185.31 1038.25ZM-44.1171 1205.73L-150.647 1224.51L-113.649 1122.86L-44.1171 1205.73ZM-43.9408 1206.73L-80.9374 1308.38L-150.47 1225.51L-43.9408 1206.73ZM-42.9825 1207.08L26.5504 1289.94L-79.9792 1308.73L-42.9825 1207.08ZM-42.2019 1206.42L24.8301 1194.6L64.3276 1187.64L27.3303 1289.29L-42.2019 1206.42ZM102.885 1084.68L172.417 1167.55L65.888 1186.33L102.885 1084.68ZM103.664 1084.03L134.129 1078.65L210.194 1065.24L173.197 1166.89L103.664 1084.03ZM248.752 962.283L318.285 1045.15L211.756 1063.93L248.752 962.283ZM249.532 961.629L316.53 949.816L356.061 942.846L319.064 1044.49L249.532 961.629ZM286.955 857.32L323.953 755.671L393.486 838.536L286.955 857.32ZM145.762 689.843L252.293 671.059L215.295 772.709L145.762 689.843ZM74.919 604.625L111.916 502.975L181.449 585.841L74.919 604.625ZM-66.2741 437.148L40.2562 418.364L3.25881 520.014L-66.2741 437.148ZM-137.118 351.929L-100.121 250.279L-30.5884 333.145L-137.118 351.929ZM-175.675 454.888L-245.207 372.023L-138.677 353.239L-175.675 454.888ZM-176.455 455.542L-282.985 474.326L-245.988 372.676L-176.455 455.542ZM-321.542 577.285L-391.074 494.42L-284.544 475.636L-321.542 577.285ZM-322.323 577.94L-428.853 596.724L-391.856 495.074L-322.323 577.94ZM-467.409 699.682L-536.942 616.817L-430.411 598.033L-467.409 699.682ZM-468.19 700.337L-574.72 719.121L-537.723 617.471L-468.19 700.337ZM-505.791 803.643L-612.32 822.427L-575.323 720.778L-505.791 803.643ZM-326.643 869.818L-363.639 971.468L-433.172 888.602L-326.643 869.818ZM-293.755 1056.34L-400.283 1075.12L-363.286 973.474L-293.755 1056.34ZM-114.606 1122.51L-151.603 1224.16L-221.135 1141.3L-114.606 1122.51ZM-81.7186 1309.03L-188.247 1327.82L-151.25 1226.17L-81.7186 1309.03ZM-79.8013 1309.73L26.7262 1290.95L-10.271 1392.59L-79.8013 1309.73ZM65.2838 1187.99L134.816 1270.85L28.2865 1289.64L65.2838 1187.99ZM66.0636 1187.33L172.593 1168.55L135.595 1270.2L66.0636 1187.33ZM211.151 1065.59L280.683 1148.46L174.154 1167.24L211.151 1065.59ZM211.931 1064.94L318.461 1046.15L281.463 1147.8L211.931 1064.94ZM357.018 943.193L426.55 1026.06L320.021 1044.84L357.018 943.193ZM357.799 942.538L464.328 923.754L427.33 1025.4L357.799 942.538ZM357.622 941.536L394.62 839.886L464.152 922.751L357.622 941.536ZM324.733 755.016L431.262 736.231L394.264 837.88L324.733 755.016ZM322.782 754.273L216.251 773.057L253.249 671.408L322.782 754.273ZM145.585 688.84L182.583 587.191L252.115 670.056L145.585 688.84ZM112.696 502.321L219.226 483.537L182.229 585.187L112.696 502.321ZM110.745 501.577L4.21504 520.362L41.2124 418.712L110.745 501.577ZM-66.4505 436.146L-29.4531 334.496L40.0798 417.362L-66.4505 436.146ZM-99.3402 249.626L7.19011 230.842L-29.8073 332.492L-99.3402 249.626ZM-138.074 351.582L-207.607 268.716L-101.077 249.932L-138.074 351.582ZM-138.855 352.236L-245.384 371.02L-208.388 269.371L-138.855 352.236ZM-283.941 473.979L-353.474 391.113L-246.944 372.329L-283.941 473.979ZM-284.722 474.634L-391.251 493.418L-354.254 391.768L-284.722 474.634ZM-429.809 596.376L-499.342 513.51L-392.812 494.726L-429.809 596.376ZM-430.589 597.031L-537.118 615.815L-500.121 514.165L-430.589 597.031ZM-575.676 718.773L-645.208 635.907L-538.679 617.123L-575.676 718.773ZM-613.276 822.078L-682.807 739.214L-576.28 720.43L-613.276 822.078ZM-364.42 972.123L-470.95 990.907L-433.953 889.257L-364.42 972.123ZM-364.243 973.126L-401.239 1074.77L-470.771 991.909L-364.243 973.126ZM-152.383 1224.82L-258.913 1243.6L-221.916 1141.95L-152.383 1224.82ZM-152.206 1225.82L-189.204 1327.47L-258.735 1244.6L-152.206 1225.82ZM27.683 1291.29L97.2153 1374.16L-9.31496 1392.94L27.683 1291.29ZM28.4636 1290.64L134.992 1271.85L97.9959 1373.5L28.4636 1290.64ZM173.55 1168.9L243.082 1251.76L136.553 1270.55L173.55 1168.9ZM174.33 1168.24L280.86 1149.46L243.862 1251.11L174.33 1168.24ZM319.418 1046.5L388.951 1129.37L282.421 1148.15L319.418 1046.5ZM320.198 1045.85L426.727 1027.06L389.731 1128.71L320.198 1045.85ZM465.285 924.102L534.817 1006.97L428.287 1025.75L465.285 924.102ZM466.065 923.448L572.595 904.663L535.597 1006.31L466.065 923.448ZM395.399 839.232L462.467 827.406L501.93 820.448L464.932 922.097L395.399 839.232ZM434.684 831.271L395.221 838.229L432.219 736.58L501.751 819.445L434.684 831.271ZM324.556 754.014L361.554 652.364L431.086 735.229L324.556 754.014ZM323.561 753.619L254.029 670.753L360.558 651.968L323.561 753.619ZM183.363 586.537L250.552 574.689L289.893 567.752L252.895 669.401L183.363 586.537ZM222.527 578.597L183.186 585.534L220.184 483.885L289.716 566.749L222.527 578.597ZM112.519 501.318L149.517 399.668L219.049 482.534L112.519 501.318ZM111.524 500.923L41.9928 418.058L148.523 399.274L111.524 500.923ZM-28.6733 333.842L38.3941 322.016L77.857 315.058L40.8596 416.708L-28.6733 333.842ZM10.6112 325.881L-28.8517 332.839L8.14633 231.189L77.6786 314.055L10.6112 325.881ZM-99.5166 248.624L-62.5192 146.974L7.0131 229.839L-99.5166 248.624ZM-576.456 719.428L-682.986 738.212L-645.988 636.562L-576.456 719.428ZM-435.124 887.86L-541.652 906.643L-504.655 804.995L-435.124 887.86ZM-223.088 1140.55L-329.616 1159.34L-292.62 1057.69L-223.088 1140.55ZM-11.0517 1393.25L-117.579 1412.03L-80.5821 1310.39L-11.0517 1393.25ZM465.889 922.446L502.887 820.796L572.419 903.662L465.889 922.446ZM433 735.925L539.529 717.14L502.532 818.79L433 735.925ZM362.334 651.709L468.864 632.925L431.866 734.574L362.334 651.709ZM253.852 669.751L290.85 568.1L360.382 650.967L253.852 669.751ZM220.963 483.23L327.493 464.445L290.495 566.094L220.963 483.23ZM150.297 399.013L256.827 380.229L219.83 481.879L150.297 399.013ZM41.8159 417.055L78.8132 315.405L148.346 398.272L41.8159 417.055ZM8.92687 230.534L115.457 211.75L78.4591 313.4L8.92687 230.534ZM-61.7393 146.318L44.791 127.534L7.79301 229.183L-61.7393 146.318ZM-505.611 804.646L-542.609 906.295L-612.14 823.43L-505.611 804.646ZM-434.946 888.862L-471.943 990.51L-541.475 907.645L-434.946 888.862ZM-293.575 1057.34L-330.572 1158.99L-400.104 1076.13L-293.575 1057.34ZM-222.91 1141.56L-259.906 1243.21L-329.439 1160.34L-222.91 1141.56ZM-81.5388 1310.04L-118.536 1411.68L-188.068 1328.82L-81.5388 1310.04ZM-10.8739 1394.25L-47.8713 1495.9L-117.404 1413.04L-10.8739 1394.25ZM503.666 820.141L610.196 801.356L573.198 903.005L503.666 820.141ZM432.822 734.923L469.82 633.274L539.353 716.139L432.822 734.923ZM291.63 567.446L398.16 548.662L361.163 650.312L291.63 567.446ZM220.786 482.228L257.783 380.578L327.316 463.444L220.786 482.228ZM79.5938 314.75L186.124 295.967L149.127 397.617L79.5938 314.75ZM8.74914 229.532L45.7465 127.882L115.279 210.748L8.74914 229.532ZM83.3481 24.5751L152.88 107.44L46.3507 126.225L83.3481 24.5751ZM44.5761 126.486L-61.9534 145.269L-24.9562 43.6205L44.5761 126.486ZM-100.511 248.229L-170.044 165.362L-63.5139 146.579L-100.511 248.229ZM-101.291 248.883L-207.821 267.667L-170.824 166.017L-101.291 248.883ZM-246.378 370.626L-315.911 287.76L-209.382 268.975L-246.378 370.626ZM-247.158 371.28L-353.688 390.064L-316.691 288.414L-247.158 371.28ZM-392.246 493.023L-461.779 410.157L-355.249 391.373L-392.246 493.023ZM-393.026 493.678L-499.556 512.461L-462.559 410.812L-393.026 493.678ZM-538.113 615.42L-607.645 532.554L-501.116 513.77L-538.113 615.42ZM-538.893 616.075L-645.423 634.859L-608.426 533.209L-538.893 616.075ZM-753.512 654.95L-646.982 636.166L-683.979 737.816L-753.512 654.95ZM-614.058 822.733L-720.585 841.518L-683.588 739.87L-614.058 822.733ZM-612.922 824.084L-543.389 906.95L-649.918 925.734L-612.922 824.084ZM-472.724 991.165L-579.253 1009.95L-542.256 908.3L-472.724 991.165ZM-402.021 1075.43L-508.549 1094.21L-471.553 992.564L-402.021 1075.43ZM-400.885 1076.78L-331.353 1159.64L-437.882 1178.43L-400.885 1076.78ZM-260.687 1243.86L-367.216 1262.64L-330.219 1161L-260.687 1243.86ZM-189.985 1328.12L-296.512 1346.91L-259.515 1245.26L-189.985 1328.12ZM-188.849 1329.47L-119.317 1412.34L-225.845 1431.12L-188.849 1329.47ZM-48.6504 1496.56L-155.18 1515.34L-118.183 1413.69L-48.6504 1496.56ZM-9.87997 1394.65L59.6529 1477.51L-46.8774 1496.3L-9.87997 1394.65ZM-9.09936 1393.99L97.4301 1375.21L60.4329 1476.86L-9.09936 1393.99ZM135.987 1272.25L205.52 1355.12L98.9912 1373.9L135.987 1272.25ZM136.767 1271.6L243.297 1252.81L206.3 1354.46L136.767 1271.6ZM281.854 1149.85L351.387 1232.72L244.858 1251.5L281.854 1149.85ZM282.635 1149.2L389.165 1130.41L352.168 1232.06L282.635 1149.2ZM427.721 1027.46L497.254 1110.32L390.725 1129.11L427.721 1027.46ZM428.502 1026.8L535.032 1008.02L498.035 1109.67L428.502 1026.8ZM573.589 905.058L643.122 987.924L536.592 1006.71L573.589 905.058ZM574.37 904.403L680.9 885.619L643.902 987.268L574.37 904.403ZM719.457 782.66L788.99 865.526L682.46 884.311L719.457 782.66ZM680.685 884.571L574.156 903.354L611.153 801.706L680.685 884.571ZM503.49 819.139L540.487 717.489L610.019 800.354L503.49 819.139ZM470.6 632.618L577.13 613.833L540.132 715.483L470.6 632.618ZM470.424 631.616L507.421 529.966L576.954 612.831L470.424 631.616ZM468.649 631.876L362.119 650.659L399.117 549.011L468.649 631.876ZM291.453 566.443L328.45 464.794L397.982 547.659L291.453 566.443ZM258.564 379.923L365.094 361.139L328.097 462.789L258.564 379.923ZM258.387 378.92L295.384 277.27L364.917 360.136L258.387 378.92ZM256.612 379.18L150.083 397.964L187.08 296.316L256.612 379.18ZM79.4174 313.748L116.414 212.099L185.946 294.964L79.4174 313.748ZM46.5277 127.228L153.058 108.444L116.061 210.094L46.5277 127.228ZM45.3559 125.832L-24.177 42.9654L82.3533 24.1815L45.3559 125.832ZM-62.9103 144.921L-132.443 62.0546L-25.9129 43.2707L-62.9103 144.921ZM-63.6909 145.576L-170.221 164.36L-133.224 62.7096L-63.6909 145.576ZM-208.778 267.318L-278.311 184.452L-171.781 165.668L-208.778 267.318ZM-209.559 267.973L-316.089 286.757L-279.092 185.107L-209.559 267.973ZM-354.645 389.715L-424.178 306.849L-317.648 288.065L-354.645 389.715ZM-355.426 390.37L-461.956 409.154L-424.959 307.504L-355.426 390.37ZM-500.513 512.113L-570.046 429.247L-463.516 410.463L-500.513 512.113ZM-501.293 512.767L-607.823 531.551L-570.826 429.901L-501.293 512.767ZM-646.379 634.508L-715.911 551.644L-609.383 532.86L-646.379 634.508ZM-647.161 635.164L-753.689 653.947L-716.692 552.299L-647.161 635.164ZM-684.76 738.471L-791.289 757.254L-754.292 655.605L-684.76 738.471ZM-684.545 739.521L-721.543 841.17L-791.076 758.304L-684.545 739.521ZM-613.88 823.736L-650.877 925.386L-720.409 842.52L-613.88 823.736ZM-543.212 907.952L-580.209 1009.6L-649.742 926.736L-543.212 907.952ZM-472.509 992.215L-509.506 1093.86L-579.039 1011L-472.509 992.215ZM-401.843 1076.43L-438.841 1178.08L-508.373 1095.22L-401.843 1076.43ZM-331.175 1160.65L-368.173 1262.3L-437.705 1179.43L-331.175 1160.65ZM-260.472 1244.91L-297.47 1346.56L-367.002 1263.69L-260.472 1244.91ZM-189.807 1329.13L-226.805 1430.78L-296.337 1347.91L-189.807 1329.13ZM-119.139 1413.34L-156.137 1514.99L-225.669 1432.13L-119.139 1413.34ZM-48.4356 1497.61L-85.433 1599.26L-154.966 1516.39L-48.4356 1497.61ZM-47.4795 1497.95L22.0521 1580.82L-84.476 1599.6L-47.4795 1497.95ZM-46.6981 1497.3L59.8299 1478.52L22.8335 1580.16L-46.6981 1497.3ZM98.387 1375.56L167.92 1458.42L61.3896 1477.21L98.387 1375.56ZM99.1676 1374.9L205.698 1356.12L168.7 1457.77L99.1676 1374.9ZM244.254 1253.16L313.787 1336.03L207.257 1354.81L244.254 1253.16ZM245.035 1252.51L351.565 1233.72L314.568 1335.37L245.035 1252.51ZM390.122 1130.76L459.655 1213.63L353.125 1232.41L390.122 1130.76ZM390.902 1130.11L497.432 1111.32L460.435 1212.97L390.902 1130.11ZM535.989 1008.37L605.522 1091.23L498.992 1110.02L535.989 1008.37ZM536.769 1007.71L643.299 988.927L606.302 1090.58L536.769 1007.71ZM681.857 885.968L751.39 968.834L644.86 987.618L681.857 885.968ZM682.637 885.313L789.167 866.529L752.17 968.179L682.637 885.313ZM681.465 883.917L611.932 801.051L718.462 782.266L681.465 883.917ZM541.267 716.835L647.797 698.051L610.799 799.7L541.267 716.835ZM541.089 715.831L578.087 614.182L647.619 697.047L541.089 715.831ZM469.429 631.222L399.896 548.356L506.426 529.572L469.429 631.222ZM329.23 464.14L435.76 445.355L398.762 547.005L329.23 464.14ZM329.053 463.137L366.051 361.488L435.584 444.353L329.053 463.137ZM257.392 378.526L187.859 295.66L294.39 276.877L257.392 378.526ZM117.194 211.445L223.724 192.661L186.727 294.311L117.194 211.445ZM117.016 210.441L154.014 108.792L223.546 191.657L117.016 210.441ZM84.1287 23.9201L190.659 5.13619L153.661 106.785L84.1287 23.9201ZM82.1763 23.1786L-24.354 41.9626L12.6434 -59.6875L82.1763 23.1786ZM-25.3103 41.6149L-94.8425 -41.2504L11.6871 -60.0352L-25.3103 41.6149ZM-26.0907 42.2684L-132.62 61.0525L-95.6223 -40.5961L-26.0907 42.2684ZM-171.177 164.012L-240.71 81.1466L-134.18 62.3619L-171.177 164.012ZM-171.957 164.666L-278.487 183.45L-241.489 81.801L-171.957 164.666ZM-317.045 286.408L-386.577 203.543L-280.049 184.759L-317.045 286.408ZM-317.824 287.063L-424.355 305.847L-387.357 204.198L-317.824 287.063ZM-462.912 408.807L-532.445 325.941L-425.915 307.157L-462.912 408.807ZM-463.693 409.46L-570.222 428.244L-533.224 326.596L-463.693 409.46ZM-608.779 531.202L-678.312 448.337L-571.783 429.553L-608.779 531.202ZM-609.559 531.858L-716.09 550.642L-679.092 448.993L-609.559 531.858ZM-754.645 653.599L-824.177 570.734L-717.648 551.949L-754.645 653.599ZM-755.426 654.254L-861.955 673.038L-824.958 571.389L-755.426 654.254ZM-755.249 655.256L-792.246 756.906L-861.779 674.04L-755.249 655.256ZM-722.323 841.824L-828.851 860.608L-791.855 758.959L-722.323 841.824ZM-721.189 843.175L-651.657 926.04L-758.187 944.823L-721.189 843.175ZM-510.286 1094.52L-616.816 1113.3L-579.819 1011.65L-510.286 1094.52ZM-509.153 1095.87L-439.621 1178.74L-546.15 1197.52L-509.153 1095.87ZM-298.25 1347.21L-404.779 1366L-367.782 1264.35L-298.25 1347.21ZM-297.117 1348.56L-227.584 1431.43L-334.114 1450.21L-297.117 1348.56ZM-86.2134 1599.91L-192.742 1618.69L-155.746 1517.04L-86.2134 1599.91ZM-85.0802 1601.26L-15.5479 1684.13L-122.077 1702.91L-85.0802 1601.26ZM-84.2996 1600.6L22.2306 1581.82L-14.7673 1683.47L-84.2996 1600.6ZM60.7861 1478.86L130.318 1561.73L23.7888 1580.51L60.7861 1478.86ZM61.5667 1478.21L168.096 1459.42L131.098 1561.07L61.5667 1478.21ZM206.653 1356.47L276.186 1439.33L169.657 1458.12L206.653 1356.47ZM207.433 1355.81L313.963 1337.03L276.965 1438.68L207.433 1355.81ZM352.52 1234.07L422.053 1316.93L315.524 1335.72L352.52 1234.07ZM353.301 1233.41L459.831 1214.63L422.833 1316.28L353.301 1233.41ZM498.388 1111.67L567.92 1194.54L461.391 1213.32L498.388 1111.67ZM499.168 1111.02L605.698 1092.23L568.7 1193.88L499.168 1111.02ZM644.255 989.275L713.788 1072.14L607.258 1090.92L644.255 989.275ZM645.036 988.62L751.566 969.835L714.568 1071.48L645.036 988.62ZM790.123 866.877L859.656 949.742L753.126 968.527L790.123 866.877ZM790.904 866.222L897.433 847.437L860.436 949.086L790.904 866.222ZM789.771 864.871L720.238 782.005L826.768 763.221L789.771 864.871ZM718.285 781.264L611.756 800.049L648.754 698.399L718.285 781.264ZM578.868 613.527L685.397 594.742L648.4 696.392L578.868 613.527ZM577.734 612.176L508.202 529.311L614.732 510.527L577.734 612.176ZM506.249 528.569L399.719 547.353L436.716 445.703L506.249 528.569ZM366.831 360.832L473.361 342.047L436.363 443.696L366.831 360.832ZM365.698 359.481L296.165 276.615L402.695 257.831L365.698 359.481ZM294.213 275.874L187.683 294.658L224.68 193.008L294.213 275.874ZM154.795 108.137L261.324 89.352L224.327 191.002L154.795 108.137ZM154.617 107.135L191.614 5.4845L261.147 88.3498L154.617 107.135Z" fill="#095455"/>
</g>
<mask id="mask1_6037_3217" style="mask-type:luminance" maskUnits="userSpaceOnUse" x="-810" y="0" width="1582" height="1582">
<path d="M50.4189 0.483069L-809.083 721.691L-87.8753 1581.19L771.627 859.985L50.4189 0.483069Z" fill="white"/>
</mask>
<g mask="url(#mask1_6037_3217)">
<path d="M-43.415 152.763L29.9951 139.819L4.526 209.897L-43.415 152.763Z" fill="white"/>
</g>
<mask id="mask2_6037_3217" style="mask-type:luminance" maskUnits="userSpaceOnUse" x="-810" y="0" width="1582" height="1582">
<path d="M50.4189 0.483069L-809.083 721.691L-87.8753 1581.19L771.627 859.985L50.4189 0.483069Z" fill="white"/>
</mask>
<g mask="url(#mask2_6037_3217)">
<path d="M86.5807 43.8206L61.0853 113.868L134.522 100.954L86.5807 43.8206Z" fill="#095455"/>
</g>
<mask id="mask3_6037_3217" style="mask-type:luminance" maskUnits="userSpaceOnUse" x="-810" y="0" width="1582" height="1582">
<path d="M50.4189 0.483069L-809.083 721.691L-87.8753 1581.19L771.627 859.985L50.4189 0.483069Z" fill="white"/>
</mask>
<g mask="url(#mask3_6037_3217)">
<path d="M15.86 -40.4612L-9.63544 29.5859L63.801 16.6727L15.86 -40.4612Z" fill="#095455"/>
</g>
<mask id="mask4_6037_3217" style="mask-type:luminance" maskUnits="userSpaceOnUse" x="-810" y="0" width="1582" height="1582">
<path d="M50.4189 0.483069L-809.083 721.691L-87.8753 1581.19L771.627 859.985L50.4189 0.483069Z" fill="white"/>
</mask>
<g mask="url(#mask4_6037_3217)">
<path d="M157.15 137.965L136.755 194.003L195.504 183.673L157.15 137.965Z" fill="white"/>
</g>
<mask id="mask5_6037_3217" style="mask-type:luminance" maskUnits="userSpaceOnUse" x="-810" y="0" width="1582" height="1582">
<path d="M50.4189 0.483069L-809.083 721.691L-87.8753 1581.19L771.627 859.985L50.4189 0.483069Z" fill="white"/>
</mask>
<g mask="url(#mask5_6037_3217)">
<path d="M-5.77344 49.5037L67.6359 36.5598L42.1676 106.638L-5.77344 49.5037Z" fill="#095455"/>
</g>
<mask id="mask6_6037_3217" style="mask-type:luminance" maskUnits="userSpaceOnUse" x="-810" y="0" width="1582" height="1582">
<path d="M50.4189 0.483069L-809.083 721.691L-87.8753 1581.19L771.627 859.985L50.4189 0.483069Z" fill="white"/>
</mask>
<g mask="url(#mask6_6037_3217)">
<path d="M72.8477 136.891L131.575 126.536L111.201 182.599L72.8477 136.891Z" fill="white"/>
<path d="M50.5909 155.361L30.1953 211.398L88.9441 201.068L50.5909 155.361Z" fill="#095455"/>
</g>
<mask id="mask7_6037_3217" style="mask-type:luminance" maskUnits="userSpaceOnUse" x="-810" y="0" width="1582" height="1582">
<path d="M50.4189 0.483069L-809.083 721.691L-87.8753 1581.19L771.627 859.985L50.4189 0.483069Z" fill="white"/>
</mask>
<g mask="url(#mask7_6037_3217)">
<path d="M-21.7475 62.8376L-47.2429 132.885L26.1936 119.971L-21.7475 62.8376Z" fill="#095455"/>
</g>
</g>
<defs>
<clipPath id="clip0_6037_3217">
<rect width="290" height="329" fill="white" transform="translate(-171.734 186.891) rotate(-40)"/>
</clipPath>
</defs>
</svg>
