<svg width="151" height="61" viewBox="0 0 151 61" fill="none" xmlns="http://www.w3.org/2000/svg">
<path d="M123.926 3.10612C123.239 -1.00151 127.937 -1.19833 128.914 3.4961C142.808 67.9331 51.6417 69.7975 2.34277 49.653C2.92958 49.653 3.4161 49.7459 4.00662 49.7459C53.0084 68.4233 145.445 54.0503 101.817 7.6037C97.4124 2.41903 103.288 1.93252 107.295 6.52667C114.734 15.3324 131.258 33.9059 123.926 3.10612Z" fill="#7AAE25"/>
<path d="M123.727 7.20918C124.511 8.97331 124.897 10.4403 124.897 11.7105C124.897 12.6835 124.704 13.5675 124.114 14.2508C122.94 15.8144 121.38 16.3084 119.423 15.7178C117.469 15.0345 115.802 13.4709 114.238 10.8303C113.258 9.07359 112.768 7.40974 112.768 6.03929C112.768 5.4562 112.868 4.86569 113.065 4.2826C113.644 2.51847 115.018 1.64196 117.169 1.8388C117.655 1.8388 118.149 1.93538 118.736 2.22507C120.307 2.90843 122.064 4.57599 123.727 7.20918Z" fill="#7AAE25"/>
<path d="M0.0908203 42.7125V15.4262C0.0908203 14.5497 0.384223 13.8626 1.0713 13.1755C1.65811 12.5924 2.44175 12.3027 3.31824 12.3027H6.35254V23.5449H18.9688V12.1096C26.3039 11.3222 25.3271 14.8431 25.3271 20.0277V42.7125H18.9688V29.1195H6.35254V42.7125H0.0908203ZM30.4115 40.5547C29.1413 39.4814 28.2574 38.1147 27.6706 36.254C27.1804 34.4973 26.887 32.6366 26.887 30.6793C26.887 29.1158 27.0838 27.4556 27.574 25.8883C28.0643 24.3248 28.7439 22.9543 29.6278 21.8847C31.1914 20.1169 33.145 19.1401 35.5924 18.7501C38.0399 18.453 40.1903 18.6573 42.1476 19.3407C44.3945 20.2209 46.0584 21.7844 47.0388 23.9348C48.1159 25.8884 48.6024 28.139 48.6024 30.7796C48.6024 32.6403 48.4093 34.293 47.919 35.6672C47.5291 36.9411 47.0388 38.1147 46.3555 39.0914C44.985 41.045 43.1243 42.2223 40.974 42.7125C39.0167 43.1953 37.0632 43.2956 35.1059 42.8091C33.1487 42.4154 31.5888 41.6355 30.4115 40.5547ZM34.6194 25.0081C33.3492 26.3749 32.7624 28.4324 32.9555 31.0693C33.0521 33.7136 33.5423 35.6672 34.4263 36.6514C34.8162 37.1342 35.403 37.5279 36.2832 37.9141C37.1597 38.2112 38.0437 38.2112 39.0167 38.0144C39.9006 37.7247 40.6806 37.0413 41.3676 35.9569C42.1513 34.8835 42.5412 33.2197 42.5412 30.8725C42.5412 28.7221 42.2478 27.1622 41.5645 26.0852C40.8774 25.0081 40.0938 24.3248 39.2135 24.0351C38.3333 23.738 37.4531 23.738 36.5729 24.0351C35.6927 24.2319 35.0094 24.6182 34.6194 25.0081ZM50.7565 12.3027H53.8836C54.7676 12.3027 55.4509 12.5961 56.0377 13.0752C56.6245 13.6658 56.9179 14.3528 56.9179 15.2293V42.7088H50.7565V12.3027ZM59.3654 19.1401H62.5928C63.3765 19.1401 64.1564 19.4372 64.7432 20.024C65.3337 20.6034 65.6271 21.3908 65.6271 22.1781V42.7088H59.3654V19.1401ZM59.3654 12.3027H62.5928C63.3765 12.3027 64.1564 12.5961 64.7432 13.1755C65.3337 13.7623 65.6271 14.4531 65.6271 15.2293V17.0863H59.3654V12.3027ZM82.2582 12.1987H85.2851C86.1616 12.1987 86.8449 12.4959 87.4354 13.0752C88.026 13.7623 88.3231 14.4531 88.3231 15.2293V32.4435C88.3231 36.6514 87.142 39.4851 84.6983 40.9484C82.2545 42.4191 79.6064 43.1953 76.7764 43.1953C75.3057 43.1953 73.7421 42.9057 72.2751 42.4191C70.8081 41.9289 69.6345 41.0487 68.7543 39.9716C66.9939 37.825 66.2102 34.7944 66.2102 31.073C66.2102 27.3591 66.9939 24.3285 68.7543 22.0778C70.5147 19.8383 72.7654 18.661 75.6028 18.661C77.0698 18.661 78.34 18.9507 79.4133 19.5412C80.6872 20.2246 81.5711 21.2013 82.2545 22.2747L82.2582 12.1987ZM72.1785 30.7796C72.1785 33.1305 72.6688 34.8835 73.549 36.1574C74.4329 37.4276 75.7031 38.0144 77.3632 38.0144C78.9305 38.0144 80.2007 37.4276 81.0846 36.1574C81.8682 34.8835 82.2582 33.1305 82.2582 30.7796C82.2582 28.6292 81.8682 26.9691 80.9806 25.6915C80.0038 24.5253 78.7337 23.9348 77.1664 23.9348C75.6028 23.9348 74.4292 24.6219 73.5453 25.7918C72.6688 26.9654 72.1785 28.6292 72.1785 30.7796ZM103.873 30.8725C103.086 31.2699 101.912 31.6598 100.453 32.0498C99.075 32.3469 98.3916 32.4397 98.3916 32.4397C97.3145 32.7257 96.5309 33.1268 96.0444 33.6059C95.6544 34.2893 95.4576 34.8798 95.4576 35.5669C95.4576 36.4434 95.7547 37.1268 96.2412 37.7173C96.828 38.2038 97.5114 38.3969 98.5921 38.3969C100.245 38.3969 101.522 37.903 102.503 36.9299C103.379 36.0497 103.873 34.7833 103.873 33.1194V30.8725ZM97.7082 43.1916C95.5616 43.1916 93.7046 42.6048 92.1299 41.4349C90.4734 40.2613 89.6898 38.4006 89.6898 35.76C89.6898 33.216 90.4734 31.463 91.8365 30.3822C93.3072 29.3126 95.1642 28.6255 97.4148 28.2318C97.7082 28.2318 98.1056 28.2319 98.4919 28.139C98.8855 28.0387 99.3684 27.9422 99.8623 27.9422C102.503 27.5522 103.773 26.7686 103.773 25.5949C103.773 24.7185 103.383 24.1279 102.406 23.9348C101.526 23.6414 100.642 23.5449 99.8623 23.5449C99.075 23.5449 98.2987 23.6414 97.7082 23.8383C97.0211 24.1317 96.5346 24.5253 96.2449 25.2013H90.3769C90.5737 23.3443 91.4465 21.8847 92.8207 20.7074C94.3879 19.3407 96.7352 18.6573 99.6692 18.6573C115.706 18.6573 113.459 43.1916 97.7082 43.1916ZM129.789 34.8835H135.761C135.854 36.0571 136.252 36.9411 137.128 37.5279C138.008 38.1147 139.186 38.4044 140.645 38.4044C141.726 38.4044 142.602 38.2075 143.382 37.8213C144.073 37.4276 144.467 36.8445 144.467 36.0571C144.467 35.0729 143.193 34.2002 140.749 33.7099C139.668 33.5131 138.885 33.32 138.395 33.216C135.264 32.3469 133.113 31.4593 132.04 30.4862C130.87 29.4129 130.276 27.9385 130.276 26.178C130.276 23.9311 131.063 22.0704 132.82 20.6034C134.584 19.2404 136.927 18.6536 139.765 18.6536C142.799 18.6536 145.343 19.2404 147.1 20.6034C148.868 22.0704 149.744 24.0351 149.845 26.3749H146.03C144.95 26.3749 144.073 25.8884 143.486 24.9116C143.293 24.6182 143 24.4213 142.803 24.1279C142.112 23.6377 141.139 23.3406 139.865 23.3406C138.692 23.3406 137.808 23.5411 137.221 23.9311C136.638 24.2282 136.445 24.8113 136.445 25.491C136.445 26.4752 137.915 27.1585 141.035 27.8419C141.332 27.9384 141.726 28.1353 141.919 28.1353C142.209 28.2281 142.502 28.1353 142.699 28.2281C145.733 28.9189 147.783 29.892 148.957 30.8687C150.131 31.9532 150.621 33.4128 150.621 35.1769C150.621 37.721 149.744 39.7711 147.783 41.1378C146.027 42.5046 143.379 43.0951 139.862 43.0951C136.534 43.0951 133.99 42.408 132.33 41.0375C130.669 39.6671 129.782 37.7136 129.782 35.1732V34.8835H129.789Z" fill="#7AAE25"/>
</svg>
