<svg width="223" height="60" viewBox="0 0 223 60" fill="none" xmlns="http://www.w3.org/2000/svg">
<path d="M51.8511 0.00408518V0.00587217C51.784 0.0043077 51.7174 0.00184694 51.6504 0.000729453C51.5829 0.00139994 51.5156 0.0036372 51.4486 0.00587217C47.5043 0.0693453 44.1011 2.3517 42.4342 5.66258H42.4291L26.4334 37.6537H26.4307C24.761 41.0696 21.253 43.4231 17.1945 43.4231C17.1317 43.4231 17.07 43.4195 17.0077 43.4184V43.4231H0.621319L19.5017 5.66258H19.5052C21.1958 2.30498 24.6709 6.10352e-05 28.6867 6.10352e-05H22.3329H18.0807H10.906V0.00832759C10.7976 0.00497513 10.6896 6.10352e-05 10.5806 6.10352e-05C5.51031 6.10352e-05 1.43328 3.67324 0.621094 8.50278V52.5008C0.621094 56.6425 3.97869 60.0001 8.12031 60.0001H54.2617C58.4033 60.0001 61.7609 56.6425 61.7609 52.5008V43.4231H44.4325C40.8 43.158 37.6972 41.0013 36.0903 37.9369L35.0121 35.7806L48.1319 9.51321C47.8035 10.5183 47.6238 11.5904 47.6238 12.705C47.6238 14.1704 47.8894 15.5141 48.4302 16.7617L61.7607 43.4228V9.46739C61.3671 4.22504 57.1748 0.089014 51.8511 0.00408518ZM17.2289 57.734V57.7199C17.2296 57.7242 17.2303 57.7291 17.2309 57.734H17.2289Z" fill="url(#paint0_radial_6037_1007)"/>
<path d="M79.7158 10.0521H84.7461L92.7625 29.0167H87.1672L85.7952 25.6542H78.532L77.187 29.0167H71.6992L79.7158 10.0521ZM84.2888 21.5923L82.1906 16.2391L80.0656 21.5923H84.2888Z" fill="#1A1A1A"/>
<path d="M94.5908 10.1866H104.248C106.616 10.1866 108.284 10.7785 109.386 11.8814C110.14 12.6346 110.597 13.6298 110.597 14.921V14.9748C110.597 17.1537 109.359 18.4451 107.692 19.1712C109.978 19.9244 111.431 21.2158 111.431 23.7712V23.8251C111.431 27.0531 108.795 29.0167 104.302 29.0167H94.5908V10.1866ZM102.957 17.6919C104.544 17.6919 105.432 17.1539 105.432 16.051V15.9971C105.432 14.9748 104.625 14.383 103.064 14.383H99.6752V17.6919H102.957ZM103.71 24.8206C105.297 24.8206 106.212 24.2019 106.212 23.099V23.0451C106.212 22.0228 105.405 21.3503 103.656 21.3503H99.6749V24.8203L103.71 24.8206Z" fill="#1A1A1A"/>
<path d="M112.399 26.2195L115.305 22.7494C117.161 24.229 119.232 25.009 121.411 25.009C122.81 25.009 123.563 24.5247 123.563 23.7179V23.664C123.563 22.884 122.944 22.4535 120.389 21.8617C116.381 20.9472 113.287 19.8172 113.287 15.9435V15.8897C113.287 12.3926 116.058 9.86395 120.577 9.86395C123.778 9.86395 126.28 10.7249 128.324 12.3656L125.715 16.051C123.994 14.8403 122.111 14.1949 120.443 14.1949C119.178 14.1949 118.559 14.7328 118.559 15.4056V15.4594C118.559 16.3203 119.205 16.6969 121.815 17.2885C126.146 18.2301 128.836 19.629 128.836 23.1529V23.2067C128.836 27.0536 125.796 29.3399 121.223 29.3399C117.887 29.3399 114.713 28.2908 112.399 26.2195Z" fill="#1A1A1A"/>
<path d="M135.426 14.7596H129.777V10.1866H146.294V14.7596H140.645V29.0169H135.426L135.426 14.7596Z" fill="#1A1A1A"/>
<path d="M148.58 10.1866H157.484C160.362 10.1866 162.353 10.9398 163.617 12.2312C164.72 13.3073 165.285 14.7598 165.285 16.616V16.6696C165.285 19.548 163.752 21.458 161.411 22.4533L165.904 29.0169H159.878L156.085 23.314H153.799V29.0169H148.58V10.1866ZM157.242 19.2251C159.017 19.2251 160.04 18.3642 160.04 16.9923V16.9387C160.04 15.4592 158.964 14.706 157.215 14.706H153.799V19.2253H157.242V19.2251Z" fill="#1A1A1A"/>
<path d="M174.081 10.0521H179.111L187.127 29.0167H181.532L180.16 25.6542H172.897L171.552 29.0167H166.064L174.081 10.0521ZM178.654 21.5923L176.555 16.2391L174.43 21.5923H178.654Z" fill="#1A1A1A"/>
<path d="M187.101 19.6555V19.6016C187.101 14.1139 191.324 9.80975 197.027 9.80975C200.874 9.80975 203.349 11.4238 205.016 13.7373L201.089 16.7771C200.013 15.432 198.775 14.5714 196.973 14.5714C194.337 14.5714 192.481 16.8041 192.481 19.548V19.6018C192.481 22.4264 194.337 24.6321 196.973 24.6321C198.937 24.6321 200.094 23.7175 201.223 22.3457L205.151 25.1432C203.375 27.5912 200.981 29.3935 196.812 29.3935C191.432 29.3935 187.101 25.2775 187.101 19.6555Z" fill="#1A1A1A"/>
<path d="M211.982 14.7596H206.333V10.1866H222.85V14.7596H217.201V29.0169H211.982V14.7596Z" fill="#1A1A1A"/>
<path d="M72.843 35.16H76.927V46.3174H84.0634V49.8962H72.8428L72.843 35.16Z" fill="#E11B22"/>
<path d="M84.4629 42.5707V42.5286C84.4629 38.2972 87.8732 34.8656 92.4205 34.8656C96.9678 34.8656 100.336 38.2549 100.336 42.4864V42.5286C100.336 46.7599 96.9257 50.1912 92.3785 50.1912C87.8312 50.1912 84.4629 46.8019 84.4629 42.5707ZM96.1679 42.5707V42.5286C96.1679 40.4023 94.6311 38.5497 92.3785 38.5497C90.1471 38.5497 88.6523 40.3603 88.6523 42.4864V42.5286C88.6523 44.6548 90.1891 46.5073 92.4205 46.5073C94.6729 46.5073 96.1679 44.6968 96.1679 42.5707Z" fill="#E11B22"/>
<path d="M101.955 42.5707V42.5286C101.955 38.2339 105.323 34.8656 109.892 34.8656C112.481 34.8656 114.312 35.6655 115.87 37.013L113.471 39.8972C112.418 39.013 111.365 38.5077 109.913 38.5077C107.787 38.5077 106.145 40.2972 106.145 42.5496V42.5917C106.145 44.9703 107.808 46.6756 110.144 46.6756C111.134 46.6756 111.892 46.4651 112.502 46.0652V44.2757H109.597V41.2864H116.376V47.9176C114.818 49.2018 112.649 50.1912 109.976 50.1912C105.386 50.1912 101.955 47.0334 101.955 42.5707Z" fill="#E11B22"/>
<path d="M118.144 42.5707V42.5286C118.144 38.2972 121.554 34.8656 126.101 34.8656C130.648 34.8656 134.017 38.2549 134.017 42.4864V42.5286C134.017 46.7599 130.606 50.1912 126.059 50.1912C121.512 50.1912 118.144 46.8019 118.144 42.5707ZM129.848 42.5707V42.5286C129.848 40.4023 128.312 38.5497 126.059 38.5497C123.828 38.5497 122.333 40.3603 122.333 42.4864V42.5286C122.333 44.6548 123.87 46.5073 126.101 46.5073C128.354 46.5073 129.848 44.6968 129.848 42.5707Z" fill="#E11B22"/>
<path d="M141.971 35.16H147.655C152.918 35.16 155.97 38.1915 155.97 42.444V42.486C155.97 46.7382 152.876 49.896 147.571 49.896H141.971V35.16ZM147.718 46.2754C150.16 46.2754 151.781 44.9281 151.781 42.5492V42.5072C151.781 40.1493 150.16 38.7811 147.718 38.7811H146.055V46.2754H147.718Z" fill="#808080"/>
<path d="M158.073 35.16H169.925V38.6336H162.115V40.8652H169.188V44.086H162.115V46.4227H170.031V49.8962H158.073V35.16Z" fill="#808080"/>
<path d="M170.999 47.7072L173.273 44.9915C174.725 46.1494 176.346 46.7598 178.051 46.7598C179.146 46.7598 179.736 46.381 179.736 45.7494V45.7073C179.736 45.097 179.251 44.76 177.252 44.2966C174.115 43.581 171.694 42.6968 171.694 39.6653V39.6231C171.694 36.8864 173.862 34.9075 177.399 34.9075C179.904 34.9075 181.862 35.5812 183.462 36.8654L181.42 39.7496C180.072 38.8022 178.599 38.2969 177.294 38.2969C176.304 38.2969 175.82 38.7179 175.82 39.244V39.2863C175.82 39.9599 176.325 40.2547 178.367 40.718C181.756 41.4549 183.861 42.5493 183.861 45.3071V45.3491C183.861 48.3596 181.483 50.1489 177.904 50.1489C175.294 50.1491 172.809 49.3282 170.999 47.7072Z" fill="#808080"/>
<path d="M185.923 35.16H190.028V49.8962H185.923V35.16Z" fill="#808080"/>
<path d="M192.217 42.5707V42.5286C192.217 38.2339 195.585 34.8656 200.153 34.8656C202.743 34.8656 204.574 35.6655 206.132 37.013L203.732 39.8972C202.68 39.013 201.627 38.5077 200.175 38.5077C198.048 38.5077 196.406 40.2972 196.406 42.5496V42.5917C196.406 44.9703 198.069 46.6756 200.406 46.6756C201.396 46.6756 202.153 46.4651 202.764 46.0652V44.2757H199.859V41.2864H206.638V47.9176C205.08 49.2018 202.911 50.1912 200.238 50.1912C195.648 50.1912 192.217 47.0334 192.217 42.5707Z" fill="#808080"/>
<path d="M208.91 35.16H212.721L218.784 42.9493V35.16H222.826V49.8962H219.247L212.952 41.8124V49.8962H208.91V35.16Z" fill="#808080"/>
<defs>
<radialGradient id="paint0_radial_6037_1007" cx="0" cy="0" r="1" gradientUnits="userSpaceOnUse" gradientTransform="translate(31.1911 29.9998) scale(30.2863 30.2863)">
<stop stop-color="#E11B22"/>
<stop offset="1" stop-color="#8B0304"/>
</radialGradient>
</defs>
</svg>
