<svg width="398" height="459" viewBox="0 0 398 459" fill="none" xmlns="http://www.w3.org/2000/svg">
<g opacity="0.2">
<path fill-rule="evenodd" clip-rule="evenodd" d="M14.4649 458.225C6.57195 450.618 -2.34996 441.978 -12.3014 432.305C-17.6292 426.977 -26.0044 415.733 -37.4256 398.586C-38.4969 398.034 -40.1964 396.857 -42.4719 395.086C-42.5761 394.909 -42.5986 394.711 -42.5986 394.457C-42.5986 394.307 -42.4204 393.186 -42.074 391.11C-41.6985 389.035 -41.5505 387.109 -41.5505 385.308C-41.5505 383.608 -41.678 381.857 -41.9958 380.137C-42.0738 379.91 -42.1229 379.711 -42.1229 379.563C-42.1229 379.413 -42.0462 379.336 -41.8754 379.336C-40.6994 379.336 -38.601 380.589 -35.5249 383.084C-35.0742 383.488 -30.8506 386.463 -22.8797 392.012C-16.9009 396.085 -13.9311 398.608 -13.9311 399.635C-13.9311 400.033 -14.3275 400.229 -15.1 400.229C-15.6542 400.229 -16.4531 400.109 -17.4506 399.883C-18.7271 399.705 -21.0012 399.429 -24.3756 398.933C-22.7838 403.635 -3.8788 423.395 32.3628 458.225L14.4649 458.225Z" fill="#FFC681"/>
<path fill-rule="evenodd" clip-rule="evenodd" d="M66.8737 458.225C66.0888 453.491 65.2314 448.484 64.3026 443.202C57.4816 404.679 53.882 383.489 53.4856 379.563C51.3808 377.288 50.4297 375.637 50.6865 374.609C51.0621 373.065 52.1807 368.362 54.0797 360.538C54.3068 359.59 54.6609 359.114 55.1374 359.114C55.8315 359.114 56.6109 360.142 57.4812 362.166C59.381 364.841 64.3834 374.986 72.5295 392.586C73.4518 394.959 73.1827 396.156 71.7003 396.254C71.1556 396.254 70.4048 395.809 69.4825 394.959C68.1299 393.683 66.3028 392.012 63.9295 389.906C65.353 399.231 68.5825 417.908 73.5783 445.923C74.3337 450.143 75.0212 454.243 75.6414 458.225H66.8737Z" fill="#FFC681"/>
<path fill-rule="evenodd" clip-rule="evenodd" d="M397.29 429.112C397.458 430.161 397.537 431.236 397.537 432.278C397.537 442.631 392.336 451.191 381.848 457.923L380.909 458.225H362.627C375.174 451.815 383.186 446.526 386.655 442.4C377.808 442.4 372.037 441.893 369.387 440.932C365.395 439.514 363.415 436.156 363.415 430.811C363.415 428.774 365.849 422.523 370.706 412.097C376.277 400.052 381.087 394.024 385.076 394.024C386.319 394.024 387.474 394.675 388.523 396.003C388.692 396.375 388.803 397.077 388.803 398.129C388.803 400.98 388.38 404.204 387.593 407.85C386.688 411.978 385.726 414.102 384.677 414.102C384.396 414.012 384.196 413.874 383.995 413.676C383.098 412.346 382.193 411.696 381.199 411.696C379.786 411.696 376.847 414.894 372.326 421.28C373.905 423.709 376.397 424.959 379.731 424.959C381.174 424.959 383.209 424.759 385.864 424.246C388.523 423.741 390.415 423.516 391.576 423.516C395.02 423.517 396.945 425.385 397.29 429.112Z" fill="#FFC681"/>
<path fill-rule="evenodd" clip-rule="evenodd" d="M105.732 275.5C93.7738 284.739 72.8816 298.766 43.0184 317.624C15.0346 335.271 -4.98476 347.227 -17.0309 353.616C-17.7352 353.982 -18.1279 353.59 -18.2395 352.428C-18.3279 351.378 -18.1279 350.167 -17.6236 348.781C-17.1429 347.396 -16.5729 346.489 -15.98 346.042C-0.00702667 336.849 21.0306 323.763 47.213 306.884C73.3876 289.948 92.6134 276.91 104.938 267.807C105.028 267.728 105.163 267.67 105.338 267.67C106.124 267.67 106.549 268.824 106.663 271.117C106.837 273.432 106.524 274.873 105.732 275.5Z" fill="#FFC681"/>
<path fill-rule="evenodd" clip-rule="evenodd" d="M97.5144 376.911H98.5566C100.312 378.242 101.217 380.078 101.217 382.393C99.8006 385.311 98.334 387.314 96.8341 388.476H96.1859C95.8177 386.44 94.7987 385.423 93.1008 385.423C90.4687 385.423 88.4925 387.682 87.2509 392.203C89.308 394.695 91.5767 395.937 94.0605 395.937H96.434C98.0189 395.937 101.868 393.026 107.998 387.145C108.423 387.233 108.649 387.458 108.649 387.825V389.807C108.649 395.031 105.515 399.471 99.2074 403.093C89.0288 412.758 83.9392 419.658 83.9392 423.817V424.211C83.9392 426.896 86.5446 428.45 91.8014 429.019H97.5144C102.798 429.019 110.379 427.634 120.212 424.892L120.612 425.565C112.551 433.259 103.623 437.106 93.7811 437.106H89.3975C83.0092 435.775 79.8447 433.091 79.8447 429.019V425.966C79.8447 420.365 82.7865 413.464 88.7148 405.209C83.5142 403.374 80.8869 400.971 80.8869 398.027V395.657C80.8869 390.959 85.4146 384.941 94.4298 377.591C95.954 377.135 96.9477 376.911 97.5144 376.911Z" fill="#FFC681"/>
<path fill-rule="evenodd" clip-rule="evenodd" d="M213.097 439.672C216.918 440.04 218.835 441.932 218.835 445.378V446.427C218.835 450.932 216.809 454.869 212.767 458.225H175.515C179.657 455.502 183.243 454.146 186.265 454.146H192.941C201.957 444.505 208.6 439.672 212.872 439.672L213.097 439.672ZM195.994 455.22L196.644 455.5H197.324C203.151 455.5 209.001 453.465 214.852 449.37L215.244 448.719C214.257 447.22 212.816 446.427 210.868 446.427H209.425C206.396 446.427 201.932 449.37 195.994 455.22Z" fill="#FFC681"/>
<path fill-rule="evenodd" clip-rule="evenodd" d="M40.4531 383.265C44.2753 383.631 46.1923 385.524 46.1923 388.971V390.021C46.1923 397.202 41.048 402.939 30.7889 407.18C28.0476 408.341 24.906 408.91 21.3492 408.91L12.5815 407.18C3.98903 407.18 -6.33259 414.136 -18.3776 428.048C-24.7409 434.324 -29.9414 437.466 -33.902 437.466C-33.902 437.826 -35.4797 438.282 -38.5654 438.787V438.394C-38.5654 438.138 -33.8673 434.893 -24.4835 428.722C-21.8238 426.663 -16.0051 420.388 -6.957 409.841C1.55356 401.754 8.42332 397.738 13.6239 397.738H20.2994C29.3154 388.098 35.9586 383.265 40.2297 383.265L40.4531 383.265ZM23.3528 398.813L24.001 399.094H24.681C30.5085 399.094 36.3598 397.057 42.2108 392.964L42.6019 392.312C41.6183 390.815 40.1745 390.021 38.227 390.021H36.783C33.7538 390.021 29.2907 392.964 23.3528 398.813Z" fill="#FFC681"/>
<path fill-rule="evenodd" clip-rule="evenodd" d="M119.501 295.525C121.704 295.525 124.053 297.728 126.537 302.168C126.705 302.594 126.794 303.242 126.794 304.035V304.828C125.976 309.269 125.015 311.475 123.852 311.475C123.597 311.475 122.017 309.999 119.076 307.058L117.24 306.271C113.931 306.271 110.709 315.791 107.51 334.85C105.388 340.789 103.809 343.73 102.736 343.73C101.941 343.73 101.18 340.933 100.475 335.252C97.11 325.322 94.1348 318.903 91.563 315.994H90.3768L88.5093 317.468H87.4682C84.9744 317.468 82.2351 315.119 79.2129 310.424V309.605C81.7852 304.486 83.7879 301.352 85.2077 300.303H85.9943C94.0555 300.303 100.13 309.605 104.201 328.208V328.606H104.603C108.05 306.552 112.994 295.525 119.501 295.525Z" fill="#FFC681"/>
<path fill-rule="evenodd" clip-rule="evenodd" d="M353.677 456.2C354.895 456.2 356.158 456.873 357.463 458.225H349.135C350.554 456.876 352.068 456.2 353.677 456.2Z" fill="#FFC681"/>
<path fill-rule="evenodd" clip-rule="evenodd" d="M361.295 369.582C361.025 371.044 360.758 372.569 360.491 374.164C358.367 380.101 356.787 383.044 355.715 383.044C354.921 383.044 354.16 380.246 353.455 374.562C352.706 372.35 351.973 370.312 351.263 368.448C354.593 368.872 357.938 369.247 361.295 369.582Z" fill="#FFC681"/>
<path fill-rule="evenodd" clip-rule="evenodd" d="M204.968 363.896C207.17 363.896 209.521 366.1 212.004 370.541C212.172 370.965 212.259 371.616 212.259 372.407V373.201C211.444 377.642 210.481 379.845 209.319 379.845C209.062 379.845 207.483 378.371 204.543 375.43L202.706 374.643C199.397 374.643 196.177 384.165 192.979 403.222C190.855 409.161 189.275 412.103 188.2 412.103C187.408 412.103 186.648 409.305 185.943 403.623C182.576 393.695 179.601 387.274 177.029 384.366H175.845L173.976 385.839H172.933C170.443 385.839 167.701 383.491 164.679 378.797V377.979C167.253 372.856 169.256 369.723 170.675 368.673H171.46C179.522 368.673 185.596 377.979 189.668 396.579V396.98H190.068C193.515 374.925 198.458 363.896 204.968 363.896Z" fill="#FFC681"/>
<path fill-rule="evenodd" clip-rule="evenodd" d="M56.9344 143.593C53.7642 145.475 50.9187 146.113 48.4006 145.458L47.9083 145.331C44.642 143.812 42.7372 143.023 42.1783 142.88C36.348 141.365 28.095 144.117 17.4492 151.169C11.6372 154.395 7.22594 155.611 4.11498 154.803C4.05872 155.016 3.23085 155.028 1.61293 154.904L1.55371 154.362C6.90959 153.03 12.0185 151.088 16.8479 148.54C28.2988 140.621 35.1464 136.722 37.3939 136.889C40.226 135.958 43.1064 135.884 46.0675 136.654L51.6898 139.421L52.8013 139.708C53.5296 139.899 54.3477 139.814 55.2468 139.457C55.8018 140.84 56.3631 142.22 56.9344 143.593Z" fill="#FFC681"/>
<path fill-rule="evenodd" clip-rule="evenodd" d="M122.167 247.366C121.787 247.326 121.414 247.258 121.048 247.164L120.553 247.035C117.288 245.518 115.383 244.73 114.823 244.584C108.994 243.069 100.743 245.822 90.0953 252.873C84.2842 256.101 79.8726 257.317 76.7605 256.508C76.7044 256.721 75.8786 256.734 74.2608 256.609L74.1992 256.069C79.5571 254.736 84.6647 252.792 89.4927 250.245C100.944 242.326 107.793 238.428 110.04 238.595C111.337 238.168 112.647 237.922 113.969 237.852C116.645 241.075 119.385 244.239 122.167 247.366Z" fill="#FFC681"/>
<path fill-rule="evenodd" clip-rule="evenodd" d="M354.94 424.145H355.195C356.439 424.827 357.095 426.043 357.095 427.736V430.226C355.846 437.658 353.923 441.392 351.349 441.392H350.05C348.607 441.392 346.318 440.798 343.095 439.668C339.649 443.281 336.202 445.127 332.748 445.127H332.1C327.579 444.301 324.974 443.941 324.238 443.941C317.423 443.941 309.336 448.697 300.005 458.225H295.5C306.673 445.316 313.638 438.582 316.408 438.082C319.605 436.021 323.14 435.003 327.04 435.003L334.872 436.615H336.34C339.079 436.615 341.964 433.648 344.995 427.736L345.778 427.174H346.462C346.886 427.174 347.11 427.365 347.11 427.736V428.105C347.11 428.921 346.661 430.309 345.778 432.375C346.741 432.882 348.297 433.168 350.42 433.168H353.081L352.174 428.921C352.174 427.769 353.08 426.156 354.94 424.145Z" fill="#FFC681"/>
<path fill-rule="evenodd" clip-rule="evenodd" d="M221.816 326.579C220.77 329.047 219.504 330.284 218.023 330.284H216.723C215.281 330.284 212.989 329.692 209.767 328.561C206.321 332.177 202.876 334.022 199.421 334.022H198.774C194.252 333.193 191.648 332.834 190.911 332.834C183.225 332.834 173.921 338.885 163.037 351.011C156.898 356.86 151.84 359.777 147.737 359.777C147.737 360.058 146.72 360.337 144.684 360.707L144.438 360.058C150.623 356.693 156.306 352.654 161.45 347.957C173.046 334.5 180.251 327.487 183.081 326.976C186.277 324.916 189.812 323.899 193.716 323.899L201.545 325.509H203.012C205.215 325.509 207.511 323.594 209.9 319.772C213.827 322.106 217.793 324.388 221.816 326.579Z" fill="#FFC681"/>
<path fill-rule="evenodd" clip-rule="evenodd" d="M110.323 397.313L110.613 396.861C122.363 390.845 133.205 391.034 143.02 397.357L144.565 398.351C149.63 401.614 155.76 409.472 162.93 421.888L165.854 424.718C170.087 427.443 173.17 427.304 175.079 424.338C176.367 422.338 175.868 418.926 173.643 414.09L174.286 413.094C181.244 420.302 183.474 425.809 181.04 429.589L179.953 431.272C176.892 434.888 172.818 435.055 167.749 431.792L166.971 431.287C162.495 428.407 156.985 421.157 150.341 409.537C148.148 407.351 146.459 405.903 145.247 405.12L143.468 403.975C136.549 399.516 126.466 399.878 113.222 405.035L112.912 404.835C111.528 401.922 110.642 399.435 110.323 397.313Z" fill="#FFC681"/>
<path fill-rule="evenodd" clip-rule="evenodd" d="M239.737 400.111H240.273C251.693 406.732 257.407 415.948 257.407 427.625V429.46C257.407 435.487 254.122 444.895 247.568 457.647L247.453 458.225H243.331C244.817 453.465 247.421 447.521 251.133 440.376C251.782 437.347 252.086 435.144 252.086 433.699V431.584C252.086 423.353 246.324 415.076 234.816 406.732V406.363C236.514 403.623 238.128 401.531 239.737 400.111Z" fill="#FFC681"/>
<path fill-rule="evenodd" clip-rule="evenodd" d="M232.959 420.292C229.488 431.231 227.789 438.276 227.789 441.275C227.789 445.882 228.944 448.167 231.237 448.167C232.903 448.167 234.747 446.13 236.671 442.058H236.949L237.318 442.596C235.766 451.196 233.439 455.492 230.419 455.492H229.368C227.141 455.492 225.586 454.025 224.703 451.106C224.535 449.865 224.455 448.904 224.455 448.167V444.576C224.455 437.507 227.107 429.396 232.422 420.292L232.959 420.292Z" fill="#FFC681"/>
<path fill-rule="evenodd" clip-rule="evenodd" d="M58.5404 269.344H59.0508C70.4726 275.987 76.2092 285.147 76.2092 296.825V298.692C76.2092 304.709 72.9008 314.126 66.3683 326.877L65.5823 330.836C65.5823 335.895 67.3301 338.409 70.8954 338.409C73.2679 338.409 75.8991 336.15 78.7264 331.654H79.9125C77.5958 341.384 74.2069 346.24 69.6787 346.24H67.7005C63.0122 345.647 60.6636 342.314 60.6636 336.294V335.356C60.6636 330.043 63.7401 321.445 69.96 309.575C70.5602 306.577 70.8954 304.374 70.8954 302.931V300.805C70.8954 292.585 65.1267 284.298 53.6191 275.986V275.561C55.2928 272.844 56.9291 270.73 58.5404 269.344Z" fill="#FFC681"/>
<path fill-rule="evenodd" clip-rule="evenodd" d="M0.421837 296.693H0.933354C12.3549 303.336 18.0932 312.496 18.0932 324.174V326.041C18.0932 332.059 14.7823 341.476 8.25228 354.227L7.46666 358.186C7.46666 363.243 9.21278 365.759 12.7803 365.759C15.1525 365.759 17.7802 363.5 20.6107 359.003H21.7961C19.4774 368.733 16.0884 373.59 11.5612 373.59H9.583C4.89414 372.995 2.54445 369.662 2.54445 363.643V362.706C2.54445 357.392 5.6224 348.793 11.8405 336.925C12.4422 333.927 12.7801 331.723 12.7801 330.281V328.157C12.7801 319.934 7.00753 311.649 -4.5 303.337V302.913C-2.82434 300.195 -1.18945 298.078 0.421837 296.693Z" fill="#FFC681"/>
<path fill-rule="evenodd" clip-rule="evenodd" d="M21.2488 249.018C17.7711 259.988 16.0488 267.001 16.0488 269.999C16.0488 274.607 17.2098 276.899 19.5017 276.899C21.1934 276.899 23.0052 274.862 24.9513 270.815H25.2398L25.6087 271.329C24.0552 279.919 21.73 284.215 18.7095 284.215H17.6601C15.4316 284.215 13.876 282.749 12.9935 279.833C12.8266 278.589 12.7373 277.627 12.7373 276.899V273.308C12.7373 266.24 15.3991 258.121 20.6884 249.018H21.2488Z" fill="#FFC681"/>
<path fill-rule="evenodd" clip-rule="evenodd" d="M15.1306 22.366C17.5345 22.366 20.1061 24.7948 22.8574 29.6829C23.1044 30.1099 23.249 30.79 23.249 31.6634V32.4572C22.2874 37.3205 21.2127 39.7497 20.0827 39.7497C19.713 39.7497 17.9571 38.1154 14.7369 34.829L12.7575 34.0668C9.22279 34.0668 5.72094 44.4452 2.26632 65.2511C-0.0488663 71.7584 -1.82856 74.9815 -3.07018 74.9815C-3.86485 74.9815 -4.65822 71.8691 -5.45104 65.6758C-9.06559 54.8495 -12.3179 47.8677 -15.1473 44.7025H-16.4788L-18.4588 46.257H-19.6449C-22.329 46.257 -25.2933 43.7089 -28.5703 38.5644V37.7691C-25.8063 32.1198 -23.6592 28.7216 -22.047 27.6799H-21.2536C-12.4068 27.6799 -5.78695 37.7691 -1.45982 57.9896V58.3511H-1.06728C2.7487 34.3818 8.14866 22.366 15.1306 22.366Z" fill="#FFC681"/>
<path fill-rule="evenodd" clip-rule="evenodd" d="M35.8636 74.4183C35.127 75.0641 34.3901 75.7124 33.6525 76.3656C31.6438 78.5138 30.1862 79.5962 29.2165 79.5962C28.8394 79.5962 28.6458 79.4099 28.6458 79.0281C28.6458 78.2257 29.4508 76.8341 30.9901 74.8255C31.7145 73.8391 33.1016 72.4287 35.1341 70.6109C35.3761 71.8814 35.6109 73.1531 35.8636 74.4183ZM34.1182 65.0211C33.7006 62.6098 33.2902 60.1935 32.9185 57.7658C31.5057 58.3867 29.9429 59.0801 28.2263 59.8412C18.6189 64.1364 9.03847 66.4975 -0.494747 66.9463C-2.3438 67.0404 -4.08753 67.0686 -5.71375 67.0686C-17.3301 67.0686 -27.3839 63.5011 -35.8808 56.3953C-36.4694 55.975 -37.0307 55.7349 -37.5339 55.7349C-39.3922 55.7349 -40.3359 57.5538 -40.3359 61.1872C-40.3359 62.2702 -40.1496 63.0261 -39.7741 63.3821C-34.5084 69.3091 -31.9599 74.7605 -32.1273 79.7119C-32.195 82.213 -31.8387 83.4629 -31.1098 83.4629C-30.5223 83.4629 -29.9328 82.5225 -29.3385 80.5886C-28.5825 78.1336 -28.2071 75.1149 -28.1144 71.5027C-22.5203 73.4828 -18.3657 74.6884 -15.7225 75.0429C-12.1563 75.5637 -6.68458 75.6102 0.729351 75.1348C8.49468 74.7133 17.1537 72.3727 26.7884 68.1531C29.6509 66.922 32.0923 65.8785 34.1182 65.0211Z" fill="#FFC681"/>
<path fill-rule="evenodd" clip-rule="evenodd" d="M64.0582 225.617C63.6109 228.138 61.8376 230.76 58.7261 233.471C56.0854 235.786 53.4154 238.101 50.7463 240.462C48.7382 242.61 47.2793 243.695 46.3109 243.695C45.9338 243.695 45.7418 243.507 45.7418 243.126C45.7418 242.323 46.5433 240.931 48.0837 238.923C49.1186 237.512 51.4994 235.244 55.1819 232.154C58.0643 229.717 59.5033 228.044 59.5033 227.168C59.5033 226.486 59.1956 226.177 58.5121 226.177C58.1589 226.177 53.2736 228.213 43.8806 232.246C34.2474 236.47 25.588 238.81 17.823 239.231C10.4092 239.706 4.93716 239.66 1.37149 239.138C-1.27223 238.783 -5.42652 237.579 -11.0194 235.599C-11.1128 239.211 -11.4891 242.229 -12.2435 244.684C-12.8408 246.617 -13.4278 247.561 -14.0164 247.561C-14.747 247.561 -15.1018 246.309 -15.0328 243.807C-14.8669 238.857 -17.416 233.404 -22.6813 227.476C-23.0558 227.121 -23.2441 226.366 -23.2441 225.282C-23.2441 221.649 -22.2984 219.83 -20.4388 219.83C-19.9395 219.83 -19.3767 220.07 -18.7873 220.491C-10.2904 227.597 -0.236471 231.163 11.3792 231.163C13.0061 231.163 14.7511 231.135 16.5982 231.043C26.1301 230.593 35.7124 228.233 45.3179 223.937C54.6183 219.809 59.4551 217.729 59.8292 217.729C60.425 217.729 60.9212 217.869 61.2959 218.177C63.3036 219.876 64.272 221.603 64.272 223.368C64.2724 224.058 64.2257 224.787 64.0582 225.617Z" fill="#FFC681"/>
<path fill-rule="evenodd" clip-rule="evenodd" d="M73.3938 178.041C67.2737 178.272 62.5588 178.131 59.2295 177.642C56.0632 177.219 51.0871 175.776 44.3883 173.403C44.2749 177.733 43.8279 181.348 42.9222 184.288C42.2076 186.603 41.5041 187.734 40.7981 187.734C39.9243 187.734 39.4997 186.236 39.5803 183.239C39.7808 177.307 36.7261 170.776 30.4177 163.676C29.9692 163.251 29.7451 162.345 29.7451 161.049C29.7451 156.693 30.8757 154.515 33.1029 154.515C33.7066 154.515 34.377 154.803 35.0833 155.309C44.5084 163.19 55.5347 167.434 68.1639 168.02C69.8632 171.387 71.5966 174.734 73.3938 178.041Z" fill="#FFC681"/>
<path fill-rule="evenodd" clip-rule="evenodd" d="M307.957 368.158H313.132C328.199 368.158 337.392 369.599 340.759 372.406C340.759 372.686 340.982 373.136 341.432 373.729V374.666C340.446 379.722 335.125 387.44 325.491 397.794C322.831 401.071 316.098 404.293 305.271 407.517C297.498 409.72 291.961 411.137 288.674 411.755L288.427 411.082C293.033 407.548 304.254 401.015 322.15 391.545C323.68 390.303 324.409 389.564 324.409 389.283C324.409 387.361 317.374 386.366 303.292 386.366C302.049 386.366 296.872 386.477 287.744 386.766L287.096 385.693C292.209 374.891 296.568 369.488 300.125 369.488C300.125 368.871 302.7 368.447 307.957 368.158Z" fill="#FFC681"/>
<path fill-rule="evenodd" clip-rule="evenodd" d="M102.836 453.624H108.014C123.08 453.624 132.272 455.066 135.638 457.871C135.638 457.969 135.665 458.087 135.72 458.225H89.7305C91.648 456.045 93.4083 454.954 95.0057 454.954C95.0059 454.337 97.5784 453.912 102.836 453.624Z" fill="#FFC681"/>
<path fill-rule="evenodd" clip-rule="evenodd" d="M160.033 284.264C159.099 285.561 158.121 286.909 157.097 288.32C162.745 294.095 165.996 298.317 166.846 300.995C167.945 304.416 168.467 307.966 168.467 311.544C168.467 317.37 167.115 322.938 164.366 328.364C163.119 330.789 159.598 334.041 153.795 338.115C147.596 342.409 143.075 344.387 140.177 343.989C134.701 343.288 131.952 339.133 131.952 331.51C131.952 325.892 133.574 318.291 136.777 308.747C138.173 304.416 140.801 299.422 144.621 293.718C136.254 286.498 130.025 279.023 125.951 271.271C124.406 271.271 123.676 270.847 123.855 269.976C124.079 264.201 124.2 259.625 124.2 256.35C124.2 255.657 124.456 255.28 124.902 255.28C124.653 255.28 126.453 256.506 130.2 258.951C132.254 260.097 134.311 261.278 136.366 262.478C138.648 264.772 140.955 267.043 143.298 269.276C142.17 269.354 140.068 269.601 137.024 269.976C137.724 271.152 142.601 275.671 151.668 283.473C152.619 282.224 153.595 280.928 154.594 279.588C156.392 281.163 158.208 282.721 160.033 284.264ZM163.417 315.094C163.672 314.769 163.791 314.414 163.791 314.017C163.791 311.595 159.076 306.296 149.672 298.168C146.95 301.547 144.252 306.019 141.525 311.544C138.824 317.113 137.479 321.265 137.479 323.995C137.479 326.366 138.902 327.537 141.7 327.537C144.748 327.537 148.821 325.941 153.921 322.741C158.147 319.969 161.319 317.439 163.417 315.094Z" fill="#FFC681"/>
<path fill-rule="evenodd" clip-rule="evenodd" d="M118.977 444.352C116.255 444.877 105.784 447.33 87.6092 451.624C76.4846 454.273 65.489 456.101 54.6132 457.021C49.7181 457.436 44.9013 457.837 40.1595 458.225H-58V448.219C-38.0004 447.309 -14.1689 445.995 13.497 444.276C72.2333 440.656 107.108 438.805 118.153 438.805C126.776 438.805 131.049 439.33 131.049 440.349C131.049 441.455 127.026 442.781 118.977 444.352Z" fill="#FFC681"/>
<path fill-rule="evenodd" clip-rule="evenodd" d="M41.1233 96.9903C37.0328 97.9112 29.38 99.7093 18.1805 102.355C9.00481 104.541 -0.0652275 106.047 -9.03602 106.808C-26.5487 108.291 -42.8682 109.57 -58 110.646V97.2089C-53.1451 96.9217 -48.129 96.6174 -42.9482 96.2958C0.332108 93.6265 27.9025 92.1251 39.7874 91.835C40.2181 93.5588 40.6677 95.2767 41.1233 96.9903Z" fill="#FFC681"/>
<path fill-rule="evenodd" clip-rule="evenodd" d="M13.7544 181.589C13.8518 186.365 12.8824 191.466 10.9264 196.864C9.12729 201.811 7.32675 204.984 5.52805 206.366C-5.51702 214.832 -20.2635 222.585 -38.7626 229.634C-45.3005 232.156 -51.7126 234.317 -58 236.12V220.117C-55.8938 219.53 -53.7468 218.902 -51.5582 218.234C-36.685 213.783 -22.7639 208.413 -9.86905 202.136C2.38167 196.191 8.10666 192.365 7.43392 190.643C5.30873 185.087 -0.494469 182.29 -9.98877 182.29C-10.9869 182.29 -12.5399 182.339 -14.6655 182.418C-16.7916 182.49 -18.3647 182.546 -19.3901 182.546C-25.5622 182.546 -29.5857 181.318 -31.4643 178.888C-33.0077 176.869 -33.8086 173.745 -33.8086 169.493C-33.8086 163.172 -32.3143 157.349 -29.361 152.099C-25.8872 146.075 -21.5374 143.073 -16.3166 143.073C-9.59106 143.073 -2.93768 147.098 3.53014 155.146C10.2824 163.443 13.682 172.272 13.7544 181.589ZM-5.38993 167.019C-9.21735 163.65 -11.4914 161.744 -12.1912 161.295C-14.1624 159.872 -16.2876 159.12 -18.5392 159.044C-21.737 158.895 -24.0596 160.397 -25.4836 163.621C-24.8397 165.895 -21.9135 167.121 -16.6639 167.269C-12.914 167.19 -9.13784 167.121 -5.38993 167.019Z" fill="#FFC681"/>
<path fill-rule="evenodd" clip-rule="evenodd" d="M274.621 350.155C270.107 351.261 264.904 352.46 259.009 353.757C244.188 357.129 233.815 359.133 227.864 359.757C225.44 359.757 220.763 358.681 213.762 356.585C205.714 354.16 199.77 351.61 195.944 348.96C194.992 348.485 194.52 348.158 194.52 348.011C194.52 347.706 196.666 347.26 200.996 346.734C210.766 345.785 224.262 344.41 241.509 342.614C242.798 341.046 243.971 339.568 245.03 338.177C246.95 339.052 248.885 339.903 250.821 340.748L250.308 341.309C250.742 341.239 251.178 341.167 251.615 341.093C259.158 344.358 266.828 347.384 274.621 350.155Z" fill="#FFC681"/>
<path fill-rule="evenodd" clip-rule="evenodd" d="M4.48621 260.17C4.48621 277.015 -1.38837 285.437 -13.1132 285.437C-16.882 285.437 -20.0569 284.21 -22.6352 281.788C-22.9541 281.563 -24.8321 279.288 -28.2818 274.965C-29.3812 277.269 -31.1808 280.513 -33.7031 284.716C-38.0808 291.389 -43.9753 294.711 -51.4307 294.711C-53.7463 294.711 -55.936 294.312 -58 293.512V276.476C-55.5417 277.118 -53.1927 277.437 -50.9546 277.437C-41.5527 277.437 -34.2844 271.416 -29.1041 259.342C-25.8804 251.917 -23.3596 247.92 -21.4601 247.367C-21.262 247.269 -21.0357 247.248 -20.8861 247.248C-20.4117 247.248 -20.1837 247.672 -20.1837 248.543C-20.1837 247.269 -21.0842 251.668 -22.8833 261.717C-20.4307 264.691 -18.8596 266.441 -18.0887 266.995C-16.4086 268.24 -13.9551 268.864 -10.6621 268.864C-5.01455 268.864 -2.20831 267.816 -2.20831 265.691C-2.20831 264.918 -2.6833 263.616 -3.64048 261.816C-4.56076 260.014 -5.01455 258.671 -5.01455 257.691C-4.63805 255.196 -3.18781 250.946 -0.663807 244.924C-0.459053 244.521 -0.189922 244.322 0.136761 244.322C1.08509 244.322 2.0347 246.122 3.01236 249.72C3.98503 253.32 4.48621 256.792 4.48621 260.17Z" fill="#FFC681"/>
<path fill-rule="evenodd" clip-rule="evenodd" d="M397.416 371.425C396.73 374.646 395.855 377.134 394.793 378.896C392.69 382.416 384.896 389.022 371.447 398.742C355.776 410.014 340.428 419.161 325.381 426.112C314.808 428.684 296.832 433.112 271.466 439.382C268.788 440.035 266.763 440.311 265.366 440.311C264.269 440.311 263.718 440.107 263.718 439.73C263.718 436.455 272.814 431.157 290.958 423.886C317.28 413.217 332.55 406.79 336.779 404.637C349.872 397.792 362.775 389.99 375.542 381.122C381.151 377.219 385.495 373.944 388.586 371.304C391.519 371.382 394.464 371.416 397.416 371.425Z" fill="#FFC681"/>
<path fill-rule="evenodd" clip-rule="evenodd" d="M283.231 388.566C283.231 390.515 282.884 393.044 282.182 396.167C281.311 399.866 280.41 401.688 279.455 401.688C278.831 401.688 278.255 401.036 277.711 399.718C274.558 394.064 268.656 391.244 259.961 391.244C251.036 391.244 240.761 395.99 229.091 405.435C223.346 410.092 210.323 422.562 189.953 442.93C181.934 450.914 175.066 456.01 169.36 458.226H155.613C152.428 457.078 149.548 455.153 146.981 452.432C142.432 447.679 140.157 441.932 140.157 435.307C140.157 421.256 144.904 405.761 154.379 388.764C155.532 386.666 156.808 385.617 158.132 385.617C158.53 385.617 158.706 385.868 158.706 386.44C158.706 387.29 158.183 388.764 157.077 390.89C148.453 407.965 144.458 422.265 145.109 433.756C145.556 442.308 148.93 446.578 155.206 446.578C164.276 446.481 175.378 440.233 188.552 427.783C200.376 416.183 212.172 404.586 223.92 392.995C238.487 380.546 252.063 374.318 264.689 374.318C270.138 374.318 274.609 375.693 278.058 378.37C281.508 381.09 283.231 384.491 283.231 388.566Z" fill="#FFC681"/>
<path fill-rule="evenodd" clip-rule="evenodd" d="M45.9087 113.444C39.8842 117.746 35.5545 120.73 32.9098 122.411C22.8623 128.582 14.764 131.687 8.59265 131.687C3.96558 131.687 0.288873 129.256 -2.45888 124.409C-5.0303 119.86 -6.3291 114.134 -6.3291 107.233C-6.3291 104.059 -5.53444 98.7104 -3.85417 91.293C-1.82895 81.8203 0.642854 74.9177 3.54132 70.6186C3.98827 70.5467 4.24338 70.9161 4.24338 71.7933C4.24338 72.416 3.39338 76.3135 1.66312 83.5137C-0.0854063 90.7103 -0.931168 96.743 -0.931168 101.489C-0.931168 105.334 0.042798 108.637 1.9887 111.407C3.9654 114.213 6.39034 115.588 9.28733 115.588C15.7611 115.588 26.7392 110.708 42.1931 100.95C43.3609 105.147 44.5987 109.311 45.9087 113.444ZM29.4515 25.1642C26.093 21.7065 23.918 19.9795 22.9127 19.9795C22.3888 19.9795 21.8856 20.178 21.4873 20.5833C21.4873 20.5027 21.7367 19.0021 22.2108 16.1036C22.6638 13.2057 22.8337 9.88278 22.6638 6.12933C22.5877 2.90381 22.7633 1.31006 23.1597 1.31006C23.3873 1.31006 24.6634 2.40742 27.0149 4.58261C27.3929 4.94065 27.9664 5.35883 28.7373 5.8412C28.8173 12.3227 29.0462 18.7646 29.4515 25.1642Z" fill="#FFC681"/>
<path fill-rule="evenodd" clip-rule="evenodd" d="M175.104 360.941C171.88 361.643 166.707 363.095 159.56 365.291C150.789 368.019 142.009 370.769 133.266 373.519C124.488 375.763 114.915 376.889 104.592 376.889C54.3781 376.889 29.2812 357.321 29.2812 318.176C29.2812 303.855 32.7809 289.259 39.7338 274.359C45.3799 262.215 52.124 252.041 59.9548 243.814C53.0022 239.294 46.0548 234.717 39.159 230.07C31.7329 224.997 28.0059 220.298 28.0059 215.997C28.083 207.772 30.8543 201.976 36.3524 198.625C40.7325 195.848 47.9797 194.276 58.0759 193.778C63.0302 193.54 71.3271 193.808 82.9671 194.582C86.5287 200.393 90.2574 206.09 94.1223 211.684C79.8183 210.639 64.9844 210.193 49.6319 210.351C41.7319 210.422 37.7553 211.52 37.7553 213.646C37.7553 214.051 37.9823 214.445 38.4583 214.949C40.2564 216.72 45.181 219.873 53.2529 224.344C59.9046 227.995 64.7235 232.265 67.7259 237.14C75.2602 231.082 85.792 225.033 99.2983 218.98C101.911 222.578 104.577 226.134 107.319 229.631C92.5243 236.101 80.7539 242.112 71.9493 247.69C72.3258 249.044 72.5239 250.341 72.5239 251.587C72.5239 253.79 71.9993 254.891 70.9713 254.891C70.2017 254.891 69.2997 254.039 68.3018 252.417C68.1243 252.09 67.8273 251.539 67.3518 250.766C57.1772 258.26 49.1785 268.385 43.4033 281.061C38.5569 291.556 36.1058 301.305 36.1058 310.304C36.1058 330.426 45.3518 344.426 63.8232 352.248C76.2005 357.497 94.8207 360.296 119.64 360.694C133.791 360.941 151.086 359.844 171.435 357.421C177.151 356.72 180.007 357.093 180.007 358.595C180.007 359.447 178.354 360.219 175.104 360.941Z" fill="#FFC681"/>
<path fill-rule="evenodd" clip-rule="evenodd" d="M0.532362 378.318C0.532362 383.719 -1.09792 388.319 -4.3203 392.163C-8.92043 389.818 -13.5383 387.467 -18.1668 385.115C-20.4409 383.839 -21.5674 382.544 -21.5674 381.118C-21.5674 381.266 -20.1144 376.393 -17.2163 366.445C-15.1903 368.166 -11.3137 370.391 -5.59826 373.142C-1.52347 375.018 0.532362 376.717 0.532362 378.318Z" fill="#FFC681"/>
<path fill-rule="evenodd" clip-rule="evenodd" d="M48.3931 422.762C48.3931 428.162 46.7653 432.759 43.5412 436.607C38.9426 434.261 34.3229 431.909 29.6962 429.556C27.4227 428.281 26.2939 426.985 26.2939 425.56C26.2939 425.709 27.7484 420.835 30.6451 410.888C32.6732 412.608 36.5479 414.834 42.2651 417.584C46.3401 419.46 48.3931 421.16 48.3931 422.762Z" fill="#FFC681"/>
<path fill-rule="evenodd" clip-rule="evenodd" d="M284.281 415.926C284.281 421.325 282.652 425.923 279.429 429.77C274.829 427.424 270.209 425.073 265.581 422.719C263.309 421.444 262.182 420.148 262.182 418.724C262.182 418.872 263.635 413.999 266.533 404.049C268.559 405.771 272.435 407.998 278.152 410.747C282.226 412.623 284.281 414.324 284.281 415.926Z" fill="#FFC681"/>
<path fill-rule="evenodd" clip-rule="evenodd" d="M292.829 364.646C292.829 370.044 291.199 374.643 287.975 378.49C283.376 376.145 278.758 373.795 274.13 371.441C271.856 370.165 270.729 368.869 270.729 367.445C270.729 367.593 272.182 362.718 275.081 352.771C277.108 354.493 280.983 356.716 286.7 359.467C290.774 361.346 292.829 363.043 292.829 364.646Z" fill="#FFC681"/>
<path fill-rule="evenodd" clip-rule="evenodd" d="M287.7 456.949C287.7 457.379 287.69 457.805 287.669 458.225H266.083C266.728 456.09 268.017 451.712 269.951 445.074C271.978 446.796 275.855 449.021 281.571 451.771C285.645 453.648 287.7 455.349 287.7 456.949Z" fill="#FFC681"/>
</g>
</svg>
