<svg width="20" height="15" viewBox="0 0 20 15" fill="none" xmlns="http://www.w3.org/2000/svg">
<path d="M1.00057 -0.00352287H19.0006C19.1828 -0.00295162 19.3615 0.0473118 19.5173 0.141855C19.673 0.236399 19.8001 0.371642 19.8848 0.53303C19.9694 0.694417 20.0085 0.875837 19.9977 1.05776C19.9869 1.23968 19.9267 1.41522 19.8236 1.56548L10.8236 14.5655C10.4506 15.1045 9.55257 15.1045 9.17857 14.5655L0.178574 1.56548C0.0743986 1.41553 0.0133079 1.23991 0.00193892 1.05768C-0.00943004 0.875456 0.0293576 0.693599 0.114088 0.53187C0.198818 0.370141 0.32625 0.234723 0.482538 0.140333C0.638826 0.0459433 0.817994 -0.00381088 1.00057 -0.00352287Z" fill="#FFC681"/>
</svg>
