<svg width="192" height="116" viewBox="0 0 192 116" fill="none" xmlns="http://www.w3.org/2000/svg">
<path fill-rule="evenodd" clip-rule="evenodd" d="M0 29.1781L13.2299 106.483C52.623 104.753 78.601 107.925 91.2565 116C76.4517 102.68 55.0318 96.516 20.7713 97.237C20.7713 97.237 16.6763 73.9499 9.13492 29.1781H0.0185332H0ZM123.553 30.3497C123.831 30.6201 124.294 30.8003 124.85 30.8003L124.016 63.1535C119.551 63.0634 115.178 63.514 111.064 64.5053L123.534 30.3497H123.553ZM126.166 30.5299L138.636 64.5053C134.448 63.514 130.168 63.0453 125.684 63.1535L124.85 30.8003H125.313L126.147 30.5299H126.166ZM65.8344 30.5299L66.6682 30.8003H67.1315L66.2976 63.1535C61.8321 63.0634 57.5518 63.514 53.3642 64.5053L65.8344 30.5299ZM68.4285 30.3497L80.8987 64.5053C76.8037 63.514 72.4308 63.0453 67.9653 63.1535L67.1315 30.8003C67.6873 30.8003 68.1506 30.6201 68.4285 30.3497ZM26.3486 4.2689C34.8164 51.9245 39.3005 77.2122 39.3005 77.2122C55.1245 77.9332 69.4661 82.4753 80.6393 90.3518C82.5107 89.0901 85.0122 87.9906 87.0689 87.3598C95.3515 84.548 90.3301 83.6468 90.9786 78.4739C91.6271 76.0227 93.2206 75.1215 93.128 72.8504C92.3868 57.7102 90.0521 53.6368 84.2895 40.5874C88.2918 41.2182 91.3677 40.4072 90.4412 35.4145C89.7001 31.8818 86.5316 31.7015 82.9925 32.4225C78.8975 33.4138 76.7481 34.0446 73.9502 31.4312C70.1332 27.8984 69.6699 29.5206 68.4655 30.3497L82.344 64.8658C83.1778 77.5547 51.2519 77.5547 51.993 64.8658L65.8715 30.512C63.3515 29.2503 64.945 24.4378 68.2988 26.078C69.5032 26.7088 68.762 26.8891 69.985 26.7089C70.9114 26.6187 70.8188 26.078 72.0232 26.6188C73.5982 27.1595 72.3011 27.6101 75.2843 28.9799C79.194 30.7102 80.8616 30.2416 84.2154 28.3491C88.4957 25.9879 89.2368 27.6281 94.0915 27.3578C92.9797 25.6455 92.0347 25.4472 92.5165 22.8337C92.6092 22.4732 92.8871 22.1127 93.165 21.8423C77.7116 2.44847 52.7528 -5.6984 26.4042 4.2689H26.3486ZM83.9745 92.8751C88.718 96.8584 92.813 101.581 95.9815 106.916C99.15 101.563 103.152 96.8584 107.988 92.8751H83.956H83.9745ZM111.361 90.3518C122.441 82.4753 136.876 77.9332 152.699 77.2122C152.699 77.2122 157.165 51.9245 165.633 4.2689C139.284 -5.6984 114.325 2.44847 98.872 21.8423C99.15 22.1127 99.4279 22.4732 99.5206 22.8337C99.9838 25.4652 99.0573 25.6455 97.9456 27.3578C102.689 27.6281 103.523 26.0059 107.822 28.3491C111.175 30.2596 112.862 30.7102 116.66 28.9799C119.736 27.6281 118.439 27.1595 120.014 26.6188C121.218 26.078 121.126 26.6187 122.071 26.7089C123.275 26.8891 122.534 26.7088 123.738 26.078C127.092 24.4378 128.667 29.2503 126.166 30.512L140.044 64.8658C140.785 77.5547 108.859 77.5547 109.693 64.8658L123.572 30.3497C122.367 29.5386 121.904 27.8984 118.087 31.4312C115.289 34.0627 113.158 33.4319 109.063 32.4225C105.524 31.7015 102.356 31.8818 101.614 35.4145C100.688 40.3891 103.764 41.2182 107.766 40.5874C101.985 53.6368 99.6688 57.7102 98.835 72.8504C98.835 75.1215 100.41 76.0227 100.966 78.4739C101.707 83.6468 96.6856 84.548 104.968 87.3598C107.006 87.9906 109.526 89.0901 111.398 90.3518H111.361ZM179.233 13.9479L166.096 91.4332C137.413 91.253 112.843 97.237 98.6867 111.368C108.192 93.5961 129.964 82.8177 158.555 81.9165L170.562 14.038L179.215 13.9479H179.233ZM192 29.1781L178.789 106.483C139.395 104.753 113.418 107.925 100.762 116C115.567 102.68 136.987 96.516 171.247 97.237C171.247 97.237 175.25 73.9499 182.884 29.1781H192ZM12.7481 13.9479L25.8668 91.4332C54.5501 91.253 79.1199 97.237 93.2762 111.368C83.6781 93.5961 61.9988 82.8177 33.4082 81.9165L21.4013 14.038L12.7481 13.9479Z" fill="#283F3E"/>
</svg>
