<svg width="32" height="32" viewBox="0 0 32 32" fill="none" xmlns="http://www.w3.org/2000/svg">
<path d="M23.0405 6.0099L28.0413 11.0391C32.7588 15.7282 32.7588 23.3499 28.0413 28.0391C23.3238 32.7282 15.7305 32.7566 11.0413 28.0391L2.54134 19.5391C1.12468 18.1649 1.12468 15.9124 2.54134 14.5241C2.68301 14.3541 2.86718 14.1982 3.06551 14.0707L2.54134 13.5182C1.12468 12.1441 1.12468 9.89156 2.54134 8.50323C2.73968 8.27656 3.00884 8.07823 3.24968 7.9224C2.71134 6.61906 2.95218 5.06073 4.01468 3.99823C5.24718 2.76573 7.15968 2.63823 8.54801 3.60156C8.83628 3.15755 9.2198 2.78329 9.67073 2.50596C10.1217 2.22863 10.6287 2.05519 11.155 1.99821C11.6813 1.94124 12.2137 2.00217 12.7135 2.17659C13.2133 2.351 13.6681 2.63452 14.0447 3.00656L17.6005 6.5624C17.728 6.36406 17.8838 6.1799 18.0538 6.0099C18.7224 5.3625 19.6165 5.00052 20.5472 5.00052C21.4778 5.00052 22.372 5.3625 23.0405 6.0099ZM21.043 8.02156C20.7597 7.73823 20.3205 7.73823 20.0372 8.02156C19.7538 8.3049 19.7538 8.74406 20.0372 9.0274L24.5422 13.5324C23.7463 14.3293 23.2992 15.4095 23.2992 16.5357C23.2992 17.662 23.7463 18.7422 24.5422 19.5391L22.5447 21.5366C21.5703 20.5623 20.9013 19.3251 20.6195 17.9764C20.3377 16.6277 20.4553 15.2261 20.958 13.9432L12.033 5.01823C11.7497 4.7349 11.3105 4.7349 11.0413 5.01823C10.7722 5.30156 10.7438 5.74073 11.0413 6.02406L17.5438 12.5407L15.5463 14.5382L7.03218 6.02406C6.74884 5.74073 6.30967 5.74073 6.02634 6.02406C5.74301 6.3074 5.74301 6.74656 6.02634 7.0299L14.5405 15.5441L12.543 17.5416L5.53051 10.5291C5.24718 10.2457 4.80801 10.2457 4.52468 10.5291C4.24134 10.8124 4.24134 11.2516 4.52468 11.5349L12.543 19.5391L10.5455 21.5507L5.53051 16.5357C5.24718 16.2524 4.80801 16.2524 4.52468 16.5357C4.24134 16.8191 4.24134 17.2582 4.52468 17.5416L13.0247 26.0557C16.623 29.6541 22.4455 29.6541 26.0438 26.0557C29.6422 22.4574 29.6422 16.6349 26.0438 13.0366L21.043 8.02156ZM0.416342 23.0807C0.416342 27.7699 4.22717 31.5807 8.91634 31.5807V29.4557C5.37468 29.4557 2.54134 26.6224 2.54134 23.0807H0.416342ZM31.583 8.91406C31.583 4.2249 27.7722 0.414062 23.083 0.414062V2.53906C26.6247 2.53906 29.458 5.3724 29.458 8.91406H31.583Z" fill="#7A7A7A"/>
</svg>
