<svg width="64" height="64" viewBox="0 0 64 64" fill="none" xmlns="http://www.w3.org/2000/svg">
<path d="M3.75 0L7.7251 56.0127L32.0249 64L56.3247 56.0127L60.2998 0H3.75Z" fill="#FF7816"/>
<path d="M60.2983 0L56.3232 56.0127L32.0234 64V0H60.2983Z" fill="#FF4B00"/>
<path d="M49.686 17H21.8984L22.5732 26.375H49.0112L47.3984 49.0747L32.0234 54.2124L16.6484 49.0747L16.1235 41.5H23.6235L23.7734 43.5625L32.0234 46.2998L40.2734 43.5625L40.9482 33.875H15.561L13.8359 9.5H50.2109L49.686 17Z" fill="#ECECF1"/>
<path d="M49.0112 26.375L47.3984 49.0747L32.0234 54.2124V46.2998L40.2734 43.5625L40.9482 33.875H32.0234V26.375H49.0112Z" fill="#E2E2E7"/>
<path d="M50.2109 9.5L49.686 17H32.0234V9.5H50.2109Z" fill="#E2E2E7"/>
</svg>
