<svg width="15" height="21" viewBox="0 0 15 21" fill="none" xmlns="http://www.w3.org/2000/svg">
<path d="M0.000383377 19.4994L0.000383377 1.49943C0.000954628 1.31718 0.051218 1.13855 0.145761 0.98275C0.240305 0.82695 0.375548 0.699884 0.536936 0.615231C0.698323 0.530577 0.879744 0.491541 1.06167 0.502323C1.24359 0.513105 1.41913 0.573299 1.56938 0.676426L14.5694 9.67643C15.1084 10.0494 15.1084 10.9474 14.5694 11.3214L1.56938 20.3214C1.41944 20.4256 1.24381 20.4867 1.06159 20.4981C0.879362 20.5094 0.697505 20.4706 0.535776 20.3859C0.374047 20.3012 0.238629 20.1738 0.144239 20.0175C0.0498495 19.8612 9.53674e-05 19.682 0.000383377 19.4994Z" fill="#1A1A1A"/>
</svg>
