<svg width="294" height="67" viewBox="0 0 294 67" fill="none" xmlns="http://www.w3.org/2000/svg">
<path d="M67.6028 54.3476C69.1045 68.8044 100.86 70.6964 104.195 56.774C107.626 42.4487 97.0425 40.9597 94.2555 40.2598L93.5259 47.0555C93.5259 47.0555 96.3214 48.1584 95.7063 54.1948C95.4814 56.4219 93.8355 58.2927 91.6466 58.7423C87.1882 59.6628 80.1847 58.8187 78.0467 56.7698C75.9808 54.7887 75.7857 51.5266 76.3456 49.0832C77.1389 45.6005 76.2353 45.9483 76.2353 45.9483L67.6028 54.3433V54.3476Z" fill="#1A1A1A"/>
<path d="M54.7749 4.37175C54.7749 1.96652 55.8906 0.795717 59.6999 0.736328C63.5092 0.736328 64.6843 2.02591 64.6843 4.37175C64.6843 7.18422 63.5135 8.41865 59.6999 8.41865C55.8863 8.41865 54.7749 7.18846 54.7749 4.37175Z" fill="#1A1A1A"/>
<path d="M55.9457 29.9308C55.9457 23.7163 55.8863 17.5017 55.7124 11.2871L59.7593 11.4059L63.8062 11.2871C63.628 17.3829 63.5729 23.7757 63.5729 29.9308C63.5729 36.086 63.6323 42.36 63.8062 48.5152H55.7166C55.8906 42.36 55.95 36.0266 55.95 29.9308H55.9457Z" fill="#1A1A1A"/>
<path d="M77.5246 36.1401C79.2214 36.5601 80.9776 36.734 82.9205 36.734C91.9433 36.734 97.6828 32.3392 97.6828 24.3048C97.6828 20.8391 99.7995 19.0277 105.891 19.0829L105.95 9.99219C98.6839 9.99219 97.2204 14.9808 97.2204 20.4318H96.6986C95.9308 14.9808 91.8839 10.8745 82.386 10.8745C73.7153 10.8745 68.0861 15.4432 68.0861 23.8255C68.0861 28.9286 70.1901 32.6277 73.8298 34.6723C72.5402 37.2515 70.8434 39.5422 68.6673 41.3578L69.7829 44.8235H76.0017V45.4047C75.2466 45.7313 70.1562 47.9499 68.3406 51.0084C68.1328 51.3563 67.7255 52.0435 67.5516 53.0531C67.4837 53.4942 67.471 53.9015 67.5049 54.296C67.4922 54.3172 67.4922 54.3299 67.5049 54.3426C67.5728 55.4371 67.9716 56.3067 68.2006 56.7733H78.0464C77.1853 55.9843 76.6635 55.0638 76.3962 54.0075C76.3623 53.9015 76.3284 53.7869 76.3156 53.6597C76.2944 53.5451 76.269 53.4136 76.2478 53.2991C76.1544 52.7773 76.1205 52.2174 76.1205 51.6235C76.1205 50.0667 76.375 48.6244 76.8077 47.1227C77.0156 46.3549 77.2828 45.5744 77.5883 44.7641H83.5653C87.9346 44.7641 90.8913 45.4132 92.796 46.5543C94.6328 47.6487 95.5066 49.1928 95.7357 51.0423C95.7357 51.0423 95.7484 51.0551 95.7484 51.0636C95.7951 51.4369 95.8163 51.8059 95.8163 52.2047C95.8163 52.7986 95.7951 53.4391 95.7484 54.0881C95.6678 54.9959 95.5278 55.9249 95.2945 56.7733H104.199C104.211 56.7139 104.232 56.6588 104.245 56.5994C104.432 55.9037 104.58 55.1444 104.686 54.3808C104.839 53.3797 104.907 52.3701 104.907 51.4496C104.907 44.0557 100.27 39.6016 86.0851 39.6016C81.9236 39.6016 78.284 40.0088 73.8892 40.9506L73.5965 40.3015C75.5266 39.0798 76.5278 37.7309 77.5246 36.1401ZM77.2913 17.7933C78.9287 17.1527 80.6255 16.8516 82.2078 16.8516C87.4849 16.8516 89.6611 19.2568 89.6611 24.3048C89.6611 26.7694 89.3005 28.8141 88.6048 30.8715C86.9674 31.5672 85.1985 31.7453 83.6756 31.7453C78.3391 31.7453 76.235 29.3401 76.235 24.3048C76.235 21.8996 76.5829 19.9101 77.2913 17.7933Z" fill="#1A1A1A"/>
<path d="M107.295 39.0759C107.295 32.628 110.99 28.2884 121.074 28.2884C125.294 28.2884 129.222 28.6999 132.565 29.1071V27.8175C132.565 19.8467 129.867 16.0925 123.653 16.0925C121.014 16.0925 118.846 16.6779 116.675 18.1457C115.911 20.6061 115.444 22.8925 115.326 25.9425L107.355 24.653C108.704 15.4477 114.329 10.4082 124.531 10.4082C135.552 10.4082 140.243 15.978 140.243 25.4759V38.3123C140.243 41.829 140.303 44.7602 140.477 48.455H132.209L133.498 37.9051H132.854C131.093 44.0603 126.054 49.278 118.257 49.278C111.983 49.278 107.295 45.8758 107.295 39.0759ZM132.565 35.029V32.6831C128.93 32.5643 125.999 32.5092 122.189 32.5092C117.15 32.5092 114.978 34.503 114.978 37.6675C114.978 41.0102 117.264 42.6519 120.721 42.6519C125.354 42.6519 128.87 40.4842 132.565 35.029Z" fill="#1A1A1A"/>
<path d="M146.28 29.5779C146.28 23.3039 146.28 17.5008 146.106 11.3456H154.255L153.376 20.0799H153.902C156.774 13.28 161.173 10.582 166.976 10.582C175.537 10.582 179.168 15.681 179.168 25.5903C179.168 33.9132 179.168 40.9507 179.401 48.5101H171.252C171.426 41.0653 171.426 35.9664 171.426 27.0539C171.426 20.2539 169.492 17.1487 164.215 17.1487C159.523 17.1487 155.947 19.7872 153.958 25.1789C153.958 36.5518 154.017 42.4142 154.25 48.5101H146.042C146.275 42.9403 146.275 36.0215 146.275 29.5736L146.28 29.5779Z" fill="#1A1A1A"/>
<path d="M184.967 34.2693C184.967 25.9465 184.908 18.9089 184.734 11.3496H192.883C192.709 18.7944 192.649 23.9527 192.649 32.8058C192.649 39.6058 194.584 42.711 199.861 42.711C204.608 42.711 208.128 40.1912 210.118 34.6808C210.118 23.3079 210.118 17.5642 209.885 11.3496H218.093C217.86 16.9788 217.8 23.8933 217.8 30.286C217.8 36.6788 217.86 42.4777 218.034 48.5183H209.885L210.763 39.784H210.177C207.305 46.584 202.966 49.2819 197.103 49.2819C188.602 49.2819 184.967 44.1829 184.967 34.2736V34.2693Z" fill="#1A1A1A"/>
<path d="M223.069 4.37175C223.069 1.96652 224.184 0.795717 227.994 0.736328C231.803 0.736328 232.978 2.02591 232.978 4.37175C232.978 7.18422 231.807 8.41865 227.994 8.41865C224.18 8.41865 223.069 7.18846 223.069 4.37175Z" fill="#1A1A1A"/>
<path d="M224.244 29.9308C224.244 23.7163 224.185 17.5017 224.011 11.2871L228.058 11.4059L232.105 11.2871C231.926 17.3829 231.871 23.7757 231.871 29.9308C231.871 36.086 231.931 42.36 232.105 48.5152H224.015C224.189 42.36 224.248 36.0266 224.248 29.9308H224.244Z" fill="#1A1A1A"/>
<path d="M238.251 29.5779C238.251 23.3039 238.251 17.5008 238.077 11.3456H246.226L245.348 20.0799H245.874C248.746 13.2206 252.555 10.582 258.303 10.582C264.751 10.582 268.446 13.9248 269.205 20.606H269.791C272.663 13.2206 276.472 10.582 282.22 10.582C290.017 10.582 293.767 15.5664 293.767 24.4153C293.767 33.9132 293.826 41.0059 294 48.5101H285.851C286.029 41.0653 286.084 35.907 286.084 25.8237C286.084 19.7872 283.679 17.2081 279.106 17.1487C274.826 17.1487 271.835 19.7279 269.846 25.1789C269.846 34.032 269.905 41.0653 270.079 48.5101H261.93C262.104 41.0653 262.164 35.907 262.164 25.8237C262.164 19.7872 259.758 17.2081 255.19 17.1487C250.909 17.1487 247.919 19.7872 245.929 25.1789C245.929 36.5518 245.989 42.4142 246.222 48.5101H238.014C238.247 42.9403 238.247 36.0215 238.247 29.5736L238.251 29.5779Z" fill="#1A1A1A"/>
<path d="M24.5291 49.0959C37.8504 49.0959 48.6493 38.2969 48.6493 24.9757C48.6493 11.6545 37.8504 0.855469 24.5291 0.855469C11.2079 0.855469 0.408936 11.6545 0.408936 24.9757C0.408936 38.2969 11.2079 49.0959 24.5291 49.0959Z" fill="#BD171D"/>
<path d="M41.3574 8.27925C40.6575 5.72979 38.6171 4.93229 38.528 4.89835L38.2777 4.80078L33.3654 7.59204L32.6485 7.99928L33.2806 8.52953C33.4503 8.67376 37.2087 11.9444 34.3369 18.3583C34.2011 18.6595 34.0527 18.9692 33.883 19.2873C31.0281 24.7214 21.8144 33.8417 18.7219 36.8197L19.4134 17.5778H24.0669L25.2971 14.3623H19.5322L19.6043 12.3898H24.8729L26.1031 9.17432H19.7231L19.88 4.80503L14.0557 6.0437L13.9284 9.17432H8.71075L7.47632 12.3898H13.8012L13.7206 14.3623H9.51249L8.27806 17.5778H13.5933L12.4862 45.1383L16.3125 44.5147L35.7198 22.2992L35.741 22.2737C40.4072 16.3985 42.2992 11.6898 41.3574 8.27501V8.27925Z" fill="#F8E8E8"/>
</svg>
