<svg width="29" height="29" viewBox="0 0 29 29" fill="none" xmlns="http://www.w3.org/2000/svg">
<path d="M14.0853 2.16084C14.7015 1.52894 15.437 1.02568 16.2492 0.680249C17.0613 0.33482 17.934 0.154098 18.8166 0.148568C19.6992 0.143038 20.5741 0.31281 21.3905 0.648035C22.207 0.983259 22.9487 1.47726 23.5728 2.10139C24.1968 2.72552 24.6907 3.46735 25.0258 4.28384C25.3609 5.10034 25.5306 5.97525 25.5249 6.85782C25.5193 7.74039 25.3384 8.61305 24.9929 9.42519C24.6473 10.2373 24.144 10.9728 23.512 11.5888L13.1426 21.9595C12.7724 22.3359 12.3312 22.6354 11.8446 22.8405C11.3581 23.0456 10.8357 23.1523 10.3077 23.1545C9.77967 23.1567 9.25644 23.0544 8.76817 22.8533C8.2799 22.6523 7.83626 22.3566 7.46285 21.9833C7.08943 21.61 6.79362 21.1664 6.59249 20.6782C6.39136 20.19 6.28888 19.6667 6.29097 19.1387C6.29306 18.6107 6.39967 18.0883 6.60466 17.6017C6.80964 17.1151 7.10894 16.6739 7.4853 16.3035L17.856 5.93284L19.7413 7.81817L9.37064 18.1888C9.24329 18.3118 9.14171 18.459 9.07183 18.6216C9.00196 18.7843 8.96517 18.9593 8.96363 19.1363C8.9621 19.3133 8.99583 19.4889 9.06287 19.6528C9.12991 19.8166 9.22892 19.9655 9.35411 20.0907C9.4793 20.2159 9.62817 20.3149 9.79203 20.3819C9.95589 20.449 10.1315 20.4827 10.3085 20.4812C10.4855 20.4796 10.6605 20.4429 10.8232 20.373C10.9858 20.3031 11.133 20.2015 11.256 20.0742L21.628 9.7035C21.9994 9.33204 22.2941 8.89104 22.4951 8.4057C22.6962 7.92036 22.7996 7.40017 22.7996 6.87484C22.7996 6.34951 22.6962 5.82932 22.4951 5.34398C22.2941 4.85863 21.9994 4.41764 21.628 4.04617C21.2565 3.67471 20.8155 3.38004 20.3302 3.17901C19.8448 2.97797 19.3246 2.8745 18.7993 2.8745C18.274 2.8745 17.7538 2.97797 17.2684 3.17901C16.7831 3.38004 16.3421 3.67471 15.9706 4.04617L5.59997 14.4182C4.38558 15.6755 3.71362 17.3595 3.72881 19.1075C3.744 20.8555 4.44512 22.5276 5.68118 23.7636C6.91723 24.9997 8.58931 25.7008 10.3373 25.716C12.0853 25.7312 13.7693 25.0592 15.0266 23.8448L26.3413 12.5315L28.2266 14.4182L16.9133 25.7315C15.1629 27.4819 12.7888 28.4653 10.3133 28.4653C7.83782 28.4653 5.46373 27.4819 3.7133 25.7315C1.96287 23.9811 0.979492 21.607 0.979492 19.1315C0.979492 16.656 1.96287 14.2819 3.7133 12.5315L14.0853 2.16084Z" fill="white"/>
</svg>
