<svg width="15" height="21" viewBox="0 0 15 21" fill="none" xmlns="http://www.w3.org/2000/svg">
<path d="M14.9996 19.4994L14.9996 1.49943C14.999 1.31718 14.9488 1.13855 14.8542 0.98275C14.7597 0.82695 14.6245 0.699884 14.4631 0.615231C14.3017 0.530577 14.1203 0.491541 13.9383 0.502323C13.7564 0.513105 13.5809 0.573299 13.4306 0.676426L0.430617 9.67643C-0.108383 10.0494 -0.108383 10.9474 0.430617 11.3214L13.4306 20.3214C13.5806 20.4256 13.7562 20.4867 13.9384 20.4981C14.1206 20.5094 14.3025 20.4706 14.4642 20.3859C14.626 20.3012 14.7614 20.1738 14.8558 20.0175C14.9502 19.8612 14.9999 19.682 14.9996 19.4994Z" fill="#1A1A1A"/>
</svg>
