<svg width="162" height="163" viewBox="0 0 162 163" fill="none" xmlns="http://www.w3.org/2000/svg">
<path d="M68.1723 143.305L67.4524 145.432C66.8331 145.271 66.3502 145.178 66.0038 145.154C65.6573 145.13 65.4007 145.184 65.2338 145.317C65.0538 145.457 64.9222 145.688 64.8388 146.008C64.7634 146.297 64.7146 146.653 64.6922 147.077C64.6595 147.499 64.6486 147.942 64.6595 148.408C64.66 148.871 64.6803 149.301 64.7203 149.697L62.4303 149.728C62.3876 149.342 62.3649 148.901 62.3621 148.404C62.3593 147.908 62.3812 147.401 62.4278 146.884C62.4717 146.377 62.5528 145.897 62.6712 145.443C62.8542 144.741 63.117 144.197 63.4598 143.813C63.7999 143.438 64.2073 143.186 64.6821 143.057C65.1465 142.924 65.6747 142.885 66.2666 142.941C66.8558 143.006 67.491 143.127 68.1723 143.305ZM65.2844 138.716C65.5837 138.794 65.8135 138.97 65.9738 139.243C66.1264 139.503 66.165 139.778 66.0897 140.067C66.0117 140.366 65.8412 140.598 65.5782 140.76C65.305 140.921 65.0187 140.962 64.7194 140.884C64.4303 140.808 64.2109 140.636 64.0609 140.365C63.911 140.094 63.8751 139.809 63.9531 139.51C64.0284 139.221 64.1962 139 64.4565 138.848C64.7194 138.685 64.9954 138.641 65.2844 138.716ZM67.9629 139.414C68.2622 139.492 68.492 139.668 68.6523 139.941C68.8049 140.202 68.8435 140.476 68.7682 140.765C68.6902 141.065 68.5197 141.296 68.2567 141.459C67.9835 141.619 67.6972 141.66 67.3978 141.582C67.1088 141.507 66.8894 141.334 66.7394 141.063C66.5895 140.793 66.5536 140.508 66.6316 140.208C66.7069 139.919 66.8747 139.698 67.135 139.546C67.3979 139.383 67.6739 139.339 67.9629 139.414ZM63.6591 138.385L63.7198 140.53C63.1231 140.509 62.5599 140.535 62.0304 140.609C61.4908 140.678 61.0017 140.795 60.563 140.96C60.1242 141.125 59.7509 141.342 59.4429 141.614C59.1312 141.895 58.8998 142.235 58.7487 142.634C58.5901 143.053 58.5111 143.548 58.5118 144.118C58.5125 144.689 58.5493 145.284 58.6223 145.905L56.3051 146.106C56.2427 145.728 56.2146 145.336 56.2208 144.927C56.2134 144.525 56.2176 144.168 56.2336 143.854C56.2496 143.541 56.2615 143.329 56.2693 143.218C56.3109 142.686 56.2422 142.295 56.0633 142.045C55.8743 141.791 55.5055 141.56 54.9568 141.352C54.5778 141.209 54.3462 141.007 54.2621 140.747C54.1643 140.493 54.1701 140.222 54.2797 139.933C54.3967 139.623 54.5997 139.404 54.8885 139.273C55.1735 139.153 55.5105 139.167 55.8996 139.314C56.3086 139.469 56.6451 139.665 56.909 139.902C57.1729 140.138 57.3562 140.407 57.4589 140.708C57.5516 141.006 57.5643 141.319 57.4971 141.647L57.0624 141.123C57.3225 140.617 57.6859 140.184 58.1527 139.825C58.6133 139.452 59.1436 139.151 59.7435 138.922C60.3435 138.693 60.9795 138.534 61.6514 138.446C62.3234 138.359 62.9926 138.338 63.6591 138.385ZM56.5503 147.943C56.8595 148.061 57.0842 148.265 57.2244 148.558C57.3546 148.847 57.3611 149.146 57.244 149.455C57.1269 149.764 56.9221 149.989 56.6295 150.129C56.327 150.266 56.0211 150.275 55.7118 150.158C55.4126 150.045 55.1997 149.839 55.0733 149.54C54.937 149.237 54.9273 148.932 55.0444 148.622C55.1615 148.313 55.3694 148.095 55.6682 147.969C55.957 147.839 56.251 147.83 56.5503 147.943ZM55.8955 139.313L54.6886 141.207C54.454 141.08 54.2504 141.031 54.0777 141.058C53.905 141.086 53.6942 141.184 53.4453 141.353C53.1964 141.521 52.8549 141.749 52.4209 142.036C51.9427 142.359 51.4957 142.602 51.0799 142.765C50.6591 142.938 50.2738 143.045 49.924 143.086C49.5598 143.131 49.2308 143.123 48.9369 143.061C48.6285 143.003 48.3477 142.906 48.0944 142.769C47.7473 142.581 47.4643 142.331 47.2454 142.018C47.0119 141.71 46.851 141.301 46.7625 140.792C46.6689 140.293 46.6605 139.67 46.7372 138.923C46.7874 138.405 46.7844 137.984 46.728 137.663C46.6716 137.341 46.5724 137.087 46.4305 136.901C46.2792 136.71 46.1051 136.562 45.9081 136.455C45.5516 136.262 45.3491 136.031 45.3005 135.762C45.2469 135.503 45.2937 135.237 45.4409 134.965C45.5983 134.674 45.8288 134.484 46.1324 134.393C46.431 134.312 46.7585 134.368 47.115 134.561C47.5746 134.81 47.9515 135.111 48.2455 135.464C48.5395 135.817 48.7131 136.202 48.7664 136.619L48.1908 136.708C48.3818 136.557 48.6202 136.419 48.9058 136.294C49.1821 136.165 49.4921 136.096 49.836 136.088C50.1705 136.075 50.516 136.165 50.8725 136.358C51.107 136.485 51.3584 136.682 51.6266 136.948C51.8904 137.2 52.1354 137.521 52.3614 137.91C52.573 138.303 52.7204 138.759 52.8039 139.277C53.1598 139.046 53.4964 138.894 53.8137 138.823C54.126 138.762 54.4478 138.772 54.7792 138.855C55.1106 138.937 55.4827 139.09 55.8955 139.313ZM51.0891 140.496C51.0714 140.305 51.035 140.103 50.9798 139.891C50.9247 139.679 50.8478 139.474 50.7493 139.275C50.6456 139.086 50.5225 138.91 50.3798 138.748C50.2277 138.581 50.0625 138.449 49.8843 138.352C49.6967 138.251 49.5038 138.237 49.3057 138.312C49.1025 138.396 48.9785 138.614 48.9337 138.966C48.9146 139.113 48.9067 139.285 48.9098 139.48C48.8986 139.681 48.9065 139.879 48.9335 140.075C48.9512 140.267 48.9956 140.443 49.0668 140.602C49.1286 140.757 49.2204 140.867 49.3424 140.933C49.4643 140.999 49.6113 141.03 49.7832 141.027C49.9552 141.023 50.15 140.976 50.3676 140.888C50.5802 140.809 50.8207 140.678 51.0891 140.496ZM47.133 134.571L45.7176 136.315C45.3156 136.034 44.9997 135.871 44.7699 135.828C44.5339 135.793 44.319 135.877 44.125 136.079C43.9249 136.291 43.6777 136.626 43.3833 137.084L39.2712 143.463L37.4228 142.169L41.6004 135.641C41.9376 135.122 42.2805 134.678 42.6291 134.31C42.9628 133.945 43.3399 133.694 43.7602 133.559C44.1717 133.417 44.6554 133.424 45.2112 133.578C45.7582 133.727 46.3988 134.058 47.133 134.571ZM42.2061 131.104L35.0494 140.381L33.3158 138.963L40.4725 129.686L42.2061 131.104ZM33.6073 121.492L31.5865 122.544C31.1791 122.023 30.7747 121.541 30.3731 121.096C29.9716 120.652 29.5912 120.252 29.2319 119.897C28.8661 119.533 28.5388 119.227 28.25 118.979C27.9547 118.722 27.7194 118.534 27.5441 118.413C27.2283 118.2 26.9243 118.045 26.6322 117.949C26.34 117.852 26.0672 117.815 25.8138 117.837C25.5603 117.859 25.3495 117.936 25.1815 118.067C25.0638 118.159 24.9626 118.272 24.8778 118.406C24.7931 118.54 24.7298 118.685 24.6881 118.839C24.6398 118.985 24.6257 119.132 24.6458 119.278C24.6508 119.423 24.6928 119.546 24.7716 119.647C24.8767 119.782 25.0323 119.877 25.2382 119.932C25.4376 119.979 25.6542 119.979 25.888 119.932C26.1067 119.883 26.317 119.779 26.5186 119.622C26.6615 119.51 26.7799 119.35 26.8738 119.141C26.9678 118.932 27.0312 118.693 27.0642 118.423C27.0822 118.152 27.067 117.873 27.0185 117.586L28.9722 118.759C28.9403 119.082 28.8976 119.4 28.8441 119.712C28.7757 120.023 28.6666 120.325 28.5167 120.618C28.3603 120.903 28.135 121.161 27.8409 121.391C27.4544 121.693 27.0381 121.896 26.5922 122.001C26.1312 122.105 25.6762 122.129 25.227 122.074C24.7712 122.01 24.3578 121.88 23.9868 121.683C23.6009 121.483 23.2896 121.233 23.0531 120.93C22.672 120.443 22.4671 119.912 22.4385 119.339C22.4015 118.772 22.5025 118.226 22.7416 117.7C22.9741 117.167 23.313 116.726 23.7584 116.377C24.1533 116.068 24.5653 115.868 24.9945 115.776C25.4237 115.684 25.8577 115.677 26.2967 115.753C26.7207 115.828 27.1425 115.952 27.562 116.125C27.975 116.289 28.3661 116.478 28.7353 116.69C28.9985 116.836 29.3233 117.07 29.7096 117.39C30.0893 117.703 30.5024 118.084 30.9488 118.534C31.3971 118.969 31.8484 119.442 32.3025 119.953C32.765 120.458 33.2 120.971 33.6073 121.492ZM26.6052 112.953C26.9863 113.44 27.3356 113.939 27.6531 114.449C27.9706 114.959 28.2367 115.455 28.4512 115.937C28.6592 116.411 28.8068 116.851 28.8939 117.256L26.8526 117.451C26.7227 117.147 26.5474 116.81 26.3266 116.441C26.0908 116.07 25.8367 115.693 25.5644 115.31C25.2856 114.919 25.0114 114.551 24.742 114.207C24.4924 113.887 24.399 113.595 24.4619 113.329C24.5099 113.061 24.6557 112.832 24.8994 112.642C25.1599 112.438 25.4473 112.355 25.7618 112.394C26.0678 112.439 26.3489 112.625 26.6052 112.953ZM33.6073 121.492C34.317 122.4 34.8467 123.224 35.1967 123.966C35.5485 124.693 35.7527 125.353 35.8094 125.945C35.8512 126.535 35.7688 127.053 35.5623 127.499C35.3558 127.945 35.0466 128.328 34.6349 128.65C34.366 128.861 34.0807 129.05 33.7789 129.218C33.4622 129.385 33.1473 129.536 32.8343 129.672C32.5147 129.801 32.2268 129.917 31.9708 130.023L31.1043 128.161C31.2819 128.077 31.4753 127.986 31.6846 127.89C31.8939 127.794 32.0924 127.693 32.2802 127.587C32.4596 127.488 32.6165 127.385 32.7509 127.28C33.0618 127.037 33.2537 126.711 33.3265 126.302C33.3844 125.891 33.2802 125.377 33.0138 124.759C32.739 124.148 32.2633 123.41 31.5865 122.544L32.7506 121.228L33.6073 121.492ZM21.871 121.834C22.0747 122.095 22.1606 122.386 22.1287 122.709C22.0902 123.023 21.9408 123.283 21.6803 123.486C21.4198 123.69 21.1281 123.776 20.8053 123.744C20.4759 123.704 20.2093 123.553 20.0056 123.293C19.8085 123.041 19.7334 122.754 19.7803 122.433C19.8206 122.104 19.971 121.837 20.2315 121.633C20.492 121.43 20.7827 121.351 21.1037 121.398C21.4182 121.437 21.6739 121.582 21.871 121.834ZM26.6419 113.005L24.5124 113.717C24.3771 113.393 24.2418 113.137 24.1065 112.951C23.9614 112.768 23.7686 112.652 23.5282 112.602C23.2739 112.546 22.9342 112.549 22.5091 112.61C22.0701 112.666 21.4892 112.769 20.7662 112.92L20.3215 110.852C20.5546 110.801 20.8479 110.742 21.2016 110.676C21.5512 110.6 21.8441 110.513 22.0805 110.414C22.2676 110.336 22.4157 110.234 22.5249 110.108C22.6202 109.976 22.6703 109.805 22.6753 109.595C22.6663 109.379 22.5943 109.109 22.459 108.784C22.3524 108.528 22.2377 108.321 22.1146 108.165C21.9777 108.002 21.789 107.896 21.5486 107.846C21.2943 107.79 20.9447 107.796 20.5 107.866C20.0413 107.93 19.4419 108.058 18.7017 108.25L18.2004 106.172C18.4433 106.117 18.7009 106.056 18.9734 105.988C19.2458 105.921 19.4965 105.857 19.7255 105.797C19.9544 105.736 20.1378 105.677 20.2757 105.62C20.4037 105.566 20.5125 105.481 20.6019 105.363C20.6775 105.239 20.7087 105.064 20.6957 104.838C20.6786 104.603 20.5942 104.303 20.4425 103.939C20.2581 103.495 20.0293 103.209 19.7561 103.08C19.469 102.946 19.1285 102.96 18.7345 103.124C18.508 103.219 18.2688 103.324 18.0169 103.44C17.7551 103.561 17.4678 103.704 17.1552 103.868C16.8285 104.027 16.4658 104.225 16.0669 104.46L15.1261 102.616C15.9444 102.194 16.6009 101.829 17.0958 101.519C17.5907 101.209 17.9551 100.918 18.1891 100.648C18.4091 100.371 18.52 100.083 18.5218 99.7815C18.5194 99.4705 18.4301 99.1033 18.2539 98.6799C18.0982 98.3056 18.086 97.9988 18.2174 97.7592C18.3348 97.5139 18.5363 97.3319 18.8219 97.213C19.1272 97.086 19.4263 97.0828 19.7191 97.2035C19.9981 97.3185 20.2195 97.573 20.3834 97.9669C20.4941 98.2328 20.5842 98.5188 20.6538 98.8248C20.7333 99.1268 20.7644 99.4374 20.747 99.7566C20.7198 100.08 20.6212 100.398 20.4512 100.712C20.2813 101.025 20.0091 101.329 19.6349 101.623L19.6128 101.32C20.1626 101.253 20.6196 101.283 20.9839 101.408C21.3481 101.534 21.6561 101.747 21.9079 102.046C22.1498 102.35 22.3712 102.743 22.572 103.226C22.7565 103.669 22.8613 104.087 22.8866 104.481C22.9119 104.875 22.8346 105.231 22.6548 105.548C22.461 105.86 22.1348 106.117 21.676 106.319L21.467 105.817C22.1004 105.785 22.6034 105.841 22.9758 105.986C23.3483 106.132 23.6497 106.37 23.8802 106.702C24.1106 107.033 24.3406 107.475 24.5701 108.026C24.7094 108.361 24.8123 108.706 24.8786 109.059C24.9351 109.417 24.8836 109.779 24.7243 110.146C24.5551 110.517 24.1997 110.884 23.658 111.248L23.2965 110.463C23.9636 110.428 24.5047 110.52 24.9197 110.74C25.3307 110.951 25.6687 111.249 25.9335 111.636C26.1885 112.026 26.4247 112.483 26.6419 113.005ZM14.3444 109.232C14.4468 109.478 14.4434 109.734 14.3342 109.999C14.2209 110.254 14.0362 110.435 13.7801 110.541C13.5241 110.648 13.2705 110.65 13.0195 110.546C12.7644 110.433 12.5856 110.253 12.4831 110.007C12.3766 109.751 12.375 109.497 12.4785 109.246C12.582 108.995 12.7618 108.816 13.0178 108.71C13.2738 108.603 13.5323 108.6 13.7932 108.699C14.0541 108.798 14.2378 108.976 14.3444 109.232ZM16.7861 109.602C16.8885 109.849 16.8851 110.104 16.7759 110.369C16.6626 110.624 16.4779 110.805 16.2218 110.912C15.9658 111.018 15.7122 111.02 15.4612 110.916C15.2061 110.803 15.0273 110.623 14.9248 110.377C14.8182 110.121 14.8167 109.867 14.9202 109.616C15.0237 109.365 15.2035 109.187 15.4595 109.08C15.7155 108.973 15.974 108.97 16.2349 109.069C16.4958 109.169 16.6795 109.346 16.7861 109.602ZM15.8331 107.313C15.9356 107.559 15.9322 107.814 15.823 108.079C15.7096 108.335 15.525 108.515 15.2689 108.622C15.0129 108.729 14.7593 108.73 14.5083 108.627C14.2532 108.513 14.0744 108.334 13.9719 108.087C13.8653 107.831 13.8638 107.578 13.9673 107.327C14.0708 107.076 14.2505 106.897 14.5066 106.79C14.7626 106.684 15.0211 106.68 15.282 106.78C15.5429 106.879 15.7266 107.057 15.8331 107.313ZM20.4028 98.0168L18.1796 98.3343C18.0984 97.959 17.9919 97.6437 17.8603 97.3885C17.7286 97.1332 17.533 96.9355 17.2735 96.7952C17.0035 96.6572 16.636 96.5731 16.1711 96.5427C15.7039 96.502 15.0941 96.5085 14.3418 96.5622L14.2424 94.4392C14.4032 94.4262 14.5925 94.418 14.81 94.4145C15.0253 94.4007 15.2457 94.3857 15.4714 94.3696C15.6845 94.3453 15.8848 94.3128 16.0725 94.2722C16.2601 94.2316 16.419 94.159 16.5492 94.0544C16.6793 93.9498 16.7796 93.8081 16.85 93.6291C16.9077 93.442 16.9344 93.2125 16.9301 92.9406C16.9236 92.6583 16.8785 92.3242 16.795 91.9385C16.7093 91.5423 16.7526 91.2383 16.925 91.0263C17.087 90.8167 17.3191 90.6791 17.6214 90.6136C17.9446 90.5437 18.2394 90.5945 18.5057 90.766C18.7593 90.9294 18.9302 91.2143 19.0182 91.6209C19.1197 92.0901 19.1758 92.5254 19.1863 92.9269C19.1946 93.318 19.1458 93.6724 19.0399 93.99C18.9214 94.2994 18.7405 94.5732 18.4974 94.8113C18.2416 95.0413 17.9097 95.2223 17.5018 95.3543L17.3393 94.6037C17.8803 94.683 18.3336 94.8359 18.6991 95.0623C19.0519 95.2806 19.3397 95.5512 19.5624 95.8741C19.7851 96.1969 19.959 96.5467 20.0842 96.9234C20.2176 97.2874 20.3238 97.6519 20.4028 98.0168ZM12.4198 94.49C12.4853 94.7923 12.4375 95.0755 12.2763 95.3396C12.1026 95.5955 11.8697 95.755 11.5778 95.8182C11.2755 95.8836 10.9923 95.8358 10.7282 95.6747C10.4619 95.5032 10.296 95.2662 10.2305 94.9639C10.1674 94.672 10.2227 94.3981 10.3964 94.1422C10.5702 93.8863 10.8083 93.7256 11.1106 93.6602C11.4025 93.597 11.6805 93.646 11.9446 93.8071C12.1982 93.9704 12.3566 94.1981 12.4198 94.49ZM12.9899 97.1987C13.0553 97.501 13.0075 97.7842 12.8464 98.0483C12.6726 98.3042 12.4397 98.4637 12.1478 98.5269C11.8455 98.5924 11.5623 98.5445 11.2982 98.3834C11.0319 98.2119 10.866 97.975 10.8006 97.6726C10.7374 97.3807 10.7927 97.1068 10.9665 96.8509C11.1403 96.595 11.3783 96.4344 11.6806 96.3689C11.9726 96.3057 12.2505 96.3547 12.5146 96.5158C12.7682 96.6791 12.9267 96.9068 12.9899 97.1987ZM19.0197 91.6302L16.7752 91.7046L16.5367 89.4291C16.5134 89.2063 16.4822 89.0111 16.4432 88.8436C16.3936 88.6772 16.3314 88.5443 16.2566 88.4449C16.1807 88.3349 16.0923 88.2583 15.9913 88.2153C15.8902 88.1723 15.776 88.1574 15.6487 88.1708C15.5214 88.1841 15.3271 88.2742 15.0657 88.441C14.7926 88.5983 14.4773 88.9156 14.1198 89.3928C13.9321 89.6484 13.736 89.9264 13.5315 90.2267C13.3153 90.5174 13.1139 90.796 12.9273 91.0622C12.7301 91.3295 12.555 91.5517 12.4019 91.7286C12.2489 91.9055 12.1352 91.9979 12.0609 92.0056C11.9018 92.0223 11.7257 92.0301 11.5325 92.0288C11.3393 92.0276 11.1609 92.0142 10.9973 91.9884C10.8327 91.952 10.7087 91.8953 10.6256 91.8182C10.4369 91.6557 10.2129 91.411 9.95342 91.0843C9.68222 90.7481 9.38789 90.3445 9.07042 89.8737C8.74234 89.404 8.39754 88.8771 8.03601 88.293C7.66276 87.6993 7.28507 87.0632 6.90293 86.3847L8.74923 85.2742C9.06499 85.831 9.3721 86.3565 9.67058 86.8507C9.95845 87.3461 10.243 87.8096 10.5242 88.2413C10.7937 88.6635 11.0598 89.0539 11.3226 89.4125C11.5737 89.7615 11.8203 90.0682 12.0625 90.3324L10.8633 90.2489C11.4583 89.2749 12.0039 88.4938 12.4999 87.9055C12.9949 87.3067 13.4459 86.8519 13.8531 86.5411C14.2496 86.2314 14.6132 86.0163 14.9438 85.8959C15.2637 85.7765 15.551 85.7035 15.8056 85.6768C16.0602 85.6501 16.3427 85.6849 16.6531 85.7811C16.9518 85.8677 17.2504 86.0563 17.549 86.3468C17.8464 86.6266 18.1095 87.0388 18.3382 87.5832C18.5668 88.1277 18.7273 88.8402 18.8196 89.7207L19.0197 91.6302ZM18.1711 83.137L6.46285 83.5839L6.44163 81.344L18.1499 80.8971L18.1711 83.137ZM23.1158 83.1861L21.9985 83.4687C21.9309 83.096 21.875 82.8192 21.8306 82.6383C21.7861 82.4467 21.7362 82.2445 21.6808 82.0317L22.0823 82.1879C21.989 82.4661 21.7995 82.7346 21.5139 82.9933C21.2389 83.2413 20.9201 83.367 20.5575 83.3704C20.1735 83.374 19.8633 83.2916 19.6271 83.1232C19.3908 82.9548 19.2181 82.7377 19.1089 82.4721C18.9997 82.2064 18.9437 81.9296 18.941 81.6416C18.9395 81.4816 18.9487 81.3322 18.9688 81.1933C18.9887 81.0438 19.0194 80.9102 19.061 80.7924L20.2141 80.9095C20.1938 81.0164 20.1735 81.1233 20.1532 81.2301C20.1328 81.337 20.1233 81.4544 20.1245 81.5824C20.1258 81.7211 20.1697 81.8487 20.2561 81.9652C20.3531 82.0709 20.4656 82.1232 20.5936 82.122C20.775 82.1203 20.9343 82.0548 21.0718 81.9254C21.2092 81.7961 21.3145 81.6458 21.3875 81.4744C21.4711 81.2923 21.5177 81.1425 21.5273 81.0251L21.6316 81.9041C21.5542 81.6169 21.4717 81.3456 21.3839 81.0905C21.3068 80.8352 21.2245 80.5959 21.1371 80.3728L22.206 80.0426C22.3045 80.3084 22.4088 80.6221 22.5189 80.9837C22.6396 81.3346 22.7497 81.7015 22.8494 82.0846C22.9489 82.457 23.0377 82.8242 23.1158 83.1861ZM16.6336 73.181C16.701 72.7058 16.7105 72.3355 16.662 72.07C16.6135 71.8046 16.5274 71.6146 16.4036 71.5C16.2798 71.3855 16.1387 71.317 15.9803 71.2945C15.7268 71.2585 15.4206 71.2904 15.0617 71.3903C14.7043 71.4796 14.3257 71.6036 13.9261 71.7624C13.5265 71.9211 13.1412 72.0926 12.7703 72.277C12.4009 72.4508 12.0767 72.6095 11.7977 72.753L10.8139 70.6902C11.4909 70.3231 12.1537 70.0185 12.8021 69.7766C13.44 69.5332 14.0266 69.3472 14.562 69.2185C15.0989 69.0792 15.5529 68.9929 15.924 68.9594C16.2739 68.9229 16.5559 68.8336 16.77 68.6916C16.975 68.5376 17.131 68.3497 17.2379 68.1278C17.3448 67.906 17.4148 67.6789 17.4478 67.4466C17.5048 67.0452 17.6509 66.7751 17.8861 66.6361C18.1122 66.4851 18.3784 66.4313 18.6847 66.4748C19.0121 66.5213 19.2709 66.6711 19.4612 66.9244C19.6424 67.1656 19.703 67.4974 19.643 67.9199C19.5771 68.3845 19.456 68.7821 19.2798 69.1126C19.1036 69.4431 18.8609 69.7104 18.5518 69.9143C18.2428 70.1182 17.865 70.2746 17.4186 70.3836L17.7617 69.4466C18.0455 69.573 18.2923 69.8074 18.5023 70.1496C18.7032 70.4798 18.8476 70.9043 18.9355 71.4232C19.0144 71.93 19.0066 72.516 18.9122 73.1814C18.8672 73.4982 18.7905 73.8482 18.6823 74.2315C18.5755 74.6042 18.4423 74.9731 18.2827 75.3383C18.1246 75.6929 17.9393 76.0114 17.7269 76.2936L15.8253 75.2318C16.0497 74.865 16.2297 74.5081 16.3651 74.161C16.5021 73.8034 16.5916 73.4767 16.6336 73.181ZM19.6428 67.9179L17.5177 67.1918C17.681 66.573 17.7752 66.0904 17.8004 65.744C17.8256 65.3976 17.772 65.1408 17.6396 64.9735C17.4997 64.7932 17.2698 64.6608 16.9501 64.5765C16.6613 64.5003 16.3049 64.4504 15.8809 64.4267C15.4597 64.3928 15.0161 64.3806 14.5503 64.3901C14.0872 64.3892 13.6574 64.4082 13.2611 64.4471L13.2365 62.157C13.6225 62.1154 14.0639 62.094 14.5607 62.0927C15.0575 62.0914 15.5643 62.1148 16.0811 62.1629C16.5876 62.2083 17.0678 62.2908 17.5216 62.4106C18.2229 62.5956 18.7654 62.8601 19.149 63.204C19.5223 63.5452 19.7732 63.9534 19.9015 64.4285C20.0326 64.8933 20.0697 65.4216 20.0129 66.0133C19.9457 66.6024 19.8224 67.2372 19.6428 67.9179ZM24.2401 65.0437C24.1612 65.3428 23.9849 65.572 23.7112 65.7315C23.4505 65.8833 23.1757 65.9212 22.8869 65.845C22.5878 65.7661 22.3572 65.5949 22.1951 65.3315C22.0356 65.0577 21.9953 64.7713 22.0743 64.4722C22.1504 64.1834 22.3241 63.9645 22.5951 63.8154C22.8661 63.6662 23.1511 63.6311 23.4502 63.71C23.739 63.7862 23.9593 63.9547 24.1112 64.2154C24.2733 64.4788 24.3163 64.7549 24.2401 65.0437ZM23.534 67.7201C23.4551 68.0192 23.2788 68.2485 23.005 68.4079C22.7443 68.5597 22.4696 68.5976 22.1808 68.5214C21.8817 68.4425 21.6511 68.2713 21.4889 68.0079C21.3295 67.7342 21.2892 67.4477 21.3681 67.1486C21.4443 66.8599 21.6179 66.6409 21.8889 66.4918C22.1599 66.3426 22.445 66.3075 22.7441 66.3864C23.0329 66.4626 23.2532 66.6311 23.405 66.8918C23.5672 67.1552 23.6102 67.4313 23.534 67.7201ZM24.5764 63.4175L22.4319 63.4731C22.4539 62.8765 22.4289 62.3133 22.3569 61.7835C22.2887 61.2438 22.1728 60.7544 22.0092 60.3153C21.8455 59.8762 21.6285 59.5023 21.358 59.1937C21.0776 58.8813 20.738 58.6491 20.3393 58.4971C19.9207 58.3375 19.4262 58.2574 18.8556 58.2568C18.2851 58.2561 17.6894 58.2916 17.0685 58.363L16.8733 56.0455C17.2507 55.9839 17.6435 55.9567 18.0517 55.9639C18.4538 55.9574 18.8114 55.9625 19.1247 55.9792C19.438 55.9959 19.6501 56.0083 19.7612 56.0164C20.2928 56.0592 20.6839 55.9915 20.9346 55.8131C21.1891 55.6247 21.4208 55.2564 21.6298 54.7083C21.7742 54.3295 21.9765 54.0984 22.2366 54.015C22.4906 53.9177 22.7621 53.9242 23.0511 54.0344C23.3601 54.1522 23.5794 54.3557 23.7089 54.6448C23.8284 54.9301 23.8141 55.2671 23.6658 55.6558C23.51 56.0644 23.3134 56.4004 23.076 56.6638C22.8386 56.9272 22.5692 57.1098 22.2678 57.2118C21.9701 57.3038 21.6573 57.3158 21.3294 57.2479L21.8542 56.8144C22.3597 57.0756 22.7915 57.44 23.1497 57.9077C23.5217 58.3691 23.8216 58.9001 24.0492 59.5006C24.2769 60.1012 24.4338 60.7375 24.52 61.4096C24.6062 62.0818 24.625 62.751 24.5764 63.4175ZM15.0349 56.2863C14.9171 56.5953 14.7118 56.8195 14.4189 56.959C14.1298 57.0885 13.8307 57.0943 13.5217 56.9765C13.2128 56.8587 12.9886 56.6534 12.8491 56.3605C12.7134 56.0576 12.7045 55.7517 12.8223 55.4427C12.9363 55.1437 13.1428 54.9313 13.4419 54.8056C13.7448 54.67 14.0507 54.661 14.3597 54.7788C14.6686 54.8966 14.886 55.1051 15.0117 55.4041C15.1412 55.6933 15.1489 55.9873 15.0349 56.2863ZM23.6666 55.6519L21.7758 54.4403C21.9033 54.2061 21.9533 54.0026 21.926 53.8298C21.8986 53.657 21.8009 53.4459 21.633 53.1966C21.4651 52.9473 21.2384 52.6053 20.9529 52.1705C20.6308 51.6915 20.3886 51.2439 20.2266 50.8277C20.0551 50.4065 19.9493 50.0209 19.909 49.6711C19.8644 49.3068 19.8736 48.9777 19.9363 48.684C19.9948 48.3758 20.0929 48.0952 20.2306 47.8422C20.4194 47.4956 20.6703 47.2132 20.9834 46.9951C21.2922 46.7624 21.7011 46.6025 22.2101 46.5152C22.7098 46.4229 23.3329 46.4161 24.0796 46.4946C24.598 46.5462 25.0182 46.5441 25.3399 46.4886C25.6616 46.433 25.9157 46.3345 26.102 46.193C26.2934 46.0422 26.4427 45.8684 26.5498 45.6717C26.7436 45.3157 26.975 45.1137 27.244 45.0658C27.5036 45.0129 27.7692 45.0603 28.0409 45.2082C28.3313 45.3664 28.5213 45.5973 28.611 45.9012C28.6912 46.1999 28.6344 46.5273 28.4406 46.8833C28.1907 47.3423 27.8888 47.7184 27.5349 48.0115C27.181 48.3046 26.7955 48.4773 26.3784 48.5296L26.2911 47.9537C26.4419 48.1452 26.5792 48.3839 26.7028 48.6698C26.8316 48.9464 26.8995 49.2566 26.9066 49.6005C26.9187 49.9351 26.8279 50.2803 26.6341 50.6363C26.5066 50.8705 26.3093 51.1214 26.0422 51.3889C25.7896 51.6522 25.4684 51.8963 25.0787 52.1213C24.6847 52.3319 24.2285 52.4783 23.7101 52.5604C23.9411 52.9169 24.0916 53.2539 24.1617 53.5714C24.2224 53.8838 24.2111 54.2056 24.1279 54.5368C24.0448 54.868 23.891 55.2397 23.6666 55.6519ZM22.4957 50.8426C22.6872 50.8254 22.889 50.7895 23.1009 50.7348C23.3128 50.6802 23.5183 50.6038 23.7175 50.5058C23.9072 50.4026 24.0834 50.2799 24.2458 50.1376C24.4134 49.986 24.5457 49.8211 24.6426 49.6431C24.7446 49.4558 24.7585 49.2629 24.6843 49.0647C24.6007 48.8613 24.3831 48.7367 24.0315 48.691C23.8842 48.6716 23.7126 48.6632 23.5168 48.6659C23.3168 48.6541 23.1184 48.6615 22.9218 48.688C22.7303 48.7052 22.5545 48.7492 22.3945 48.82C22.2396 48.8814 22.1291 48.973 22.0627 49.0948C21.9964 49.2166 21.9651 49.3634 21.9686 49.5354C21.9721 49.7074 22.0178 49.9023 22.1057 50.1201C22.1842 50.3329 22.3142 50.5737 22.4957 50.8426ZM28.4302 46.9013L26.6915 45.48C26.9742 45.079 27.1378 44.7636 27.1822 44.5339C27.2179 44.2981 27.1348 44.0829 26.9327 43.8882C26.7218 43.6874 26.388 43.439 25.9311 43.143L19.5664 39.0089L20.8661 37.165L27.38 41.3651C27.898 41.7041 28.3404 42.0485 28.7071 42.3984C29.0713 42.7334 29.3204 43.1113 29.4545 43.5321C29.5947 43.9441 29.5865 44.4278 29.43 44.983C29.2797 45.5296 28.9464 46.169 28.4302 46.9013ZM31.9128 41.9853L22.6491 34.8112L24.0708 33.0803L33.3346 40.2543L31.9128 41.9853ZM41.5463 33.411L40.4997 31.3873C41.0218 30.9814 41.5056 30.5782 41.9509 30.1779C42.3963 29.7776 42.7973 29.3983 43.1538 29.04C43.5187 28.6752 43.8256 28.3488 44.0745 28.0607C44.3318 27.766 44.5208 27.5312 44.6415 27.3563C44.8558 27.0411 45.0116 26.7375 45.109 26.4457C45.2063 26.1538 45.2442 25.8811 45.2228 25.6276C45.2013 25.374 45.1251 25.1631 44.9941 24.9946C44.9025 24.8767 44.7898 24.7752 44.656 24.6901C44.5222 24.6049 44.3782 24.5413 44.2238 24.4992C44.0779 24.4505 43.9315 24.436 43.7846 24.4556C43.6396 24.4602 43.5165 24.5018 43.4155 24.5804C43.2808 24.6852 43.1853 24.8404 43.1291 25.0463C43.0814 25.2455 43.0809 25.4621 43.1276 25.696C43.1762 25.9149 43.2791 26.1254 43.4363 26.3275C43.5476 26.4707 43.7075 26.5895 43.9161 26.684C44.1247 26.7786 44.3638 26.8427 44.6332 26.8764C44.9045 26.8952 45.1837 26.8807 45.471 26.833L44.2919 28.7834C43.9691 28.7506 43.6515 28.7071 43.3391 28.6528C43.0285 28.5835 42.7268 28.4735 42.434 28.3228C42.1496 28.1656 41.8928 27.9396 41.6637 27.6449C41.3625 27.2576 41.16 26.8407 41.0563 26.3945C40.9544 25.9333 40.9315 25.4781 40.9877 25.0291C41.0523 24.5735 41.1839 24.1605 41.3823 23.79C41.5825 23.4046 41.8342 23.0941 42.1374 22.8584C42.6258 22.4786 43.1567 22.2752 43.7302 22.2482C44.2971 22.2127 44.843 22.3153 45.3678 22.5558C45.901 22.7897 46.3411 23.1299 46.6881 23.5762C46.9959 23.972 47.1951 24.3846 47.2857 24.814C47.3764 25.2434 47.3829 25.6775 47.3052 26.1162C47.2293 26.54 47.1044 26.9615 46.9303 27.3806C46.7646 27.7931 46.5751 28.1836 46.3618 28.5522C46.2148 28.8151 45.9804 29.1392 45.6586 29.5246C45.3451 29.9034 44.9629 30.3155 44.5119 30.7607C44.0758 31.2078 43.6014 31.6577 43.0887 32.1104C42.5825 32.5716 42.0684 33.0051 41.5463 33.411ZM50.1047 26.4324C49.6163 26.8122 49.1167 27.1601 48.6058 27.4763C48.095 27.7924 47.5981 28.057 47.1154 28.2703C46.641 28.4769 46.2008 28.6233 45.7948 28.7093L45.6057 26.6675C45.9107 26.5384 46.248 26.364 46.6176 26.1442C46.989 25.9094 47.3665 25.6564 47.7501 25.3852C48.1422 25.1074 48.5108 24.8343 48.8561 24.5659C49.1761 24.3171 49.4689 24.2245 49.7346 24.2882C50.0021 24.3368 50.2308 24.4833 50.4207 24.7275C50.6237 24.9885 50.7055 25.2762 50.6661 25.5906C50.6203 25.8965 50.4331 26.1771 50.1047 26.4324ZM41.5463 33.411C40.6368 34.1181 39.8107 34.6456 39.0678 34.9935C38.3399 35.3433 37.6799 35.5457 37.0877 35.6008C36.4973 35.641 35.9795 35.5572 35.5342 35.3494C35.089 35.1416 34.7059 34.8314 34.3851 34.4188C34.1756 34.1494 33.9871 33.8635 33.8197 33.5613C33.6542 33.2442 33.5036 32.9289 33.368 32.6154C33.2408 32.2955 33.1249 32.0073 33.0201 31.7509L34.8838 30.8896C34.968 31.0674 35.0578 31.2611 35.1532 31.4706C35.2486 31.6802 35.3491 31.879 35.4548 32.0671C35.5539 32.2467 35.6559 32.4039 35.7606 32.5386C36.0029 32.8502 36.3284 33.043 36.7372 33.117C37.1479 33.176 37.6625 33.0731 38.2809 32.8085C38.8928 32.5354 39.6324 32.0617 40.4997 31.3873L41.813 32.5551L41.5463 33.411ZM41.2367 21.6738C40.9756 21.8768 40.6837 21.9619 40.361 21.9291C40.0466 21.8897 39.788 21.7396 39.585 21.4785C39.382 21.2175 39.297 20.9256 39.3298 20.6028C39.371 20.2735 39.5221 20.0074 39.7831 19.8044C40.0358 19.608 40.3225 19.5337 40.6434 19.5814C40.9727 19.6226 41.2388 19.7738 41.4418 20.0348C41.6448 20.2959 41.7224 20.5868 41.6746 20.9077C41.6353 21.222 41.4893 21.4774 41.2367 21.6738ZM50.0531 26.4689L49.3456 24.3376C49.6709 24.2032 49.9269 24.0685 50.1136 23.9337C50.2962 23.789 50.4128 23.5965 50.4636 23.3563C50.5202 23.1021 50.5183 22.7624 50.458 22.3372C50.4036 21.898 50.3019 21.3168 50.1531 20.5935L52.2221 20.1541C52.2723 20.3873 52.3301 20.6808 52.3955 21.0347C52.4707 21.3844 52.5572 21.6776 52.655 21.9142C52.7324 22.1015 52.8341 22.2499 52.9601 22.3594C53.092 22.455 53.2629 22.5056 53.4729 22.5111C53.6887 22.5027 53.9593 22.4313 54.2846 22.2969C54.541 22.191 54.7477 22.0768 54.9047 21.9542C55.0676 21.8176 55.1744 21.6292 55.2252 21.389C55.2818 21.1348 55.2758 20.7852 55.2074 20.3403C55.1448 19.8814 55.0182 19.2817 54.8275 18.541L56.9078 18.045C56.9621 18.2881 57.0224 18.5459 57.0889 18.8185C57.1553 19.0911 57.2186 19.342 57.2786 19.5711C57.3387 19.8002 57.3972 19.9837 57.4542 20.1218C57.5072 20.2499 57.5926 20.3589 57.7105 20.4487C57.8341 20.5245 58.0088 20.5562 58.2345 20.5438C58.47 20.5272 58.7702 20.4436 59.1349 20.2929C59.5786 20.1096 59.8652 19.8816 59.9948 19.6087C60.1303 19.3219 60.1165 18.9814 59.9536 18.5871C59.8599 18.3603 59.7552 18.1208 59.6394 17.8686C59.5196 17.6065 59.3777 17.3189 59.2137 17.0058C59.0555 16.6787 58.8592 16.3155 58.6249 15.916L60.4714 14.98C60.8907 15.7993 61.2547 16.4568 61.5634 16.9525C61.8721 17.4482 62.1614 17.8133 62.4315 18.048C62.7074 18.2687 62.9959 18.3803 63.297 18.3829C63.608 18.3813 63.9754 18.293 64.3993 18.1179C64.7739 17.9631 65.0808 17.9517 65.32 18.0837C65.565 18.2018 65.7466 18.4037 65.8647 18.6896C65.991 18.9952 65.9933 19.2943 65.8719 19.5869C65.7562 19.8655 65.5011 20.0863 65.1068 20.2492C64.8406 20.3592 64.5544 20.4486 64.2481 20.5174C63.946 20.5961 63.6353 20.6264 63.3162 20.6082C62.993 20.5801 62.6749 20.4807 62.362 20.3099C62.0491 20.1392 61.7459 19.8663 61.4524 19.4912L61.7553 19.47C61.8209 20.0199 61.7904 20.4769 61.6638 20.8408C61.5372 21.2047 61.3237 21.5122 61.0235 21.7632C60.7192 22.0043 60.3255 22.2247 59.8424 22.4243C59.3988 22.6076 58.98 22.7113 58.5861 22.7356C58.1922 22.7599 57.8367 22.6817 57.5197 22.501C57.2085 22.3065 56.9523 21.9795 56.751 21.5203L57.2537 21.3125C57.2847 21.9461 57.227 22.4489 57.0806 22.821C56.9343 23.193 56.695 23.4939 56.3628 23.7234C56.0307 23.953 55.5886 24.1818 55.0365 24.4099C54.7013 24.5484 54.3568 24.6504 54.003 24.7158C53.645 24.7713 53.2829 24.719 52.9166 24.5587C52.5463 24.3886 52.1798 24.0322 51.8171 23.4896L52.6034 23.1301C52.6367 23.7972 52.5427 24.3381 52.3216 24.7526C52.1103 25.1631 51.8111 25.5002 51.4238 25.7641C51.0325 26.0181 50.5756 26.253 50.0531 26.4689ZM53.8572 14.1811C53.6107 14.283 53.3551 14.2789 53.0904 14.169C52.8356 14.055 52.6552 13.8699 52.5493 13.6135C52.4434 13.3572 52.4425 13.1037 52.5467 12.8529C52.6607 12.5981 52.8409 12.4197 53.0873 12.3179C53.3437 12.212 53.5972 12.2111 53.848 12.3153C54.0987 12.4194 54.2771 12.5996 54.383 12.8559C54.4889 13.1123 54.4918 13.3707 54.3917 13.6314C54.2917 13.892 54.1135 14.0752 53.8572 14.1811ZM53.4807 16.6219C53.2342 16.7237 52.9786 16.7197 52.7139 16.6097C52.4591 16.4957 52.2787 16.3106 52.1728 16.0543C52.0669 15.798 52.066 15.5444 52.1701 15.2937C52.2841 15.0388 52.4644 14.8605 52.7108 14.7586C52.9671 14.6527 53.2207 14.6519 53.4715 14.756C53.7222 14.8601 53.9006 15.0404 54.0065 15.2967C54.1124 15.553 54.1153 15.8115 54.0152 16.0721C53.9152 16.3327 53.737 16.516 53.4807 16.6219ZM55.7727 15.6749C55.5263 15.7767 55.2707 15.7727 55.006 15.6627C54.7511 15.5487 54.5708 15.3636 54.4649 15.1073C54.359 14.851 54.3581 14.5974 54.4622 14.3466C54.5762 14.0918 54.7564 13.9135 55.0029 13.8116C55.2592 13.7057 55.5128 13.7049 55.7635 13.809C56.0143 13.9131 56.1926 14.0933 56.2985 14.3497C56.4044 14.606 56.4073 14.8645 56.3073 15.1251C56.2072 15.3857 56.029 15.569 55.7727 15.6749ZM65.0571 20.2683L64.7453 18.0444C65.1208 17.9641 65.4364 17.8585 65.692 17.7275C65.9476 17.5965 66.1459 17.4014 66.2868 17.1422C66.4255 16.8726 66.5106 16.5054 66.5422 16.0405C66.5841 15.5734 66.5792 14.9637 66.5274 14.2112L68.6507 14.1173C68.6633 14.2782 68.671 14.4674 68.6739 14.685C68.6872 14.9003 68.7016 15.1208 68.7171 15.3466C68.7409 15.5596 68.7728 15.7601 68.8129 15.9478C68.8531 16.1356 68.9253 16.2947 69.0295 16.4251C69.1337 16.5555 69.2752 16.6562 69.454 16.727C69.6409 16.7852 69.8704 16.8126 70.1423 16.809C70.4247 16.8032 70.7588 16.759 71.1448 16.6765C71.5411 16.5918 71.8451 16.6359 72.0566 16.8088C72.2658 16.9713 72.4028 17.2039 72.4674 17.5064C72.5366 17.8297 72.485 18.1243 72.3128 18.3902C72.1487 18.6434 71.8633 18.8135 71.4565 18.9005C70.9871 19.0008 70.5516 19.0557 70.1501 19.0652C69.759 19.0724 69.4047 19.0227 69.0874 18.916C68.7783 18.7967 68.505 18.6151 68.2675 18.3714C68.0382 18.115 67.858 17.7826 67.7271 17.3743L68.4782 17.2138C68.3974 17.7546 68.2434 18.2075 68.0159 18.5724C67.7967 18.9247 67.5254 19.2117 67.202 19.4336C66.8785 19.6554 66.5283 19.8284 66.1513 19.9527C65.7869 20.0851 65.4222 20.1903 65.0571 20.2683ZM68.6047 12.2946C68.3022 12.3593 68.0192 12.3107 67.7555 12.1489C67.5001 11.9745 67.3411 11.7412 67.2787 11.4491C67.214 11.1466 67.2626 10.8636 67.4244 10.5999C67.5966 10.334 67.834 10.1688 68.1365 10.1041C68.4286 10.0417 68.7023 10.0977 68.9578 10.2722C69.2132 10.4466 69.3733 10.6851 69.4379 10.9876C69.5004 11.2797 69.4507 11.5575 69.2889 11.8212C69.1248 12.0744 68.8968 12.2322 68.6047 12.2946ZM65.8945 12.8576C65.592 12.9222 65.309 12.8737 65.0453 12.7119C64.7899 12.5374 64.6309 12.3042 64.5685 12.0121C64.5038 11.7096 64.5524 11.4265 64.7142 11.1629C64.8864 10.897 65.1238 10.7317 65.4263 10.6671C65.7184 10.6046 65.9921 10.6607 66.2476 10.8351C66.503 11.0096 66.6631 11.248 66.7277 11.5505C66.7902 11.8426 66.7405 12.1205 66.5787 12.3841C66.4146 12.6373 66.1866 12.7952 65.8945 12.8576ZM71.4473 18.9019L71.381 16.6572L73.6573 16.4268C73.8802 16.4043 74.0755 16.3738 74.2431 16.3354C74.4097 16.2864 74.5428 16.2246 74.6425 16.1502C74.7528 16.0747 74.8296 15.9866 74.873 15.8857C74.9164 15.7848 74.9317 15.6707 74.9188 15.5433C74.9059 15.416 74.8165 15.2213 74.6506 14.9594C74.4943 14.6857 74.1781 14.3693 73.7022 14.01C73.4473 13.8214 73.17 13.6243 72.8705 13.4188C72.5804 13.2015 72.3027 12.9991 72.0371 12.8116C71.7704 12.6134 71.5489 12.4375 71.3726 12.2838C71.1962 12.1301 71.1043 12.0162 71.0967 11.9419C71.0806 11.7827 71.0735 11.6065 71.0754 11.4133C71.0773 11.2202 71.0914 11.0418 71.1178 10.8783C71.1547 10.7138 71.2119 10.5901 71.2893 10.5072C71.4525 10.3191 71.6979 10.0959 72.0256 9.83764C72.3628 9.56765 72.7673 9.27476 73.2393 8.95897C73.7101 8.63257 74.2383 8.28965 74.8237 7.9302C75.4187 7.55907 76.0562 7.18365 76.7361 6.80393L77.84 8.65418C77.2821 8.96795 76.7555 9.27319 76.2601 9.56991C75.7638 9.85601 75.2992 10.1389 74.8665 10.4185C74.4433 10.6865 74.052 10.9513 73.6925 11.2128C73.3426 11.4626 73.0351 11.7082 72.77 11.9494L72.8577 10.7505C73.8296 11.349 74.6088 11.8973 75.1952 12.3955C75.7923 12.8926 76.2455 13.3452 76.5549 13.7535C76.8632 14.1511 77.0769 14.5155 77.1962 14.8465C77.3144 15.1669 77.3864 15.4544 77.4122 15.7091C77.4379 15.9638 77.4022 16.2462 77.3049 16.5562C77.2172 16.8546 77.0275 17.1525 76.736 17.45C76.4551 17.7465 76.042 18.0081 75.4967 18.2348C74.9515 18.4615 74.2384 18.6195 73.3576 18.7086L71.4473 18.9019ZM79.9435 18.0784L79.4899 6.37033L81.7297 6.34783L82.1834 18.0559L79.9435 18.0784ZM79.8971 23.0231L79.6139 21.9059C79.9866 21.8381 80.2633 21.782 80.4442 21.7375C80.6358 21.6929 80.838 21.6429 81.0508 21.5874L80.8948 21.989C80.6165 21.8958 80.3479 21.7065 80.089 21.4211C79.8409 21.1462 79.7151 20.8275 79.7114 20.4648C79.7076 20.0808 79.7898 19.7707 79.9581 19.5343C80.1264 19.2979 80.3433 19.1251 80.6089 19.0157C80.8745 18.9064 81.1513 18.8503 81.4393 18.8474C81.5993 18.8458 81.7487 18.8549 81.8876 18.8749C82.0371 18.8947 82.1707 18.9254 82.2885 18.9669L82.1721 20.1201C82.0652 20.0998 81.9583 20.0796 81.8515 20.0593C81.7446 20.039 81.6271 20.0296 81.4992 20.0308C81.3605 20.0322 81.2329 20.0762 81.1165 20.1627C81.0108 20.2598 80.9586 20.3723 80.9598 20.5003C80.9617 20.6816 81.0273 20.841 81.1566 20.9783C81.286 21.1157 81.4364 21.2209 81.6078 21.2938C81.79 21.3773 81.9398 21.4238 82.0573 21.4333L81.1783 21.5381C81.4655 21.4606 81.7367 21.3779 81.9918 21.29C82.2471 21.2127 82.4862 21.1303 82.7094 21.0427L83.0401 22.1115C82.7744 22.2101 82.4608 22.3146 82.0992 22.4249C81.7484 22.5458 81.3815 22.6562 80.9985 22.756C80.6261 22.8557 80.259 22.9448 79.8971 23.0231ZM93.0757 17.0494C93.5467 17.142 93.916 17.171 94.1836 17.1367C94.4513 17.1023 94.6456 17.0263 94.7665 16.9087C94.8874 16.7912 94.9633 16.6539 94.9942 16.4969C95.0435 16.2457 95.0278 15.9382 94.9471 15.5745C94.8768 15.2129 94.773 14.8283 94.6356 14.4208C94.4983 14.0134 94.3473 13.6196 94.1829 13.2394C94.0289 12.8613 93.8876 12.5292 93.759 12.243L95.8709 11.3697C96.2017 12.0652 96.4708 12.7431 96.678 13.4035C96.8874 14.0533 97.0421 14.649 97.1423 15.1905C97.2529 15.734 97.3152 16.1919 97.329 16.5642C97.3469 16.9156 97.4211 17.2019 97.5516 17.4232C97.6945 17.6361 97.874 17.8018 98.0898 17.9203C98.3057 18.0388 98.5288 18.1207 98.7591 18.1659C99.1568 18.244 99.4188 18.4042 99.5452 18.6465C99.684 18.8803 99.7237 19.1489 99.664 19.4525C99.6003 19.7769 99.4369 20.0275 99.174 20.2041C98.9235 20.3723 98.5889 20.4153 98.1703 20.3331C97.7097 20.2426 97.3191 20.1006 96.9984 19.9072C96.6777 19.7137 96.4237 19.4573 96.2364 19.1379C96.0491 18.8184 95.9129 18.433 95.8276 17.9814L96.7453 18.3736C96.6039 18.6502 96.3569 18.8843 96.004 19.0759C95.6636 19.2591 95.2321 19.3808 94.7093 19.4412C94.199 19.4931 93.6142 19.4544 92.9548 19.3248C92.6408 19.2631 92.2953 19.1681 91.9183 19.0397C91.5518 18.9133 91.1904 18.7608 90.8342 18.5821C90.4884 18.4055 90.1802 18.2036 89.9096 17.9765L91.0706 16.1338C91.4249 16.3773 91.7718 16.5759 92.1113 16.7295C92.4611 16.8852 92.7826 16.9919 93.0757 17.0494ZM98.1727 20.333L99.0116 18.2498C99.6208 18.446 100.098 18.5659 100.442 18.6096C100.787 18.6533 101.046 18.6136 101.22 18.4904C101.408 18.3603 101.552 18.1378 101.654 17.8231C101.745 17.5388 101.814 17.1856 101.86 16.7634C101.917 16.3446 101.953 15.9023 101.968 15.4366C101.994 14.9742 101.998 14.5441 101.98 14.1462L104.268 14.2443C104.289 14.632 104.287 15.0739 104.262 15.57C104.236 16.0662 104.186 16.571 104.11 17.0845C104.038 17.5879 103.93 18.0629 103.786 18.5097C103.563 19.2001 103.27 19.7276 102.906 20.0923C102.546 20.4468 102.125 20.6754 101.643 20.7782C101.172 20.8842 100.643 20.893 100.055 20.8045C99.4702 20.7059 98.8428 20.5488 98.1727 20.333ZM100.797 25.0776C100.502 24.9828 100.283 24.7945 100.138 24.5126C100.001 24.2441 99.9775 23.9678 100.069 23.6835C100.164 23.389 100.347 23.1679 100.619 23.0201C100.901 22.8755 101.189 22.8506 101.483 22.9454C101.768 23.037 101.977 23.2221 102.111 23.5007C102.246 23.7793 102.266 24.0658 102.171 24.3603C102.079 24.6445 101.899 24.8555 101.631 24.9932C101.359 25.141 101.081 25.1692 100.797 25.0776ZM98.162 24.2292C97.8675 24.1344 97.648 23.9461 97.5035 23.6642C97.3658 23.3957 97.3427 23.1194 97.4343 22.8351C97.5291 22.5406 97.7123 22.3195 97.9841 22.1717C98.2659 22.0271 98.5541 22.0022 98.8486 22.097C99.1328 22.1886 99.3422 22.3737 99.4766 22.6523C99.611 22.9309 99.6308 23.2174 99.536 23.5118C99.4444 23.7961 99.2644 24.0071 98.996 24.1448C98.7243 24.2926 98.4463 24.3208 98.162 24.2292ZM102.414 25.5047L102.466 23.3601C103.061 23.4119 103.624 23.4152 104.157 23.3698C104.7 23.3287 105.194 23.2374 105.641 23.096C106.088 22.9546 106.472 22.7565 106.794 22.5018C107.12 22.2374 107.369 21.9099 107.541 21.5193C107.721 21.1092 107.826 20.6193 107.855 20.0495C107.884 19.4797 107.879 18.883 107.838 18.2593L110.163 18.1805C110.205 18.5604 110.213 18.9541 110.185 19.3614C110.171 19.7633 110.148 20.1202 110.116 20.4323C110.084 20.7443 110.061 20.9556 110.047 21.0661C109.978 21.5949 110.026 21.989 110.191 22.2483C110.367 22.5118 110.723 22.7617 111.26 22.9979C111.631 23.1611 111.852 23.3747 111.922 23.6387C112.006 23.8972 111.986 24.1681 111.862 24.4512C111.729 24.7539 111.514 24.9627 111.219 25.0775C110.928 25.1826 110.592 25.1514 110.212 24.9839C109.811 24.8079 109.486 24.5947 109.234 24.3444C108.983 24.0941 108.814 23.8159 108.728 23.5097C108.651 23.2078 108.654 22.8948 108.739 22.5707L109.145 23.1166C108.859 23.6083 108.473 24.0213 107.988 24.3557C107.509 24.7041 106.964 24.977 106.352 25.1743C105.741 25.3716 105.098 25.4965 104.422 25.5489C103.747 25.6013 103.077 25.5866 102.414 25.5047ZM110.014 16.3323C109.711 16.1991 109.498 15.9828 109.373 15.6833C109.258 15.3881 109.267 15.0891 109.401 14.7864C109.534 14.4837 109.75 14.2701 110.05 14.1455C110.359 14.0251 110.665 14.0315 110.968 14.1647C111.26 14.2935 111.462 14.5104 111.573 14.8154C111.693 15.1247 111.687 15.4307 111.554 15.7334C111.42 16.036 111.201 16.2427 110.896 16.3532C110.601 16.4681 110.307 16.4611 110.014 16.3323ZM110.215 24.9846L111.523 23.1588C111.75 23.2982 111.95 23.3587 112.124 23.3402C112.298 23.3218 112.514 23.2352 112.772 23.0803C113.029 22.9255 113.383 22.7167 113.832 22.454C114.327 22.1569 114.786 21.9382 115.21 21.7978C115.64 21.6483 116.03 21.5624 116.382 21.5402C116.748 21.5145 117.076 21.5405 117.366 21.6184C117.671 21.6927 117.946 21.8051 118.191 21.9557C118.528 22.162 118.797 22.4271 118.999 22.751C119.215 23.0715 119.354 23.4881 119.415 24.0009C119.481 24.5046 119.456 25.1273 119.339 25.8689C119.261 26.384 119.241 26.8037 119.28 27.1279C119.319 27.4521 119.404 27.7108 119.536 27.9042C119.677 28.1031 119.843 28.2612 120.033 28.3783C120.379 28.5902 120.569 28.8317 120.603 29.1027C120.642 29.3647 120.581 29.6276 120.419 29.8913C120.247 30.1732 120.006 30.351 119.698 30.4249C119.396 30.4896 119.072 30.416 118.726 30.2041C118.281 29.9309 117.92 29.61 117.646 29.2415C117.371 28.8729 117.219 28.479 117.188 28.0598L117.768 28.0023C117.569 28.1431 117.323 28.2678 117.031 28.3766C116.749 28.4909 116.435 28.5428 116.091 28.5321C115.757 28.5271 115.417 28.4186 115.071 28.2067C114.844 28.0672 114.603 27.8573 114.35 27.5768C114.1 27.3109 113.873 26.9776 113.668 26.5768C113.478 26.1725 113.356 25.7093 113.3 25.1874C112.932 25.3997 112.588 25.5327 112.267 25.5863C111.952 25.6308 111.631 25.603 111.305 25.5029C110.978 25.4027 110.615 25.23 110.215 24.9846ZM115.078 24.0631C115.086 24.2553 115.111 24.4586 115.155 24.6731C115.198 24.8875 115.264 25.0967 115.352 25.3006C115.445 25.4954 115.558 25.6777 115.692 25.8473C115.835 26.0224 115.993 26.163 116.166 26.269C116.347 26.3805 116.539 26.4043 116.741 26.3404C116.949 26.2674 117.084 26.0565 117.148 25.7077C117.175 25.5616 117.192 25.3907 117.2 25.1951C117.222 24.9959 117.224 24.7974 117.208 24.5997C117.201 24.4075 117.166 24.2297 117.103 24.0663C117.05 23.9085 116.964 23.7933 116.846 23.7208C116.728 23.6483 116.583 23.6094 116.411 23.6041C116.239 23.5987 116.042 23.6343 115.82 23.7108C115.603 23.7783 115.356 23.8957 115.078 24.0631ZM118.709 30.1932L120.222 28.5337C120.608 28.8376 120.914 29.0179 121.141 29.0747C121.374 29.1231 121.594 29.0516 121.799 28.8603C122.011 28.6606 122.277 28.3407 122.597 27.9003L127.068 21.7678L128.839 23.1651L124.294 29.4431C123.928 29.942 123.56 30.3652 123.191 30.7125C122.837 31.0581 122.446 31.2865 122.018 31.3977C121.599 31.5155 121.117 31.4812 120.571 31.2951C120.033 31.1155 119.413 30.7482 118.709 30.1932ZM123.435 33.931L131.051 25.0272L132.711 26.5315L125.095 35.4353L123.435 33.931ZM131.505 43.9902L133.579 43.0494C133.958 43.5917 134.336 44.0956 134.712 44.561C135.089 45.0264 135.447 45.4464 135.787 45.8208C136.132 46.2041 136.443 46.5274 136.717 46.7908C136.998 47.063 137.223 47.2638 137.392 47.3934C137.695 47.6236 137.991 47.7949 138.277 47.9072C138.563 48.0194 138.834 48.0713 139.088 48.063C139.342 48.0546 139.557 47.9893 139.732 47.8672C139.854 47.7818 139.962 47.6745 140.054 47.5453C140.146 47.4161 140.217 47.2755 140.267 47.1235C140.323 46.9802 140.345 46.8348 140.333 46.6871C140.336 46.542 140.3 46.417 140.227 46.3121C140.129 46.1721 139.979 46.0688 139.777 46.0021C139.58 45.9441 139.364 45.9325 139.128 45.9671C138.907 46.0044 138.691 46.0962 138.481 46.2428C138.333 46.3465 138.206 46.5002 138.1 46.7036C137.995 46.9071 137.919 47.1425 137.871 47.4098C137.839 47.6798 137.839 47.9594 137.872 48.2487L135.984 46.9707C136.034 46.65 136.094 46.3351 136.164 46.0258C136.249 45.7192 136.375 45.4236 136.54 45.139C136.712 44.8631 136.951 44.6183 137.257 44.4046C137.659 44.1238 138.086 43.9431 138.537 43.8625C139.003 43.7845 139.459 43.7851 139.904 43.8644C140.356 43.9524 140.761 44.105 141.121 44.3223C141.496 44.5421 141.793 44.8095 142.013 45.1244C142.367 45.6317 142.543 46.1724 142.54 46.7466C142.546 47.3146 142.416 47.8544 142.148 48.3661C141.887 48.8866 141.525 49.3086 141.061 49.6321C140.65 49.919 140.228 50.0967 139.794 50.1651C139.361 50.2335 138.927 50.2176 138.493 50.1174C138.074 50.0198 137.659 49.8733 137.25 49.6779C136.846 49.4912 136.466 49.2818 136.109 49.0497C135.854 48.8894 135.542 48.6387 135.174 48.2973C134.812 47.9648 134.42 47.5618 133.998 47.0885C133.574 46.63 133.15 46.133 132.724 45.5976C132.289 45.0683 131.883 44.5325 131.505 43.9902ZM138.033 52.8969C137.679 52.3896 137.357 51.8727 137.068 51.3462C136.778 50.8198 136.539 50.31 136.351 49.8169C136.169 49.3325 136.046 48.8853 135.981 48.4754L138.03 48.3918C138.143 48.703 138.3 49.0489 138.5 49.4293C138.716 49.8123 138.949 50.2024 139.2 50.5995C139.457 51.0053 139.711 51.3875 139.961 51.7461C140.193 52.0785 140.271 52.3758 140.193 52.6378C140.131 52.9025 139.973 53.1233 139.719 53.3004C139.448 53.4896 139.156 53.5565 138.845 53.501C138.541 53.4394 138.271 53.2381 138.033 52.8969ZM131.505 43.9902C130.845 43.0455 130.361 42.1933 130.052 41.4335C129.74 40.6885 129.572 40.0189 129.547 39.4247C129.538 38.8331 129.648 38.3203 129.879 37.8863C130.109 37.4523 130.439 37.0858 130.867 36.7866C131.147 36.5913 131.442 36.4178 131.753 36.2662C132.078 36.1172 132.401 35.9831 132.721 35.8638C133.047 35.7533 133.34 35.6524 133.602 35.561L134.366 37.4666C134.184 37.5415 133.986 37.6212 133.772 37.7056C133.558 37.7901 133.354 37.8803 133.161 37.9761C132.976 38.0659 132.814 38.1596 132.674 38.2572C132.35 38.4831 132.141 38.7983 132.046 39.2027C131.966 39.6098 132.042 40.129 132.275 40.7603C132.516 41.3854 132.951 42.1484 133.579 43.0494L132.346 44.3007L131.505 43.9902ZM143.242 44.2859C143.053 44.0147 142.983 43.7189 143.032 43.3982C143.088 43.0863 143.251 42.8358 143.522 42.6465C143.793 42.4573 144.089 42.3874 144.41 42.4367C144.737 42.4949 144.995 42.6595 145.184 42.9307C145.367 43.1931 145.427 43.4833 145.362 43.8013C145.304 44.128 145.139 44.386 144.868 44.5753C144.597 44.7645 144.303 44.827 143.985 44.7628C143.673 44.7073 143.425 44.5483 143.242 44.2859ZM138 52.8443L140.165 52.2498C140.282 52.5817 140.403 52.8444 140.528 53.0379C140.663 53.2279 140.849 53.3545 141.086 53.4178C141.337 53.4876 141.677 53.5036 142.104 53.4658C142.546 53.4344 143.131 53.3635 143.862 53.2529L144.192 55.3421C143.956 55.38 143.66 55.4223 143.303 55.469C142.95 55.5258 142.653 55.5967 142.411 55.6819C142.22 55.7494 142.067 55.8432 141.951 55.9633C141.848 56.0899 141.789 56.2579 141.772 56.4674C141.769 56.6833 141.826 56.9573 141.944 57.2892C142.036 57.5507 142.139 57.7632 142.253 57.9265C142.381 58.0963 142.564 58.2129 142.801 58.2762C143.052 58.346 143.401 58.3585 143.849 58.3135C144.31 58.2751 144.916 58.1801 145.666 58.0287L146.052 60.1321C145.806 60.1736 145.546 60.2203 145.27 60.2723C144.994 60.3244 144.74 60.3744 144.508 60.4223C144.276 60.4702 144.09 60.519 143.949 60.5687C143.818 60.6148 143.705 60.6944 143.609 60.8074C143.527 60.9269 143.486 61.0997 143.487 61.3257C143.491 61.5618 143.559 61.8659 143.69 62.2381C143.85 62.6908 144.062 62.989 144.328 63.1328C144.607 63.2831 144.948 63.2872 145.35 63.1452C145.582 63.0636 145.826 62.9716 146.084 62.8693C146.352 62.7634 146.647 62.6368 146.968 62.4894C147.303 62.3486 147.676 62.1717 148.088 61.9588L148.925 63.8519C148.085 64.2276 147.409 64.5565 146.898 64.8387C146.387 65.1209 146.007 65.3907 145.759 65.6481C145.524 65.9119 145.397 66.1942 145.379 66.4947C145.364 66.8054 145.433 67.177 145.585 67.6095C145.72 67.9917 145.716 68.2988 145.571 68.5307C145.44 68.7692 145.229 68.9399 144.937 69.0428C144.626 69.1528 144.327 69.1395 144.041 69.0028C143.769 68.8726 143.562 68.6064 143.42 68.204C143.324 67.9324 143.25 67.6419 143.197 67.3325C143.134 67.0266 143.12 66.7147 143.155 66.397C143.2 66.0757 143.316 65.7633 143.503 65.4598C143.69 65.1563 143.979 64.8679 144.369 64.5945L144.374 64.898C143.821 64.9347 143.367 64.8802 143.01 64.7347C142.653 64.5891 142.357 64.3598 142.122 64.0468C141.898 63.7302 141.698 63.3255 141.524 62.8326C141.365 62.38 141.283 61.9564 141.279 61.5617C141.276 61.1671 141.373 60.8162 141.57 60.5091C141.78 60.2086 142.12 59.9698 142.589 59.7929L142.771 60.3059C142.136 60.3035 141.637 60.2195 141.273 60.0538C140.909 59.8881 140.622 59.6334 140.41 59.2896C140.198 58.9458 139.993 58.4923 139.794 57.929C139.673 57.587 139.59 57.2376 139.543 56.8808C139.506 56.5205 139.577 56.1617 139.757 55.8043C139.946 55.4434 140.321 55.0961 140.882 54.7624L141.2 55.5665C140.532 55.5647 139.997 55.4425 139.594 55.1999C139.196 54.9673 138.875 54.6508 138.631 54.2502C138.398 53.8461 138.188 53.3774 138 52.8443ZM150.071 57.2887C149.982 57.0373 149.999 56.7822 150.123 56.5237C150.25 56.2752 150.445 56.1048 150.706 56.0125C150.968 55.9202 151.221 55.9327 151.466 56.0498C151.714 56.177 151.883 56.3664 151.972 56.6179C152.064 56.8794 152.051 57.1326 151.934 57.3776C151.817 57.6225 151.628 57.7911 151.366 57.8834C151.105 57.9757 150.846 57.9651 150.591 57.8514C150.336 57.7378 150.163 57.5503 150.071 57.2887ZM147.653 56.7845C147.564 56.533 147.582 56.278 147.705 56.0195C147.833 55.771 148.027 55.6006 148.288 55.5083C148.55 55.416 148.803 55.4284 149.048 55.5456C149.297 55.6728 149.465 55.8622 149.554 56.1136C149.646 56.3752 149.634 56.6284 149.517 56.8733C149.4 57.1183 149.21 57.2869 148.949 57.3792C148.687 57.4715 148.429 57.4608 148.174 57.3472C147.919 57.2336 147.745 57.046 147.653 56.7845ZM148.478 59.1232C148.389 58.8717 148.407 58.6167 148.531 58.3581C148.658 58.1096 148.852 57.9392 149.114 57.8469C149.375 57.7546 149.629 57.7671 149.873 57.8842C150.122 58.0115 150.291 58.2008 150.379 58.4523C150.472 58.7138 150.459 58.9671 150.342 59.212C150.225 59.457 150.036 59.6256 149.774 59.7179C149.512 59.8101 149.254 59.7995 148.999 59.6859C148.744 59.5723 148.571 59.3847 148.478 59.1232ZM143.403 68.1531L145.64 67.9578C145.701 68.337 145.79 68.6577 145.907 68.9198C146.025 69.1819 146.209 69.39 146.461 69.5443C146.723 69.6969 147.085 69.8011 147.548 69.8568C148.012 69.9231 148.621 69.95 149.375 69.9376L149.358 72.0629C149.197 72.0671 149.008 72.0649 148.79 72.0564C148.574 72.0585 148.353 72.0614 148.127 72.0651C147.913 72.0777 147.711 72.0991 147.522 72.1294C147.332 72.1596 147.17 72.2234 147.034 72.3207C146.898 72.418 146.79 72.554 146.71 72.7288C146.642 72.9125 146.603 73.1402 146.592 73.412C146.583 73.6942 146.61 74.0302 146.672 74.42C146.736 74.8202 146.676 75.1214 146.493 75.3236C146.319 75.5241 146.08 75.6487 145.775 75.6975C145.448 75.7497 145.157 75.6828 144.9 75.4969C144.656 75.3199 144.501 75.026 144.435 74.6152C144.359 74.1412 144.327 73.7035 144.339 73.302C144.352 72.911 144.42 72.5598 144.543 72.2485C144.679 71.9461 144.874 71.6826 145.13 71.4581C145.398 71.2425 145.739 71.08 146.154 70.9706L146.275 71.729C145.739 71.6201 145.295 71.4426 144.942 71.1964C144.602 70.9591 144.33 70.6732 144.125 70.3386C143.92 70.004 143.766 69.6453 143.661 69.2623C143.548 68.8915 143.462 68.5217 143.403 68.1531ZM151.181 72.1121C151.132 71.8067 151.195 71.5265 151.371 71.2717C151.558 71.0257 151.799 70.8791 152.094 70.832C152.4 70.7833 152.68 70.8465 152.935 71.0219C153.191 71.2078 153.344 71.4534 153.393 71.7589C153.44 72.0538 153.37 72.3243 153.182 72.5703C152.995 72.8163 152.748 72.9636 152.443 73.0124C152.148 73.0595 151.873 72.9954 151.618 72.8201C151.374 72.643 151.228 72.4071 151.181 72.1121ZM150.76 69.3762C150.711 69.0708 150.775 68.7906 150.95 68.5358C151.138 68.2898 151.379 68.1433 151.674 68.0962C151.979 68.0474 152.259 68.1107 152.514 68.286C152.771 68.4719 152.923 68.7175 152.972 69.023C153.019 69.3179 152.949 69.5884 152.761 69.8344C152.574 70.0804 152.327 70.2277 152.022 70.2765C151.727 70.3236 151.452 70.2595 151.197 70.0842C150.953 69.9071 150.807 69.6712 150.76 69.3762ZM144.434 74.6057L146.679 74.653L146.794 76.9381C146.805 77.1618 146.826 77.3584 146.856 77.5277C146.896 77.6966 146.951 77.8327 147.021 77.936C147.09 78.0499 147.175 78.1312 147.273 78.1796C147.372 78.228 147.485 78.2491 147.613 78.2426C147.741 78.2362 147.94 78.1568 148.21 78.0044C148.491 77.8621 148.823 77.5623 149.206 77.1052C149.407 76.8601 149.618 76.5932 149.838 76.3044C150.07 76.0258 150.286 75.7586 150.487 75.5028C150.698 75.2466 150.885 75.0342 151.048 74.8659C151.21 74.6975 151.328 74.6114 151.403 74.6077C151.563 74.5996 151.739 74.6015 151.932 74.6131C152.125 74.6248 152.302 74.6479 152.464 74.6825C152.627 74.7277 152.747 74.7911 152.826 74.8725C153.006 75.0451 153.216 75.3015 153.458 75.6418C153.71 75.9922 153.982 76.4111 154.274 76.8984C154.576 77.3852 154.892 77.93 155.221 78.5329C155.562 79.1459 155.904 79.8015 156.249 80.4997L154.345 81.5086C154.06 80.9355 153.782 80.3942 153.511 79.8845C153.25 79.3743 152.991 78.896 152.734 78.4497C152.487 78.0135 152.243 77.6093 152 77.237C151.768 76.8749 151.538 76.5553 151.311 76.2784L152.504 76.4267C151.857 77.367 151.27 78.1175 150.743 78.678C150.216 79.2492 149.741 79.6789 149.318 79.9672C148.905 80.2549 148.53 80.45 148.194 80.5524C147.868 80.6542 147.577 80.7116 147.321 80.7244C147.065 80.7373 146.785 80.6873 146.48 80.5744C146.187 80.4717 145.899 80.2673 145.617 79.9611C145.335 79.6655 145.094 79.2397 144.896 78.6837C144.697 78.1276 144.575 77.4075 144.531 76.5233L144.434 74.6057ZM144.823 83.1321L156.539 83.303L156.442 85.5409L144.726 85.37L144.823 83.1321ZM139.888 82.8224L141.019 82.5991C141.067 82.9748 141.108 83.2542 141.143 83.4372C141.177 83.6309 141.216 83.8354 141.26 84.0509L140.868 83.8737C140.975 83.6008 141.179 83.3427 141.478 83.0994C141.765 82.8663 142.09 82.7576 142.453 82.7733C142.836 82.7899 143.142 82.8885 143.369 83.0691C143.596 83.2498 143.757 83.4756 143.852 83.7467C143.947 84.0177 143.988 84.2971 143.976 84.5848C143.969 84.7447 143.952 84.8934 143.924 85.031C143.897 85.1793 143.859 85.3111 143.811 85.4265L142.666 85.2488C142.692 85.1431 142.718 85.0375 142.744 84.9319C142.769 84.8262 142.785 84.7094 142.791 84.5816C142.797 84.443 142.76 84.3133 142.679 84.1924C142.588 84.0817 142.479 84.0235 142.351 84.018C142.17 84.0102 142.007 84.0672 141.863 84.1891C141.719 84.311 141.606 84.4555 141.524 84.6228C141.431 84.8003 141.376 84.9474 141.361 85.0642L141.303 84.1808C141.365 84.4718 141.433 84.747 141.507 85.0064C141.571 85.2654 141.64 85.5087 141.716 85.7362L140.631 86.0095C140.547 85.7389 140.459 85.4202 140.368 85.0532C140.266 84.6965 140.175 84.3242 140.096 83.9364C140.016 83.5593 139.947 83.1879 139.888 82.8224ZM145.822 93.1577C145.728 93.6285 145.698 93.9978 145.732 94.2655C145.766 94.5332 145.842 94.7277 145.959 94.8488C146.076 94.97 146.214 95.0461 146.371 95.0772C146.622 95.1271 146.929 95.1119 147.293 95.0319C147.655 94.9623 148.04 94.8592 148.447 94.7226C148.855 94.586 149.249 94.4358 149.63 94.2721C150.008 94.1188 150.34 93.9781 150.627 93.85L151.496 95.9636C150.8 96.2931 150.122 96.5609 149.461 96.7669C148.811 96.975 148.215 97.1286 147.673 97.2278C147.129 97.3374 146.671 97.3988 146.299 97.4119C145.947 97.4292 145.661 97.5029 145.439 97.6329C145.226 97.7755 145.06 97.9546 144.941 98.1702C144.822 98.3859 144.74 98.6088 144.694 98.839C144.616 99.2366 144.455 99.4983 144.212 99.6242C143.978 99.7626 143.71 99.8017 143.406 99.7415C143.082 99.6772 142.832 99.5134 142.655 99.2501C142.488 98.9993 142.445 98.6646 142.528 98.2461C142.62 97.7858 142.762 97.3954 142.956 97.075C143.151 96.7547 143.407 96.5012 143.727 96.3145C144.047 96.1278 144.433 95.9923 144.884 95.9079L144.491 96.8248C144.214 96.683 143.981 96.4354 143.79 96.0822C143.607 95.7415 143.486 95.3097 143.427 94.7868C143.376 94.2765 143.416 93.6917 143.546 93.0326C143.609 92.7187 143.704 92.3734 143.834 91.9966C143.961 91.6304 144.114 91.2693 144.293 90.9134C144.47 90.5679 144.673 90.2601 144.9 89.9899L146.741 91.1543C146.497 91.5082 146.298 91.8548 146.143 92.1939C145.987 92.5435 145.88 92.8648 145.822 93.1577ZM142.529 98.2477L144.61 99.0903C144.413 99.6992 144.292 100.176 144.248 100.52C144.204 100.865 144.243 101.124 144.366 101.298C144.495 101.486 144.718 101.631 145.032 101.733C145.316 101.825 145.669 101.895 146.091 101.942C146.51 101.999 146.952 102.036 147.418 102.052C147.88 102.079 148.311 102.083 148.708 102.066L148.606 104.354C148.218 104.375 147.777 104.371 147.28 104.345C146.784 104.319 146.28 104.268 145.766 104.191C145.263 104.118 144.788 104.009 144.342 103.864C143.652 103.64 143.125 103.346 142.761 102.982C142.407 102.62 142.179 102.199 142.077 101.717C141.972 101.246 141.964 100.717 142.054 100.129C142.153 99.5444 142.312 98.9174 142.529 98.2477ZM137.779 100.863C137.875 100.569 138.063 100.35 138.345 100.206C138.614 100.068 138.891 100.046 139.175 100.138C139.469 100.233 139.69 100.417 139.837 100.689C139.981 100.971 140.006 101.259 139.91 101.553C139.818 101.838 139.633 102.047 139.354 102.181C139.075 102.314 138.788 102.334 138.494 102.238C138.21 102.146 137.999 101.966 137.862 101.697C137.715 101.425 137.687 101.147 137.779 100.863ZM138.632 98.2298C138.728 97.9355 138.917 97.7164 139.199 97.5723C139.467 97.4351 139.744 97.4126 140.028 97.5046C140.322 97.6 140.543 97.7837 140.69 98.0557C140.834 98.3378 140.859 98.626 140.763 98.9203C140.671 99.2044 140.486 99.4134 140.207 99.5473C139.928 99.6812 139.642 99.7005 139.347 99.6051C139.063 99.5131 138.853 99.3327 138.715 99.064C138.568 98.792 138.54 98.5139 138.632 98.2298ZM137.352 102.472L139.496 102.533C139.442 103.127 139.437 103.691 139.48 104.224C139.519 104.766 139.608 105.261 139.748 105.709C139.888 106.156 140.084 106.541 140.338 106.864C140.601 107.191 140.927 107.441 141.317 107.614C141.727 107.796 142.216 107.903 142.786 107.934C143.355 107.966 143.952 107.963 144.576 107.925L144.646 110.249C144.266 110.291 143.872 110.297 143.465 110.267C143.063 110.252 142.706 110.228 142.394 110.194C142.082 110.161 141.871 110.137 141.761 110.123C141.232 110.051 140.838 110.098 140.578 110.262C140.314 110.437 140.062 110.792 139.824 111.328C139.659 111.698 139.445 111.918 139.181 111.988C138.922 112.071 138.651 112.05 138.368 111.924C138.066 111.79 137.858 111.575 137.745 111.279C137.641 110.988 137.673 110.652 137.842 110.272C138.02 109.872 138.234 109.547 138.486 109.297C138.737 109.047 139.016 108.879 139.322 108.794C139.624 108.718 139.937 108.723 140.261 108.808L139.714 109.213C139.223 108.925 138.812 108.538 138.479 108.051C138.133 107.57 137.862 107.024 137.667 106.412C137.472 105.8 137.35 105.156 137.3 104.48C137.25 103.805 137.267 103.135 137.352 102.472ZM146.495 110.108C146.629 109.806 146.846 109.593 147.146 109.47C147.442 109.356 147.741 109.366 148.043 109.501C148.345 109.635 148.558 109.852 148.681 110.152C148.8 110.462 148.793 110.768 148.658 111.07C148.528 111.362 148.311 111.563 148.005 111.673C147.696 111.792 147.39 111.784 147.087 111.65C146.785 111.516 146.58 111.296 146.47 110.99C146.356 110.695 146.365 110.401 146.495 110.108ZM137.841 110.276L139.664 111.587C139.524 111.814 139.463 112.015 139.481 112.189C139.499 112.363 139.585 112.579 139.739 112.837C139.894 113.095 140.102 113.449 140.363 113.898C140.659 114.394 140.877 114.854 141.016 115.278C141.164 115.708 141.249 116.099 141.271 116.45C141.296 116.817 141.269 117.145 141.19 117.435C141.115 117.739 141.002 118.014 140.851 118.259C140.644 118.595 140.378 118.864 140.053 119.065C139.733 119.28 139.316 119.418 138.803 119.477C138.299 119.543 137.676 119.516 136.935 119.397C136.42 119.318 136 119.297 135.676 119.335C135.352 119.373 135.093 119.458 134.899 119.589C134.7 119.73 134.541 119.895 134.424 120.086C134.211 120.431 133.969 120.62 133.698 120.653C133.436 120.692 133.173 120.63 132.91 120.468C132.628 120.294 132.451 120.053 132.378 119.745C132.314 119.443 132.388 119.119 132.601 118.774C132.875 118.329 133.197 117.97 133.566 117.696C133.936 117.422 134.33 117.271 134.749 117.241L134.805 117.821C134.665 117.622 134.541 117.376 134.433 117.084C134.319 116.801 134.268 116.487 134.28 116.143C134.285 115.809 134.395 115.469 134.607 115.124C134.747 114.897 134.958 114.657 135.239 114.404C135.506 114.155 135.84 113.928 136.241 113.725C136.646 113.536 137.109 113.414 137.631 113.36C137.42 112.992 137.288 112.647 137.235 112.326C137.191 112.011 137.22 111.69 137.32 111.364C137.421 111.038 137.595 110.675 137.841 110.276ZM138.751 115.141C138.559 115.148 138.355 115.173 138.141 115.216C137.926 115.259 137.717 115.324 137.513 115.411C137.318 115.504 137.135 115.617 136.965 115.751C136.79 115.893 136.649 116.05 136.543 116.223C136.431 116.404 136.406 116.596 136.47 116.798C136.542 117.006 136.753 117.142 137.101 117.207C137.247 117.234 137.418 117.252 137.614 117.259C137.813 117.282 138.011 117.285 138.209 117.269C138.401 117.263 138.579 117.228 138.743 117.166C138.901 117.113 139.016 117.028 139.089 116.91C139.162 116.792 139.201 116.647 139.207 116.475C139.213 116.303 139.177 116.106 139.101 115.883C139.035 115.667 138.918 115.419 138.751 115.141ZM132.612 118.756L134.269 120.273C133.964 120.658 133.783 120.963 133.726 121.19C133.677 121.423 133.748 121.643 133.939 121.849C134.138 122.061 134.458 122.328 134.897 122.649L141.02 127.133L139.619 128.901L133.351 124.343C132.853 123.975 132.43 123.607 132.084 123.237C131.739 122.882 131.511 122.491 131.401 122.063C131.284 121.644 131.319 121.161 131.507 120.616C131.687 120.079 132.056 119.459 132.612 118.756ZM128.864 123.473L137.74 131.121L136.23 132.775L127.353 125.128L128.864 123.473ZM118.784 131.516L119.719 133.594C119.175 133.971 118.67 134.347 118.204 134.723C117.737 135.098 117.316 135.455 116.941 135.793C116.557 136.138 116.232 136.447 115.968 136.721C115.695 137.001 115.494 137.226 115.364 137.394C115.133 137.697 114.961 137.991 114.847 138.278C114.734 138.564 114.682 138.834 114.689 139.088C114.697 139.343 114.762 139.557 114.883 139.733C114.968 139.855 115.075 139.963 115.204 140.055C115.333 140.147 115.474 140.219 115.625 140.269C115.768 140.326 115.914 140.348 116.062 140.337C116.207 140.34 116.332 140.305 116.437 140.232C116.577 140.135 116.681 139.985 116.748 139.783C116.807 139.586 116.819 139.37 116.785 139.134C116.748 138.913 116.657 138.697 116.511 138.487C116.408 138.338 116.255 138.21 116.051 138.104C115.848 137.999 115.613 137.922 115.346 137.873C115.076 137.84 114.796 137.839 114.507 137.871L115.791 135.988C116.111 136.038 116.426 136.099 116.735 136.17C117.041 136.256 117.336 136.382 117.621 136.549C117.896 136.721 118.14 136.961 118.353 137.268C118.633 137.671 118.812 138.098 118.891 138.549C118.968 139.015 118.966 139.471 118.886 139.916C118.796 140.368 118.642 140.773 118.424 141.132C118.203 141.506 117.935 141.802 117.619 142.021C117.111 142.374 116.57 142.548 115.996 142.544C115.428 142.548 114.888 142.416 114.377 142.148C113.858 141.885 113.437 141.521 113.114 141.057C112.829 140.645 112.652 140.222 112.585 139.788C112.518 139.355 112.535 138.921 112.637 138.487C112.735 138.068 112.883 137.654 113.08 137.245C113.268 136.842 113.478 136.462 113.711 136.106C113.872 135.851 114.124 135.541 114.466 135.173C114.8 134.812 115.204 134.421 115.678 134.001C116.138 133.579 116.636 133.155 117.173 132.731C117.704 132.298 118.24 131.893 118.784 131.516ZM109.858 138.019C110.367 137.666 110.885 137.346 111.412 137.058C111.939 136.77 112.45 136.533 112.943 136.346C113.428 136.166 113.876 136.044 114.286 135.98L114.364 138.029C114.052 138.141 113.706 138.297 113.325 138.496C112.941 138.711 112.55 138.943 112.152 139.193C111.746 139.449 111.363 139.701 111.004 139.951C110.671 140.182 110.373 140.258 110.111 140.18C109.847 140.117 109.626 139.958 109.45 139.704C109.262 139.432 109.196 139.141 109.252 138.829C109.314 138.526 109.517 138.256 109.858 138.019ZM118.784 131.516C119.73 130.86 120.584 130.378 121.345 130.071C122.091 129.761 122.761 129.595 123.355 129.572C123.947 129.564 124.459 129.676 124.892 129.908C125.326 130.14 125.691 130.47 125.989 130.9C126.184 131.18 126.356 131.476 126.507 131.787C126.655 132.112 126.788 132.435 126.907 132.756C127.016 133.082 127.116 133.376 127.207 133.638L125.299 134.397C125.225 134.214 125.146 134.016 125.062 133.802C124.978 133.587 124.889 133.383 124.793 133.19C124.704 133.005 124.611 132.842 124.513 132.702C124.289 132.378 123.974 132.168 123.57 132.072C123.163 131.99 122.644 132.065 122.012 132.296C121.386 132.535 120.622 132.968 119.719 133.594L118.471 132.357L118.784 131.516ZM118.454 143.253C118.726 143.065 119.022 142.995 119.343 143.046C119.654 143.102 119.904 143.266 120.093 143.538C120.281 143.81 120.35 144.106 120.3 144.426C120.241 144.753 120.076 145.01 119.804 145.199C119.541 145.381 119.251 145.44 118.933 145.375C118.606 145.316 118.349 145.15 118.16 144.878C117.972 144.607 117.91 144.312 117.975 143.994C118.032 143.682 118.191 143.435 118.454 143.253ZM109.911 137.986L110.502 140.152C110.169 140.269 109.906 140.389 109.713 140.514C109.522 140.648 109.395 140.834 109.332 141.071C109.261 141.322 109.245 141.661 109.282 142.089C109.312 142.531 109.382 143.117 109.491 143.847L107.401 144.173C107.364 143.937 107.322 143.641 107.276 143.284C107.22 142.931 107.15 142.633 107.065 142.392C106.998 142.201 106.904 142.047 106.785 141.931C106.658 141.828 106.49 141.768 106.281 141.751C106.065 141.748 105.791 141.804 105.459 141.921C105.197 142.013 104.984 142.115 104.821 142.229C104.651 142.357 104.534 142.539 104.47 142.776C104.4 143.027 104.386 143.376 104.43 143.824C104.468 144.286 104.562 144.892 104.712 145.642L102.607 146.023C102.567 145.778 102.52 145.517 102.469 145.241C102.417 144.965 102.368 144.711 102.32 144.479C102.273 144.247 102.225 144.061 102.175 143.92C102.129 143.789 102.05 143.676 101.937 143.58C101.818 143.497 101.645 143.456 101.419 143.456C101.183 143.46 100.879 143.527 100.506 143.657C100.053 143.816 99.7546 144.028 99.6103 144.294C99.4594 144.573 99.4546 144.913 99.5958 145.316C99.677 145.548 99.7685 145.792 99.8703 146.051C99.9757 146.319 100.102 146.614 100.248 146.935C100.388 147.271 100.565 147.644 100.777 148.056L98.882 148.89C98.508 148.049 98.1804 147.372 97.8992 146.86C97.6181 146.349 97.349 145.968 97.0921 145.719C96.8287 145.484 96.5468 145.357 96.2462 145.338C95.9356 145.322 95.5639 145.39 95.1311 145.542C94.7486 145.676 94.4415 145.671 94.2099 145.526C93.9717 145.395 93.8014 145.183 93.6991 144.891C93.5896 144.579 93.6036 144.281 93.7408 143.995C93.8715 143.723 94.1382 143.517 94.5409 143.375C94.8126 143.28 95.1033 143.206 95.4129 143.154C95.7189 143.092 96.0307 143.079 96.3484 143.115C96.6696 143.16 96.9817 143.277 97.2849 143.464C97.588 143.652 97.8759 143.941 98.1485 144.332L97.8449 144.336C97.8094 143.784 97.8647 143.329 98.011 142.972C98.1573 142.616 98.3872 142.321 98.7006 142.086C99.0176 141.862 99.4228 141.664 99.916 141.491C100.369 141.332 100.793 141.251 101.187 141.248C101.582 141.245 101.933 141.343 102.239 141.541C102.54 141.752 102.778 142.092 102.954 142.562L102.44 142.742C102.444 142.108 102.529 141.609 102.695 141.245C102.862 140.882 103.117 140.594 103.461 140.383C103.805 140.172 104.259 139.968 104.823 139.77C105.165 139.65 105.515 139.567 105.872 139.521C106.232 139.485 106.591 139.557 106.948 139.737C107.308 139.927 107.655 140.303 107.987 140.864L107.183 141.181C107.186 140.513 107.309 139.978 107.553 139.576C107.786 139.177 108.103 138.857 108.504 138.615C108.909 138.382 109.378 138.173 109.911 137.986ZM105.443 150.048C105.695 149.96 105.95 149.978 106.208 150.102C106.456 150.229 106.626 150.424 106.718 150.686C106.81 150.948 106.797 151.201 106.679 151.446C106.551 151.694 106.362 151.862 106.11 151.95C105.848 152.042 105.595 152.029 105.35 151.911C105.106 151.794 104.937 151.604 104.846 151.342C104.754 151.081 104.765 150.822 104.879 150.568C104.993 150.313 105.181 150.14 105.443 150.048ZM105.952 147.631C106.204 147.543 106.459 147.561 106.717 147.685C106.965 147.813 107.135 148.008 107.227 148.269C107.319 148.531 107.306 148.784 107.188 149.029C107.06 149.277 106.871 149.445 106.619 149.534C106.357 149.625 106.104 149.612 105.859 149.495C105.615 149.377 105.446 149.188 105.355 148.926C105.263 148.664 105.274 148.406 105.388 148.151C105.502 147.896 105.69 147.723 105.952 147.631ZM103.612 148.452C103.863 148.364 104.118 148.382 104.377 148.506C104.625 148.633 104.795 148.828 104.887 149.09C104.978 149.352 104.965 149.605 104.848 149.85C104.72 150.098 104.53 150.266 104.279 150.354C104.017 150.446 103.764 150.433 103.519 150.315C103.274 150.198 103.106 150.008 103.014 149.746C102.923 149.485 102.934 149.226 103.048 148.972C103.162 148.717 103.35 148.544 103.612 148.452ZM94.5909 143.359L94.7807 145.597C94.4014 145.657 94.0805 145.745 93.8182 145.862C93.5558 145.978 93.3472 146.162 93.1923 146.414C93.0391 146.675 92.934 147.037 92.8772 147.5C92.8098 147.964 92.7814 148.573 92.792 149.327L90.6667 149.305C90.663 149.144 90.6656 148.954 90.6746 148.737C90.6731 148.521 90.6707 148.3 90.6675 148.074C90.6555 147.86 90.6345 147.658 90.6047 147.468C90.5749 147.279 90.5115 147.116 90.4145 146.98C90.3176 146.844 90.1818 146.736 90.0072 146.655C89.8237 146.587 89.5961 146.547 89.3243 146.536C89.0421 146.526 88.706 146.552 88.3162 146.613C87.9157 146.676 87.6147 146.616 87.4129 146.431C87.2129 146.258 87.0888 146.018 87.0408 145.712C86.9894 145.386 87.057 145.094 87.2435 144.838C87.4211 144.595 87.7153 144.44 88.1263 144.376C88.6005 144.301 89.0383 144.27 89.4398 144.283C89.8307 144.297 90.1817 144.366 90.4927 144.489C90.7948 144.626 91.0578 144.822 91.2817 145.078C91.4967 145.347 91.6584 145.688 91.7668 146.103L91.0081 146.222C91.1183 145.687 91.2968 145.243 91.5438 144.891C91.7819 144.551 92.0685 144.28 92.4036 144.076C92.7387 143.872 93.0978 143.718 93.4811 143.615C93.8522 143.502 94.2221 143.417 94.5909 143.359ZM90.6131 151.127C90.9187 151.079 91.1987 151.143 91.4531 151.319C91.6987 151.507 91.8446 151.749 91.891 152.044C91.9391 152.35 91.8751 152.63 91.6992 152.884C91.5127 153.14 91.2666 153.292 90.961 153.34C90.666 153.387 90.3957 153.316 90.1502 153.128C89.9046 152.939 89.7579 152.693 89.7098 152.387C89.6634 152.092 89.7282 151.817 89.9042 151.563C90.0818 151.319 90.3181 151.174 90.6131 151.127ZM93.35 150.713C93.6556 150.665 93.9356 150.729 94.19 150.905C94.4356 151.093 94.5815 151.335 94.6279 151.63C94.676 151.935 94.612 152.215 94.436 152.47C94.2496 152.726 94.0035 152.878 93.6979 152.926C93.4029 152.972 93.1326 152.902 92.8871 152.713C92.6415 152.525 92.4947 152.278 92.4467 151.973C92.4003 151.678 92.4651 151.403 92.6411 151.149C92.8187 150.905 93.055 150.76 93.35 150.713ZM88.1351 144.375L88.0776 146.62L85.792 146.724C85.5682 146.735 85.3716 146.754 85.2021 146.783C85.0331 146.823 84.8967 146.877 84.7931 146.946C84.6788 147.016 84.5972 147.099 84.5483 147.198C84.4995 147.296 84.4779 147.409 84.4838 147.537C84.4896 147.665 84.5682 147.864 84.7194 148.135C84.8604 148.417 85.1586 148.75 85.614 149.135C85.8582 149.337 86.1242 149.549 86.4119 149.771C86.6895 150.004 86.9558 150.221 87.2106 150.423C87.4659 150.636 87.6774 150.824 87.845 150.987C88.0126 151.15 88.0982 151.269 88.1016 151.344C88.1089 151.503 88.1063 151.68 88.0938 151.872C88.0812 152.065 88.0573 152.243 88.022 152.404C87.976 152.567 87.9121 152.687 87.8303 152.765C87.657 152.944 87.3996 153.154 87.0582 153.393C86.7066 153.644 86.2865 153.915 85.7979 154.204C85.3098 154.504 84.7635 154.817 84.1592 155.144C83.5446 155.482 82.8875 155.821 82.1877 156.163L81.1874 154.255C81.7618 153.972 82.3044 153.696 82.8153 153.427C83.3267 153.169 83.8061 152.912 84.2536 152.657C84.6909 152.413 85.0962 152.17 85.4696 151.929C85.8328 151.698 86.1533 151.47 86.4313 151.244L86.2776 152.436C85.3402 151.785 84.5924 151.195 84.0343 150.665C83.4655 150.136 83.0379 149.659 82.7516 149.234C82.4657 148.82 82.2723 148.444 82.1714 148.107C82.0711 147.781 82.0151 147.49 82.0033 147.234C81.9916 146.978 82.0429 146.698 82.1571 146.394C82.2612 146.101 82.4669 145.814 82.7744 145.533C83.0712 145.252 83.4981 145.014 84.055 144.818C84.612 144.621 85.3327 144.503 86.2171 144.463L88.1351 144.375ZM79.6062 144.729L79.4122 156.444L77.1745 156.343L77.3685 144.627L79.6062 144.729ZM79.9257 139.794L80.1468 140.925C79.771 140.972 79.4915 141.013 79.3084 141.047C79.1147 141.081 78.9101 141.12 78.6945 141.164L78.8725 140.771C79.1452 140.88 79.4029 141.084 79.6456 141.383C79.8781 141.671 79.9862 141.996 79.9698 142.359C79.9524 142.742 79.8532 143.048 79.6721 143.274C79.491 143.501 79.2648 143.662 78.9936 143.756C78.7224 143.851 78.4429 143.891 78.1552 143.878C77.9954 143.871 77.8467 143.854 77.7091 143.826C77.5609 143.798 77.4292 143.76 77.3139 143.712L77.4938 142.567C77.5994 142.593 77.705 142.619 77.8106 142.645C77.9162 142.672 78.0329 142.687 78.1608 142.693C78.2993 142.7 78.4291 142.663 78.5502 142.583C78.6611 142.492 78.7195 142.382 78.7252 142.254C78.7334 142.073 78.6767 141.91 78.5552 141.766C78.4336 141.622 78.2892 141.509 78.1221 141.426C77.9448 141.333 77.7978 141.278 77.6811 141.262L78.5645 141.206C78.2734 141.268 77.9981 141.335 77.7385 141.409C77.4794 141.472 77.236 141.541 77.0084 141.616L76.7372 140.531C77.0079 140.447 77.3268 140.36 77.694 140.27C78.0509 140.168 78.4233 140.078 78.8113 140C79.1886 139.921 79.5601 139.852 79.9257 139.794Z" fill="#FDFFFC"/>
</svg>
