<svg width="954" height="822" viewBox="0 0 954 822" fill="none" xmlns="http://www.w3.org/2000/svg">
<path d="M22 58.4648L0 86.4648V58.8669L22 58.4648Z" fill="#00B89F"/>
<path d="M56 58.4648L34 86.4648V58.8669L56 58.4648Z" fill="#00B89F"/>
<path d="M90 58.4648L68 86.4648V58.8669L90 58.4648Z" fill="#00B89F"/>
<path d="M124 58.4648L102 86.4648V58.8669L124 58.4648Z" fill="#00B89F"/>
<path d="M158 58.4648L136 86.4648V58.8669L158 58.4648Z" fill="#00B89F"/>
<path d="M192 58.4648L170 86.4648V58.8669L192 58.4648Z" fill="#00B89F"/>
<path d="M226 58.4648L204 86.4648V58.8669L226 58.4648Z" fill="#00B89F"/>
<path d="M22 98.4648L0 126.465V98.8669L22 98.4648Z" fill="#00B89F"/>
<path d="M56 98.4648L34 126.465V98.8669L56 98.4648Z" fill="#00B89F"/>
<path d="M90 98.4648L68 126.465V98.8669L90 98.4648Z" fill="#00B89F"/>
<path d="M124 98.4648L102 126.465V98.8669L124 98.4648Z" fill="#00B89F"/>
<path d="M158 98.4648L136 126.465V98.8669L158 98.4648Z" fill="#00B89F"/>
<path d="M192 98.4648L170 126.465V98.8669L192 98.4648Z" fill="#00B89F"/>
<path d="M226 98.4648L204 126.465V98.8669L226 98.4648Z" fill="#00B89F"/>
<path d="M22 138.465L0 166.465V138.867L22 138.465Z" fill="#00B89F"/>
<path d="M56 138.465L34 166.465V138.867L56 138.465Z" fill="#00B89F"/>
<path d="M90 138.465L68 166.465V138.867L90 138.465Z" fill="#00B89F"/>
<path d="M124 138.465L102 166.465V138.867L124 138.465Z" fill="#00B89F"/>
<path d="M158 138.465L136 166.465V138.867L158 138.465Z" fill="#00B89F"/>
<path d="M192 138.465L170 166.465V138.867L192 138.465Z" fill="#00B89F"/>
<path d="M226 138.465L204 166.465V138.867L226 138.465Z" fill="#00B89F"/>
<path d="M22 178.465L0 206.465V178.867L22 178.465Z" fill="#00B89F"/>
<path d="M56 178.465L34 206.465V178.867L56 178.465Z" fill="#00B89F"/>
<path d="M90 178.465L68 206.465V178.867L90 178.465Z" fill="#00B89F"/>
<path d="M124 178.465L102 206.465V178.867L124 178.465Z" fill="#00B89F"/>
<path d="M158 178.465L136 206.465V178.867L158 178.465Z" fill="#00B89F"/>
<path d="M192 178.465L170 206.465V178.867L192 178.465Z" fill="#00B89F"/>
<path d="M226 178.465L204 206.465V178.867L226 178.465Z" fill="#00B89F"/>
<path d="M22 218.465L0 246.465V218.867L22 218.465Z" fill="#00B89F"/>
<path d="M56 218.465L34 246.465V218.867L56 218.465Z" fill="#00B89F"/>
<path d="M90 218.465L68 246.465V218.867L90 218.465Z" fill="#00B89F"/>
<path d="M124 218.465L102 246.465V218.867L124 218.465Z" fill="#00B89F"/>
<path d="M158 218.465L136 246.465V218.867L158 218.465Z" fill="#00B89F"/>
<path d="M192 218.465L170 246.465V218.867L192 218.465Z" fill="#00B89F"/>
<path d="M226 218.465L204 246.465V218.867L226 218.465Z" fill="#00B89F"/>
<path d="M22 258.465L0 286.465V258.867L22 258.465Z" fill="#00B89F"/>
<path d="M56 258.465L34 286.465V258.867L56 258.465Z" fill="#00B89F"/>
<path d="M90 258.465L68 286.465V258.867L90 258.465Z" fill="#00B89F"/>
<path d="M124 258.465L102 286.465V258.867L124 258.465Z" fill="#00B89F"/>
<path d="M158 258.465L136 286.465V258.867L158 258.465Z" fill="#00B89F"/>
<path d="M192 258.465L170 286.465V258.867L192 258.465Z" fill="#00B89F"/>
<path d="M226 258.465L204 286.465V258.867L226 258.465Z" fill="#00B89F"/>
<path d="M22 298.465L0 326.465V298.867L22 298.465Z" fill="#00B89F"/>
<path d="M56 298.465L34 326.465V298.867L56 298.465Z" fill="#00B89F"/>
<path d="M90 298.465L68 326.465V298.867L90 298.465Z" fill="#00B89F"/>
<path d="M124 298.465L102 326.465V298.867L124 298.465Z" fill="#00B89F"/>
<path d="M158 298.465L136 326.465V298.867L158 298.465Z" fill="#00B89F"/>
<path d="M192 298.465L170 326.465V298.867L192 298.465Z" fill="#00B89F"/>
<path d="M226 298.465L204 326.465V298.867L226 298.465Z" fill="#00B89F"/>
<path d="M212.003 821.82L942.355 0.850342L942.355 821.82L212.003 821.82Z" fill="#BD171D"/>
</svg>
