<svg width="226" height="269" viewBox="0 0 226 269" fill="none" xmlns="http://www.w3.org/2000/svg">
<path d="M22 0.464835L0 28.4648V0.866854L22 0.464835Z" fill="#00B89F"/>
<path d="M56 0.464835L34 28.4648V0.866854L56 0.464835Z" fill="#00B89F"/>
<path d="M90 0.464835L68 28.4648V0.866854L90 0.464835Z" fill="#00B89F"/>
<path d="M124 0.464835L102 28.4648V0.866854L124 0.464835Z" fill="#00B89F"/>
<path d="M158 0.464835L136 28.4648V0.866854L158 0.464835Z" fill="#00B89F"/>
<path d="M192 0.464835L170 28.4648V0.866854L192 0.464835Z" fill="#00B89F"/>
<path d="M226 0.464835L204 28.4648V0.866854L226 0.464835Z" fill="#00B89F"/>
<path d="M22 40.4648L0 68.4648V40.8669L22 40.4648Z" fill="#00B89F"/>
<path d="M56 40.4648L34 68.4648V40.8669L56 40.4648Z" fill="#00B89F"/>
<path d="M90 40.4648L68 68.4648V40.8669L90 40.4648Z" fill="#00B89F"/>
<path d="M124 40.4648L102 68.4648V40.8669L124 40.4648Z" fill="#00B89F"/>
<path d="M158 40.4648L136 68.4648V40.8669L158 40.4648Z" fill="#00B89F"/>
<path d="M192 40.4648L170 68.4648V40.8669L192 40.4648Z" fill="#00B89F"/>
<path d="M226 40.4648L204 68.4648V40.8669L226 40.4648Z" fill="#00B89F"/>
<path d="M22 80.4648L0 108.465V80.8669L22 80.4648Z" fill="#00B89F"/>
<path d="M56 80.4648L34 108.465V80.8669L56 80.4648Z" fill="#00B89F"/>
<path d="M90 80.4648L68 108.465V80.8669L90 80.4648Z" fill="#00B89F"/>
<path d="M124 80.4648L102 108.465V80.8669L124 80.4648Z" fill="#00B89F"/>
<path d="M158 80.4648L136 108.465V80.8669L158 80.4648Z" fill="#00B89F"/>
<path d="M192 80.4648L170 108.465V80.8669L192 80.4648Z" fill="#00B89F"/>
<path d="M226 80.4648L204 108.465V80.8669L226 80.4648Z" fill="#00B89F"/>
<path d="M22 120.465L0 148.465V120.867L22 120.465Z" fill="#00B89F"/>
<path d="M56 120.465L34 148.465V120.867L56 120.465Z" fill="#00B89F"/>
<path d="M90 120.465L68 148.465V120.867L90 120.465Z" fill="#00B89F"/>
<path d="M124 120.465L102 148.465V120.867L124 120.465Z" fill="#00B89F"/>
<path d="M158 120.465L136 148.465V120.867L158 120.465Z" fill="#00B89F"/>
<path d="M192 120.465L170 148.465V120.867L192 120.465Z" fill="#00B89F"/>
<path d="M226 120.465L204 148.465V120.867L226 120.465Z" fill="#00B89F"/>
<path d="M22 160.465L0 188.465V160.867L22 160.465Z" fill="#00B89F"/>
<path d="M56 160.465L34 188.465V160.867L56 160.465Z" fill="#00B89F"/>
<path d="M90 160.465L68 188.465V160.867L90 160.465Z" fill="#00B89F"/>
<path d="M124 160.465L102 188.465V160.867L124 160.465Z" fill="#00B89F"/>
<path d="M158 160.465L136 188.465V160.867L158 160.465Z" fill="#00B89F"/>
<path d="M192 160.465L170 188.465V160.867L192 160.465Z" fill="#00B89F"/>
<path d="M226 160.465L204 188.465V160.867L226 160.465Z" fill="#00B89F"/>
<path d="M22 200.465L0 228.465V200.867L22 200.465Z" fill="#00B89F"/>
<path d="M56 200.465L34 228.465V200.867L56 200.465Z" fill="#00B89F"/>
<path d="M90 200.465L68 228.465V200.867L90 200.465Z" fill="#00B89F"/>
<path d="M124 200.465L102 228.465V200.867L124 200.465Z" fill="#00B89F"/>
<path d="M158 200.465L136 228.465V200.867L158 200.465Z" fill="#00B89F"/>
<path d="M192 200.465L170 228.465V200.867L192 200.465Z" fill="#00B89F"/>
<path d="M226 200.465L204 228.465V200.867L226 200.465Z" fill="#00B89F"/>
<path d="M22 240.465L0 268.465V240.867L22 240.465Z" fill="#00B89F"/>
<path d="M56 240.465L34 268.465V240.867L56 240.465Z" fill="#00B89F"/>
<path d="M90 240.465L68 268.465V240.867L90 240.465Z" fill="#00B89F"/>
<path d="M124 240.465L102 268.465V240.867L124 240.465Z" fill="#00B89F"/>
<path d="M158 240.465L136 268.465V240.867L158 240.465Z" fill="#00B89F"/>
<path d="M192 240.465L170 268.465V240.867L192 240.465Z" fill="#00B89F"/>
<path d="M226 240.465L204 268.465V240.867L226 240.465Z" fill="#00B89F"/>
</svg>
