<svg width="40" height="40" viewBox="0 0 40 40" fill="none" xmlns="http://www.w3.org/2000/svg">
<path d="M14.543 7.36598C16.9714 3.01132 18.1847 0.833984 19.9998 0.833984C21.8148 0.833984 23.0281 3.01132 25.4565 7.36598L26.0852 8.49298C26.7752 9.73115 27.1202 10.3502 27.6568 10.7585C28.1935 11.1667 28.8643 11.3182 30.206 11.621L31.425 11.897C36.14 12.9646 38.4956 13.4974 39.0572 15.301C39.6168 17.1027 38.0107 18.9829 34.7964 22.7415L33.9646 23.7132C33.0523 24.7808 32.5942 25.3156 32.3891 25.9749C32.184 26.6362 32.253 27.3491 32.391 28.7732L32.5175 30.0708C33.0024 35.0867 33.2458 37.5937 31.7777 38.7073C30.3095 39.8209 28.1015 38.8051 23.6893 36.7734L22.5451 36.2482C21.2916 35.6694 20.6648 35.3819 19.9998 35.3819C19.3347 35.3819 18.7079 35.6694 17.4544 36.2482L16.3121 36.7734C11.898 38.8051 9.69001 39.8209 8.22376 38.7092C6.75368 37.5937 6.99709 35.0867 7.48201 30.0708L7.60851 28.7751C7.74651 27.3491 7.81551 26.6362 7.60851 25.9768C7.40534 25.3156 6.94726 24.7808 6.03493 23.7152L5.20309 22.7415C1.98884 18.9848 0.382675 17.1046 0.942342 15.301C1.50201 13.4974 3.86143 12.9627 8.57643 11.897L9.79543 11.621C11.1352 11.3182 11.8041 11.1667 12.3427 10.7585C12.8813 10.3502 13.2243 9.73115 13.9143 8.49298L14.543 7.36598Z" fill="#FEC809"/>
</svg>
