<svg width="101" height="95" viewBox="0 0 101 95" fill="none" xmlns="http://www.w3.org/2000/svg">
<g filter="url(#filter0_d_5003_8802)">
<circle cx="45.9181" cy="45.9181" r="44.9181" transform="matrix(-1 0 0 1 96.1133 3)" fill="#C83E43" stroke="#414141" stroke-width="2"/>
<path d="M59.0477 63.8233V34.0108C59.0468 33.7089 58.9635 33.4131 58.807 33.155C58.6504 32.897 58.4264 32.6865 58.1591 32.5463C57.8918 32.4061 57.5913 32.3415 57.29 32.3593C56.9887 32.3772 56.6979 32.4769 56.4491 32.6477L34.9178 47.5539C34.0251 48.1717 34.0251 49.659 34.9178 50.2785L56.4491 65.1847C56.6974 65.3572 56.9883 65.4584 57.2901 65.4773C57.5919 65.4961 57.8931 65.4318 58.161 65.2915C58.4289 65.1512 58.6531 64.9401 58.8095 64.6813C58.9658 64.4224 59.0482 64.1257 59.0477 63.8233Z" fill="#FDFFFC"/>
</g>
<defs>
<filter id="filter0_d_5003_8802" x="0.277039" y="0" width="99.8362" height="99.8359" filterUnits="userSpaceOnUse" color-interpolation-filters="sRGB">
<feFlood flood-opacity="0" result="BackgroundImageFix"/>
<feColorMatrix in="SourceAlpha" type="matrix" values="0 0 0 0 0 0 0 0 0 0 0 0 0 0 0 0 0 0 127 0" result="hardAlpha"/>
<feOffset dy="1"/>
<feGaussianBlur stdDeviation="2"/>
<feComposite in2="hardAlpha" operator="out"/>
<feColorMatrix type="matrix" values="0 0 0 0 0 0 0 0 0 0 0 0 0 0 0 0 0 0 0.25 0"/>
<feBlend mode="normal" in2="BackgroundImageFix" result="effect1_dropShadow_5003_8802"/>
<feBlend mode="normal" in="SourceGraphic" in2="effect1_dropShadow_5003_8802" result="shape"/>
</filter>
</defs>
</svg>
