<svg width="80" height="80" viewBox="0 0 80 80" fill="none" xmlns="http://www.w3.org/2000/svg">
<g filter="url(#filter0_d_3990_956)">
<path d="M40 72C59.8823 72 76 55.8823 76 36C76 16.1178 59.8823 0 40 0C20.1177 0 4 16.1178 4 36C4 55.8823 20.1177 72 40 72Z" fill="#C8102E"/>
<path d="M65.1163 11.0823C64.0716 7.2772 61.0262 6.0869 60.8932 6.03625L60.5197 5.89062L53.188 10.0566L52.118 10.6645L53.0614 11.4559C53.3146 11.6711 58.9242 16.5526 54.6379 26.1256C54.4353 26.5751 54.2137 27.0373 53.9605 27.5122C49.6995 35.6226 35.9478 49.235 31.3322 53.6796L32.3643 24.9606H39.3097L41.1458 20.1615H32.5416L32.6491 17.2174H40.5127L42.3488 12.4182H32.8264L33.0607 5.89696L24.3678 7.74571L24.1778 12.4182H16.3903L14.5479 17.2174H23.9879L23.8676 20.1615H17.5869L15.7445 24.9606H23.6777L22.0251 66.0954L27.736 65.1646L56.7019 32.0074L56.7336 31.9694C63.6981 23.2005 66.5218 16.1727 65.1163 11.076V11.0823Z" fill="#F2F2F2"/>
</g>
<defs>
<filter id="filter0_d_3990_956" x="0" y="0" width="80" height="80" filterUnits="userSpaceOnUse" color-interpolation-filters="sRGB">
<feFlood flood-opacity="0" result="BackgroundImageFix"/>
<feColorMatrix in="SourceAlpha" type="matrix" values="0 0 0 0 0 0 0 0 0 0 0 0 0 0 0 0 0 0 127 0" result="hardAlpha"/>
<feOffset dy="4"/>
<feGaussianBlur stdDeviation="2"/>
<feComposite in2="hardAlpha" operator="out"/>
<feColorMatrix type="matrix" values="0 0 0 0 0 0 0 0 0 0 0 0 0 0 0 0 0 0 0.25 0"/>
<feBlend mode="normal" in2="BackgroundImageFix" result="effect1_dropShadow_3990_956"/>
<feBlend mode="normal" in="SourceGraphic" in2="effect1_dropShadow_3990_956" result="shape"/>
</filter>
</defs>
</svg>
