<svg width="21" height="20" viewBox="0 0 21 20" fill="none" xmlns="http://www.w3.org/2000/svg">
<path d="M17.9463 2.91005C17.0294 1.98416 15.9373 1.25002 14.7338 0.750416C13.5303 0.250812 12.2394 -0.00426317 10.9363 5.38951e-05C5.47629 5.38951e-05 1.02629 4.45005 1.02629 9.91006C1.02629 11.6601 1.48629 13.3601 2.34629 14.8601L0.946289 20.0001L6.19629 18.6201C7.64629 19.4101 9.27629 19.8301 10.9363 19.8301C16.3963 19.8301 20.8463 15.3801 20.8463 9.92006C20.8463 7.27006 19.8163 4.78005 17.9463 2.91005ZM10.9363 18.1501C9.45629 18.1501 8.00629 17.7501 6.73629 17.0001L6.43629 16.8201L3.31629 17.6401L4.14629 14.6001L3.94629 14.2901C3.12384 12.9771 2.68721 11.4593 2.68629 9.91006C2.68629 5.37005 6.38629 1.67005 10.9263 1.67005C13.1263 1.67005 15.1963 2.53005 16.7463 4.09005C17.5139 4.85392 18.1222 5.7626 18.5359 6.76338C18.9496 7.76417 19.1605 8.83714 19.1563 9.92006C19.1763 14.4601 15.4763 18.1501 10.9363 18.1501ZM15.4563 11.9901C15.2063 11.8701 13.9863 11.2701 13.7663 11.1801C13.5363 11.1001 13.3763 11.0601 13.2063 11.3001C13.0363 11.5501 12.5663 12.1101 12.4263 12.2701C12.2863 12.4401 12.1363 12.4601 11.8863 12.3301C11.6363 12.2101 10.8363 11.9401 9.89629 11.1001C9.15629 10.4401 8.66629 9.63006 8.51629 9.38006C8.37629 9.13006 8.49629 9.00006 8.62629 8.87006C8.73629 8.76006 8.87629 8.58006 8.99629 8.44005C9.11629 8.30005 9.16629 8.19005 9.24629 8.03006C9.32629 7.86005 9.28629 7.72006 9.22629 7.60006C9.16629 7.48006 8.66629 6.26006 8.46629 5.76005C8.26629 5.28005 8.05629 5.34005 7.90629 5.33005H7.42629C7.25629 5.33005 6.99629 5.39005 6.76629 5.64005C6.54629 5.89005 5.90629 6.49005 5.90629 7.71005C5.90629 8.93005 6.79629 10.1101 6.91629 10.2701C7.03629 10.4401 8.66629 12.9401 11.1463 14.0101C11.7363 14.2701 12.1963 14.4201 12.5563 14.5301C13.1463 14.7201 13.6863 14.6901 14.1163 14.6301C14.5963 14.5601 15.5863 14.0301 15.7863 13.4501C15.9963 12.8701 15.9963 12.3801 15.9263 12.2701C15.8563 12.1601 15.7063 12.1101 15.4563 11.9901Z" fill="#FFC681"/>
</svg>
