<svg width="44" height="44" viewBox="0 0 44 44" fill="none" xmlns="http://www.w3.org/2000/svg">
<path d="M10.6068 43.3836C8.16936 43.1022 5.89911 42.0034 4.16629 40.2662C2.43348 38.529 1.34033 36.256 1.06511 33.8178C0.674257 30.1321 0.338257 26.347 0.338257 22.4898C0.338257 18.6327 0.670828 14.8441 1.06511 11.1618C1.34033 8.72367 2.43348 6.45067 4.16629 4.71349C5.89911 2.97632 8.16936 1.87747 10.6068 1.59613C14.3131 1.1847 18.1188 0.828125 22 0.828125C25.8811 0.828125 29.6868 1.18127 33.3931 1.59613C35.8306 1.87747 38.1008 2.97632 39.8336 4.71349C41.5665 6.45067 42.6596 8.72367 42.9348 11.1618C43.3291 14.8476 43.6617 18.6327 43.6617 22.4898C43.6617 26.347 43.3291 30.1321 42.9348 33.8178C42.6596 36.256 41.5665 38.529 39.8336 40.2662C38.1008 42.0034 35.8306 43.1022 33.3931 43.3836C31.9531 43.5458 30.4983 43.691 29.0285 43.819C28.7948 43.8385 28.5595 43.8091 28.3376 43.7327C28.1158 43.6564 27.9123 43.5346 27.7401 43.3753C27.5679 43.216 27.4307 43.0226 27.3373 42.8074C27.244 42.5922 27.1964 42.3599 27.1977 42.1253V32.8853H32.416C32.8706 32.8853 33.3067 32.7047 33.6282 32.3832C33.9496 32.0617 34.1303 31.6256 34.1303 31.171V25.9356C34.1303 25.4809 33.9496 25.0449 33.6282 24.7234C33.3067 24.4019 32.8706 24.2213 32.416 24.2213H27.1977V20.7584C27.1972 20.3031 27.2866 19.8521 27.4606 19.4314C27.6347 19.0106 27.89 18.6283 28.2119 18.3064C28.5339 17.9844 28.9162 17.7291 29.3369 17.5551C29.7577 17.381 30.2086 17.2917 30.664 17.2921H32.416C32.8706 17.2921 33.3067 17.1115 33.6282 16.79C33.9496 16.4685 34.1303 16.0325 34.1303 15.5778V12.091C34.1303 11.1726 33.7654 10.2918 33.116 9.64237C32.4666 8.99296 31.5858 8.62813 30.6674 8.62813H28.9325C26.1752 8.62813 23.5307 9.72324 21.5807 11.6727C19.6306 13.6221 18.5346 16.2662 18.5337 19.0236V24.2213H13.3154C12.8607 24.2213 12.4247 24.4019 12.1032 24.7234C11.7817 25.0449 11.6011 25.4809 11.6011 25.9356V31.171C11.6011 31.6256 11.7817 32.0617 12.1032 32.3832C12.4247 32.7047 12.8607 32.8853 13.3154 32.8853H18.5371V42.2624C18.5396 42.4943 18.494 42.7243 18.4032 42.9377C18.3124 43.1512 18.1784 43.3435 18.0096 43.5026C17.8409 43.6617 17.641 43.7841 17.4226 43.8622C17.2041 43.9403 16.9719 43.9722 16.7405 43.9561C14.6933 43.809 12.6459 43.6181 10.6068 43.3836Z" fill="#FDFFFC"/>
</svg>
