<svg width="16" height="17" viewBox="0 0 16 17" fill="none" xmlns="http://www.w3.org/2000/svg">
<g clip-path="url(#clip0_6109_4789)">
<path d="M16 8.5498C16 4.1318 12.418 0.549805 8 0.549805C3.582 0.549805 0 4.1318 0 8.5498C0 12.5431 2.92533 15.8525 6.75 16.4525V10.8625H4.71867V8.54914H6.75V6.7878C6.75 4.78314 7.94467 3.67514 9.772 3.67514C10.6467 3.67514 11.5627 3.8318 11.5627 3.8318V5.80047H10.5533C9.55933 5.80047 9.24933 6.41714 9.24933 7.0498V8.5498H11.468L11.1133 10.8631H9.24933V16.4531C13.0747 15.8525 16 12.5425 16 8.5498Z" fill="white"/>
</g>
<defs>
<clipPath id="clip0_6109_4789">
<rect width="16" height="16" fill="white" transform="translate(0 0.5)"/>
</clipPath>
</defs>
</svg>
