<svg width="16" height="17" viewBox="0 0 16 17" fill="none" xmlns="http://www.w3.org/2000/svg">
<g clip-path="url(#clip0_6109_4793)">
<rect y="0.5" width="16" height="16" rx="3.33333" fill="white"/>
<path d="M7.9987 2.83301C6.45925 2.83301 6.26706 2.84009 5.66261 2.86701C5.05911 2.89534 4.64828 2.99026 4.28703 3.13051C3.91445 3.27501 3.59806 3.46909 3.28309 3.78406C2.96811 4.09904 2.77356 4.41495 2.62953 4.78801C2.48928 5.14926 2.39389 5.56009 2.36603 6.16359C2.3377 6.76804 2.33203 6.96023 2.33203 8.49967C2.33203 10.0391 2.33911 10.2313 2.36603 10.8358C2.39436 11.4388 2.48928 11.8501 2.62953 12.2113C2.77403 12.5835 2.96811 12.9003 3.28309 13.2153C3.59806 13.5298 3.91398 13.7248 4.28703 13.8688C4.64875 14.0086 5.05959 14.1045 5.66261 14.1323C6.26706 14.1607 6.45925 14.1663 7.9987 14.1663C9.53814 14.1663 9.73034 14.1593 10.3348 14.1323C10.9378 14.104 11.3491 14.0086 11.7104 13.8688C12.0825 13.7243 12.3993 13.5298 12.7143 13.2153C13.0288 12.9003 13.2238 12.5849 13.3679 12.2113C13.5076 11.8501 13.6035 11.4388 13.6314 10.8358C13.6597 10.2313 13.6654 10.0391 13.6654 8.49967C13.6654 6.96023 13.6583 6.76804 13.6314 6.16359C13.603 5.56056 13.5076 5.14879 13.3679 4.78801C13.2234 4.41542 13.0288 4.09904 12.7143 3.78406C12.3993 3.46909 12.0839 3.27454 11.7104 3.13051C11.3491 2.99026 10.9378 2.89487 10.3348 2.86701C9.73034 2.83867 9.53814 2.83301 7.9987 2.83301ZM7.9987 3.85301C9.51123 3.85301 9.69161 3.86056 10.289 3.88654C10.8415 3.91251 11.1413 4.00412 11.3406 4.08251C11.606 4.18498 11.7939 4.30776 11.9932 4.50562C12.1911 4.70395 12.3139 4.89237 12.4163 5.15776C12.4938 5.35704 12.5863 5.6569 12.6114 6.2094C12.6383 6.80723 12.6444 6.98667 12.6444 8.49967C12.6444 10.0127 12.6373 10.1926 12.6095 10.79C12.5807 11.3425 12.4886 11.6423 12.4107 11.8416C12.3049 12.107 12.1845 12.2949 11.9861 12.4942C11.7883 12.6921 11.597 12.8148 11.3345 12.9173C11.1361 12.9948 10.8316 13.0873 10.2791 13.1123C9.67745 13.1393 9.50036 13.1454 7.98453 13.1454C6.46823 13.1454 6.29114 13.1383 5.69 13.1105C5.13703 13.0816 4.83245 12.9896 4.63411 12.9116C4.36542 12.8059 4.18078 12.6855 3.98292 12.4871C3.78411 12.2893 3.65709 12.098 3.55792 11.8355C3.48 11.6371 3.38839 11.3325 3.35959 10.78C3.33834 10.185 3.33078 10.0013 3.33078 8.49259C3.33078 6.98337 3.33834 6.7992 3.35959 6.19712C3.38839 5.64462 3.48 5.34051 3.55792 5.14217C3.65709 4.87301 3.78411 4.68884 3.98292 4.49004C4.18078 4.29217 4.36542 4.16467 4.63411 4.06598C4.83245 3.98759 5.13042 3.89551 5.68292 3.86717C6.285 3.84592 6.46209 3.83884 7.97745 3.83884L7.9987 3.85301ZM7.9987 5.58984C6.39078 5.58984 5.08886 6.89317 5.08886 8.49967C5.08886 10.1076 6.3922 11.4095 7.9987 11.4095C9.60661 11.4095 10.9085 10.1062 10.9085 8.49967C10.9085 6.89176 9.6052 5.58984 7.9987 5.58984ZM7.9987 10.3886C6.95509 10.3886 6.10981 9.54329 6.10981 8.49967C6.10981 7.45606 6.95509 6.61079 7.9987 6.61079C9.04231 6.61079 9.88759 7.45606 9.88759 8.49967C9.88759 9.54329 9.04231 10.3886 7.9987 10.3886ZM11.7038 5.47509C11.7038 5.85051 11.3987 6.15509 11.0238 6.15509C10.6483 6.15509 10.3438 5.85004 10.3438 5.47509C10.3438 5.10015 10.6488 4.79556 11.0238 4.79556C11.3982 4.79509 11.7038 5.10015 11.7038 5.47509Z" fill="#110000"/>
</g>
<defs>
<clipPath id="clip0_6109_4793">
<rect y="0.5" width="16" height="16" rx="3.33333" fill="white"/>
</clipPath>
</defs>
</svg>
