<svg width="16" height="16" viewBox="0 0 16 16" fill="none" xmlns="http://www.w3.org/2000/svg">
<g clip-path="url(#clip0_3923_17440)">
<path d="M7.99996 4.44531C7.22972 4.44531 6.4966 4.68771 5.88012 5.14611C5.7382 5.25155 5.70876 5.45203 5.8142 5.59379C5.91964 5.73571 6.12044 5.76515 6.26188 5.65971C6.76716 5.28387 7.36812 5.08531 7.9998 5.08531C9.60732 5.08531 10.915 6.39299 10.915 8.00051C10.915 8.80787 10.5924 9.55891 10.0067 10.1149C9.87852 10.2365 9.87324 10.4391 9.995 10.5672C10.0579 10.6335 10.1424 10.6669 10.2272 10.6669C10.3062 10.6669 10.3856 10.6378 10.4473 10.5789C11.1619 9.90083 11.5552 8.98515 11.5552 8.00051C11.5552 6.04019 9.96028 4.44531 7.99996 4.44531Z" fill="#1A1A1A"/>
<path d="M9.2093 10.6531C8.82882 10.8269 8.42194 10.9149 8.00002 10.9149C6.3925 10.9149 5.08482 9.6072 5.08482 7.99968C5.08482 7.38176 5.27554 6.79152 5.6365 6.2928C5.74018 6.1496 5.70802 5.9496 5.56482 5.84608C5.42146 5.74224 5.22162 5.7744 5.1181 5.91776C4.67762 6.52624 4.44482 7.24624 4.44482 7.99968C4.44482 9.96 6.0397 11.5549 8.00002 11.5549C8.51426 11.5549 9.01058 11.4474 9.47506 11.2354C9.63586 11.1621 9.70674 10.9722 9.6333 10.8114C9.55986 10.6506 9.36962 10.5797 9.2093 10.6531Z" fill="#1A1A1A"/>
<path d="M10.3345 0.800781H5.66605C2.98301 0.800781 0.800293 2.9835 0.800293 5.66654V10.3352C0.800293 13.0181 2.98301 15.2008 5.66605 15.2008H10.3347C13.0176 15.2008 15.2003 13.0181 15.2003 10.335V5.66654C15.2003 2.9835 13.0176 0.800781 10.3345 0.800781ZM14.5603 10.335C14.5603 12.6651 12.6646 14.5608 10.3345 14.5608H5.66605C3.33597 14.5608 1.44029 12.6651 1.44029 10.335V5.66654C1.44029 3.33646 3.33597 1.44078 5.66605 1.44078H10.3347C12.6646 1.44078 14.5603 3.33646 14.5603 5.66654V10.335Z" fill="#1A1A1A"/>
<path d="M11.8904 2.9082C11.2285 2.9082 10.6899 3.44676 10.6899 4.10868C10.6899 4.7706 11.2285 5.30916 11.8904 5.30916C12.5523 5.30916 13.0909 4.7706 13.0909 4.10868C13.0909 3.44676 12.5525 2.9082 11.8904 2.9082ZM11.8904 4.66916C11.5813 4.66916 11.3299 4.4178 11.3299 4.10868C11.3299 3.79956 11.5813 3.5482 11.8904 3.5482C12.1995 3.5482 12.4509 3.79956 12.4509 4.10868C12.4509 4.4178 12.1995 4.66916 11.8904 4.66916Z" fill="#1A1A1A"/>
</g>
<defs>
<clipPath id="clip0_3923_17440">
<rect width="16" height="16" fill="white"/>
</clipPath>
</defs>
</svg>
