<svg width="17" height="16" viewBox="0 0 17 16" fill="none" xmlns="http://www.w3.org/2000/svg">
<path d="M4.10846 15.4374H1.13346C0.920964 15.4374 0.779297 15.2957 0.779297 15.0832V5.44987C0.779297 5.23737 0.920964 5.0957 1.13346 5.0957H4.1793C4.3918 5.0957 4.53346 5.23737 4.53346 5.44987V15.0832C4.46263 15.2957 4.32096 15.4374 4.10846 15.4374ZM1.48763 14.729H3.82513V5.80404H1.48763V14.729Z" fill="#1A1A1A"/>
<path d="M4.10846 15.4374H1.13346C0.920964 15.4374 0.779297 15.2957 0.779297 15.0832V5.44987C0.779297 5.23737 0.920964 5.0957 1.13346 5.0957H4.1793C4.3918 5.0957 4.53346 5.23737 4.53346 5.44987V15.0832C4.46263 15.2957 4.32096 15.4374 4.10846 15.4374ZM1.48763 14.729H3.82513V5.80404H1.48763V14.729Z" fill="#1A1A1A"/>
<path d="M4.10846 15.4374H1.13346C0.920964 15.4374 0.779297 15.2957 0.779297 15.0832V5.44987C0.779297 5.23737 0.920964 5.0957 1.13346 5.0957H4.1793C4.3918 5.0957 4.53346 5.23737 4.53346 5.44987V15.0832C4.46263 15.2957 4.32096 15.4374 4.10846 15.4374ZM1.48763 14.729H3.82513V5.80404H1.48763V14.729Z" fill="#1A1A1A"/>
<path d="M16.292 15.4384H12.8212C12.6087 15.4384 12.467 15.2967 12.467 15.0842V10.9759C12.467 10.1259 12.2545 9.13425 11.1212 9.13425C10.342 9.13425 9.98783 9.63008 9.77533 10.1259C9.70449 10.2676 9.70449 10.4801 9.70449 10.6926V15.1551C9.70449 15.3676 9.56283 15.5092 9.35033 15.5092H6.02116C5.95033 15.5092 5.80866 15.4384 5.73783 15.4384C5.66699 15.4384 5.66699 15.1551 5.66699 15.0842C5.66699 15.0134 5.66699 6.23008 5.66699 5.45091C5.66699 5.38008 5.66699 5.23841 5.73783 5.16758C5.80866 5.16758 5.87949 5.09674 6.02116 5.09674H9.42116C9.63366 5.09674 9.77533 5.23841 9.77533 5.45091V5.87591C10.342 5.38008 11.2628 4.95508 12.467 4.95508C15.0878 4.95508 16.6462 6.79674 16.6462 9.70091V15.0842C16.6462 15.2967 16.5045 15.4384 16.292 15.4384ZM13.1753 14.7301H15.9378V9.70091C15.9378 7.22174 14.6628 5.66341 12.467 5.66341C10.8378 5.66341 9.91699 6.51341 9.77533 7.00925C9.70449 7.15091 9.56283 7.29258 9.35033 7.22174C9.20866 7.22174 9.06699 7.08008 9.06699 6.86758V5.80508H6.37533V14.7301H9.06699V10.6217C9.06699 10.3384 9.06699 10.0551 9.13783 9.77174C9.49199 8.85091 10.2003 8.35508 11.1212 8.35508C12.3962 8.35508 13.1753 9.27591 13.1753 10.9051V14.7301Z" fill="#1A1A1A"/>
<path d="M16.292 15.4384H12.8212C12.6087 15.4384 12.467 15.2967 12.467 15.0842V10.9759C12.467 10.1259 12.2545 9.13425 11.1212 9.13425C10.342 9.13425 9.98783 9.63008 9.77533 10.1259C9.70449 10.2676 9.70449 10.4801 9.70449 10.6926V15.1551C9.70449 15.3676 9.56283 15.5092 9.35033 15.5092H6.02116C5.95033 15.5092 5.80866 15.4384 5.73783 15.4384C5.66699 15.4384 5.66699 15.1551 5.66699 15.0842C5.66699 15.0134 5.66699 6.23008 5.66699 5.45091C5.66699 5.38008 5.66699 5.23841 5.73783 5.16758C5.80866 5.16758 5.87949 5.09674 6.02116 5.09674H9.42116C9.63366 5.09674 9.77533 5.23841 9.77533 5.45091V5.87591C10.342 5.38008 11.2628 4.95508 12.467 4.95508C15.0878 4.95508 16.6462 6.79674 16.6462 9.70091V15.0842C16.6462 15.2967 16.5045 15.4384 16.292 15.4384ZM13.1753 14.7301H15.9378V9.70091C15.9378 7.22174 14.6628 5.66341 12.467 5.66341C10.8378 5.66341 9.91699 6.51341 9.77533 7.00925C9.70449 7.15091 9.56283 7.29258 9.35033 7.22174C9.20866 7.22174 9.06699 7.08008 9.06699 6.86758V5.80508H6.37533V14.7301H9.06699V10.6217C9.06699 10.3384 9.06699 10.0551 9.13783 9.77174C9.49199 8.85091 10.2003 8.35508 11.1212 8.35508C12.3962 8.35508 13.1753 9.27591 13.1753 10.9051V14.7301Z" fill="#1A1A1A"/>
<path d="M2.55033 4.6C1.27533 4.6 0.354492 3.75 0.354492 2.61667C0.354492 1.4125 1.27533 0.5625 2.55033 0.5625C3.82533 0.5625 4.67533 1.4125 4.74616 2.54583C4.74616 3.75 3.82533 4.6 2.55033 4.6ZM2.55033 1.27083C1.62949 1.27083 1.06283 1.76667 1.06283 2.61667C1.06283 3.39583 1.62949 3.9625 2.55033 3.9625C3.47116 3.9625 4.03783 3.46667 4.03783 2.61667C4.03783 1.76667 3.47116 1.27083 2.55033 1.27083Z" fill="#1A1A1A"/>
</svg>
