<svg width="43" height="44" viewBox="0 0 43 44" fill="none" xmlns="http://www.w3.org/2000/svg">
<g clip-path="url(#clip0_3990_13350)">
<path d="M36.636 37.5878H30.2677V27.6118C30.2677 25.2317 30.2183 22.1701 26.9481 22.1701C23.6285 22.1701 23.1211 24.7587 23.1211 27.4355V37.5878H16.755V17.0703H22.8696V19.8653H22.9534C23.8069 18.2528 25.886 16.5543 28.9906 16.5543C35.4428 16.5543 36.636 20.7984 36.636 26.3261V37.5878ZM9.56105 14.2624C7.50995 14.2624 5.86305 12.6048 5.86305 10.5644C5.86305 8.52406 7.5121 6.86641 9.56105 6.86641C10.5418 6.86641 11.4824 7.25602 12.1759 7.94953C12.8694 8.64304 13.2591 9.58364 13.2591 10.5644C13.2591 11.5452 12.8694 12.4858 12.1759 13.1793C11.4824 13.8728 10.5418 14.2624 9.56105 14.2624ZM12.7517 37.5899H6.36615V17.0703H12.7517V37.5899ZM39.8223 0.945312H3.1734C1.419 0.945312 0 2.33206 0 4.04131V40.8493C0 42.5586 1.419 43.9453 3.1734 43.9453H39.8137C41.566 43.9453 43 42.5607 43 40.8493V4.04131C43 2.33421 41.566 0.945312 39.8137 0.945312H39.8223Z" fill="#FDFFFC"/>
</g>
<defs>
<clipPath id="clip0_3990_13350">
<rect width="43" height="43" fill="white" transform="translate(0 0.945312)"/>
</clipPath>
</defs>
</svg>
