<svg width="44" height="45" viewBox="0 0 44 45" fill="none" xmlns="http://www.w3.org/2000/svg">
<path fill-rule="evenodd" clip-rule="evenodd" d="M8 0.445312C5.87827 0.445313 3.84344 1.28817 2.34315 2.78846C0.842855 4.28875 0 6.32358 0 8.44531V36.4453C0 38.567 0.842855 40.6019 2.34315 42.1022C3.84344 43.6025 5.87827 44.4453 8 44.4453H36C38.1217 44.4453 40.1566 43.6025 41.6569 42.1022C43.1571 40.6019 44 38.567 44 36.4453V8.44531C44 6.32358 43.1571 4.28875 41.6569 2.78846C40.1566 1.28817 38.1217 0.445313 36 0.445312H8ZM22 7.69931C20.566 7.69931 18.378 8.05731 16.54 9.61931C14.818 11.0833 13.498 13.5213 13.31 17.4433L12.914 17.2833C12.1865 16.9979 11.3778 16.9997 10.6516 17.2883C9.92544 17.5769 9.33611 18.1308 9.00301 18.8377C8.66991 19.5445 8.61795 20.3516 8.85766 21.0954C9.09737 21.8391 9.61082 22.464 10.294 22.8433L13.02 24.0933C12.66 24.6333 12.082 25.3313 11.354 26.0593C10.346 27.0653 9.126 28.0633 7.974 28.7213C7.55115 28.9531 7.22859 29.3326 7.068 29.7873C6.98019 30.049 6.97533 30.3314 7.05408 30.596C7.13284 30.8605 7.29137 31.0943 7.508 31.2653C8.242 31.8693 9.362 32.3533 10.668 32.4713C10.7747 32.9926 11.0187 33.4073 11.4 33.7153C11.89 34.1113 12.512 34.2433 13.054 34.2953C13.464 34.3353 13.91 34.3353 14.302 34.3353H14.662C15.178 34.3413 15.512 34.3753 15.708 34.4573C15.978 34.5693 16.304 34.7733 16.728 35.0553L16.982 35.2233C17.33 35.4573 17.722 35.7193 18.138 35.9673C19.184 36.5913 20.482 37.1913 22 37.1913C23.518 37.1913 24.816 36.5913 25.862 35.9653C26.278 35.7193 26.67 35.4573 27.016 35.2253C27.1053 35.164 27.1907 35.1073 27.272 35.0553C27.696 34.7733 28.024 34.5693 28.292 34.4573C28.488 34.3753 28.822 34.3413 29.338 34.3353H29.698C30.09 34.3353 30.538 34.3353 30.946 34.2953C31.486 34.2433 32.11 34.1113 32.6 33.7153C32.9847 33.4013 33.2443 32.9601 33.332 32.4713C34.638 32.3533 35.758 31.8713 36.492 31.2653C36.7086 31.0943 36.8672 30.8605 36.9459 30.596C37.0247 30.3314 37.0198 30.049 36.932 29.7873C36.7719 29.333 36.4501 28.9535 36.028 28.7213C34.874 28.0613 33.652 27.0653 32.648 26.0613C32.0326 25.458 31.4742 24.7993 30.98 24.0933L33.706 22.8453C34.3892 22.466 34.9026 21.8411 35.1423 21.0974C35.382 20.3536 35.3301 19.5465 34.997 18.8397C34.6639 18.1328 34.0746 17.5789 33.3484 17.2903C32.6222 17.0017 31.8135 16.9999 31.086 17.2853L30.69 17.4433C30.502 13.5233 29.182 11.0833 27.46 9.61931C25.622 8.05731 23.434 7.69931 22 7.69931Z" fill="#FDFFFC"/>
</svg>
