<svg width="16" height="16" viewBox="0 0 16 16" fill="none" xmlns="http://www.w3.org/2000/svg">
<g clip-path="url(#clip0_3923_17442)">
<path d="M8.00003 15.6528C7.5236 15.6523 7.05532 15.5297 6.63975 15.2964L5.03616 14.3926C4.77121 14.2465 4.45622 14.2212 4.17141 14.3231L3.60636 14.5273C2.91209 14.7773 2.14346 14.4416 1.85509 13.7623C1.80721 13.6451 1.66818 13.5668 1.51603 13.5668H1.04673C0.587366 13.5684 0.181089 13.2694 0.0461307 12.8304C-0.0888279 12.3914 0.0792338 11.9157 0.460046 11.659L1.60732 10.8811C2.25003 10.4474 2.72901 9.81098 2.9676 9.07329L1.81154 8.61252C1.18997 8.35699 0.893187 7.64578 1.14884 7.02421C1.4045 6.40251 2.11558 6.10585 2.73728 6.36138L3.48032 6.65689V4.87518C3.48032 2.37896 5.50393 0.355469 8.00003 0.355469C10.4961 0.355469 12.5197 2.37896 12.5197 4.87518V6.65689L13.2672 6.35705C13.8901 6.10267 14.6012 6.40136 14.8555 7.02421C15.1101 7.64705 14.8114 8.35813 14.1885 8.61252L13.0369 9.07329C13.2754 9.81098 13.7544 10.4474 14.3971 10.8811L15.54 11.659C15.921 11.9157 16.089 12.3914 15.9539 12.8304C15.819 13.2694 15.4127 13.5684 14.9533 13.5668H14.4884C14.3362 13.5668 14.1972 13.6451 14.1494 13.7623C13.8609 14.4439 13.0892 14.7801 12.3937 14.5273L11.8288 14.3231C11.5437 14.2218 11.2291 14.247 10.9639 14.3926L9.36031 15.2964C8.94474 15.5297 8.47646 15.6523 8.00003 15.6528ZM4.52332 13.5668C4.82163 13.5664 5.11497 13.6428 5.37521 13.7884L6.9788 14.6924C7.61476 15.0419 8.3853 15.0419 9.02126 14.6924L10.625 13.7884C11.0663 13.5433 11.5916 13.499 12.0678 13.6667L12.6327 13.8711C12.9801 13.9883 13.3599 13.8229 13.5105 13.4886C13.6714 13.1149 14.0538 12.8715 14.4884 12.8715H14.9533C15.1056 12.8711 15.2399 12.7717 15.2847 12.6263C15.3296 12.4807 15.2746 12.323 15.1489 12.237L14.0016 11.4591C13.1295 10.8703 12.5129 9.97267 12.2763 8.94724L12.2111 8.65606L13.9278 7.96943C14.1047 7.90195 14.2312 7.74382 14.2582 7.55628C14.285 7.36886 14.2083 7.18157 14.0575 7.06699C13.9068 6.9524 13.7057 6.92846 13.5323 7.0046L11.8243 7.68691V4.87518C11.8243 2.76308 10.1121 1.05076 8.00003 1.05076C5.88793 1.05076 4.17574 2.76308 4.17574 4.87518V7.68691L2.47208 7.0046C2.31089 6.93661 2.12628 6.95329 1.97973 7.04916C1.83331 7.14516 1.74419 7.30762 1.74203 7.48269C1.7419 7.6962 1.87317 7.88782 2.07229 7.9651L3.78894 8.65606L3.72375 8.94724C3.48719 9.97267 2.87059 10.8703 1.99845 11.4591L0.851172 12.237C0.725507 12.323 0.670505 12.4807 0.715322 12.6263C0.760266 12.7717 0.89446 12.8711 1.04673 12.8715H1.51171C1.94625 12.8715 2.33304 13.1149 2.48952 13.4886C2.64014 13.8229 3.01993 13.9883 3.36739 13.8711L3.9323 13.6667C4.12214 13.5996 4.32203 13.5658 4.52332 13.5668Z" fill="#1A1A1A"/>
</g>
<defs>
<clipPath id="clip0_3923_17442">
<rect width="16" height="16" fill="white"/>
</clipPath>
</defs>
</svg>
