<svg width="48" height="47" viewBox="0 0 48 47" fill="none" xmlns="http://www.w3.org/2000/svg">
<path fill-rule="evenodd" clip-rule="evenodd" d="M12.5383 1.07416C16.2205 0.662734 20.064 0.302734 24 0.302734C27.936 0.302734 31.7794 0.662734 35.4617 1.07416C38.2605 1.39508 40.8675 2.65601 42.8567 4.6508C44.8459 6.64559 46.0995 9.25622 46.4125 12.0559C46.8068 15.721 47.1428 19.537 47.1428 23.4456C47.1428 27.3542 46.8068 31.1702 46.4125 34.8353C46.0995 37.635 44.8459 40.2456 42.8567 42.2404C40.8675 44.2352 38.2605 45.4961 35.4617 45.817C31.7794 46.2284 27.936 46.5884 24 46.5884C20.064 46.5884 16.2205 46.2284 12.5383 45.817C9.7395 45.4961 7.1324 44.2352 5.14322 42.2404C3.15403 40.2456 1.90044 37.635 1.5874 34.8353C1.19312 31.1702 0.857117 27.3542 0.857117 23.4456C0.857117 19.537 1.19312 15.721 1.5874 12.0559C1.90044 9.25622 3.15403 6.64559 5.14322 4.6508C7.1324 2.65601 9.7395 1.39508 12.5383 1.07416ZM28.5668 9.32673C28.4485 8.81373 28.1454 8.36225 27.7154 8.05843C27.2854 7.75461 26.7586 7.61972 26.2356 7.67949C25.7125 7.73926 25.2297 7.9895 24.8793 8.38248C24.529 8.77547 24.3356 9.28368 24.336 9.81016V29.617C24.336 30.6694 24.0239 31.6982 23.4392 32.5733C22.8545 33.4483 22.0235 34.1304 21.0511 34.5331C20.0788 34.9359 19.0089 35.0412 17.9767 34.8359C16.9445 34.6306 15.9964 34.1238 15.2522 33.3796C14.508 32.6355 14.0013 31.6873 13.7959 30.6551C13.5906 29.6229 13.696 28.553 14.0987 27.5807C14.5015 26.6084 15.1835 25.7773 16.0586 25.1927C16.9336 24.608 17.9624 24.2959 19.0148 24.2959C19.5832 24.2959 20.1282 24.0701 20.5301 23.6682C20.9319 23.2664 21.1577 22.7213 21.1577 22.153C21.1577 21.5847 20.9319 21.0397 20.5301 20.6378C20.1282 20.2359 19.5832 20.0102 19.0148 20.0102C17.1148 20.0102 15.2574 20.5736 13.6775 21.6292C12.0977 22.6848 10.8664 24.1852 10.1393 25.9406C9.41213 27.6961 9.22188 29.6277 9.59257 31.4912C9.96325 33.3548 10.8782 35.0666 12.2218 36.4101C13.5653 37.7536 15.2771 38.6686 17.1406 39.0393C19.0042 39.41 20.9358 39.2197 22.6912 38.4926C24.4466 37.7655 25.947 36.5341 27.0026 34.9543C28.0583 33.3745 28.6217 31.5171 28.6217 29.617V17.6513C30.6788 19.3999 33.3325 20.3599 36.4457 20.3599C37.014 20.3599 37.5591 20.1341 37.9609 19.7322C38.3628 19.3304 38.5885 18.7853 38.5885 18.217C38.5885 17.6487 38.3628 17.1037 37.9609 16.7018C37.5591 16.2999 37.014 16.0742 36.4457 16.0742C34.1828 16.0742 32.5028 15.3747 31.2651 14.2742C30.0034 13.1496 29.0674 11.4764 28.5668 9.32673Z" fill="#FDFFFC"/>
</svg>
