<svg width="16" height="17" viewBox="0 0 16 17" fill="none" xmlns="http://www.w3.org/2000/svg">
<path d="M14.362 5.23697C14.372 5.37764 14.372 5.51897 14.372 5.66097C14.372 9.99897 11.0693 15.001 5.032 15.001V14.999C3.24815 15.0014 1.5013 14.4904 0 13.527C0.859438 13.6305 1.73086 13.5637 2.56444 13.3302C3.39801 13.0967 4.17739 12.7012 4.858 12.1663C4.17296 12.1533 3.5091 11.9266 2.95925 11.5178C2.40941 11.109 2.00107 10.5386 1.79133 9.88631C2.28312 9.98113 2.7901 9.96197 3.27333 9.83031C2.53049 9.68015 1.86245 9.27769 1.38249 8.69117C0.902531 8.10465 0.640207 7.37018 0.64 6.61231V6.57097C1.09654 6.82539 1.60758 6.96625 2.13 6.98164C1.43498 6.51755 0.942945 5.80603 0.754066 4.99193C0.565187 4.17783 0.693661 3.32235 1.11333 2.59964C1.93774 3.61374 2.96621 4.44312 4.13197 5.03392C5.29773 5.62473 6.57471 5.96375 7.88 6.02897C7.7174 5.32552 7.791 4.5881 8.08944 3.93067C8.38788 3.27324 8.89454 2.73239 9.53111 2.39172C10.1677 2.05105 10.8987 1.92952 11.6113 2.04591C12.3239 2.1623 12.9782 2.51013 13.4733 3.03564C14.2088 2.89061 14.9141 2.62095 15.5587 2.23831C15.3137 2.99863 14.8007 3.64401 14.1153 4.05431C14.7659 3.97727 15.4011 3.80311 16 3.53764C15.5592 4.19683 15.0045 4.77226 14.362 5.23697Z" fill="white"/>
</svg>
