<svg width="16" height="17" viewBox="0 0 16 17" fill="none" xmlns="http://www.w3.org/2000/svg">
<g clip-path="url(#clip0_6109_4803)">
<path d="M3.632 0.5C3.28 0.516 2.816 0.548 2.608 0.596C2.288 0.66 1.984 0.756 1.744 0.884C1.44 1.028 1.184 1.22 0.96 1.444C0.72 1.684 0.528 1.94 0.384 2.244C0.256 2.484 0.16 2.788 0.096 3.108C0.048 3.316 0.016 3.78 0.016 4.132C0 4.276 0 4.468 0 4.564V12.436V12.868C0.016 13.22 0.048 13.684 0.096 13.892C0.16 14.212 0.256 14.516 0.384 14.756C0.528 15.06 0.72 15.316 0.944 15.54C1.184 15.78 1.44 15.972 1.744 16.116C1.984 16.244 2.288 16.34 2.608 16.404C2.816 16.452 3.28 16.484 3.632 16.484C3.776 16.5 3.968 16.5 4.064 16.5H11.936H12.368C12.72 16.484 13.184 16.452 13.392 16.404C13.712 16.34 14.016 16.244 14.256 16.116C14.56 15.972 14.816 15.78 15.04 15.556C15.28 15.316 15.472 15.06 15.616 14.756C15.744 14.516 15.84 14.212 15.904 13.892C15.952 13.684 15.984 13.22 15.984 12.868C16 12.724 16 12.532 16 12.436V4.132C15.984 3.78 15.952 3.316 15.904 3.108C15.84 2.788 15.744 2.484 15.616 2.244C15.472 1.94 15.28 1.684 15.056 1.46C14.816 1.22 14.56 1.028 14.256 0.884C14.016 0.756 13.712 0.66 13.392 0.596C13.184 0.548 12.72 0.516 12.368 0.516C12.224 0.5 12.032 0.5 11.936 0.5H3.632Z" fill="white"/>
<path fill-rule="evenodd" clip-rule="evenodd" d="M10.7733 9.55427C10.6308 9.48296 9.93022 9.1383 9.79956 9.09077C9.66894 9.04324 9.57397 9.01946 9.47897 9.16209C9.38394 9.30471 9.11084 9.62559 9.02772 9.72068C8.94459 9.81574 8.86147 9.82765 8.71897 9.7563C8.57644 9.68502 8.11728 9.53459 7.57297 9.04921C7.14934 8.67149 6.86331 8.20493 6.78019 8.0623C6.69706 7.91968 6.77134 7.84259 6.84269 7.77155C6.90678 7.70777 6.98519 7.60518 7.05644 7.52199C7.12769 7.4388 7.15144 7.37937 7.19894 7.2843C7.24644 7.18924 7.22269 7.10602 7.18706 7.03471C7.15144 6.9634 6.86644 6.26221 6.74769 5.97696C6.63203 5.69918 6.51453 5.73677 6.42706 5.7324C6.34403 5.72827 6.24894 5.7274 6.15394 5.7274C6.05891 5.7274 5.90456 5.76305 5.77391 5.90565C5.64328 6.04827 5.27516 6.39296 5.27516 7.09415C5.27516 7.79534 5.78578 8.47277 5.85703 8.56787C5.92831 8.66296 6.86194 10.1019 8.29147 10.719C8.63147 10.8658 8.89691 10.9534 9.10387 11.0191C9.44525 11.1275 9.75594 11.1122 10.0015 11.0755C10.2752 11.0346 10.8446 10.7309 10.9634 10.3981C11.0821 10.0653 11.0821 9.78009 11.0465 9.72068C11.0109 9.66124 10.9159 9.62559 10.7733 9.55427ZM8.17312 13.1034H8.17122C7.32059 13.1031 6.48631 12.8747 5.7585 12.4429L5.58541 12.3402L3.79125 12.8107L4.27016 11.062L4.15741 10.8827C3.68291 10.1282 3.43231 9.25612 3.43266 8.36071C3.43369 5.74787 5.56025 3.62212 8.17503 3.62212C9.44119 3.62262 10.6314 4.11621 11.5264 5.01193C12.4214 5.90765 12.914 7.09831 12.9135 8.36452C12.9124 10.9776 10.7859 13.1034 8.17312 13.1034ZM12.2076 4.33127C11.1308 3.25359 9.69878 2.6598 8.17309 2.65918C5.0295 2.65918 2.47097 5.21671 2.46972 8.36034C2.46931 9.36521 2.73191 10.3461 3.231 11.2107L2.42188 14.1652L5.44531 13.3724C6.27834 13.8266 7.21625 14.066 8.17081 14.0664H8.17316C11.3165 14.0664 13.8752 11.5085 13.8765 8.3649C13.8771 6.84143 13.2844 5.40896 12.2076 4.33127Z" fill="#110000"/>
</g>
<defs>
<clipPath id="clip0_6109_4803">
<rect width="16" height="16" fill="white" transform="translate(0 0.5)"/>
</clipPath>
</defs>
</svg>
