<svg width="12" height="14" viewBox="0 0 12 14" fill="none" xmlns="http://www.w3.org/2000/svg">
<path d="M11.6188 13.1004L7.92505 6.66914C8.0188 6.62852 8.09693 6.55977 8.15005 6.46914L11.3407 0.900391C11.4251 0.756641 11.4251 0.578516 11.3407 0.431641C11.2563 0.287891 11.1032 0.197266 10.9344 0.197266H7.8438C7.66255 0.197266 7.49693 0.303516 7.4188 0.469141L6.05005 3.40664L4.3438 0.434766C4.25943 0.287891 4.1063 0.200391 3.93755 0.200391H0.828177C0.662552 0.200391 0.509427 0.287891 0.425052 0.431641C0.340677 0.575391 0.337552 0.750391 0.418802 0.897266L3.79068 6.98477C3.7313 7.02539 3.68443 7.07852 3.64693 7.14414L0.375052 13.1066C0.296927 13.2504 0.300052 13.4285 0.381302 13.5723C0.465677 13.716 0.618802 13.8035 0.784427 13.8035H3.93755C4.12505 13.8035 4.2938 13.6941 4.36568 13.5223L5.70943 10.4535L7.4313 13.5598C7.51255 13.7098 7.67193 13.8004 7.84068 13.8004H11.2094C11.3751 13.8004 11.5313 13.7098 11.6157 13.566C11.7032 13.4223 11.7032 13.2441 11.6188 13.1004ZM7.8438 0.669141H10.9344L7.7438 6.23789L6.37505 3.81914L7.8438 0.669141ZM3.93755 13.3316H0.787552L4.0563 7.36602L5.48443 9.80352L3.93755 13.3316ZM7.8438 13.3316L0.828177 0.669141H3.93755L11.2126 13.3348H7.8438V13.3316Z" fill="#1A1A1A"/>
</svg>
