<svg width="48" height="35" viewBox="0 0 48 35" fill="none" xmlns="http://www.w3.org/2000/svg">
<path d="M24.153 0.441406H24.42C26.886 0.450406 39.381 0.540407 42.75 1.44641C43.7685 1.72291 44.6966 2.26187 45.4415 3.00943C46.1864 3.75699 46.7221 4.68696 46.995 5.70641C47.298 6.84641 47.511 8.35541 47.655 9.91241L47.685 10.2244L47.751 11.0044L47.775 11.3164C47.97 14.0584 47.994 16.6264 47.997 17.1874V17.4124C47.994 17.9944 47.967 20.7364 47.751 23.5924L47.727 23.9074L47.7 24.2194C47.55 25.9354 47.328 27.6394 46.995 28.8934C46.7221 29.9129 46.1864 30.8428 45.4415 31.5904C44.6966 32.3379 43.7685 32.8769 42.75 33.1534C39.27 34.0894 26.043 34.1554 24.21 34.1584H23.784C22.857 34.1584 19.023 34.1404 15.003 34.0024L14.493 33.9844L14.232 33.9724L13.719 33.9514L13.206 33.9304C9.876 33.7834 6.705 33.5464 5.244 33.1504C4.22588 32.8742 3.29805 32.3357 2.55315 31.5887C1.80826 30.8417 1.27237 29.9123 0.999 28.8934C0.666 27.6424 0.444 25.9354 0.294 24.2194L0.27 23.9044L0.246 23.5924C0.0970903 21.5597 0.015046 19.5226 0 17.4844L0 17.1154C0.006 16.4704 0.03 14.2414 0.192 11.7814L0.213 11.4724L0.222 11.3164L0.246 11.0044L0.312 10.2244L0.342 9.91241C0.486 8.35541 0.699 6.84341 1.002 5.70641C1.27491 4.68696 1.8106 3.75699 2.55552 3.00943C3.30045 2.26187 4.22852 1.72291 5.247 1.44641C6.708 1.05641 9.879 0.816406 13.209 0.666406L13.719 0.645406L14.235 0.627407L14.493 0.618407L15.006 0.597407C17.8611 0.505617 20.7174 0.454612 23.574 0.444406L24.153 0.441406ZM19.2 10.0714V24.5254L31.671 17.3014L19.2 10.0714Z" fill="#FDFFFC"/>
</svg>
